<svg width="33" height="23" viewBox="0 0 33 23" fill="none" xmlns="http://www.w3.org/2000/svg">
<path d="M30.1175 7.60778C30.0971 7.58186 30.0752 7.55722 30.0521 7.53399L28.949 6.4272C29.8647 6.20953 30.8493 5.40895 30.8493 4.58254C30.8493 3.62701 29.5783 3.29128 28.4911 3.29128C27.3562 3.29128 27.2236 4.10478 27.2094 4.67847L24.3615 1.80634C23.6723 1.16078 22.7905 0.783489 21.8654 0.738281L10.7672 0.738281C9.84205 0.783489 8.96028 1.16078 8.27106 1.80634L5.42314 4.67293C5.40723 4.09924 5.27642 3.28575 4.14149 3.28575C3.0543 3.28575 1.78325 3.62701 1.78325 4.57701C1.78325 5.39788 2.76968 6.19846 3.6854 6.42167L2.58053 7.52846C2.55792 7.5517 2.53667 7.57634 2.51689 7.60224C1.33424 8.6703 0.563477 10.6164 0.563477 12.0331V16.2463C0.564197 17.2299 0.926058 18.1759 1.57466 18.8897V20.5222C1.58117 20.9888 1.76484 21.4336 2.08533 21.7591C2.40582 22.0845 2.83696 22.2639 3.28411 22.258H5.35066C5.79752 22.2635 6.2282 22.0838 6.54831 21.7584C6.86842 21.433 7.05183 20.9885 7.05835 20.5222V20.1072H25.5742V20.5241C25.5808 20.9906 25.7644 21.4355 26.0849 21.7609C26.4054 22.0863 26.8365 22.2658 27.2837 22.2599H29.3485C29.7956 22.2658 30.2268 22.0863 30.5473 21.7609C30.8678 21.4355 31.0514 20.9906 31.0579 20.5241V18.8897C31.7065 18.1759 32.0684 17.2299 32.0691 16.2463V12.0331C32.0691 10.6164 31.2984 8.6703 30.1175 7.60778ZM9.3176 3.07915C9.7367 2.73811 10.2388 2.526 10.7672 2.46672H21.8654C22.3943 2.52624 22.8969 2.73831 23.3168 3.07915L27.0521 6.857H5.58225L9.3176 3.07915ZM1.84513 11.3967C1.84068 11.1541 1.88212 10.913 1.96709 10.6872C2.05206 10.4614 2.17889 10.2553 2.34031 10.0807C2.50172 9.90608 2.69456 9.76642 2.90778 9.66969C3.121 9.57297 3.35041 9.52108 3.58287 9.517C4.54455 9.517 7.68062 11.4373 7.68062 12.4684C7.68062 13.4996 4.54455 13.2819 3.58287 13.2819C3.34995 13.2779 3.1201 13.2258 2.90653 13.1287C2.69296 13.0317 2.49988 12.8915 2.3384 12.7163C2.17691 12.5411 2.0502 12.3343 1.96555 12.1079C1.88089 11.8814 1.83997 11.6397 1.84513 11.3967ZM7.05835 18.2625H6.3972H4.43318C4.00062 18.1377 3.59333 17.9321 3.23108 17.6556C3.10745 17.5574 2.99792 17.4412 2.9058 17.3107C2.83106 17.2046 2.77151 17.0878 2.72903 16.9639C2.48507 16.2426 2.99066 15.5804 2.99066 15.5804H6.34947L8.57159 18.2625H7.05835ZM21.1371 18.2625H11.4955C11.0126 18.2625 10.5495 18.0623 10.208 17.706C9.86653 17.3497 9.67469 16.8664 9.67469 16.3625H22.9579C22.9579 16.612 22.9108 16.8591 22.8193 17.0896C22.7278 17.3201 22.5937 17.5296 22.4246 17.706C22.2555 17.8824 22.0548 18.0224 21.8339 18.1179C21.613 18.2134 21.3762 18.2625 21.1371 18.2625ZM21.5596 15.0676H11.073C9.98052 15.0676 9.09309 13.6601 9.09309 11.9317H23.5448C23.5448 13.6509 22.6609 15.0639 21.5596 15.0639V15.0676ZM29.9089 16.9713C29.8671 17.0961 29.8075 17.2136 29.7321 17.3199C29.64 17.4505 29.5304 17.5666 29.4068 17.6648C29.043 17.9388 28.6345 18.1413 28.2012 18.2625H26.2354H24.061L26.2973 15.5859H29.6561C29.6561 15.5859 30.1546 16.2334 29.9089 16.9713ZM29.048 13.2819C28.088 13.2819 24.9502 13.5217 24.9502 12.485C24.9502 11.4484 28.088 9.5336 29.048 9.5336C29.5114 9.55504 29.9491 9.76226 30.2698 10.1121C30.5906 10.4619 30.7696 10.9273 30.7696 11.4115C30.7696 11.8956 30.5906 12.361 30.2698 12.7108C29.9491 13.0607 29.5114 13.2679 29.048 13.2893V13.2819Z" fill="#3C81D4"/>
</svg>
