<svg width="29" height="29" viewBox="0 0 29 29" fill="none" xmlns="http://www.w3.org/2000/svg">
<path d="M28.3295 25.5561L20.2533 18.469C22.0672 16.1984 22.943 13.3193 22.7007 10.4231C22.4584 7.52686 21.1164 4.83336 18.9504 2.89576C16.7844 0.958157 13.9587 -0.0764554 11.0538 0.00440649C8.14885 0.0852683 5.38513 1.27547 3.33024 3.33056C1.27534 5.38566 0.0852601 8.14964 0.00440606 11.0549C-0.076448 13.9601 0.958065 16.786 2.89548 18.9522C4.83289 21.1184 7.52613 22.4605 10.4221 22.7029C13.318 22.9452 16.1968 22.0694 18.4672 20.2553L21.8197 24.0746L25.5554 28.3322C26.3255 29.2216 27.7425 29.2236 28.5123 28.3322C28.8561 27.9398 29.03 27.4269 28.9957 26.9063C28.9615 26.3857 28.7218 25.9 28.3295 25.5561ZM11.3953 20.7283C9.23689 20.7284 7.14522 19.9801 5.47667 18.6108C3.80811 17.2415 2.6659 15.3359 2.24465 13.2188C1.8234 11.1017 2.14916 8.90402 3.16644 7.00019C4.18372 5.09636 5.82958 3.60418 7.82359 2.77788C9.8176 1.95159 12.0364 1.8423 14.102 2.46863C16.1675 3.09497 17.952 4.41818 19.1514 6.21283C20.3508 8.00747 20.891 10.1625 20.6798 12.3108C20.4686 14.459 19.5191 16.4676 17.9932 17.9942C17.1288 18.8637 16.1006 19.553 14.9681 20.0223C13.8356 20.4916 12.6212 20.7316 11.3953 20.7283Z" fill="#F6FDFF"/>
</svg>
