<svg width="25" height="32" viewBox="0 0 25 32" fill="none" xmlns="http://www.w3.org/2000/svg">
<path d="M12.1691 31.4645C15.2898 31.4645 17.8197 31.2285 17.8197 30.9373C17.8197 30.6462 15.2898 30.4102 12.1691 30.4102C9.04839 30.4102 6.51855 30.6462 6.51855 30.9373C6.51855 31.2285 9.04839 31.4645 12.1691 31.4645Z" fill="#D6DEE5"/>
<path d="M24.3358 12.1679C24.3358 22.5989 12.1679 30.9375 12.1679 30.9375C12.1679 30.9375 0 22.5989 0 12.1679C0 5.44773 5.44773 0 12.1679 0C18.8881 0 24.3358 5.44773 24.3358 12.1679Z" fill="#3C81D4"/>
<path d="M12.1671 21.8763C17.5288 21.8763 21.8753 17.5298 21.8753 12.1681C21.8753 6.80645 17.5288 2.45996 12.1671 2.45996C6.80547 2.45996 2.45898 6.80645 2.45898 12.1681C2.45898 17.5298 6.80547 21.8763 12.1671 21.8763Z" fill="#F6FCFF"/>
<path d="M12.1675 4.90235C12.1457 4.90235 12.1242 4.89806 12.1041 4.88973C12.084 4.8814 12.0657 4.86919 12.0504 4.8538C12.035 4.83841 12.0228 4.82014 12.0145 4.80004C12.0062 4.77993 12.0019 4.75839 12.002 4.73663V3.46729C12.002 3.42339 12.0194 3.38129 12.0504 3.35024C12.0815 3.3192 12.1236 3.30176 12.1675 3.30176C12.2114 3.30176 12.2535 3.3192 12.2845 3.35024C12.3156 3.38129 12.333 3.42339 12.333 3.46729V4.73663C12.333 4.75839 12.3288 4.77993 12.3205 4.80004C12.3122 4.82014 12.3 4.83841 12.2846 4.8538C12.2692 4.86919 12.251 4.8814 12.2309 4.88973C12.2108 4.89806 12.1892 4.90235 12.1675 4.90235Z" fill="#3C81D4"/>
<path d="M8.45173 5.89737C8.42263 5.89735 8.39406 5.88967 8.36886 5.87511C8.34367 5.86055 8.32275 5.83962 8.30821 5.81443L7.67354 4.71516C7.65158 4.67712 7.64564 4.63192 7.65702 4.5895C7.6684 4.54708 7.69616 4.51092 7.7342 4.48896C7.77224 4.46701 7.81745 4.46107 7.85987 4.47245C7.90229 4.48383 7.93845 4.51159 7.9604 4.54963L8.59507 5.64889C8.60965 5.67406 8.61733 5.70262 8.61736 5.7317C8.61738 5.76079 8.60974 5.78936 8.59521 5.81456C8.58068 5.83975 8.55976 5.86067 8.53457 5.8752C8.50939 5.88974 8.48081 5.89739 8.45173 5.89737Z" fill="#3C81D4"/>
<path d="M5.73224 8.61815C5.70323 8.6182 5.67473 8.61054 5.64965 8.59596L4.55039 7.96129C4.53128 7.95057 4.51448 7.93616 4.50098 7.9189C4.48748 7.90164 4.47754 7.88187 4.47173 7.86074C4.46593 7.83961 4.46438 7.81754 4.46717 7.7958C4.46996 7.77407 4.47704 7.75311 4.488 7.73413C4.49896 7.71515 4.51358 7.69854 4.531 7.68525C4.54843 7.67197 4.56832 7.66228 4.58953 7.65674C4.61073 7.6512 4.63282 7.64993 4.65452 7.653C4.67621 7.65606 4.69709 7.66341 4.71592 7.6746L5.81518 8.30927C5.84693 8.32742 5.87177 8.35557 5.88584 8.38933C5.8999 8.42308 5.90238 8.46055 5.89291 8.49587C5.88344 8.53119 5.86253 8.56237 5.83347 8.58456C5.8044 8.60675 5.7688 8.61869 5.73224 8.61851V8.61815Z" fill="#3C81D4"/>
<path d="M4.73523 12.3332H3.46589C3.42291 12.3318 3.38217 12.3137 3.35228 12.2828C3.32238 12.2519 3.30566 12.2106 3.30566 12.1676C3.30566 12.1246 3.32238 12.0833 3.35228 12.0524C3.38217 12.0215 3.42291 12.0034 3.46589 12.002H4.73523C4.77821 12.0034 4.81895 12.0215 4.84885 12.0524C4.87875 12.0833 4.89546 12.1246 4.89546 12.1676C4.89546 12.2106 4.87875 12.2519 4.84885 12.2828C4.81895 12.3137 4.77821 12.3318 4.73523 12.3332Z" fill="#3C81D4"/>
<path d="M4.63312 16.6838C4.59656 16.684 4.56096 16.6721 4.53189 16.6499C4.50283 16.6277 4.48192 16.5965 4.47245 16.5612C4.46298 16.5258 4.46546 16.4884 4.47952 16.4546C4.49358 16.4209 4.51843 16.3927 4.55017 16.3746L5.64943 15.7399C5.68741 15.7186 5.73225 15.7131 5.77424 15.7247C5.81623 15.7362 5.85198 15.7638 5.87375 15.8015C5.89552 15.8392 5.90156 15.884 5.89056 15.9261C5.87956 15.9682 5.8524 16.0043 5.81497 16.0266L4.71571 16.6613C4.69065 16.6759 4.66216 16.6837 4.63312 16.6838Z" fill="#3C81D4"/>
<path d="M7.81689 19.8698C7.78783 19.8698 7.75929 19.8622 7.73412 19.8477C7.70896 19.8331 7.68807 19.8122 7.67354 19.7871C7.65901 19.7619 7.65137 19.7334 7.65137 19.7043C7.65137 19.6753 7.65902 19.6467 7.67354 19.6215L8.30822 18.5223C8.33017 18.4842 8.36633 18.4565 8.40875 18.4451C8.45117 18.4337 8.49638 18.4397 8.53442 18.4616C8.57246 18.4836 8.60022 18.5197 8.6116 18.5622C8.62297 18.6046 8.61703 18.6498 8.59508 18.6878L7.96041 19.7871C7.94585 19.8123 7.92493 19.8332 7.89974 19.8477C7.87454 19.8622 7.84597 19.8699 7.81689 19.8698Z" fill="#3C81D4"/>
<path d="M12.1675 21.0352C12.1236 21.0352 12.0815 21.0177 12.0504 20.9867C12.0194 20.9556 12.002 20.9135 12.002 20.8696V19.6001C12.002 19.5562 12.0194 19.5141 12.0504 19.4831C12.0815 19.452 12.1236 19.4346 12.1675 19.4346C12.2114 19.4346 12.2535 19.452 12.2845 19.4831C12.3156 19.5141 12.333 19.5562 12.333 19.6001V20.8696C12.333 20.9135 12.3156 20.9556 12.2845 20.9867C12.2535 21.0177 12.2114 21.0352 12.1675 21.0352Z" fill="#3C81D4"/>
<path d="M16.5191 19.8698C16.49 19.8699 16.4615 19.8622 16.4363 19.8477C16.4111 19.8332 16.3901 19.8123 16.3756 19.7871L15.7409 18.6878C15.73 18.669 15.723 18.6482 15.7202 18.6266C15.7173 18.6051 15.7188 18.5832 15.7244 18.5622C15.73 18.5412 15.7397 18.5215 15.753 18.5042C15.7662 18.487 15.7827 18.4725 15.8016 18.4616C15.8204 18.4508 15.8412 18.4437 15.8628 18.4409C15.8843 18.438 15.9062 18.4395 15.9272 18.4451C15.9483 18.4507 15.9679 18.4605 15.9852 18.4737C16.0024 18.4869 16.0169 18.5034 16.0278 18.5223L16.6625 19.6215C16.677 19.6467 16.6846 19.6753 16.6846 19.7043C16.6846 19.7334 16.677 19.7619 16.6625 19.7871C16.6479 19.8122 16.627 19.8331 16.6019 19.8477C16.5767 19.8622 16.5482 19.8698 16.5191 19.8698Z" fill="#3C81D4"/>
<path d="M19.7029 16.6846C19.6739 16.6846 19.6454 16.6769 19.6204 16.6624L18.5211 16.0277C18.502 16.017 18.4852 16.0026 18.4717 15.9853C18.4582 15.968 18.4482 15.9483 18.4424 15.9271C18.4366 15.906 18.4351 15.8839 18.4379 15.8622C18.4407 15.8405 18.4477 15.8195 18.4587 15.8005C18.4697 15.7816 18.4843 15.7649 18.5017 15.7517C18.5191 15.7384 18.539 15.7287 18.5602 15.7231C18.5814 15.7176 18.6035 15.7163 18.6252 15.7194C18.6469 15.7225 18.6678 15.7298 18.6866 15.741L19.7859 16.3757C19.8176 16.3938 19.8425 16.422 19.8565 16.4557C19.8706 16.4895 19.8731 16.527 19.8636 16.5623C19.8541 16.5976 19.8332 16.6288 19.8042 16.651C19.7751 16.6732 19.7395 16.6851 19.7029 16.6849V16.6846Z" fill="#3C81D4"/>
<path d="M20.869 12.3332H19.5997C19.5567 12.3318 19.516 12.3137 19.4861 12.2828C19.4562 12.2519 19.4395 12.2106 19.4395 12.1676C19.4395 12.1246 19.4562 12.0833 19.4861 12.0524C19.516 12.0215 19.5567 12.0034 19.5997 12.002H20.869C20.912 12.0034 20.9527 12.0215 20.9826 12.0524C21.0125 12.0833 21.0292 12.1246 21.0292 12.1676C21.0292 12.2106 21.0125 12.2519 20.9826 12.2828C20.9527 12.3137 20.912 12.3318 20.869 12.3332Z" fill="#3C81D4"/>
<path d="M18.6038 8.61815C18.5673 8.61832 18.5317 8.60639 18.5026 8.5842C18.4735 8.56201 18.4526 8.53082 18.4432 8.4955C18.4337 8.46018 18.4362 8.42272 18.4502 8.38896C18.4643 8.35521 18.4891 8.32706 18.5209 8.30891L19.6201 7.6746C19.639 7.66341 19.6598 7.65606 19.6815 7.653C19.7032 7.64993 19.7253 7.6512 19.7465 7.65674C19.7677 7.66228 19.7876 7.67197 19.8051 7.68525C19.8225 7.69854 19.8371 7.71515 19.8481 7.73413C19.859 7.75311 19.8661 7.77407 19.8689 7.7958C19.8717 7.81754 19.8701 7.83961 19.8643 7.86074C19.8585 7.88187 19.8486 7.90164 19.8351 7.9189C19.8216 7.93616 19.8048 7.95057 19.7857 7.96129L18.6864 8.59596C18.6613 8.61054 18.6328 8.6182 18.6038 8.61815Z" fill="#3C81D4"/>
<path d="M15.8844 5.89737C15.8553 5.89739 15.8267 5.88974 15.8015 5.8752C15.7763 5.86067 15.7554 5.83975 15.7409 5.81456C15.7264 5.78936 15.7187 5.76079 15.7188 5.7317C15.7188 5.70262 15.7265 5.67406 15.741 5.64889L16.3757 4.54963C16.3977 4.51159 16.4338 4.48383 16.4762 4.47245C16.5187 4.46107 16.5639 4.46701 16.6019 4.48896C16.6399 4.51092 16.6677 4.54708 16.6791 4.5895C16.6905 4.63192 16.6845 4.67712 16.6626 4.71516L16.0279 5.81443C16.0134 5.83962 15.9924 5.86055 15.9672 5.87511C15.942 5.88967 15.9135 5.89735 15.8844 5.89737Z" fill="#3C81D4"/>
<path d="M15.4688 14.1933C15.4375 14.1933 15.4066 14.1853 15.3793 14.17L12.0781 12.3288C12.0555 12.3162 12.0358 12.2989 12.0204 12.2782C12.0049 12.2575 11.9939 12.2338 11.9882 12.2085L10.4156 5.22335C10.4049 5.17575 10.4135 5.12585 10.4396 5.08463C10.4657 5.0434 10.5071 5.01422 10.5547 5.00351C10.6023 4.9928 10.6522 5.00144 10.6934 5.02752C10.7346 5.0536 10.7638 5.09499 10.7745 5.14258L13 12L15.5585 13.8492C15.5941 13.869 15.6222 13.9 15.6383 13.9375C15.6543 13.975 15.6575 14.0168 15.6472 14.0563C15.637 14.0957 15.6138 14.1307 15.5816 14.1556C15.5493 14.1805 15.5096 14.1934 15.4688 14.1933Z" fill="#3C81D4"/>
</svg>
