<svg width="61" height="54" viewBox="0 0 61 54" fill="none" xmlns="http://www.w3.org/2000/svg">
<path d="M47.3389 19.7849L48.0163 19.6989C48.0163 19.6989 47.9195 18.6667 48.3066 18.4086C48.6937 18.4086 50.0485 18.5806 50.2421 18.7527C50.4356 18.9247 50.726 19.3548 50.6292 19.6989C50.5324 19.957 49.2744 20.129 48.5969 20.129C47.9195 20.129 47.5324 20.2151 47.5324 20.2151" fill="#AD202B"/>
<path opacity="0.1" d="M47.3389 19.7849L48.0163 19.6989C48.0163 19.6989 47.9195 18.6667 48.3066 18.4086C48.6937 18.4086 50.0485 18.5806 50.2421 18.7527C50.4356 18.9247 50.726 19.3548 50.6292 19.6989C50.5324 19.957 49.2744 20.129 48.5969 20.129C47.9195 20.129 47.5324 20.2151 47.5324 20.2151" fill="#AD202B"/>
<path d="M36.0159 32.9462L42.7901 32.8602C42.7901 32.8602 43.661 32.7742 44.1449 32.9462C44.6288 33.1183 50.2417 32.4301 50.2417 32.4301L50.3385 32.5161C50.3385 32.5161 50.8223 32.6882 51.0159 32.086C51.9836 26.0645 50.9191 22.9678 50.8223 22.6237C50.8223 22.3656 49.4675 21.5054 49.0804 21.3333C48.6933 21.1613 47.8223 20.4731 47.8223 20.4731C47.8223 20.4731 47.6288 20.2151 47.3385 19.5269C47.0481 18.9247 45.403 15.0538 43.8546 14.7097C42.403 14.3656 38.3385 14.0215 36.4998 14.0215C36.2094 14.0215 35.9191 14.0215 35.6288 14.0215C33.7901 14.0215 29.6288 14.2796 28.1772 14.7097C26.6288 15.1398 24.8869 18.9247 24.6933 19.5269C24.403 20.129 24.2094 20.4731 24.2094 20.4731C24.2094 20.4731 23.3385 21.1613 22.9514 21.3333C22.5643 21.5054 21.1127 22.3656 21.1127 22.7097C21.0159 22.9678 19.9514 26.1505 20.9191 32.1721C21.1127 32.7742 21.5965 32.6022 21.5965 32.6022L21.6933 32.5161C21.6933 32.5161 27.403 33.1183 27.7901 33.0323C28.2739 32.8602 29.1449 32.9462 29.1449 32.9462H36.0159Z" fill="#E63D32"/>
<path d="M50.2416 29.9355C50.2416 29.9355 44.5319 30.4516 44.048 30.5377C43.3706 30.6237 42.7899 30.7097 42.7899 30.7097L36.0158 30.7957L29.2416 30.7097C29.2416 30.7097 25.9512 30.1936 25.4674 30.2796C24.9835 30.4516 21.9835 30.0215 21.9835 30.0215C21.9835 30.0215 20.6287 27.3549 20.6287 26.3226C20.5319 27.785 20.6287 29.7635 21.0158 32.1721C21.3061 32.3441 21.7899 32.5161 21.7899 32.5161C21.7899 32.5161 27.4996 33.1183 27.8867 33.0323C28.3706 32.8602 29.2416 32.9463 29.2416 32.9463L36.0158 33.0323L42.7899 32.9463C42.7899 32.9463 43.6609 32.8602 44.1448 33.0323C44.6287 33.2043 50.2416 32.5161 50.2416 32.5161C50.2416 32.5161 50.5319 32.5162 51.0158 32.1721C51.4028 29.7635 51.4996 27.785 51.4028 26.3226C51.4028 27.3549 50.2416 29.9355 50.2416 29.9355Z" fill="#AD202B"/>
<path d="M21.8872 22.9677C21.8872 22.9677 21.2098 24.7742 22.2743 25.2903C23.1453 25.7204 23.4356 25.7204 23.4356 25.7204L24.3066 25.4624C24.3066 25.4624 26.2421 25.9785 27.0163 25.8925C27.7905 25.8065 28.4679 25.3763 28.4679 25.3763C28.4679 25.3763 27.3066 23.828 21.8872 22.9677Z" fill="#FFF7F7"/>
<path d="M21.1123 32.2581C21.1123 32.2581 21.2091 34.2366 21.9833 34.2366C22.7575 34.2366 24.693 34.3226 24.8865 34.2366C25.08 34.1506 25.5639 33.8065 25.5639 32.8602" fill="#1C1C1A"/>
<path d="M50.2417 22.9677C50.2417 22.9677 50.9191 24.7742 49.8546 25.2903C48.9836 25.7204 48.6933 25.7204 48.6933 25.7204L47.9191 25.4624C47.9191 25.4624 45.9836 25.9785 45.2094 25.8925C44.4352 25.8065 43.7578 25.3763 43.7578 25.3763C43.7578 25.3763 44.8223 23.828 50.2417 22.9677Z" fill="#FFF7F7"/>
<path d="M51.0161 32.2581C51.0161 32.2581 50.9193 34.2366 50.1451 34.2366C49.3709 34.2366 47.4354 34.3226 47.2419 34.2366C47.0483 34.1506 46.5645 33.8065 46.5645 32.8602" fill="#1C1C1A"/>
<path d="M27.6934 15.5699H44.4353C44.4353 15.5699 44.145 15.2258 43.7579 14.7097C42.2095 14.3656 38.3385 14.0215 36.4998 14.1075C36.2095 14.1075 35.9192 14.1075 35.6288 14.1075C33.7901 14.1075 29.9192 14.3656 28.3708 14.7097C28.1772 14.9678 27.8869 15.2258 27.6934 15.5699Z" fill="#1C1C1A"/>
<path d="M47.0486 20.3871C46.8551 19.4409 45.2099 16.1721 44.2422 15.4839C43.468 15.3979 41.2422 15.2258 39.3067 15.1398C37.1776 14.9678 34.9518 14.9678 32.8228 15.1398C30.8873 15.2258 28.7583 15.3979 27.9841 15.4839C27.0163 16.1721 25.468 19.6129 25.2744 20.5592C25.9518 20.5592 36.1131 20.4731 36.1131 20.4731" fill="#FFF7F7"/>
<path d="M41.6288 26.9247H30.9837C30.8869 26.9247 30.6934 26.8387 30.6934 26.6667V26.5806C30.6934 26.4946 30.7901 26.4086 30.9837 26.4086H41.6288C41.7256 26.4086 41.8224 26.4946 41.8224 26.5806V26.6667C41.9192 26.7527 41.8224 26.9247 41.6288 26.9247Z" fill="#1C1C1A"/>
<path d="M41.4351 28.043H31.177C31.0803 28.043 30.8867 27.957 30.8867 27.7849V27.6989C30.8867 27.6129 30.9835 27.4409 31.177 27.4409H41.4351C41.5319 27.4409 41.6287 27.5269 41.6287 27.6989V27.7849C41.6287 27.871 41.5319 28.043 41.4351 28.043Z" fill="#1C1C1A"/>
<path d="M41.1454 29.1613H31.468C31.3712 29.1613 31.2744 29.0753 31.2744 28.9892V28.9032C31.2744 28.8172 31.3712 28.7312 31.468 28.7312H41.1454C41.2422 28.7312 41.4357 28.8172 41.4357 28.9032V28.9892C41.4357 28.9892 41.2422 29.1613 41.1454 29.1613Z" fill="#1C1C1A"/>
<g opacity="0.21">
<path d="M36.5968 20.9032H9.69355C9.59677 20.9032 9.5 20.9893 9.5 21.0753V23.3979H10.0806V24.8602V35.0968V35.1828V37.5914C10.0806 37.6774 10.1774 37.7634 10.2742 37.7634H36.2097C36.3065 37.7634 36.4032 37.6774 36.4032 37.5914V35.1828V35.0968V24.8602V23.3979H35.2419H36.6936C36.7903 23.3979 36.8871 23.3118 36.8871 23.2258V21.1613C36.7903 20.9893 36.6936 20.9032 36.5968 20.9032Z" fill="black"/>
<path d="M16.7578 20.3011H15.403V18.0645C15.403 17.9785 15.3062 17.8925 15.2095 17.8925H13.274C13.1772 17.8925 13.0804 17.9785 13.0804 18.0645V20.3011H11.7256V20.9032H16.8546V20.3011H16.7578Z" fill="black"/>
<path d="M33.7901 20.3011H32.4352V18.0645C32.4352 17.9785 32.3385 17.8925 32.2417 17.8925H30.3062C30.2094 17.8925 30.1127 17.9785 30.1127 18.0645V20.3011H28.7578V20.9032H33.8868V20.3011H33.7901Z" fill="black"/>
</g>
<path d="M16.855 18.9247H14.3389V21.4194H16.855V18.9247Z" fill="#E63D32"/>
<path d="M33.9839 18.9247H31.4678V21.4194H33.9839V18.9247Z" fill="#1C1C1A"/>
<path d="M37.371 24.5161H11.4355V36.6452H37.371V24.5161Z" fill="#FFF7F7"/>
<path d="M38.145 36.5591H10.6611V39.2258H38.145V36.5591Z" fill="#1C1C1A"/>
<path opacity="0.1" d="M37.5646 24.5161H11.4355V26.0645H37.5646V24.5161Z" fill="black"/>
<path d="M38.0482 21.9355H10.6611V24.5161H38.0482V21.9355Z" fill="#1C1C1A"/>
<path d="M32.242 33.7204C33.792 33.7204 35.0485 32.6036 35.0485 31.2258C35.0485 29.8481 33.792 28.7312 32.242 28.7312C30.692 28.7312 29.4355 29.8481 29.4355 31.2258C29.4355 32.6036 30.692 33.7204 32.242 33.7204Z" fill="#1C1C1A"/>
<path d="M16.5643 33.7204C18.1142 33.7204 19.3707 32.6036 19.3707 31.2258C19.3707 29.8481 18.1142 28.7312 16.5643 28.7312C15.0143 28.7312 13.7578 29.8481 13.7578 31.2258C13.7578 32.6036 15.0143 33.7204 16.5643 33.7204Z" fill="#1C1C1A"/>
<path d="M30.5464 31.5673L34.0303 31.5673L34.0303 30.8792L30.5464 30.8792L30.5464 31.5673Z" fill="#FFF7F7"/>
<path d="M14.8223 30.7957H16.1771V29.5914H16.9513V30.7957H18.4029V31.5699H16.9513V32.7742H16.1771V31.5699H14.8223V30.7957Z" fill="#FFF7F7"/>
<path d="M23.9191 28.2151H25.661L24.0159 30.6237H25.661L23.1449 34.0645L24.1127 31.0538H22.7578L23.9191 28.2151Z" fill="#E63D32"/>
<path d="M18.2093 21.3333H12.8867V21.9355H18.2093V21.3333Z" fill="#1C1C1A"/>
<path d="M35.3382 21.3333H30.0156V21.9355H35.3382V21.3333Z" fill="#1C1C1A"/>
</svg>
