<svg width="268" height="206" viewBox="0 0 268 206" fill="none" xmlns="http://www.w3.org/2000/svg">
<path d="M31.3781 134.063V133.686H31.8871V116.569H34.7057V112.107H41.2351V96.8497H44.8145V86.0536H49.2094V70.3327H50.7802V86.0536H55.1805V96.8497H58.7545V112.107H65.2893V116.569H68.1134V134.063H69.0658V109.685H70.642V125.319H72.3934V88.1056H73.9696V103.734H78.3645V97.9617H80.4388V76.7469H81.6867V76.3828H83.7665V55.1679H85.2496V58.2922H109.621V48.8001H113.781V15.1211H115.406V48.8001H121.197V58.2922H123.868V102.953H136.341V89.5552H131.886V86.9472H136.341V83.5978H148.223V49.3628H151.184V44.1468H165.14V49.3628H167.225V96.618H173.755V118.581H177.099V101.086H179.923V96.618H186.452V81.3605H190.032V70.5777H194.427V54.8436H195.997V70.5777H200.392V81.3605H203.972V96.618H210.501V101.086H213.32V118.581H217.611V72.6164H219.181V88.2446H224.824V118.581H226.899V60.8936H228.984V39.6854H230.461V47.1916L241.178 53.4535V60.8936H246.202V118.581H249.672V135.169H252.047L253.7 177.983L29.9825 178.598V134.063H31.3781Z" fill="#F5F5F5"/>
<path d="M86.4011 134.57L86.6683 133.495C86.6683 133.495 82.9398 129.317 81.865 128.817C80.7903 128.317 74.3917 129.752 74.0536 130.37C73.7154 130.988 73.9062 133.669 74.0029 134.14C74.0996 134.612 79.8661 135.558 80.815 135.587C81.7638 135.616 86.4011 134.57 86.4011 134.57Z" fill="#556AD9"/>
<path d="M86.6669 133.497L86.3996 134.572C86.3996 134.572 88.8735 136.497 88.9672 136.625C89.0608 136.754 88.9222 137.313 88.9222 137.313L91.3905 137.265L91.3154 133.406C90.9533 133.635 90.5693 133.822 90.17 133.961C89.8177 134.035 86.6669 133.497 86.6669 133.497Z" fill="#FFC727"/>
<g opacity="0.1">
<path d="M86.6669 133.497L86.3996 134.572C86.3996 134.572 88.8735 136.497 88.9672 136.625C89.0608 136.754 88.9222 137.313 88.9222 137.313L91.3905 137.265L91.3154 133.406C90.9533 133.635 90.5693 133.822 90.17 133.961C89.8177 134.035 86.6669 133.497 86.6669 133.497Z" fill="black"/>
</g>
<path d="M132.706 174.514C133.169 184.826 137.203 197.41 145.647 197.246C146.475 197.23 157.789 197.246 158.524 196.964C165.283 194.373 169.054 180.88 168.059 169.058C167.281 159.845 164.375 149.568 157.23 148.468C156.755 148.394 144.863 148.708 144.346 148.719C135.821 148.872 132.205 163.417 132.706 174.514Z" fill="#263238"/>
<path d="M146.262 174.246C146.725 184.559 150.759 197.142 159.203 196.978C167.647 196.814 171.227 182.112 170.123 169.014C169.293 159.186 166.149 148.29 157.902 148.451C149.377 148.605 145.758 163.149 146.262 174.246Z" fill="#37474F"/>
<path d="M149.771 173.882C150.141 181.824 153.156 191.515 159.398 191.393C165.64 191.272 168.246 179.956 167.408 169.86C166.768 162.295 164.413 153.902 158.321 154.02C152.01 154.143 149.372 165.341 149.771 173.882Z" fill="#C7C7C7"/>
<path d="M160.337 155.694C160.265 158.944 160.024 169.211 159.371 169.224C158.828 169.234 157.035 159.556 156.405 156.055C157.078 155.655 157.831 155.439 158.599 155.424C159.188 155.413 159.775 155.504 160.337 155.694Z" fill="#263238"/>
<path d="M158.221 169.873C157.88 170.16 154.731 165.58 152.443 162.143C152.884 160.679 153.532 159.299 154.366 158.052C155.883 162.009 158.68 169.486 158.221 169.873Z" fill="#263238"/>
<path d="M157.664 171.078C157.516 171.499 154.196 169.937 151.205 168.44C151.329 167.143 151.528 165.855 151.801 164.584C154.563 167.242 157.844 170.553 157.664 171.078Z" fill="#263238"/>
<path d="M157.383 172.532C157.425 173.017 154.125 173.78 151.101 174.348C151.097 174.154 151.075 173.954 151.068 173.78C151.019 172.747 151.027 171.673 151.061 170.583C154.093 171.199 157.339 171.989 157.383 172.532Z" fill="#263238"/>
<path d="M152.172 181.067C151.795 179.628 151.51 178.163 151.321 176.683C154.187 175.17 157.54 173.538 157.802 174.038C158.063 174.539 154.647 178.37 152.172 181.067Z" fill="#263238"/>
<path d="M155.907 188.385C154.705 187.158 153.763 185.664 153.145 184.006C154.941 180.529 158.017 174.77 158.516 175.123C159.015 175.477 156.658 185.343 155.907 188.385Z" fill="#263238"/>
<path d="M162.435 188.899C161.648 189.566 160.681 189.938 159.68 189.959C159.295 189.97 158.91 189.931 158.532 189.843C158.578 187.143 158.82 175.94 159.498 175.927C160.034 175.921 161.773 185.253 162.435 188.899Z" fill="#263238"/>
<path d="M165.907 182.302C165.553 183.8 165.012 185.238 164.298 186.576C162.762 182.604 160.317 175.977 160.754 175.593C161.07 175.342 163.726 179.1 165.907 182.302Z" fill="#263238"/>
<path d="M166.805 176.379C166.73 177.563 166.599 178.742 166.41 179.911C163.994 177.535 161.51 174.943 161.673 174.478C161.786 174.101 164.25 175.162 166.805 176.379Z" fill="#263238"/>
<path d="M166.801 171.169C166.87 172.257 166.891 173.354 166.865 174.44C164.345 173.916 161.996 173.307 161.957 172.83C161.927 172.412 164.3 171.75 166.801 171.169Z" fill="#263238"/>
<path d="M166.638 169.087C164.234 170.381 161.821 171.549 161.597 171.111C161.373 170.674 163.841 167.622 166.024 165.057C166.297 166.388 166.502 167.733 166.638 169.087Z" fill="#263238"/>
<path d="M165.266 162.153C163.534 165.549 161.099 170.128 160.648 169.801C160.197 169.474 162.023 160.996 162.826 157.444C163.933 158.813 164.765 160.417 165.266 162.153Z" fill="#263238"/>
<path d="M37.0855 176.373C37.5487 186.686 41.5829 199.269 50.0269 199.105C50.8545 199.089 62.1688 199.106 62.9037 198.823C69.6628 196.233 73.4343 182.739 72.4384 170.918C71.6611 161.705 68.7549 151.428 61.6103 150.327C61.1347 150.254 49.2434 150.568 48.7293 150.578C40.2012 150.732 36.5852 165.276 37.0855 176.373Z" fill="#263238"/>
<path d="M50.6414 176.109C51.1046 186.422 55.1389 199.005 63.5828 198.841C72.0268 198.677 75.607 183.976 74.5024 170.877C73.6766 161.049 70.5286 150.154 62.2815 150.314C53.7572 150.468 50.1411 165.012 50.6414 176.109Z" fill="#37474F"/>
<path d="M54.1494 175.741C54.519 183.683 57.5342 193.374 63.776 193.252C70.0178 193.131 72.6244 181.816 71.7752 171.72C71.1356 164.154 68.784 155.761 62.688 155.88C56.3879 156.002 53.7535 167.2 54.1494 175.741Z" fill="#C7C7C7"/>
<path d="M64.7195 157.554C64.6511 160.784 64.4028 171.082 63.7538 171.095C63.2105 171.106 61.4175 161.427 60.7877 157.926C61.4605 157.526 62.2136 157.31 62.9821 157.295C63.5699 157.281 64.1564 157.368 64.7195 157.554Z" fill="#263238"/>
<path d="M62.5988 171.729C62.2579 172.016 59.1087 167.435 56.8207 163.998C57.2616 162.535 57.9102 161.154 58.7435 159.907C60.2611 163.864 63.0581 171.341 62.5988 171.729Z" fill="#263238"/>
<path d="M62.0423 172.941C61.8937 173.362 58.5734 171.801 55.5827 170.304C55.7085 169.006 55.9075 167.718 56.1788 166.448C58.9441 169.105 62.2218 172.416 62.0423 172.941Z" fill="#263238"/>
<path d="M61.7607 174.396C61.803 174.88 58.5025 175.643 55.479 176.211C55.4752 176.018 55.4713 175.817 55.446 175.643C55.3967 174.61 55.405 173.536 55.4385 172.446C58.4705 173.062 61.7137 173.852 61.7607 174.396Z" fill="#263238"/>
<path d="M56.5507 182.926C56.1736 181.488 55.8892 180.023 55.6995 178.542C58.5661 177.03 61.919 175.398 62.1804 175.898C62.4418 176.398 59.0295 180.23 56.5507 182.926Z" fill="#263238"/>
<path d="M60.285 190.244C59.0841 189.016 58.1419 187.522 57.5227 185.865C59.3188 182.389 62.3946 176.629 62.8938 176.983C63.3931 177.336 61.0355 187.202 60.285 190.244Z" fill="#263238"/>
<path d="M66.8139 190.759C66.0266 191.426 65.0599 191.797 64.0589 191.819C63.6736 191.829 63.2885 191.79 62.9114 191.703C62.961 189.002 63.199 177.8 63.8808 177.786C64.4132 177.78 66.1521 187.113 66.8139 190.759Z" fill="#263238"/>
<path d="M70.284 184.165C69.9304 185.663 69.389 187.101 68.6747 188.439C67.1386 184.467 64.6973 177.84 65.1311 177.457C65.4472 177.206 68.1026 180.963 70.284 184.165Z" fill="#263238"/>
<path d="M71.1683 178.238C71.0937 179.423 70.962 180.602 70.7738 181.771C68.3568 179.394 65.8736 176.802 66.036 176.337C66.1636 175.96 68.628 177.021 71.1683 178.238Z" fill="#263238"/>
<path d="M71.1812 173.032C71.2498 174.12 71.2712 175.217 71.2449 176.303C68.7253 175.779 66.3756 175.17 66.3371 174.693C66.3071 174.275 68.6796 173.613 71.1812 173.032Z" fill="#263238"/>
<path d="M71.0161 170.946C68.6121 172.24 66.1985 173.408 65.9748 172.971C65.7511 172.533 68.2193 169.481 70.4016 166.917C70.6747 168.247 70.8798 169.592 71.0161 170.946Z" fill="#263238"/>
<path d="M69.6442 164.012C67.9122 167.409 65.4773 171.987 65.026 171.661C64.5746 171.334 66.4012 162.856 67.2038 159.303C68.3114 160.673 69.1427 162.277 69.6442 164.012Z" fill="#263238"/>
<path d="M219.695 172.822C220.158 183.135 224.192 195.718 232.636 195.554C233.464 195.538 244.778 195.555 245.513 195.272C252.269 192.682 256.044 179.188 255.048 167.367C254.271 158.154 251.364 147.877 244.22 146.777C243.744 146.703 231.853 147.017 231.335 147.027C222.811 147.181 219.195 161.725 219.695 172.822Z" fill="#263238"/>
<path d="M233.251 172.555C233.714 182.867 237.748 195.451 246.192 195.287C254.636 195.122 258.213 180.421 257.112 167.323C256.282 157.495 253.138 146.599 244.891 146.759C236.366 146.913 232.75 161.457 233.251 172.555Z" fill="#37474F"/>
<path d="M236.751 172.191C237.12 180.133 240.135 189.823 246.377 189.702C252.619 189.58 255.233 178.265 254.384 168.169C253.744 160.603 251.389 152.21 245.297 152.329C238.996 152.451 236.358 163.649 236.751 172.191Z" fill="#C7C7C7"/>
<path d="M247.341 154.003C247.262 157.253 247.013 167.52 246.364 167.533C245.821 167.543 244.028 157.865 243.398 154.364C244.065 153.967 244.812 153.751 245.574 153.734C246.172 153.719 246.769 153.81 247.341 154.003Z" fill="#263238"/>
<path d="M245.21 168.182C244.869 168.469 241.72 163.888 239.432 160.452C239.873 158.988 240.521 157.608 241.355 156.361C242.872 160.318 245.666 167.794 245.21 168.182Z" fill="#263238"/>
<path d="M244.652 169.386C244.503 169.808 241.183 168.246 238.192 166.749C238.316 165.451 238.515 164.163 238.788 162.893C241.55 165.551 244.831 168.862 244.652 169.386Z" fill="#263238"/>
<path d="M244.385 170.841C244.427 171.326 241.126 172.088 238.103 172.656C238.099 172.463 238.095 172.262 238.07 172.089C238.021 171.056 238.029 169.982 238.063 168.892C241.076 169.508 244.323 170.297 244.385 170.841Z" fill="#263238"/>
<path d="M239.16 179.376C238.783 177.937 238.499 176.472 238.309 174.991C241.175 173.479 244.528 171.847 244.79 172.347C245.051 172.847 241.635 176.679 239.16 179.376Z" fill="#263238"/>
<path d="M242.895 186.693C241.693 185.466 240.75 183.972 240.132 182.314C241.928 178.838 245.001 173.078 245.503 173.432C246.006 173.785 243.641 183.651 242.895 186.693Z" fill="#263238"/>
<path d="M249.423 187.208C248.636 187.875 247.669 188.247 246.668 188.268C246.283 188.278 245.898 188.239 245.521 188.152C245.567 185.451 245.805 174.249 246.487 174.236C247.004 174.23 248.761 183.562 249.423 187.208Z" fill="#263238"/>
<path d="M252.895 180.61C252.542 182.108 252 183.546 251.286 184.885C249.75 180.912 247.305 174.285 247.742 173.902C248.059 173.651 250.714 177.408 252.895 180.61Z" fill="#263238"/>
<path d="M253.779 174.688C253.704 175.872 253.572 177.051 253.384 178.22C250.967 175.844 248.484 173.251 248.646 172.786C248.774 172.409 251.235 173.47 253.779 174.688Z" fill="#263238"/>
<path d="M253.791 169.477C253.859 170.565 253.881 171.662 253.854 172.748C251.335 172.225 248.985 171.615 248.946 171.138C248.916 170.721 251.3 170.059 253.791 169.477Z" fill="#263238"/>
<path d="M253.625 167.396C251.221 168.69 248.808 169.857 248.584 169.42C248.36 168.982 250.829 165.946 252.993 163.382C253.271 164.706 253.482 166.046 253.625 167.396Z" fill="#263238"/>
<path d="M252.255 160.461C250.523 163.858 248.088 168.437 247.636 168.11C247.185 167.783 249.008 159.305 249.814 155.753C250.922 157.122 251.753 158.726 252.255 160.461Z" fill="#263238"/>
<path d="M170.628 189.157L227.577 188.049C227.577 188.049 232.605 178.778 232.872 177.324C233.14 175.871 231.285 146.695 245.219 146.424C257.364 146.188 257.394 175.509 257.394 175.509L258.823 173.015L259.075 168.727L258.078 166.209C258.078 166.209 259.511 148.198 258.628 145.741C257.745 143.283 250.127 133.05 249.617 132.516C249.107 131.981 240.882 130.633 240.314 130.103C239.745 129.574 216.433 109.562 206.185 107.35C195.936 105.137 173.651 103.641 159.334 103.919C145.016 104.197 112.412 109.015 109.755 110.034C107.097 111.053 83.0527 136.466 83.0527 136.466C83.0527 136.466 56.9749 140.612 53.4803 141.525C49.9857 142.437 36.8573 152.288 36.3083 153.503C35.7593 154.717 34.3075 168.209 34.3075 168.209C34.3075 168.209 33.034 171.553 32.9946 172.339C32.9552 173.125 34.8737 185.88 35.0945 186.543C35.3153 187.206 37.8421 190.168 38.4046 190.398C38.9671 190.628 131.84 190.16 132.976 189.889C134.113 189.618 139.432 187.833 140.309 187.169C141.186 186.504 142.174 148.748 158.157 148.437C172.063 148.166 171.508 177.01 170.628 189.157Z" fill="#7485E0"/>
<path opacity="0.1" d="M92.9368 190.28C67.2883 190.431 38.7317 190.521 38.4192 190.397C37.8605 190.171 35.3443 187.196 35.1128 186.542C34.8812 185.887 32.9516 173.124 33.0128 172.338C33.0741 171.551 34.3221 168.203 34.3221 168.203C34.3221 168.203 35.7885 154.716 36.3229 153.501C36.8574 152.287 49.9929 142.432 53.4913 141.524C56.9896 140.615 83.0636 136.461 83.0636 136.461C83.0636 136.461 59.4766 142.654 58.292 143.822C57.1075 144.99 48.1158 155.995 47.0928 157.594C46.0698 159.193 46.1389 171.368 45.8266 172.377C45.5143 173.385 43.4161 179.71 43.1965 180.799C42.977 181.889 44.0827 186.229 44.425 186.578C44.7673 186.926 90.7821 190.136 92.9368 190.28Z" fill="black"/>
<path opacity="0.1" d="M170.628 189.157C171.431 178.129 171.956 153.347 161.657 149.072C166.894 149.992 174.355 159.087 175.128 183.271L227.578 188.049L170.628 189.157Z" fill="black"/>
<g opacity="0.6">
<path d="M225.924 172.443C226.278 166.585 227.323 160.803 229.036 155.237C229.473 153.845 229.983 152.481 230.565 151.153C231.136 149.815 231.803 148.527 232.559 147.302C233.303 146.061 234.178 144.918 235.166 143.896C235.663 143.379 236.191 142.898 236.746 142.456C237.319 142.035 237.921 141.663 238.548 141.344C239.797 140.695 241.154 140.32 242.539 140.24C243.923 140.117 245.317 140.319 246.624 140.831C249.252 141.87 251.284 144.127 252.736 146.602C254.163 149.116 255.267 151.827 256.019 154.661C256.788 157.475 257.332 160.355 257.645 163.269C257.25 160.374 256.626 157.521 255.78 154.74C254.989 151.952 253.855 149.291 252.409 146.829C250.933 144.434 248.976 142.262 246.466 141.296C245.212 140.816 243.879 140.635 242.556 140.765C241.234 140.847 239.94 141.213 238.751 141.841C238.151 142.142 237.575 142.495 237.028 142.897C236.491 143.318 235.98 143.776 235.498 144.269C234.528 145.261 233.668 146.371 232.936 147.579C231.471 150.012 230.284 152.628 229.4 155.372C228.493 158.117 227.761 160.927 227.208 163.782C226.628 166.64 226.199 169.532 225.924 172.443Z" fill="white"/>
<path d="M139.575 174.124C139.92 168.402 140.925 162.751 142.567 157.303C143.387 154.566 144.504 151.945 145.894 149.494C146.612 148.274 147.432 147.128 148.344 146.072C149.282 145.029 150.345 144.128 151.505 143.393C152.7 142.71 153.991 142.244 155.326 142.013C156.664 141.826 158.021 141.885 159.342 142.187C162.002 142.81 164.313 144.605 166.019 146.813C167.704 149.047 169.058 151.551 170.029 154.235C171.011 156.899 171.745 159.661 172.221 162.481C171.666 159.686 170.856 156.957 169.802 154.334C168.802 151.698 167.427 149.246 165.728 147.068C164.009 144.95 161.795 143.225 159.245 142.651C157.976 142.369 156.673 142.321 155.391 142.509C154.115 142.737 152.883 143.19 151.744 143.851C150.621 144.552 149.591 145.415 148.683 146.416C147.787 147.441 146.981 148.554 146.275 149.739C144.897 152.157 143.772 154.734 142.923 157.422C142.053 160.111 141.348 162.859 140.814 165.649C140.254 168.446 139.84 171.276 139.575 174.124Z" fill="white"/>
<path d="M170.691 152.195C174.315 150.987 177.905 149.745 181.526 148.57L201.829 146.075L222.142 143.706L222.117 143.707L228.733 141.088L235.369 138.535L228.791 141.26L222.209 143.922L222.183 143.923L201.883 146.402L181.566 148.747C177.964 149.938 174.338 151.05 170.691 152.195Z" fill="white"/>
<path d="M85.9523 136.41L75.0043 141.726L64.041 146.999L64.0911 146.951L59.8572 155.985L59.7478 155.794C70.414 155.685 81.0792 155.521 91.7465 155.472L91.6704 155.497L104.234 147.169L119.973 141.763L135.756 136.396L120.056 141.927L104.322 147.4L104.348 147.4L91.8293 155.79L91.7933 155.814L91.7496 155.815C81.0839 155.955 70.4162 155.985 59.7495 156.07L59.5453 156.074L59.6363 155.879L63.9071 146.864L63.9064 146.828L63.9392 146.828L74.947 141.589L85.9523 136.41Z" fill="white"/>
</g>
<g opacity="0.3">
<path d="M85.1309 136.426L62.9292 142.589L60.1617 143.381C59.7011 143.512 59.2481 143.659 58.7913 143.802L58.4727 143.923C58.4204 143.94 58.3695 143.962 58.3207 143.989L58.2027 144.105C58.0341 144.271 57.8779 144.451 57.7353 144.643C56.5222 146.214 55.4171 147.905 54.2821 149.558C52.0383 152.897 49.8278 156.259 47.621 159.626C49.7424 156.182 51.8642 152.762 54.071 149.396C55.1762 147.709 56.2852 146.033 57.505 144.427C57.6595 144.215 57.8301 144.018 58.0151 143.837L58.1655 143.696C58.223 143.666 58.2822 143.639 58.3427 143.617L58.7048 143.48C59.1651 143.333 59.6217 143.178 60.0862 143.058L62.8497 142.251C66.55 141.226 70.2558 140.233 73.9671 139.272C77.6784 138.31 81.3996 137.361 85.1309 136.426Z" fill="black"/>
<path d="M157.076 135.988L150.34 138.436L143.592 140.841L130.1 145.721C127.855 146.531 125.606 147.34 123.383 148.22C122.28 148.669 121.215 149.218 120.198 149.861L117.06 151.663L110.791 155.27L104.492 158.822L110.715 155.109L116.961 151.436L120.084 149.607C121.104 148.946 122.175 148.382 123.286 147.922C125.512 147.026 127.75 146.197 129.995 145.372L143.507 140.606L150.274 138.26L157.076 135.988Z" fill="black"/>
<path d="M175.086 181.389L181.646 181.112L188.174 180.902L201.266 180.43L214.356 180.041L220.898 179.807L222.535 179.744L223.351 179.696C223.482 179.694 223.635 179.691 223.744 179.657C223.853 179.624 223.945 179.499 224.042 179.407C224.754 178.521 225.377 177.545 226.004 176.586C225.396 177.565 224.798 178.551 224.105 179.469C224.008 179.565 223.935 179.721 223.779 179.751C223.641 179.781 223.501 179.799 223.36 179.807L222.541 179.874L220.905 179.985L214.346 180.286L201.259 180.793L188.164 181.143L181.602 181.31L175.086 181.389Z" fill="black"/>
<path d="M220.066 133.043C220.826 136.628 221.57 140.217 222.296 143.811L222.297 143.858L221.158 152.441L219.979 161.021C219.198 166.736 218.367 172.447 217.486 178.153C218.179 172.419 218.909 166.692 219.676 160.972L220.844 152.392L222.048 143.819L222.049 143.867C221.369 140.265 220.708 136.657 220.066 133.043Z" fill="black"/>
<path d="M183.952 134.457C183.232 139.207 182.48 143.959 181.694 148.71L181.694 148.663C181.738 153.822 181.765 158.979 181.776 164.134L181.766 171.87L181.705 179.607L181.554 171.87L181.469 164.136C181.416 158.978 181.4 153.819 181.395 148.665L181.394 148.633C182.223 143.904 183.076 139.179 183.952 134.457Z" fill="black"/>
<path d="M232.83 129.244C233.33 130.77 233.783 132.308 234.24 133.847C234.697 135.385 235.128 136.928 235.53 138.483L235.531 138.527L235.532 138.562C235.321 139.707 235.12 140.847 234.887 141.985C234.654 143.122 234.432 144.259 234.177 145.393C234.322 144.238 234.484 143.086 234.664 141.938C234.831 140.79 235.028 139.645 235.221 138.497L235.222 138.58C234.776 137.037 234.385 135.482 233.965 133.931C233.544 132.38 233.178 130.816 232.83 129.244Z" fill="black"/>
<path d="M173.53 162.481L180.279 161.793L187.032 161.16L200.535 159.895L214.052 158.756L220.81 158.186L227.573 157.676L220.825 158.364L214.071 158.996L200.564 160.257L187.051 161.397L180.293 161.966L173.53 162.481Z" fill="black"/>
<path d="M211.575 135.354C211.718 135.947 211.839 136.533 211.975 137.142L211.882 137.069C212.937 136.914 213.988 136.751 215.047 136.632C216.106 136.513 217.157 136.366 218.216 136.267L218.085 136.47L217.736 134.82L217.88 134.931C216.711 135.029 215.539 135.127 214.362 135.177C215.521 134.965 216.689 134.804 217.853 134.64L217.969 134.637L218.001 134.767L218.398 136.409L218.441 136.59L218.267 136.613C217.212 136.752 216.153 136.867 215.093 136.975C214.034 137.082 212.975 137.174 211.915 137.261L211.835 137.263L211.833 137.18C211.73 136.566 211.642 135.96 211.575 135.354Z" fill="black"/>
<path d="M40.0674 163.195C39.7051 165.571 39.2225 167.948 38.7465 170.294L38.5558 171.178L38.509 171.396L38.4893 171.507C38.4903 171.558 38.4893 171.507 38.4492 171.508C38.4517 171.638 38.455 171.808 38.4834 171.953C38.5391 172.568 38.6055 173.17 38.6504 173.789C38.7508 175.015 38.8366 176.237 38.8857 177.447C38.6986 176.267 38.5516 175.086 38.4156 173.904C38.3386 173.322 38.2904 172.722 38.228 172.136L38.179 171.683C38.1601 171.607 38.1586 171.527 38.1745 171.45L38.1942 171.339L38.2373 171.117L38.4097 170.23C38.9328 167.867 39.4378 165.517 40.0674 163.195Z" fill="black"/>
<path d="M123.245 161.581C123.717 162.756 124.142 163.98 124.566 165.187C124.991 166.394 125.394 167.61 125.768 168.834L125.769 168.866L125.769 168.89C125.787 169.809 125.805 170.724 125.779 171.652C125.753 172.58 125.756 173.492 125.72 174.416C125.644 173.502 125.589 172.584 125.549 171.657C125.509 170.73 125.481 169.823 125.452 168.896L125.453 168.947C125.035 167.74 124.676 166.507 124.287 165.287C123.899 164.067 123.565 162.823 123.245 161.581Z" fill="black"/>
<path d="M33.0332 172.87L39.4654 179.537L39.429 179.538L61.9766 179.913C65.7344 179.97 69.493 180.066 73.2501 180.088L84.5191 179.841L129.607 179.087L138.715 176.51L129.649 179.204L84.5626 180.2L73.2889 180.395C69.5314 180.354 65.7724 180.238 62.0143 180.165L39.4675 179.644L39.4456 179.644L33.0332 172.87Z" fill="black"/>
</g>
<path d="M189.677 133.42C190.422 134.23 219.765 131.789 220.43 131.693C221.096 131.597 232.276 129.051 232.787 128.476C233.297 127.902 214.658 113.941 213.083 113.249C211.509 112.557 194.481 111.681 192.156 112.748C190.36 113.588 188.824 132.489 189.677 133.42Z" fill="#263238"/>
<path d="M191.589 132.511C192.282 133.248 219.075 131.022 219.686 130.935C220.297 130.848 230.508 128.518 230.972 127.996C231.436 127.474 214.411 114.716 212.972 114.081C211.534 113.446 195.973 112.648 193.851 113.624C192.196 114.391 190.788 131.663 191.589 132.511Z" fill="#37474F"/>
<g opacity="0.1">
<path d="M209.867 113.619L191.513 126.35C191.764 122.71 192.277 118.334 192.905 115.768L196.58 113.238C201.011 113.102 205.447 113.229 209.867 113.619Z" fill="white"/>
<path d="M224.59 122.537L211.527 131.597C209.112 131.782 206.428 131.981 203.801 132.142L221.292 120.02C222.402 120.851 223.524 121.706 224.59 122.537Z" fill="white"/>
<path d="M230.115 127.018L226.908 129.227C226.135 129.428 225.322 129.629 224.523 129.822L229.439 126.415C229.691 126.643 229.918 126.84 230.115 127.018Z" fill="white"/>
</g>
<path d="M211.698 113.823C212.221 113.904 218.622 130.74 218.515 131.058C218.408 131.375 219.715 131.09 219.608 131.013C219.501 130.936 212.642 114.701 212.822 114.007C212.91 113.662 211.698 113.823 211.698 113.823Z" fill="#263238"/>
<path d="M85.1301 136.422C85.8593 136.408 155.264 136.021 157.076 135.986C158.888 135.95 183.891 134.157 184.194 133.97C184.497 133.783 186.568 114.066 185.793 112.479C185.58 112.045 151.928 110.817 147.801 110.897C143.674 110.977 109.885 113.213 108.098 113.603C106.311 113.993 83.8974 136.426 85.1301 136.422Z" fill="#263238"/>
<path d="M87.2707 135.427C87.9708 135.414 153.174 135.053 154.876 135.02C156.579 134.987 180.771 133.289 181.056 133.114C181.341 132.938 182.636 115.511 181.907 114.017C181.709 113.607 149.386 112.471 145.511 112.546C141.635 112.622 109.883 114.739 108.212 115.087C106.541 115.436 86.1147 135.434 87.2707 135.427Z" fill="#37474F"/>
<path opacity="0.1" d="M120.848 114.069L90.0893 135.413L104.064 135.331L136.165 113.053C131.498 113.345 125.83 113.724 120.848 114.069ZM163.749 113.053L131.875 135.173L124.888 135.214L157.154 112.826L163.749 113.053ZM181.73 126.163C181.597 128.139 181.439 129.969 181.322 131.251L178.231 133.395C176.257 133.559 173.442 133.772 170.448 133.988L181.73 126.163ZM175.043 113.532L143.961 135.099L142.419 135.129L173.605 113.457L175.043 113.532ZM115.912 114.418L89.1989 132.955C90.042 132.047 91.1075 130.945 92.3022 129.737L114.197 114.546C114.743 114.511 115.315 114.465 115.912 114.418Z" fill="white"/>
<path d="M112.94 155.527C111.991 156.595 113.816 163.076 115.324 163.529C116.832 163.981 126.971 162.256 128.084 161.911C129.197 161.565 140.57 157.646 141.514 156.518C142.459 155.391 143.168 146.106 142.116 145.479C141.065 144.852 123.987 150.019 122.156 150.603C120.325 151.188 113.739 154.615 112.94 155.527Z" fill="white"/>
<path d="M35.6068 160.36C36.0169 161.193 38.8591 164.244 39.4253 164.663C39.9915 165.083 43.3501 165.617 43.7355 165.369C44.121 165.121 46.1419 160.073 46.0671 159.229C45.9924 158.386 41.4134 149.302 40.6366 149.495C39.8599 149.688 35.6786 152.611 35.4737 153.519C35.2689 154.427 35.1735 159.461 35.6068 160.36Z" fill="white"/>
<path d="M35.8518 160.065C35.8234 160.669 37.3327 162.507 37.5194 162.732C36.8154 162.008 36.1759 161.215 35.6096 160.361C35.1544 159.462 35.2644 154.428 35.4766 153.524C35.6888 152.62 39.8627 149.693 40.6357 149.496C39.7939 149.907 36.4762 152.975 36.312 153.721C36.1477 154.466 35.8794 159.421 35.8518 160.065Z" fill="#DBDBDB"/>
<path d="M46.5981 159.361C47.6077 158.947 68.4749 157.874 72.5765 157.794C76.6782 157.715 103.675 157.876 105.548 158.531C107.421 159.185 103.481 171.142 101.879 172.05C100.277 172.957 74.3219 175.712 72.5281 175.746C70.7343 175.781 50.3809 173.075 49.1534 172.222C47.9259 171.37 44.9329 160.006 46.5981 159.361Z" fill="#455A64"/>
<path d="M47.6546 160.425C48.6249 160.059 68.782 159.039 72.7232 158.963C76.6644 158.886 102.727 159.011 104.522 159.607C106.317 160.204 102.503 170.371 100.958 171.202C99.413 172.033 74.3657 174.589 72.6339 174.622C70.902 174.656 51.2681 172.192 50.0822 171.414C48.8963 170.636 46.0469 161.029 47.6546 160.425Z" fill="#263238"/>
<path d="M46.7832 160.611L105.333 159.473L105.344 160.061L46.7946 161.199L46.7832 160.611Z" fill="#455A64"/>
<path d="M46.8213 162.565L105.371 161.426L105.383 162.014L46.8327 163.152L46.8213 162.565Z" fill="#455A64"/>
<path d="M46.8593 164.518L105.409 163.379L105.421 163.967L46.8708 165.106L46.8593 164.518Z" fill="#455A64"/>
<path d="M47.5861 166.46L104.758 165.348L104.769 165.936L47.5976 167.048L47.5861 166.46Z" fill="#455A64"/>
<path d="M48.3243 168.397L104.1 167.312L104.111 167.9L48.3358 168.985L48.3243 168.397Z" fill="#455A64"/>
<path d="M49.2227 170.336L103.273 169.285L103.285 169.873L49.2341 170.924L49.2227 170.336Z" fill="#455A64"/>
<path d="M53.3223 172.213L101.219 171.281L101.23 171.869L53.3337 172.801L53.3223 172.213Z" fill="#455A64"/>
<path d="M64.3011 173.948L88.3496 173.48L88.361 174.068L64.3126 174.536L64.3011 173.948Z" fill="#455A64"/>
<path d="M103.795 165.894C103.719 166.128 103.644 166.363 103.561 166.593L48.0193 166.588C47.9565 166.356 47.9044 166.116 47.8523 165.877L103.795 165.894Z" fill="#556AD9"/>
<path d="M50.8229 185.696L103.28 184.676C104.396 184.654 98.6369 181.083 97.7388 181.042C96.8408 181 55.705 181.859 54.8701 181.876C54.0351 181.892 49.875 185.714 50.8229 185.696Z" fill="#263238"/>
<path d="M37.4864 183.521C38.0535 183.609 43.8857 183.618 44.8476 183.378C45.8094 183.138 47.9298 177.579 47.7679 176.757C47.606 175.935 43.2167 173.226 42.6554 173.056C42.094 172.885 38.159 172.721 37.7516 173.151C37.3442 173.581 36.9635 183.448 37.4864 183.521Z" fill="#455A64"/>
<path d="M112.791 174.644C112.114 175.636 117.012 181.425 118.849 182.112C120.686 182.799 131.854 182.605 132.242 182.475C132.629 182.345 132.548 176.292 132.308 175.369C132.067 174.446 129.92 171.109 129.447 170.819C128.975 170.528 118.999 171.645 117.65 172.051C116.301 172.456 113.1 174.195 112.791 174.644Z" fill="#455A64"/>
<path d="M194.114 131.468L193.801 130.404C193.801 130.404 197.364 126.084 198.419 125.542C199.473 125.001 205.923 126.186 206.285 126.79C206.647 127.395 206.56 130.081 206.482 130.556C206.404 131.031 200.697 132.2 199.735 132.266C198.773 132.332 194.114 131.468 194.114 131.468Z" fill="#6478DF"/>
<path d="M193.801 130.404L194.114 131.468C194.114 131.468 191.713 133.488 191.628 133.62C191.543 133.752 191.7 134.305 191.7 134.305L189.231 134.353L189.156 130.494C189.526 130.709 189.916 130.88 190.319 131.005C190.677 131.061 193.801 130.404 193.801 130.404Z" fill="#556AD9"/>
<path d="M12.957 197.146C13.7897 197.434 37.5108 197.105 38.4014 196.478C38.7445 196.248 38.9026 192.553 38.972 188.08V187.94C38.972 187.017 37.8539 171.562 37.8539 171.562L21.9859 171.735L23.6668 187.969V188.249C23.6668 188.249 14.6417 192.71 13.7242 193.509C12.8066 194.308 12.1243 196.878 12.957 197.146Z" fill="#EB9481"/>
<path d="M12.957 197.15C13.7897 197.439 37.5108 197.109 38.4014 196.483C38.7445 196.252 38.9026 192.557 38.972 188.084V187.944C38.972 187.021 38.783 184.847 38.7869 184.715L23.3391 184.76L23.6668 187.973V188.253C23.6668 188.253 14.6417 192.714 13.7242 193.513C12.8066 194.312 12.1243 196.882 12.957 197.15Z" fill="#EBEBEB"/>
<path d="M12.9555 197.151C13.3834 197.296 19.8255 197.283 26.1249 197.151C27.3933 197.123 28.65 197.094 29.8529 197.057C34.3442 196.925 38.0567 196.727 38.3999 196.488C38.743 196.249 38.8972 192.666 38.9666 188.275C38.9666 188.213 38.9666 188.151 38.9666 188.089C38.9666 188.028 38.9666 187.995 38.9666 187.945L23.6807 187.978V188.258C23.6807 188.258 14.6518 192.719 13.7381 193.518C12.8244 194.317 12.1228 196.884 12.9555 197.151Z" fill="#CE413A"/>
<path d="M13.215 196.18C17.2128 196.019 33.3469 195.768 37.31 195.941C37.3409 195.941 37.3409 195.966 37.31 195.966C33.3507 196.217 17.2128 196.324 13.215 196.25C13.1302 196.246 13.1302 196.18 13.215 196.18Z" fill="#263238"/>
<path d="M21.9516 188.061C23.5207 187.727 25.4483 187.958 26.6665 189.14C26.7128 189.186 26.6666 189.256 26.601 189.239C25.0956 188.742 23.5447 188.419 21.9748 188.275C21.9616 188.277 21.9483 188.276 21.9355 188.272C21.9228 188.268 21.9109 188.261 21.9005 188.253C21.8901 188.244 21.8815 188.233 21.875 188.221C21.8686 188.208 21.8645 188.195 21.863 188.181C21.8615 188.166 21.8625 188.152 21.8662 188.139C21.8698 188.125 21.8759 188.112 21.8841 188.101C21.8924 188.09 21.9026 188.081 21.9141 188.074C21.9257 188.067 21.9385 188.063 21.9516 188.061Z" fill="#263238"/>
<path d="M20.8406 188.81C22.4096 188.472 24.3372 188.703 25.5555 189.885C25.6017 189.93 25.5555 190 25.49 189.984C23.984 189.489 22.4333 189.166 20.8637 189.02C20.8399 189.019 20.8172 189.009 20.7997 188.991C20.7822 188.974 20.7711 188.951 20.7683 188.925C20.7655 188.9 20.7712 188.874 20.7845 188.853C20.7977 188.832 20.8176 188.817 20.8406 188.81Z" fill="#263238"/>
<path d="M19.7143 189.555C21.2834 189.217 23.2109 189.452 24.4253 190.63C24.4755 190.676 24.4253 190.75 24.3598 190.733C22.8545 190.235 21.3036 189.91 19.7336 189.765C19.71 189.763 19.6878 189.753 19.6709 189.735C19.654 189.717 19.6434 189.694 19.6411 189.669C19.6388 189.644 19.6449 189.619 19.6583 189.598C19.6716 189.577 19.6915 189.562 19.7143 189.555Z" fill="#263238"/>
<path opacity="0.1" d="M26.127 197.151C27.3953 197.123 28.6521 197.094 29.8549 197.057C34.3462 196.925 38.0588 196.727 38.4019 196.488C38.745 196.249 38.8993 192.666 38.9686 188.275C38.9686 188.213 38.9686 188.151 38.9686 188.089C38.9686 188.028 38.9686 187.995 38.9686 187.945C36.8637 189.527 29.4848 194.779 26.127 197.151Z" fill="black"/>
<path d="M22.6292 187.676H39.7117C39.7117 187.676 36.2728 145.045 36.4077 144.299C36.5774 143.347 37.5874 139.031 38.929 133.396C39.3493 131.633 39.8042 129.738 40.2745 127.778C41.5467 122.472 42.9732 116.677 44.176 111.635C46.0111 104.077 47.4452 98.207 47.4452 98.207H32.965C32.965 98.207 31.2803 103.924 29.1522 111.359C25.6825 123.444 21.0563 140.073 20.6014 144.118C19.8612 150.646 22.6292 187.676 22.6292 187.676Z" fill="#263238"/>
<path d="M23.3856 184.56C25.9955 184.498 25.2438 184.478 27.8537 184.449C29.1337 184.449 37.5226 184.358 38.7177 184.572C38.7409 184.572 38.7409 184.622 38.7177 184.626C37.5226 184.84 29.1337 184.762 27.8537 184.745C25.2438 184.721 25.9955 184.696 23.3856 184.638C23.3798 184.64 23.3736 184.641 23.3676 184.64C23.3616 184.639 23.3559 184.636 23.3509 184.632C23.346 184.629 23.342 184.624 23.3392 184.618C23.3364 184.612 23.335 184.606 23.335 184.599C23.335 184.593 23.3364 184.586 23.3392 184.58C23.342 184.575 23.346 184.57 23.3509 184.566C23.3559 184.562 23.3616 184.559 23.3676 184.558C23.3736 184.557 23.3798 184.558 23.3856 184.56Z" fill="#37474F"/>
<path d="M33.1928 141.696C33.7518 139.055 34.5884 136.473 35.3171 133.87C36.7975 128.605 38.2869 123.345 39.7853 118.09C40.5332 115.462 41.2849 112.834 42.0405 110.206C42.4235 108.885 42.809 107.56 43.1971 106.231C43.5826 104.937 44.0105 103.652 44.3537 102.347C44.4963 101.815 44.5696 102.104 44.3922 102.759C44.0337 104.122 43.6752 105.485 43.3051 106.84C42.57 109.529 41.8298 112.217 41.0845 114.906C39.6041 120.252 38.1095 125.596 36.6008 130.937C35.8478 133.614 35.0947 136.292 34.3417 138.969C33.9602 140.243 33.6512 141.54 33.4164 142.853C33.2161 144.228 33.1657 145.622 33.2661 147.009C33.4319 149.802 33.7326 152.591 33.9754 155.375C34.2183 158.159 34.4574 160.96 34.7002 163.753C35.1834 169.311 35.6602 174.868 36.1305 180.423C36.1922 181.127 36.25 181.831 36.3001 182.536C36.3001 182.771 35.984 182.754 35.9609 182.536C35.398 177.041 34.9662 171.53 34.4805 166.027C33.9947 160.524 33.5205 155.074 33.0425 149.6C32.923 148.224 32.7842 146.849 32.7842 145.481C32.7876 144.207 32.9247 142.937 33.1928 141.696Z" fill="#37474F"/>
<path d="M34.6113 98.207C35.6137 106.515 37.5297 122.097 38.9291 133.396C42.1945 119.7 47.4453 98.207 47.4453 98.207H34.6113Z" fill="#37474F"/>
<path d="M31.4182 197.282C32.2509 197.57 55.972 197.335 56.8625 196.709C57.2095 196.483 57.3791 192.788 57.4601 188.315C57.4601 188.269 57.4601 188.22 57.4601 188.175C57.4601 187.256 57.4948 186.305 57.4986 185.345C57.4986 185.213 57.4986 185.077 57.4986 184.933C57.5565 178.483 57.1131 171.785 57.1131 171.785L41.6075 171.896L42.0392 184.921V185.436L42.1279 188.134V188.41C42.1279 188.41 33.1299 192.854 32.2085 193.649C31.2871 194.444 30.5854 196.994 31.4182 197.282Z" fill="#EB9481"/>
<path d="M31.4182 197.282C32.2509 197.571 55.972 197.336 56.8625 196.71C57.2095 196.483 57.3791 192.789 57.4601 188.315C57.4601 188.27 57.4601 188.221 57.4601 188.175C57.4601 187.257 57.4948 186.305 57.4986 185.345C57.4986 185.214 57.4986 185.078 57.4986 184.934H42.047V185.448L42.1356 188.146V188.422C42.1356 188.422 33.1299 192.854 32.2085 193.649C31.2871 194.444 30.5854 196.994 31.4182 197.282Z" fill="#EBEBEB"/>
<path d="M31.4182 197.284C32.2509 197.573 55.972 197.338 56.8625 196.712C57.2095 196.485 57.3791 192.791 57.4601 188.317C57.4601 188.272 57.4601 188.223 57.4601 188.177L42.1549 188.148V188.424C42.1549 188.424 33.1299 192.856 32.2085 193.651C31.2871 194.446 30.5854 196.996 31.4182 197.284Z" fill="#CE413A"/>
<path d="M31.6774 196.294C35.6752 196.15 51.8131 195.969 55.7763 196.15C55.8071 196.15 55.8071 196.175 55.7763 196.179C51.817 196.414 35.6791 196.455 31.6812 196.364C31.5887 196.364 31.5887 196.299 31.6774 196.294Z" fill="#263238"/>
<path d="M40.4563 188.209C42.0292 187.88 43.953 188.119 45.1673 189.305C45.2136 189.35 45.1673 189.42 45.1018 189.404C43.5969 188.901 42.046 188.573 40.4756 188.424C40.449 188.426 40.4225 188.418 40.4019 188.399C40.3813 188.381 40.3683 188.355 40.3657 188.327C40.3631 188.298 40.3712 188.27 40.3882 188.248C40.4052 188.226 40.4297 188.212 40.4563 188.209Z" fill="#263238"/>
<path d="M39.3295 188.956C40.9024 188.626 42.8262 188.865 44.0406 190.047C44.0868 190.097 44.0406 190.167 43.975 190.15C42.4698 189.648 40.9191 189.318 39.3488 189.166C39.3252 189.164 39.303 189.153 39.2861 189.135C39.2692 189.118 39.2586 189.094 39.2563 189.069C39.254 189.044 39.2601 189.019 39.2735 188.998C39.2869 188.977 39.3067 188.962 39.3295 188.956Z" fill="#263238"/>
<path d="M38.1996 189.694C39.7726 189.364 41.6963 189.603 42.9107 190.789C42.957 190.835 42.9107 190.905 42.8452 190.888C41.34 190.386 39.7892 190.056 38.2189 189.904C38.1953 189.902 38.1731 189.891 38.1562 189.874C38.1393 189.856 38.1288 189.833 38.1265 189.807C38.1241 189.782 38.1302 189.757 38.1436 189.736C38.157 189.716 38.1768 189.7 38.1996 189.694Z" fill="#263238"/>
<path d="M33.4346 98.207C33.4346 98.207 33.7661 105.621 35.3622 111.47C35.4894 111.956 35.6243 112.434 35.7747 112.891C37.225 113.518 38.6186 114.284 39.9383 115.182C39.9383 115.182 40.108 121.138 40.2737 127.778C40.4588 135.192 40.6592 143.483 40.6091 145.238C40.4665 151.829 41.3802 187.944 41.3802 187.944L58.4587 188.014C58.4587 188.014 55.3746 147.648 55.3746 145.259C55.4054 141.391 54.5457 124.289 53.8826 111.816C53.4971 104.134 53.1424 98.2235 53.1424 98.2235L33.4346 98.207Z" fill="#263238"/>
<path d="M41.9673 184.696C44.5772 184.651 43.8255 184.626 46.4355 184.609C47.7115 184.609 56.1043 184.564 57.2956 184.778C57.3226 184.778 57.3226 184.832 57.2956 184.836C56.1005 185.042 47.7115 184.927 46.4355 184.906C43.8255 184.869 44.5734 184.848 41.9673 184.778C41.957 184.778 41.9472 184.774 41.94 184.766C41.9328 184.759 41.9287 184.748 41.9287 184.737C41.9287 184.726 41.9328 184.716 41.94 184.708C41.9472 184.7 41.957 184.696 41.9673 184.696Z" fill="#37474F"/>
<path d="M51.727 100.851C52.0393 111.033 52.3747 121.215 52.7988 131.394C53.2229 141.572 53.805 151.812 54.603 161.998C55.0502 167.69 55.4704 175.694 56.0449 181.357C56.0449 181.399 55.9947 181.411 55.9909 181.357C54.7457 171.258 54.0633 158.769 53.4426 148.607C52.8219 138.445 52.4171 128.267 52.0933 118.089C51.9082 112.322 51.7694 106.556 51.6075 100.818C51.6037 100.764 51.7232 100.764 51.727 100.851Z" fill="#37474F"/>
<path d="M35.2201 112.451C36.9183 113.208 38.5514 114.122 40.1008 115.182C40.1625 115.223 40.1008 115.326 40.0507 115.289C38.4045 114.436 36.7198 113.613 35.1199 112.661C35.0985 112.644 35.0834 112.62 35.0772 112.592C35.0711 112.565 35.0744 112.536 35.0864 112.511C35.0985 112.485 35.1185 112.465 35.143 112.454C35.1675 112.444 35.1948 112.442 35.2201 112.451Z" fill="#37474F"/>
<path d="M35.1247 106.171C35.2365 106.822 35.3869 107.465 35.5102 108.107C35.6336 108.75 35.7223 109.343 35.8726 109.928C35.9869 110.505 36.2546 111.034 36.6437 111.452C36.8673 111.674 37.114 111.864 37.3492 112.07C37.4764 112.181 37.6152 112.284 37.7347 112.395L37.6884 112.136L37.5728 111.394C37.488 110.851 37.4031 110.303 37.326 109.747C37.1718 108.672 37.0292 107.584 36.821 106.517C36.821 106.509 36.8243 106.5 36.83 106.494C36.8358 106.488 36.8437 106.485 36.8518 106.485C36.86 106.485 36.8679 106.488 36.8736 106.494C36.8794 106.5 36.8827 106.509 36.8827 106.517C37.1333 107.572 37.4108 108.618 37.6306 109.681C37.7385 110.204 38.1202 112.783 38.1356 112.976C38.151 113.17 38.1703 113.355 38.1742 113.545C38.1995 113.736 38.1995 113.93 38.1742 114.121C38.1742 114.171 38.1125 114.162 38.0932 114.121C38.0217 113.942 37.9712 113.754 37.9429 113.561C37.8966 113.376 37.858 113.19 37.8272 113.001C37.8272 112.935 37.8272 112.865 37.7964 112.795C37.5612 112.642 37.3376 112.437 37.1179 112.268C36.8981 112.099 36.6321 111.901 36.4085 111.695C35.9886 111.318 35.6861 110.814 35.5411 110.249C35.3939 109.642 35.2985 109.022 35.2558 108.396C35.1787 107.663 35.1247 106.929 35.0283 106.196C35.0592 106.147 35.117 106.122 35.1247 106.171Z" fill="#37474F"/>
<path d="M43.6484 105.093C44.1418 106.605 44.1842 108.524 45.4449 109.715C46.1314 110.279 46.9592 110.613 47.8236 110.674C48.8349 110.792 49.8555 110.785 50.8653 110.654C50.8735 110.654 50.8813 110.657 50.8871 110.663C50.8929 110.67 50.8962 110.678 50.8962 110.687C50.8962 110.695 50.8929 110.704 50.8871 110.71C50.8813 110.716 50.8735 110.72 50.8653 110.72C49.0881 111.358 46.5783 111.42 45.1403 110.147C44.5376 109.569 44.1309 108.794 43.9838 107.943C43.7866 107.014 43.6577 106.069 43.5983 105.118C43.5713 105.064 43.6368 105.056 43.6484 105.093Z" fill="#37474F"/>
<path d="M33.775 103.834C33.4974 105.354 33.4242 107.273 32.7842 108.501C32.5419 108.995 32.126 109.367 31.6276 109.535C31.1523 109.68 30.6516 109.702 30.1665 109.601C30.1665 109.601 30.1434 109.654 30.1665 109.667C30.389 109.834 30.6427 109.948 30.9103 110.001C31.1779 110.054 31.453 110.044 31.7168 109.972C31.9805 109.901 32.2266 109.769 32.4381 109.586C32.6497 109.403 32.8217 109.173 32.9423 108.913C33.2789 108.216 33.4895 107.457 33.563 106.676C33.6863 105.753 33.7789 104.777 33.8328 103.842C33.8136 103.801 33.7827 103.797 33.775 103.834Z" fill="#37474F"/>
<path d="M40.6939 78.7972C39.8496 81.9606 33.6427 93.671 28.974 94.6926C24.2129 95.7347 13.1985 89.9227 12.0111 89.2843C9.69801 88.0486 14.1855 78.4389 16.1092 79.4563C19.3206 81.1492 27.1775 85.4495 28.469 84.6133C31.2024 82.8545 33.1955 80.5849 37.0314 77.2897C39.707 74.9542 41.6114 75.3002 40.6939 78.7972Z" fill="#EB9481"/>
<path d="M12.6366 89.5603C11.5957 89.2719 6.85378 87.6532 5.65095 86.8458C4.44813 86.0385 1.74562 83.1099 2.01934 81.9854C2.2468 81.0545 3.2453 81.5735 3.2453 81.5735C3.2453 81.5735 2.15813 80.4613 2.73641 79.4604C3.3147 78.4595 4.71414 79.6499 4.71414 79.6499C4.71414 79.6499 3.55757 78.1918 4.18982 77.2361C4.82208 76.2805 6.21767 77.6728 6.21767 77.6728C6.21767 77.6728 5.09581 76.3876 5.93239 75.8398C6.94245 75.1807 8.76596 77.7963 10.15 78.5789C10.4623 78.7561 16.7539 81.7012 16.7539 81.7012L12.6366 89.5603Z" fill="#EB9481"/>
<path d="M6.09787 77.5707C7.44334 79.4902 8.34159 80.0833 10.4041 80.9236C10.4114 80.9275 10.4172 80.934 10.4205 80.9419C10.4237 80.9499 10.4242 80.9589 10.4219 80.9672C10.4196 80.9756 10.4147 80.9828 10.4079 80.9876C10.4011 80.9924 10.393 80.9946 10.3849 80.9936C8.29534 80.3675 7.06938 79.7991 6.00535 77.6366C5.95523 77.5295 6.03233 77.4801 6.09787 77.5707Z" fill="#263238"/>
<path d="M4.60301 79.5154C6.1451 81.3772 7.13203 82.0239 9.22926 83.0783C9.2601 83.0783 9.22926 83.1483 9.22926 83.136C7.08577 82.2875 5.87523 81.6902 4.54519 79.6101C4.47579 79.5195 4.53747 79.4289 4.60301 79.5154Z" fill="#263238"/>
<path d="M3.31762 81.6346C4.95223 83.3193 5.98542 84.0813 8.14434 84.8227C8.15059 84.823 8.15671 84.8248 8.16227 84.8278C8.16782 84.8309 8.17266 84.8353 8.17644 84.8407C8.18023 84.846 8.18286 84.8521 8.18415 84.8587C8.18544 84.8652 8.18535 84.872 8.1839 84.8785C8.18245 84.885 8.17967 84.8911 8.17576 84.8963C8.17185 84.9016 8.1669 84.9058 8.16128 84.9087C8.15565 84.9117 8.14948 84.9132 8.14322 84.9133C8.13696 84.9134 8.13076 84.912 8.12507 84.9092C5.85435 84.382 4.55514 83.4429 3.27521 81.6923C3.19039 81.5728 3.21738 81.5275 3.31762 81.6346Z" fill="#263238"/>
<path d="M18.4816 81.2201C18.4816 81.2201 16.9395 78.7198 16.0143 77.7807C15.089 76.8416 10.509 74.6832 10.0156 75.7212C9.37945 77.0557 11.8044 78.864 13.0997 79.5807C13.0997 79.5807 11.627 82.67 13.0997 84.367C14.5724 86.0641 18.4816 81.2201 18.4816 81.2201Z" fill="#EB9481"/>
<path d="M9.94978 76.1421C10.1927 77.7897 11.9468 78.6341 13.1573 79.4374C13.1752 79.4486 13.1904 79.4643 13.2015 79.4831C13.2127 79.5019 13.2195 79.5232 13.2213 79.5453C13.2232 79.5675 13.2201 79.5898 13.2124 79.6104C13.2046 79.631 13.1923 79.6493 13.1766 79.6639C12.6407 80.9985 12.2475 83.0539 13.007 84.3596C13.0093 84.3671 13.0093 84.3752 13.007 84.3828C13.0047 84.3903 13.0003 84.3969 12.9942 84.4015C12.9882 84.4061 12.9809 84.4085 12.9735 84.4084C12.9661 84.4083 12.9589 84.4056 12.953 84.4008C11.9584 83.1198 12.182 81.0685 12.8682 79.6433C11.6191 78.8442 9.89195 77.9339 9.93436 76.1504C9.93436 76.1339 9.94978 76.1339 9.94978 76.1421Z" fill="#263238"/>
<path d="M18.2041 79.7608C18.2041 79.7608 27.1327 84.7778 28.0194 84.3824C29.496 83.7316 35.8455 77.9732 38.2242 76.0331C40.6029 74.093 44.5043 74.3855 40.5913 81.3137C36.6782 88.2419 32.8423 93.3536 29.2762 95.1701C27.0672 96.3028 15.4746 91.9655 15.4746 91.9655L18.2041 79.7608Z" fill="#CE413A"/>
<path opacity="0.1" d="M42.0336 75.6953C42.5155 76.5603 42.2919 78.315 40.5879 81.3178C36.6787 88.2295 32.8427 93.3453 29.2959 95.166C28.8526 95.3925 28.0353 95.4007 27.0137 95.2648C30.5605 90.6597 39.1229 79.5672 42.0336 75.6953Z" fill="black"/>
<path d="M17.9372 92.2007C18.5926 87.435 19.9612 82.5663 20.1424 81.6972C20.1424 81.656 20.2118 81.6972 20.2002 81.7219C19.9804 82.5457 18.9897 88.3371 18.0027 92.2254C17.9912 92.2707 17.9295 92.246 17.9372 92.2007Z" fill="#263238"/>
<path d="M54.9435 109.203C54.8818 109.269 29.8538 107.436 29.6456 107.144C29.3526 106.732 37.2712 79.5462 39.2566 75.5672C40.1048 73.866 44.1489 73.623 45.7488 75.2294C49.7544 79.2537 52.5417 92.2657 53.1277 96.1664C54.1031 102.6 55.1671 108.968 54.9435 109.203Z" fill="#CE413A"/>
<path d="M46.2082 75.7873C54.1037 81.1421 62.2844 91.0277 62.8897 96.9632C63.4834 102.825 61.5173 102.458 60.9621 102.479C57.6235 102.594 48.3016 87.094 45.3061 80.689C42.3106 74.2839 44.2575 74.4569 46.2082 75.7873Z" fill="#CE413A"/>
<path d="M56.1394 98.3619C55.6883 97.6616 55.2257 96.9738 54.7823 96.2694L53.433 94.1687C52.5425 92.7641 51.6403 91.3719 50.7691 89.9508C49.8978 88.5298 49.0072 87.1293 48.1475 85.7082C47.7158 84.9956 47.2878 84.2789 46.8753 83.5581C46.4628 82.8373 46.0503 82.1082 45.6455 81.375C46.3148 82.9191 47.0665 84.4209 47.8969 85.873C48.7065 87.3352 49.5778 88.7563 50.4491 90.1815C51.3204 91.6067 52.2495 92.9865 53.194 94.3541C54.1385 95.7216 55.1062 97.0603 56.1394 98.3619Z" fill="#263238"/>
<path d="M46.6006 83.2588C46.442 83.0066 46.2682 82.7658 46.0801 82.538C45.9838 82.4267 45.8951 82.3114 45.7948 82.2043C45.6946 82.0972 45.6059 81.9819 45.4941 81.8789C45.5899 82.1724 45.7393 82.4426 45.9336 82.6739C46.1202 82.9112 46.3464 83.1095 46.6006 83.2588Z" fill="#263238"/>
<path d="M38.9933 76.4874C38.8815 77.6984 38.7003 80.5158 40.4891 80.4128C41.2123 80.3044 41.891 79.9755 42.4437 79.4655C43.0185 79.0002 43.5446 78.4699 44.0127 77.8838C44.5591 77.2426 45.0543 76.5537 45.4932 75.8242C45.4932 75.7954 45.5548 75.8242 45.5356 75.8613C45.0884 76.5863 44.7067 77.3442 44.194 78.0279C43.7064 78.6904 43.137 79.2793 42.5015 79.7785C41.9121 80.3021 41.1872 80.6211 40.4235 80.6929C40.0918 80.6987 39.7684 80.5811 39.5089 80.3602C39.2494 80.1392 39.0698 79.8288 39.001 79.4819C38.7901 78.4968 38.7874 77.4738 38.9933 76.4874Z" fill="#263238"/>
<path d="M40.4552 79.1258C41.7351 79.3071 43.9519 76.8439 44.6458 75.1015C44.5266 74.1771 44.3619 73.26 44.1524 72.3541C43.9943 71.4727 43.8362 70.4923 43.7668 69.582L38.5469 71.5221C38.9545 72.6255 39.2354 73.7776 39.3834 74.9532C39.3951 75.0793 39.3951 75.2062 39.3834 75.3322V75.394C39.3372 76.123 39.2215 78.9363 40.4552 79.1258Z" fill="#EB9481"/>
<path d="M39.3834 75.3414C39.3834 75.3414 39.3834 75.3785 39.3834 75.4032C39.5675 75.4087 39.7518 75.4005 39.9348 75.3785C43.0189 74.9666 43.3659 70.8476 43.4045 69.7148L42.1014 70.2009L38.5469 71.5231C38.9567 72.6269 39.2364 73.7808 39.3796 74.9584C39.3909 75.0857 39.3922 75.2139 39.3834 75.3414Z" fill="#263238"/>
<path d="M44.6573 63.2826C45.2086 65.3421 44.1176 71.1705 42.749 72.4557C40.7636 74.3175 37.5522 74.4452 36.0833 71.9037C34.6569 69.4323 36.2028 61.8492 37.7295 60.6835C39.9771 58.9865 43.8477 60.284 44.6573 63.2826Z" fill="#EB9481"/>
<path d="M40.1741 66.9883C40.1741 66.9883 40.1971 67.013 40.1933 67.0295C40.1203 67.4414 40.0934 67.8862 40.4084 68.0798C40.0051 67.948 40.0435 67.3302 40.1741 66.9883Z" fill="#263238"/>
<path d="M40.573 66.6182C41.1744 66.6841 41.0164 67.9651 40.4574 67.9115C39.8984 67.858 40.0718 66.577 40.573 66.6182Z" fill="#263238"/>
<path d="M38.1111 66.6445C38.1111 66.6445 38.0803 66.6445 38.0764 66.6734C38.0379 67.0853 37.9338 67.526 37.5791 67.6084V67.6331C37.9993 67.629 38.142 67.0276 38.1111 66.6445Z" fill="#263238"/>
<path d="M37.8303 66.1658C37.2366 66.034 37.0284 67.3109 37.5797 67.4344C38.131 67.558 38.3277 66.2935 37.8303 66.1658Z" fill="#263238"/>
<path d="M41.1185 66.1003C40.967 66.029 40.819 65.9492 40.6752 65.8614C40.5061 65.8014 40.3617 65.6805 40.2666 65.5196C40.2434 65.4642 40.2389 65.4021 40.2536 65.3435C40.2683 65.285 40.3015 65.2337 40.3475 65.1983C40.4453 65.1375 40.5563 65.1055 40.6694 65.1055C40.7825 65.1055 40.8936 65.1375 40.9913 65.1983C41.2045 65.2965 41.3762 65.4755 41.4732 65.7008C41.4987 65.7546 41.508 65.8155 41.4998 65.8751C41.4916 65.9348 41.4664 65.9902 41.4275 66.034C41.3887 66.0777 41.3382 66.1076 41.2829 66.1194C41.2276 66.1313 41.1702 66.1246 41.1185 66.1003Z" fill="#263238"/>
<path d="M37.4345 65.227C37.6041 65.227 37.7622 65.1858 37.928 65.1652C38.1052 65.1673 38.2783 65.108 38.4214 64.9963C38.4601 64.9519 38.4838 64.8949 38.4887 64.8344C38.4936 64.774 38.4794 64.7135 38.4484 64.6627C38.3736 64.5714 38.2773 64.5031 38.1696 64.4648C38.0619 64.4264 37.9466 64.4194 37.8354 64.4443C37.6033 64.4598 37.3848 64.567 37.2225 64.745C37.1884 64.7878 37.1666 64.8402 37.1596 64.8958C37.1527 64.9515 37.1609 65.0081 37.1832 65.0589C37.2056 65.1098 37.2412 65.1526 37.2857 65.1824C37.3303 65.2122 37.3819 65.2277 37.4345 65.227Z" fill="#263238"/>
<path d="M39.9044 70.6091C39.8273 70.7162 39.754 70.8562 39.6191 70.8892C39.4801 70.905 39.3396 70.8895 39.2066 70.8439C39.1834 70.8439 39.2066 70.8439 39.2066 70.8439C39.2693 70.9156 39.349 70.9676 39.4373 70.9945C39.5256 71.0213 39.6191 71.0219 39.7077 70.9963C39.7822 70.9666 39.8462 70.9131 39.891 70.843C39.9359 70.773 39.9594 70.6898 39.9583 70.605C39.9581 70.6012 39.9571 70.5975 39.9555 70.5941C39.9539 70.5907 39.9518 70.5877 39.9491 70.5852C39.9464 70.5827 39.9433 70.5808 39.9399 70.5796C39.9365 70.5784 39.933 70.5779 39.9294 70.5782C39.9259 70.5785 39.9224 70.5795 39.9192 70.5812C39.9161 70.5829 39.9132 70.5852 39.9109 70.5881C39.9086 70.591 39.9068 70.5943 39.9057 70.5979C39.9046 70.6015 39.9041 70.6053 39.9044 70.6091Z" fill="#263238"/>
<path d="M39.7772 69.3868C39.6623 69.5312 39.5209 69.6488 39.3618 69.7324C39.2026 69.816 39.0291 69.8638 38.852 69.8729C38.6978 69.8803 38.5434 69.865 38.3932 69.8276H38.3084L38.2274 69.7987C38.2081 69.7922 38.1915 69.7789 38.1803 69.7609C38.169 69.7429 38.1639 69.7214 38.1657 69.6999C38.1636 69.6862 38.1636 69.6723 38.1657 69.6587V69.6257C38.1927 69.3168 38.2814 68.8555 38.2814 68.8555C38.1696 68.8967 37.6029 69.0779 37.6298 68.9173C37.8358 67.5404 38.1716 66.1893 38.6322 64.8847C38.6322 64.8749 38.6359 64.8655 38.6424 64.8585C38.6489 64.8516 38.6577 64.8477 38.6669 64.8477C38.6761 64.8477 38.6849 64.8516 38.6914 64.8585C38.6979 64.8655 38.7016 64.8749 38.7016 64.8847C38.5165 66.1575 38.1272 67.3891 37.9306 68.666C38.1327 68.5973 38.343 68.5598 38.5551 68.5548C38.5937 68.5548 38.3739 69.4445 38.3701 69.5845C38.6023 69.6425 38.8431 69.6501 39.0782 69.6069C39.3132 69.5638 39.5378 69.4707 39.7387 69.3333C39.7772 69.3292 39.8003 69.358 39.7772 69.3868Z" fill="#263238"/>
<path d="M38.5996 69.8063C38.7262 70.0176 38.9014 70.1906 39.1085 70.3088C39.227 70.3746 39.3627 70.3963 39.494 70.3706C39.7677 70.3212 39.7986 70.0576 39.7677 69.831C39.7517 69.7077 39.7206 69.5873 39.6752 69.4727C39.3602 69.7059 38.9826 69.823 38.5996 69.8063Z" fill="#263238"/>
<path d="M39.1104 70.3087C39.2289 70.3744 39.3645 70.3962 39.4959 70.3705C39.7696 70.321 39.8004 70.0574 39.7696 69.8309C39.6249 69.8169 39.4802 69.8568 39.3601 69.9439C39.2399 70.031 39.1516 70.1599 39.1104 70.3087Z" fill="#FF9CBD"/>
<path d="M44.202 67.8516C43.3269 67.8228 43.2691 65.6809 43.2691 65.6809C43.2691 65.6809 41.0639 66.237 41.1564 63.1147C41.1564 63.1147 38.558 63.8974 37.0121 62.9047C35.6898 62.0562 35.0845 59.5641 36.1293 58.1513C36.723 57.3522 38.3267 56.6726 40.582 59.214C40.582 59.214 43.7356 57.1092 44.7109 61.1047C44.7109 61.1047 46.2877 61.3889 46.4072 63.0406C46.5961 65.6521 44.9577 67.8805 44.202 67.8516Z" fill="#263238"/>
<path d="M41.1684 62.8958C41.1684 62.8893 41.1708 62.883 41.1751 62.8783C41.1795 62.8737 41.1854 62.8711 41.1915 62.8711C41.1976 62.8711 41.2035 62.8737 41.2079 62.8783C41.2122 62.883 41.2146 62.8893 41.2146 62.8958C41.045 63.6496 40.8715 64.4693 41.4074 65.1077C41.6498 65.4148 41.98 65.6284 42.347 65.7154C42.7141 65.8025 43.0978 65.7583 43.4391 65.5897C43.4776 65.5897 43.5123 65.635 43.4699 65.6556C43.1372 65.8215 42.7659 65.8783 42.4029 65.8189C42.0399 65.7595 41.7016 65.5866 41.4305 65.3219C40.7597 64.6876 40.8407 63.7155 41.1684 62.8958Z" fill="#263238"/>
<path d="M44.1566 67.37C45.3864 66.7645 46.3503 65.7224 46.5122 64.2231C46.6275 63.5092 46.4901 62.7751 46.1267 62.1636C45.7643 61.6281 45.1975 61.4098 44.6925 61.0638V61.0391C47.8461 62.0523 47.0056 66.5956 44.2145 67.5265C44.1964 67.5293 44.1781 67.5255 44.1623 67.5157C44.1466 67.5059 44.1344 67.4908 44.1277 67.4727C44.1211 67.4546 44.1203 67.4346 44.1255 67.416C44.1307 67.3973 44.1417 67.3812 44.1566 67.37Z" fill="#263238"/>
<path d="M35.726 58.1578C37.1447 56.2013 39.7239 57.6924 40.6684 59.3935C39.801 58.1207 37.9351 56.8191 36.4894 57.7253C34.7391 58.8127 35.3019 62.1409 37.2604 62.5528C37.3182 62.5528 37.3028 62.6723 37.2604 62.664C35.4215 62.421 34.6735 59.6159 35.726 58.1578Z" fill="#263238"/>
<path d="M43.417 68.0585C43.417 68.0585 44.72 66.209 45.5104 66.7116C46.3007 67.2141 45.2752 69.9285 44.3153 70.2663C44.1953 70.319 44.0666 70.3452 43.937 70.3433C43.8073 70.3414 43.6793 70.3114 43.5608 70.2552C43.4422 70.199 43.3356 70.1177 43.2473 70.0163C43.159 69.9148 43.0908 69.7953 43.0469 69.6649L43.417 68.0585Z" fill="#EB9481"/>
<path d="M45.1975 67.4766C45.1975 67.4766 45.1975 67.5013 45.1975 67.5054C44.8881 67.655 44.6115 67.8723 44.3857 68.1434C44.1599 68.4144 43.9899 68.7331 43.8867 69.0789C43.9278 69.0099 43.9824 68.9512 44.0467 68.9068C44.111 68.8624 44.1835 68.8333 44.2592 68.8216C44.335 68.8098 44.4122 68.8157 44.4857 68.8388C44.5591 68.8619 44.627 68.9016 44.6847 68.9553C44.6847 68.9553 44.6848 68.9965 44.6655 68.9924C44.5505 68.9489 44.4257 68.9445 44.3084 68.98C44.191 69.0154 44.0868 69.0888 44.0101 69.1901C43.8815 69.3595 43.7703 69.5431 43.6785 69.7379C43.6438 69.7997 43.5398 69.7626 43.5629 69.6926C43.586 68.7699 44.2877 67.5342 45.1975 67.4766Z" fill="#263238"/>
<path d="M39.357 75.3018L40.7642 78.597L44.5076 74.1484L45.6641 75.4624C45.6641 75.4624 42.1058 82.4236 42.0711 82.1188L40.6485 79.2725L38.8674 81.4062L38.8096 76.3192L39.357 75.3018Z" fill="white"/>
<path d="M38.7045 78.8885C38.7045 78.0647 38.7045 77.2038 38.7701 76.3635C38.7701 76.3347 38.8163 76.3182 38.824 76.3635C39.0129 77.1626 38.932 80.3755 38.9667 81.1416C39.0438 81.051 40.636 79.2798 40.6514 79.3045C40.956 79.7535 41.9969 81.8254 42.0701 82.0148C42.633 80.9109 44.7958 76.8867 45.4704 75.8363C45.474 75.8292 45.4801 75.8239 45.4873 75.8216C45.4945 75.8193 45.5023 75.8201 45.509 75.8239C45.5156 75.8278 45.5206 75.8343 45.5227 75.842C45.5249 75.8497 45.5241 75.858 45.5205 75.8651C45.0309 77.0267 42.1704 82.4556 42.1241 82.4309C41.5795 81.4555 41.0828 80.4504 40.636 79.4199C40.37 79.8029 38.77 81.7924 38.7585 81.6688C38.6955 80.7437 38.6775 79.8157 38.7045 78.8885Z" fill="#263238"/>
<path d="M61.1348 103.293C58.6559 103.549 58.4593 105.192 51.5739 99.7755C50.4713 98.9105 53.2779 88.0734 54.4692 88.9795C55.965 90.1205 60.0014 93.2551 60.3677 93.6588C63.4595 97.057 62.8157 103.12 61.1348 103.293Z" fill="#EB9481"/>
<path d="M57.2491 90.7617L53.6445 102.847C53.6445 102.847 59.6278 104.956 61.5438 103.634C63.4599 102.311 63.2016 97.1133 61.2007 94.3329C60.3641 93.1713 57.2491 90.7617 57.2491 90.7617Z" fill="#B61E16"/>
<path d="M57.1299 91.1597L57.2687 90.7478H57.2378C58.0089 91.4769 58.7799 92.2018 59.551 92.935C60.168 93.4851 60.7453 94.084 61.2781 94.7268C61.5799 95.1605 61.8469 95.6207 62.0761 96.1025C62.531 97.0705 61.7947 95.011 61.4863 94.562C60.9476 93.8978 60.3512 93.2896 59.7052 92.7455C58.911 92.0494 58.1052 91.3615 57.2725 90.7148H57.2494V90.7437L57.1299 91.1597Z" fill="#263238"/>
<path d="M58.9798 93.8712C58.7639 94.4643 58.5943 95.0781 58.4131 95.6795C58.2319 96.2808 58.0545 96.9152 57.8849 97.5042C57.5457 98.7179 57.2154 99.9385 56.8941 101.166C56.8093 101.5 56.7206 101.837 56.6397 102.171C56.5587 102.505 56.5086 102.904 56.4199 103.263C56.4199 103.268 56.422 103.273 56.4256 103.277C56.4292 103.281 56.4341 103.283 56.4392 103.283C56.4443 103.283 56.4492 103.281 56.4528 103.277C56.4565 103.273 56.4585 103.268 56.4585 103.263C56.5472 102.966 56.6744 102.682 56.7708 102.385C56.8671 102.089 56.9597 101.771 57.0483 101.458C57.2218 100.853 57.3953 100.243 57.5649 99.6378C57.9042 98.4021 58.2396 97.1994 58.5441 95.9678C58.7138 95.2758 58.9065 94.5797 59.0376 93.8753C59.0359 93.8688 59.0323 93.8631 59.0273 93.8588C59.0224 93.8546 59.0164 93.8521 59.01 93.8516C59.0037 93.8512 58.9975 93.8528 58.992 93.8563C58.9866 93.8598 58.9823 93.865 58.9798 93.8712Z" fill="#263238"/>
<path d="M53.6451 102.845C53.5872 102.96 53.5911 102.845 53.6065 102.791C53.6219 102.738 53.7761 102.137 53.9111 101.77C53.9111 101.733 53.9805 101.671 53.9535 101.803C53.8686 102.156 53.7656 102.504 53.6451 102.845Z" fill="#263238"/>
<path d="M38.8018 103.925L52.1176 104.106L57.06 84.0013L41.5544 83.8242L38.8018 103.925Z" fill="#263238"/>
<path d="M39.4541 103.933L52.7738 104.114L57.7162 84.0092L42.2106 83.832L39.4541 103.933Z" fill="#37474F"/>
<path d="M49.2506 93.1154C49.2092 93.4893 49.0414 93.8343 48.7787 94.0854C48.5161 94.3364 48.1766 94.4763 47.8241 94.4788C47.6583 94.4803 47.4942 94.4438 47.3428 94.3717C47.1914 94.2996 47.0562 94.1935 46.9466 94.0607C46.8369 93.9279 46.7552 93.7714 46.7071 93.6019C46.6589 93.4324 46.6454 93.2538 46.6676 93.0783C46.7081 92.704 46.8757 92.3585 47.1385 92.1073C47.4014 91.856 47.7413 91.7164 48.094 91.7149C48.2598 91.7133 48.4239 91.7498 48.5753 91.822C48.7267 91.8941 48.8619 92.0002 48.9716 92.133C49.0812 92.2658 49.1629 92.4223 49.2111 92.5918C49.2592 92.7612 49.2727 92.9398 49.2506 93.1154Z" fill="white"/>
<path d="M57.086 89.3633C57.618 90.9615 59.1408 93.0333 59.1601 94.3061C59.1758 94.6161 59.0977 94.9233 58.9373 95.1822C58.7769 95.4411 58.5428 95.638 58.2696 95.7437C58.2696 95.7437 59.3721 96.4851 59.2141 97.6343C59.137 98.2233 58.1847 98.6023 58.1847 98.6023C58.4252 98.7861 58.6139 99.037 58.7302 99.3275C58.8464 99.618 58.8858 99.9371 58.844 100.25C58.6859 101.053 57.7568 101.313 57.7568 101.313C57.7568 101.313 58.312 102.338 57.9033 103.1C57.0783 104.649 50.5129 103.924 49.7418 101.243C49.3833 100.007 50.9793 100.254 50.9793 100.254C50.9793 100.254 48.7742 99.2778 48.8744 97.8238C48.9746 96.3697 51.0333 96.8558 51.0333 96.8558C51.0333 96.8558 48.9014 95.8878 49.1481 94.3844C49.3948 92.8809 51.3841 93.6883 51.3841 93.6883C51.3841 93.6883 50.0271 92.4731 50.4628 91.3775C51.1798 89.5651 53.7204 92.2013 55.2008 92.0077L56.2378 89.5363L57.086 89.3633Z" fill="#EB9481"/>
<path d="M58.191 91.7027C57.8055 90.1457 59.7331 88.4816 59.5634 86.937C59.3437 84.8445 56.9997 86.6157 56.2364 89.5319L56.0205 91.9086L58.191 91.7027Z" fill="#EB9481"/>
<path d="M58.2108 98.6093C58.2378 98.6093 58.2378 98.6588 58.2108 98.6629C55.6704 99.0193 53.0945 98.3941 50.9476 96.8999C50.8743 96.8464 50.8589 96.7187 50.9476 96.7764C52.4511 97.7155 56.0789 98.5723 58.2108 98.6093Z" fill="#263238"/>
<path d="M51.2502 93.5182C53.359 94.9557 55.6914 95.5283 58.1626 95.7466C58.1973 95.7466 58.1896 95.8001 58.1626 95.8043C56.9251 96.0473 55.3598 95.7342 54.1647 95.3924C53.048 95.0838 52.0261 94.469 51.2001 93.6088C51.1847 93.5635 51.2194 93.4894 51.2502 93.5182Z" fill="#263238"/>
<path d="M66.3243 18.3538C66.8195 17.9588 67.4085 17.7279 68.0208 17.6889C68.6331 17.6499 69.2428 17.8044 69.7767 18.1338C70.5334 16.6144 71.7979 15.4722 73.3069 14.945C74.8158 14.4179 76.453 14.5464 77.8773 15.3039C78.2439 13.6216 79.124 12.1255 80.3729 11.0616C81.6218 9.99772 83.1652 9.42928 84.7493 9.44975C86.3334 9.47023 87.864 10.0784 89.0895 11.1743C90.3149 12.2702 91.1623 13.7885 91.4924 15.4798C91.5242 16.0232 91.694 16.5461 91.9827 16.9901C92.5536 17.6206 93.5007 17.408 94.3067 17.3347C95.5822 17.263 96.8432 17.6563 97.8914 18.4526C98.9396 19.249 99.7154 20.4032 100.097 21.7336L65.1152 21.609C64.9817 20.9965 65.0264 20.3539 65.2431 19.7705C65.4598 19.187 65.8377 18.6918 66.3243 18.3538Z" fill="#F5F5F5"/>
<path d="M121.56 43.4986C121.928 43.2014 122.367 43.0278 122.823 42.9986C123.279 42.9694 123.733 43.0859 124.13 43.3341C124.693 42.1992 125.631 41.346 126.751 40.9519C127.871 40.5577 129.087 40.653 130.144 41.2178C130.419 39.9624 131.073 38.8467 132.001 38.0535C132.928 37.2603 134.073 36.8367 135.248 36.852C136.423 36.8673 137.559 37.3206 138.469 38.1377C139.379 38.9548 140.009 40.0872 140.256 41.3493C140.287 41.7696 140.427 42.1713 140.66 42.5062C141.08 42.9777 141.783 42.8187 142.387 42.7639C143.335 42.7096 144.271 43.0035 145.049 43.5993C145.828 44.195 146.403 45.0586 146.685 46.0535L120.687 45.9494C120.585 45.4918 120.614 45.0108 120.77 44.5721C120.926 44.1334 121.202 43.7585 121.56 43.4986Z" fill="#F0F0F0"/>
<path d="M223.04 10.9009C223.409 10.6038 223.847 10.4301 224.303 10.4009C224.76 10.3717 225.214 10.4883 225.611 10.7364C226.173 9.60157 227.112 8.74837 228.232 8.35422C229.352 7.96007 230.567 8.0553 231.625 8.62009C231.899 7.36476 232.554 6.24908 233.481 5.45588C234.408 4.66268 235.553 4.23901 236.729 4.25431C237.904 4.2696 239.039 4.72295 239.949 5.54005C240.859 6.35716 241.489 7.48956 241.737 8.75168C241.767 9.17197 241.908 9.57363 242.141 9.90854C242.56 10.3801 243.264 10.2211 243.868 10.1662C244.815 10.1119 245.752 10.4059 246.53 11.0016C247.308 11.5973 247.883 12.4609 248.165 13.4559L222.167 13.3517C222.065 12.8941 222.094 12.4131 222.251 11.9744C222.407 11.5357 222.683 11.1608 223.04 10.9009Z" fill="#F0F0F0"/>
<path d="M193.905 32.1028C194.322 31.7666 194.819 31.5702 195.335 31.5371C195.851 31.504 196.365 31.6357 196.815 31.9164C197.452 30.6318 198.514 29.6661 199.782 29.2199C201.05 28.7737 202.425 28.8813 203.623 29.5204C203.932 28.0973 204.673 26.8321 205.723 25.9327C206.774 25.0332 208.072 24.5529 209.403 24.5708C210.735 24.5887 212.022 25.1036 213.052 26.0309C214.082 26.9583 214.794 28.243 215.072 29.6739C215.108 30.1346 215.26 30.5751 215.511 30.9459C216.01 31.4942 216.784 31.3023 217.463 31.242C218.537 31.1805 219.599 31.5143 220.482 32.1906C221.364 32.8668 222.016 33.8469 222.334 34.9758L192.887 34.8551C192.777 34.337 192.815 33.794 192.998 33.3011C193.18 32.8081 193.497 32.3894 193.905 32.1028Z" fill="#F0F0F0"/>
<path d="M137.929 18.1881C138.541 17.7761 139.237 17.5391 139.954 17.4988C140.671 17.4586 141.385 17.6164 142.032 17.9579C143.699 14.7614 148.335 13.3469 151.644 15.0356C152.508 11.5869 156.076 8.93324 159.8 8.9771C163.523 9.02096 167.012 11.7514 167.805 15.2165C167.859 15.7936 168.076 16.3378 168.424 16.7736C169.098 17.4315 170.221 17.2067 171.179 17.1409C174.174 16.9161 177.233 18.9283 178.052 21.7026L136.507 21.5546C136.142 20.2168 136.771 19.0215 137.929 18.1881Z" fill="#F5F5F5"/>
<path d="M44.8842 46.7306C45.2948 46.3958 45.7836 46.1997 46.292 46.1659C46.8003 46.132 47.3067 46.2617 47.7504 46.5396C48.9104 43.9303 52.148 42.7876 54.4558 44.152C54.7593 42.733 55.4883 41.471 56.523 40.5738C57.5576 39.6766 58.8362 39.1975 60.1484 39.2153C61.4606 39.2332 62.7283 39.7469 63.7428 40.6721C64.7574 41.5972 65.4584 42.8786 65.7305 44.3055C65.8165 44.7523 65.8748 45.2469 66.1632 45.5743C66.6328 46.1064 67.4153 45.9154 68.0843 45.871C69.1445 45.8099 70.1926 46.1447 71.0618 46.8221C71.931 47.4995 72.5713 48.4807 72.8809 49.6093L43.8929 49.4934C43.6382 48.3848 44.0771 47.4093 44.8842 46.7306Z" fill="#E6E6E6"/>
</svg>
