<svg width="669" height="414" viewBox="0 0 669 414" fill="none" xmlns="http://www.w3.org/2000/svg">
<path d="M0.647923 347.371C0.647923 347.371 -0.807763 362.386 26.9037 373.349C56.0175 384.858 198.969 378.875 162.384 392.425C136.363 402.065 177.579 409.658 281.831 412.291C335.435 413.64 569.17 417.043 514.327 390.524C473.6 370.829 672.909 399.016 668.16 347.376L0.647923 347.371Z" fill="#CFDDF9"/>
<path d="M118.158 347.073C118.158 347.073 39.4333 190.224 96.0876 155.29C133.954 131.945 164.136 182.689 212.043 155.463C254.693 131.231 217.639 65.4769 276.347 54.9109C352.203 41.2565 412.426 174.091 475.186 155.29C551.344 132.478 627.099 178.787 561.633 347.371L118.158 347.073Z" fill="#D4E8FF"/>
<path d="M56.5636 331.929C55.2281 328.79 53.9354 325.535 52.6773 322.257L55.7757 321.543C57.0257 324.798 58.3238 328.032 59.6379 331.153L56.5636 331.929ZM610.828 327.875L607.623 327.568C608.157 324.223 608.662 320.869 609.127 317.558L612.332 317.831C611.872 321.141 611.362 324.519 610.828 327.875ZM49.1196 312.516C47.9897 309.282 46.892 305.976 45.8583 302.707L48.9994 302.112C50.025 305.359 51.1148 308.64 52.2393 311.86L49.1196 312.516ZM613.673 307.773L610.467 307.542C610.876 304.186 611.255 300.809 611.592 297.508L614.816 297.704C614.453 301.017 614.071 304.403 613.662 307.773H613.673ZM42.8935 292.844C41.9613 289.545 41.0719 286.207 40.2546 282.927L43.4277 282.451C44.2423 285.711 45.1238 289.028 46.0506 292.308L42.8935 292.844ZM615.719 287.619L612.492 287.459C612.759 284.105 613.008 280.721 613.205 277.404L616.434 277.519C616.234 280.848 616.007 284.244 615.719 287.619ZM37.9388 272.959C37.2203 269.619 36.5526 266.26 35.9596 262.948L39.1648 262.604C39.7524 265.884 40.4148 269.229 41.128 272.537L37.9388 272.959ZM616.929 267.415L613.697 267.341C613.822 263.973 613.91 260.585 613.964 257.274L617.196 257.3C617.142 260.619 617.054 264.022 616.929 267.408V267.415ZM34.3383 252.897C33.8549 249.522 33.4355 246.129 33.091 242.812L36.3122 242.608C36.6568 245.902 37.0734 249.27 37.5515 252.62L34.3383 252.897ZM613.969 247.194C613.932 243.823 613.849 240.437 613.723 237.129L616.955 237.057C617.078 240.381 617.164 243.784 617.201 247.173L613.969 247.194ZM32.2443 232.698C32.0306 229.305 31.8864 225.898 31.8223 222.571L35.0542 222.532C35.1183 225.831 35.2598 229.21 35.4708 232.576L32.2443 232.698ZM613.203 227.078C612.981 223.712 612.708 220.333 612.401 217.036L615.625 216.852C615.943 220.167 616.215 223.565 616.44 226.951L613.203 227.078ZM35.0835 212.484L31.8516 212.433C31.9425 209.03 32.1187 205.623 32.3671 202.303L35.5937 202.451C35.3346 205.738 35.1717 209.113 35.0835 212.484ZM611.271 207.016C610.839 203.648 610.35 200.284 609.818 197.02L613.024 196.706C613.558 199.993 614.049 203.377 614.485 206.766L611.271 207.016ZM36.6194 192.447L33.4142 192.197C33.8522 188.806 34.3891 185.42 35.0168 182.125L38.2219 182.486C37.5836 185.748 37.0547 189.09 36.6194 192.447ZM608.008 187.064C607.337 183.719 606.597 180.386 605.815 177.159L608.99 176.697C609.792 179.949 610.526 183.308 611.202 186.681L608.008 187.064ZM225.728 186.711C221.238 186.161 217.982 184.576 213.487 181.837L215.53 179.894C219.472 182.287 222.32 183.722 226.072 184.218L225.728 186.711ZM236.946 180.746L234.056 179.605C235.536 177.358 236.845 174.239 237.945 170.338L241.102 170.873C239.932 175.043 238.57 178.272 236.943 180.746H236.946ZM204.002 174.66C201.427 172.435 198.66 169.876 195.588 166.833L198.129 165.283C201.171 168.286 203.879 170.8 206.409 172.985L204.002 174.66ZM40.3534 172.604L37.1803 172.119C38.0163 168.771 38.9645 165.436 39.9955 162.202L43.1339 162.805C42.1136 165.992 41.1787 169.286 40.3534 172.592V172.604ZM603.202 167.33C602.244 164.017 601.213 160.735 600.133 157.572L603.258 156.93C604.348 160.125 605.395 163.438 606.357 166.78L603.202 167.33ZM243.284 160.783L240.079 160.462C240.576 157.471 241.019 154.195 241.439 150.446L244.66 150.663C244.235 154.445 243.786 157.757 243.284 160.783ZM187.672 158.746C185.043 155.995 182.33 153.084 179.971 150.573L182.589 149.102C184.931 151.608 187.664 154.512 190.271 157.254L187.672 158.746ZM424.321 158.54C421.741 158.525 419.211 157.927 416.981 156.806L418.704 154.685C422.24 156.415 425.718 156.42 429.473 155.038L430.865 157.302C428.802 158.094 426.575 158.515 424.318 158.54H424.321ZM46.5715 153.137L43.4811 152.405C44.7659 149.148 46.1735 145.909 47.6692 142.777L50.7008 143.648C49.2237 146.734 47.8375 149.926 46.5715 153.137ZM441.431 150.749L439.057 149.049C441.91 146.601 444.592 144.008 447.089 141.285L449.706 142.754C447.136 145.56 444.372 148.23 441.431 150.749ZM407.777 149.025C405.423 146.154 403.305 143.144 401.439 140.016L404.361 138.945C406.165 141.971 408.212 144.884 410.488 147.663L407.777 149.025ZM596.552 147.914C595.248 144.667 593.859 141.469 592.422 138.411L595.459 137.552C596.915 140.647 598.32 143.883 599.637 147.171L596.552 147.914ZM172.311 142.4C169.354 139.268 166.889 136.692 164.565 134.304L167.142 132.788C169.488 135.191 171.95 137.776 174.931 140.922L172.311 142.4ZM245.632 140.539L242.406 140.377C242.651 137.439 242.9 134.14 243.167 130.284L246.396 130.418C246.126 134.283 245.878 137.591 245.632 140.539ZM55.546 134.366L52.5865 133.354C54.3672 130.237 56.2591 127.181 58.2624 124.184L61.1283 125.339C59.1518 128.288 57.291 131.297 55.546 134.366ZM457.11 134.366L454.41 132.98C456.707 130.271 459.081 127.402 461.483 124.503L464.202 125.858C461.792 128.774 459.418 131.645 457.11 134.366ZM396.246 130.659C394.783 127.81 393.268 124.704 391.62 121.16L394.662 120.31C396.297 123.826 397.798 126.91 399.249 129.73L396.246 130.659ZM587.676 129.095C585.94 125.956 584.102 122.906 582.214 120.03L585.093 118.894C587.014 121.818 588.881 124.916 590.646 128.106L587.676 129.095ZM156.579 126.36C153.641 123.537 150.916 121.024 148.235 118.677L150.652 117.014C153.368 119.388 156.133 121.931 159.097 124.787L156.579 126.36ZM247.074 120.308L243.845 120.181C244.064 116.831 244.281 113.482 244.51 110.072L247.737 110.201C247.502 113.611 247.285 116.96 247.069 120.308H247.074ZM471.293 117.402L468.595 116.016C471.296 112.846 473.713 110.104 475.981 107.635L478.614 109.09C476.363 111.539 473.967 114.255 471.288 117.402H471.293ZM67.5387 116.692L64.8143 115.343C67.1889 112.434 69.7893 109.667 72.5975 107.062L75.0682 108.679C72.3511 111.199 69.8354 113.877 67.5387 116.692ZM387.304 111.597C385.822 108.229 384.366 104.858 383.142 102.005L386.209 101.211C387.432 104.061 388.88 107.427 390.365 110.788L387.304 111.597ZM139.34 111.421C136.266 109.084 133.042 106.897 129.685 104.872L131.656 102.886C135.113 104.969 138.431 107.219 141.594 109.626L139.34 111.421ZM575.942 111.31C573.7 108.461 571.293 105.71 568.731 103.07L571.308 101.557C573.935 104.263 576.404 107.081 578.704 110L575.942 111.31ZM84.1335 101.86L82.173 99.8664C85.8107 97.6694 89.8468 96.0127 94.115 94.9646L95.0605 97.3623C91.1543 98.3255 87.4613 99.8455 84.1335 101.86ZM486.406 101.093L483.892 99.5153C486.663 96.8433 489.595 94.2988 492.674 91.8923L494.961 93.664C491.961 96.0095 489.105 98.4892 486.406 101.093ZM248.458 100.107L245.231 99.9588C245.499 96.3136 245.787 93.0057 246.081 89.841L249.305 90.0212C249.014 93.1743 248.746 96.473 248.458 100.107ZM119.001 99.5846C115.261 98.1008 111.286 97.1058 107.208 96.6324L107.646 94.1468C112.07 94.6581 116.382 95.7339 120.44 97.3392L119.001 99.5846ZM560.405 95.5328C557.426 93.1465 554.226 90.9762 550.835 89.044L552.739 87.0159C556.277 89.0305 559.617 91.2926 562.726 93.7795L560.405 95.5328ZM379.018 92.4097C377.416 88.679 376.08 85.6391 374.849 82.8394L377.905 82.0262C379.147 84.8329 380.474 87.8798 382.085 91.6151L379.018 92.4097ZM504.635 87.2584L502.781 85.2048C506.487 83.154 510.503 81.5558 514.715 80.4554L515.714 82.8417C511.801 83.8638 508.07 85.3494 504.627 87.2561L504.635 87.2584ZM539.892 84.1861C536.031 82.9057 531.983 82.0948 527.865 81.7768L528.166 79.2797C532.618 79.6192 536.993 80.4931 541.166 81.8761L539.892 84.1861ZM250.349 79.9496L247.128 79.7186C247.531 76.2004 247.969 72.8047 248.431 69.6216L251.636 69.9011C251.174 73.0819 250.739 76.4591 250.349 79.9496ZM370.543 73.3014C368.981 69.9195 367.509 66.8334 366.043 63.8535L369.061 62.9595C370.535 65.951 372.015 69.0579 373.586 72.4559L370.543 73.3014ZM253.287 59.9219L250.082 59.5638C250.736 56.0526 251.455 52.6777 252.219 49.5315L255.395 49.9935C254.636 53.1074 253.925 56.4476 253.287 59.9219ZM361.254 54.4934C359.518 51.2594 357.765 48.1524 356.051 45.2788L358.989 44.2254C360.722 47.1291 362.49 50.2591 364.245 53.5301L361.254 54.4934ZM258.154 40.1852L255.018 39.5777C256.145 36.0757 257.387 32.7794 258.712 29.7764L261.77 30.5872C260.459 33.5186 259.243 36.7526 258.138 40.1852H258.154ZM350.303 36.2906C348.166 33.1859 346.005 30.2707 343.847 27.6281L346.579 26.2859C348.778 28.984 350.992 31.9547 353.158 35.1148L350.303 36.2906ZM266.607 21.4118L263.709 20.303C265.669 17.1721 268.014 14.2336 270.705 11.5389L273.245 13.0889C270.692 15.6452 268.467 18.4326 266.607 21.4026V21.4118ZM336.438 19.4969C333.781 16.8886 330.884 14.4706 327.776 12.2666L329.942 10.407C333.179 12.7011 336.196 15.218 338.964 17.933L336.438 19.4969ZM282.262 6.59088L280.52 4.47954C284.387 2.56726 288.644 1.32004 293.058 0.806641L293.55 3.28527C289.577 3.74483 285.744 4.86415 282.262 6.58164V6.59088ZM317.575 6.59088C313.891 5.03756 309.964 3.95965 305.919 3.39153L306.485 0.922141C310.866 1.53956 315.12 2.70688 319.111 4.38714L317.575 6.59088Z" fill="#DCE6FF"/>
<path d="M633.262 268.798C606.44 265.359 608.868 317.036 570.632 317.036C535.674 317.036 516.97 201.582 478.609 225.063C324.389 319.466 444.38 158.824 340.682 155.684C293.793 154.264 262.547 197.495 251.025 274.065C234.323 343.289 195.594 221.274 155.727 232.619C130.392 239.826 133.29 317.036 98.3378 317.036C60.1026 317.036 62.6214 273.582 35.7993 277.019C6.91795 280.715 0.152344 348.096 0.152344 348.096H668.818C668.818 348.096 662.143 272.501 633.262 268.798Z" fill="#EEF7FF"/>
<path d="M607.558 323.035C582.884 321.568 586.909 334.832 551.734 334.832C519.576 334.832 520.457 305.102 498.937 298.784C459.305 287.156 426.633 346.038 411.267 316.493C382.084 238.07 296.968 198.743 257.702 316.493C242.338 346.047 206.419 293.312 170.032 298.793C147.641 302.171 149.385 334.832 117.234 334.832C82.0602 334.832 86.0853 321.568 61.4108 323.035C34.8425 324.617 26.9043 348.096 26.9043 348.096H642.065C642.065 348.096 634.129 324.617 607.558 323.035Z" fill="#DCE6FF"/>
<path d="M164.818 198.221C146.674 180.498 132.539 162.247 121.644 145.426C124.483 146.867 137.403 147.477 137.608 145.081C137.814 142.393 122.186 141.385 120.247 143.233C119.517 142.085 118.805 140.944 118.11 139.812C120.901 141.101 134.657 140.043 134.489 137.521C134.221 134.834 118.599 135.922 117.007 138.015C116.134 136.581 115.286 135.161 114.461 133.753C117.4 134.927 130.725 133.843 130.541 131.379C130.234 128.736 115.201 129.762 113.273 131.707C112.472 130.295 111.67 128.895 110.901 127.519C113.441 128.84 128.078 125.74 127.408 123.153C126.657 120.515 111.115 123.829 110.156 126.156C109.424 124.82 108.712 123.501 108.019 122.199C110.89 123.213 124.659 120.224 124.024 117.715C123.222 115.158 108.668 118.221 107.076 120.397C106.259 118.841 105.472 117.312 104.715 115.809C107.653 116.765 121.238 113.793 120.602 111.302C119.801 108.761 105.506 111.764 103.775 113.894C103.2 112.733 102.645 111.591 102.111 110.468C105.049 111.198 118.404 106.167 117.261 103.742C116 101.383 102.701 106.283 101.253 108.623C100.508 107.017 99.8165 105.5 99.13 103.95C102.17 104.516 115.116 99.5929 114.005 97.216C112.776 94.9059 99.926 99.5906 98.2192 101.873C97.7064 100.69 97.2105 99.5244 96.7315 98.3756C99.5841 98.9392 112.079 91.1799 110.308 88.9877C108.516 86.9434 96.9879 94.0074 95.9782 96.5553C95.3978 95.1385 94.844 93.7525 94.3169 92.3973C97.2096 92.8731 109.563 85.197 107.808 83.0071C106.043 80.9836 94.6935 87.902 93.561 90.4477C93.0054 88.9893 92.4792 87.5732 91.9824 86.1996C95.1876 85.8623 105.872 78.997 104.253 76.9827C102.808 75.1185 92.8372 80.8311 90.9488 83.289C90.4769 81.9399 90.0317 80.6394 89.6133 79.3874C92.6529 79.0293 102.701 70.1035 100.607 68.2462C98.7881 66.6177 90.0246 73.8018 88.6838 76.5068C88.3205 75.3633 87.9867 74.2707 87.6741 73.2335C90.5722 73.3282 100.762 63.0996 98.4275 61.3255C96.3549 59.7801 87.8478 67.9182 86.9423 70.6879C86.4882 69.1033 86.1009 67.6849 85.7751 66.419C88.7452 66.1349 98.4436 56.3497 96.1732 54.5895C94.2875 53.0765 86.2104 60.5655 85.0058 63.3398C84.7387 62.2033 84.5464 61.3463 84.4289 60.7988C86.0555 58.5188 84.8456 46.2643 81.8754 46.4075C80.4945 46.5022 79.6906 50.0434 80.0805 54.3169C80.4144 59.3666 82.1666 60.1543 82.8183 63.8873C80.7723 61.4895 70.8603 56.1765 69.5248 58.043C67.7619 60.286 80.9539 68.043 83.6249 67.1305C83.9294 68.2994 84.2873 69.6068 84.6933 71.0413C82.2894 68.9947 70.6974 65.3102 69.7358 67.4678C68.6273 69.9626 82.8584 74.9106 85.4946 73.7949C85.8632 75.0269 86.2647 76.3228 86.6992 77.6826C84.087 75.8346 72.2278 73.0626 71.5013 75.271C70.6787 77.8119 84.9097 81.5865 87.602 80.4546C88.0223 81.7097 88.4674 83.0125 88.9375 84.3631C86.2024 82.6884 73.9025 80.7849 73.3844 83.0764C72.8368 85.6567 87.2521 88.2855 89.8777 87.0034C90.3318 88.2508 90.8099 89.5444 91.312 90.8542C88.5155 89.3781 75.4704 88.7406 75.2407 91.1568C75.0804 93.781 89.827 94.7743 92.2122 93.1896C92.6822 94.3893 93.1701 95.6113 93.6759 96.8556C90.9141 95.5458 77.081 96.6038 77.2493 99.1332C77.5564 101.769 92.5273 100.75 94.4878 98.8214C95.022 100.117 95.5829 101.435 96.1706 102.776C93.5289 101.376 79.3727 102.42 79.5383 104.987C79.8241 107.657 95.2411 106.604 96.9478 104.548C97.5915 106.005 98.2406 107.431 98.935 108.937C96.1465 107.648 82.3883 108.706 82.5565 111.231C82.861 113.876 97.9494 112.848 99.8458 110.884C100.344 111.942 100.86 113.02 101.392 114.118C98.3367 113.303 85.1688 116.234 85.8018 118.671C86.5844 121.159 100.463 118.297 102.437 116.241C103.088 117.552 103.762 118.884 104.459 120.237C101.521 119.3 87.9786 122.266 88.6143 124.749C89.4156 127.29 103.727 124.287 105.458 122.15C106.17 123.522 106.916 124.915 107.696 126.329C104.95 125.19 90.8259 128.223 91.4723 130.769C92.2522 133.363 107.252 130.182 108.567 127.932C109.279 129.229 110.018 130.538 110.784 131.859C107.805 131.115 94.4905 135.368 95.428 137.805C96.5285 140.247 110.345 135.957 111.831 133.679C112.656 135.098 113.511 136.532 114.381 137.981C111.726 136.865 97.474 141.328 98.4703 143.846C99.5547 146.387 114.365 141.718 115.196 139.327C116.122 140.846 117.076 142.377 118.059 143.922C115.193 143.229 101.969 149.283 103.342 151.644C104.833 153.954 118.121 147.895 119.029 145.446C130.076 162.64 144.497 181.362 163.1 199.533L164.818 198.221Z" fill="#3A72AA"/>
<path d="M170.839 185.246C152.801 180.33 135.423 173.761 119 165.651C121.495 165.623 130.127 161.652 129.185 160.028C128.116 158.215 117.526 162.851 117.109 164.71C116.119 164.213 115.14 163.716 114.171 163.22C116.575 163.112 124.991 157.771 123.741 156.196C122.349 154.551 112.729 160.536 112.643 162.433C111.43 161.8 110.238 161.167 109.067 160.534C111.495 160.303 119.641 155.092 118.415 153.558C117.024 151.941 107.747 157.697 107.381 159.612C106.217 158.972 105.068 158.335 103.949 157.702C106.193 157.702 114.27 150.74 112.664 149.291C110.99 147.836 102.424 155.237 102.854 157.076C101.775 156.46 100.717 155.844 99.6808 155.228C101.999 154.914 109.563 148.321 108.017 146.912C106.35 145.526 98.3026 152.433 98.2545 154.382C97.0205 153.645 95.8185 152.915 94.6487 152.193C96.9778 151.823 104.44 145.299 102.902 143.902C101.246 142.53 93.3319 149.303 93.1716 151.275C92.2741 150.714 91.4061 150.16 90.554 149.612C92.7763 149.099 99.1493 141.322 97.3223 140.141C95.4526 139.039 89.0423 146.718 89.1624 148.716C87.9552 147.928 86.8173 147.182 85.6741 146.406C87.8991 145.743 94.0584 138.178 92.2635 137.014C90.4232 135.935 84.2184 143.313 84.1463 145.369C83.2792 144.774 82.4307 144.187 81.6009 143.606C83.7029 143.003 88.2784 133.756 86.1416 132.934C84.0582 132.218 79.7846 140.689 80.2814 142.68C79.2664 141.959 78.2817 141.25 77.3273 140.552C79.4053 139.885 83.946 130.737 81.8092 129.913C79.7526 129.199 75.5297 137.517 75.9491 139.548C74.9288 138.793 73.9494 138.055 73.011 137.332C81.5822 127.503 75.4389 121.488 71.0264 135.796C70.113 135.083 69.2387 134.39 68.4035 133.717C70.2091 132.458 72.6771 123.283 70.4842 122.784C68.5691 122.345 66.1439 129.961 66.4965 132.165C65.7468 131.549 65.0345 130.957 64.3597 130.388C66.2774 129.464 68.2566 119.395 65.9382 119.039C63.8976 118.739 62.068 126.893 62.733 128.991C61.7234 128.118 60.8259 127.323 60.0487 126.621C61.8436 125.433 63.6999 115.815 61.4323 115.443C59.5278 115.101 57.6929 122.682 58.1576 124.886C57.4658 124.239 56.9584 123.752 56.6325 123.431C56.6539 121.405 50.329 113.877 48.47 114.971C47.6179 115.5 48.697 118.067 50.8738 120.703C53.3739 123.86 54.8643 123.777 56.9744 125.974C54.5705 125.115 45.7402 125.027 45.7295 126.683C45.6013 128.732 57.6555 129.296 58.9696 127.801C59.6961 128.456 60.517 129.18 61.4323 129.973C58.9563 129.457 49.7761 130.994 50.134 132.715C50.5453 134.706 62.0012 133.096 63.2004 131.481C63.9911 132.151 64.836 132.855 65.7352 133.592C63.2085 133.281 54.274 135.494 54.8029 137.171C55.4172 139.095 66.3469 136.727 67.5782 135.092C68.4133 135.765 69.2912 136.458 70.2118 137.171C67.6824 137.009 58.8548 139.943 59.5519 141.597C60.3665 143.445 70.8902 140.28 72.012 138.559C72.8685 139.215 73.7589 139.885 74.683 140.569C72.207 140.569 63.4649 144.558 64.4104 146.2C65.4948 147.954 75.495 143.611 76.323 141.777C77.167 142.394 78.0405 143.022 78.9326 143.657C76.5527 143.74 68.067 149.106 69.317 150.686C70.7086 152.292 79.9475 146.57 80.3402 144.655C81.2777 145.311 82.2339 145.976 83.2195 146.649C80.8744 146.632 72.1776 152.098 73.4464 153.706C74.8379 155.339 84.344 149.432 84.5229 147.531C85.5913 148.259 86.6597 148.961 87.7949 149.7C85.4044 149.809 76.9721 155.149 78.2221 156.725C79.6163 158.342 88.9221 152.567 89.2639 150.652C90.0652 151.169 90.8843 151.69 91.7212 152.216C89.3761 152.722 82.1698 159.074 83.6842 160.437C85.3162 161.786 93.0113 155.237 93.3586 153.237C94.3735 153.868 95.4126 154.503 96.4756 155.142C94.1438 155.533 86.7185 162.031 88.2543 163.424C89.9103 164.798 97.8325 158.014 97.9874 156.032C99.0736 156.679 100.187 157.328 101.326 157.981C99.0344 158.173 91.2565 164.911 92.827 166.344C94.5044 167.762 102.782 160.626 102.619 158.721C103.668 159.317 104.736 159.916 105.824 160.52C103.562 161.044 96.8549 168.305 98.5697 169.564C100.386 170.772 107.384 163.327 107.325 161.345C108.5 161.982 109.705 162.624 110.926 163.267C108.701 163.442 101.486 171.153 103.271 172.447C105.119 173.722 112.603 165.692 112.061 163.863C113.346 164.533 114.66 165.202 115.993 165.872C113.818 166.385 107.996 174.787 109.953 175.852C111.991 176.854 117.846 168.423 117.333 166.538C134.102 174.889 151.871 181.639 170.326 186.672L170.839 185.246Z" fill="#FCB4B4"/>
<path d="M564.594 101.836C567.23 107.195 569.065 112.035 569.591 114.772C571.096 111.652 572.553 108.767 573.964 106.116C571.095 104.382 562.275 77.336 565.315 76.4675C568.253 76.091 575.494 99.0662 575.36 103.531C576.984 100.572 578.536 97.9158 580.003 95.5412C577.276 94.6587 574.746 64.5294 577.973 64.5294C579.335 64.4509 580.983 71.3624 581.648 79.9694C582.075 85.4511 581.998 90.2951 581.536 93.1133C583.523 90.0249 585.331 87.4746 586.92 85.391C584.388 84.1783 588.59 54.0281 591.75 54.5918C594.586 55.1693 591.247 78.2624 589.207 82.5243C593.996 77.1235 594.947 74.9822 603.825 67.9459C621.061 54.2106 624.485 57.4285 607.172 71.1014C598.796 78.2346 595.371 77.4723 590.128 84.4508C594.154 82.2055 622.202 76.7054 623.225 79.2002C623.852 81.9237 591.312 87.9782 588.617 86.3797C586.955 88.5603 585.045 91.2584 582.933 94.5663C586.613 92.5959 616.544 89.5906 617.239 92.2355C617.506 95.0075 584.511 97.9158 581.96 96.1094C580.441 98.558 578.822 101.307 577.126 104.391C581.285 102.515 610.158 99.6576 610.866 102.249C610.93 105.005 579.503 107.773 576.106 106.266C574.613 109.038 573.063 112.078 571.466 115.386C575.638 113.513 604.48 110.66 605.185 113.25C605.222 116.001 574.105 118.743 570.553 117.294C569.246 120.056 567.91 122.999 566.546 126.126C570.414 124.19 599.947 121.24 600.649 123.866C600.743 126.625 569.065 129.41 565.798 127.86C564.556 130.836 563.17 133.806 561.666 136.569C565.563 135.074 595.855 136.029 596.077 138.74C595.713 141.489 563.621 140.08 560.82 138.082C559.153 141.035 557.28 143.897 555.21 146.652C558.149 145.021 590.435 148.32 590.2 151.08C589.965 153.841 555.478 149.925 554.535 147.537C551.955 150.868 549.034 153.992 545.809 156.872C549.938 156.25 579.116 164 578.499 166.673C577.401 169.279 546.204 160.565 544.484 158.02C541.131 160.863 537.44 163.392 533.474 165.566C537.79 165.691 564.618 177.606 563.493 180.138C561.891 182.533 532.956 169.242 531.762 166.472C521.324 171.785 513.145 172.439 512.798 172.464L512.627 170.746C512.707 170.746 520.573 170.094 530.469 165.125C527.245 162.866 515.047 138.56 517.803 137.227C520.819 136.486 532.382 160.404 532.243 164.199C536.079 162.101 539.647 159.658 542.889 156.911C539.737 156.049 524.294 130.713 527.104 129.373C530.042 128.322 544.39 152.718 543.971 155.982C547.165 153.163 550.06 150.101 552.622 146.835C549.417 146.206 531.647 122.005 534.326 120.475C537.176 119.269 553.437 142.168 553.557 145.627C555.533 143.007 557.326 140.288 558.929 137.484C555.99 137.703 537.44 112.323 540.264 110.981C543.103 109.72 559.714 133.123 559.551 136.37C560.988 133.779 562.374 130.926 563.624 127.95C560.128 126.454 543.325 103.578 545.87 101.919C548.613 100.831 563.413 121.464 564.602 125.673C565.964 122.534 567.299 119.581 568.608 116.812C565.55 115.811 552.315 89.4451 555.237 88.3062C556.498 87.8419 560.686 93.9011 564.594 101.836Z" fill="#FCB4B4"/>
<path d="M229.826 106.728C229.559 104.666 206.546 104.67 203.536 105.885C205.345 103.207 206.823 100.372 207.945 97.426C210.082 98.6526 234.922 95.1414 234.583 93.037C233.905 91.0342 210.924 94.5824 208.373 96.2571C209.402 93.3154 210.128 90.3006 210.542 87.2482C212.091 88.6342 237.252 80.8425 236.239 78.8929C235.227 76.9432 211.955 84.4646 210.643 86.4674C210.949 83.9624 211.075 81.4436 211.022 78.9252C213.712 79.4473 236.13 70.6993 235.256 68.7266C233.996 66.9571 213.05 75.4441 210.982 77.6432C210.897 75.3863 210.638 72.8915 210.28 70.4822C213.108 70.563 233.552 59.0823 232.361 57.2413C230.804 55.6797 211.957 66.5829 210.088 69.0777C209.749 66.5382 209.468 64.1335 209.244 61.8636C212.224 61.7873 232.31 50.5053 231.146 48.655C229.602 47.1188 211.185 57.7448 209.083 60.2905C208.832 57.56 208.664 55.0329 208.549 52.6906C211.447 52.6906 231.731 41.3069 230.558 39.4612C229.012 37.9227 210.576 48.5626 208.482 51.1059C208.391 48.4956 208.381 46.1394 208.429 44.0165C210.878 44.4785 232.155 32.5266 230.849 30.7294C229.292 29.1517 210.194 40.2119 208.466 42.6721C208.565 39.7869 208.773 37.3753 209.025 35.391C211.484 35.6635 231.194 21.7135 229.655 20.0572C227.935 18.6827 211.124 30.868 209.273 33.6215C210.018 27.306 212.662 26.77 215.472 19.3988C221.741 4.87355 218.117 3.71855 211.941 18.2716C208.736 25.7467 208.968 27.4654 207.889 32.5936C207.563 29.0962 200.493 12.3533 198.338 12.8338C195.966 13.4067 205.282 35.1715 207.491 35.2408C207.251 37.1373 207.051 39.415 206.957 42.1154C206.121 38.8999 195.095 22.9424 192.993 23.7578C190.806 24.7349 204.681 44.4508 206.882 44.229C206.845 46.2872 206.861 48.5626 206.952 51.0643C205.256 48.0013 191.027 34.5386 189.195 35.6982C187.491 37.2159 204.382 52.9169 207.048 53.2542C207.16 55.4857 207.333 57.8873 207.566 60.4591C205.809 57.7379 188.843 45.4164 187.13 46.807C185.613 48.4748 205.234 62.3833 207.732 62.15C207.961 64.4277 208.246 66.8393 208.586 69.3849C206.097 66.8924 187.665 57.3129 186.26 58.8929C185.223 60.794 205.838 71.256 208.84 71.2283C209.19 73.6307 209.398 75.9869 209.471 78.1837C208.287 75.9361 187.51 65.0167 186.105 66.7469C184.735 68.5141 207.588 80.1588 209.495 79.1285C209.539 81.5196 209.418 83.9109 209.131 86.2895C207.676 83.9795 187.336 73.305 185.894 74.9959C184.702 76.8439 206.519 87.9319 208.974 87.3914C208.556 90.3776 207.833 93.326 206.813 96.2017C205.798 93.8663 186.166 81.5887 184.601 83.2033C183.244 84.9705 203.95 97.5253 206.452 97.1581C205.358 100.005 203.917 102.744 202.155 105.329C200.736 102.721 183.191 89.9231 181.449 91.353C180.114 93.0994 198.204 105.906 201.324 106.495C196.607 112.854 191.524 115.668 191.463 115.703L192.264 116.821C192.494 116.698 197.788 113.783 202.74 107.019C204.647 108.542 229.714 108.844 229.826 106.728Z" fill="#CE4ABF"/>
<path d="M536.303 331.67V110.973C536.303 99.3682 525.425 89.9609 512.007 89.9609L139.474 89.9609C126.056 89.9609 115.179 99.3682 115.179 110.973V331.67C115.179 343.275 126.056 352.682 139.474 352.682H512.007C525.425 352.682 536.303 343.275 536.303 331.67Z" fill="#8A9EDD"/>
<path d="M514.33 107.963H137.154V334.687H514.33V107.963Z" fill="white"/>
<path d="M499.196 121.051H152.285V321.6H499.196V121.051Z" fill="#D7DEFF"/>
<path d="M509.701 226.034V220.8H421.311L356.739 261.049H197.888L197.287 174.628L249.027 219.372L257.587 211.969L208.823 169.795H502.655V164.561H203.289V116.822H191.184V164.561H191.165L191.184 167.173V169.347L191.197 169.361L191.483 210.435H144.129V220.906H191.555L191.833 261.049H144.129V271.521H191.908L192.295 327.494L198.347 327.462L197.96 271.521H352.052V327.478H358.104V271.521H417.865L450.526 284.641L402.921 325.813L411.481 333.214L462.217 289.338L500.105 304.558L505.204 295.062L420.539 261.049H367.09L423.266 226.034H509.701Z" fill="white"/>
<path d="M263.897 321.599H242.711V206.51H401.883V167.178H423.067V224.831H263.897V321.599Z" fill="#8A9EDD"/>
<path d="M425.88 167.946C425.8 183.762 397.992 183.762 397.912 167.946C397.995 152.129 425.803 152.131 425.88 167.946Z" fill="#EB5648"/>
<path d="M419.478 167.945C419.622 176.455 404.165 176.455 404.31 167.945C404.168 159.435 419.622 159.435 419.478 167.945Z" fill="white"/>
<path d="M443.022 100.648C445.218 123.307 411.897 152.623 411.897 152.623C331.279 78.6063 437.691 45.5826 443.022 100.648Z" fill="#EB5648"/>
<path d="M429.117 100.305C428.73 119.882 395.06 119.878 394.678 100.305C395.062 80.7279 428.733 80.7302 429.117 100.305Z" fill="white"/>
<path d="M253.306 233.383V288.393L211.34 296.247L253.306 233.383Z" fill="#EB5648"/>
<path d="M295.272 296.247L253.309 288.393V233.383L295.272 296.247Z" fill="#D33F37"/>
<path d="M62.0804 372.648L61.8133 372.528C61.8133 372.687 61.5836 373.241 61.3993 373.241L53.608 373.38C53.4237 373.38 53.3116 373.08 53.3116 372.918L52.6465 372.754C52.6465 371.745 52.7426 371.368 53.2581 370.599C55.1519 368.42 52.8922 358.684 52.9563 356.14C52.4889 355.447 61.1616 355.99 61.2818 355.826C61.3279 355.826 61.3735 355.834 61.4157 355.85C61.4579 355.866 61.4958 355.89 61.527 355.919C61.5582 355.948 61.5819 355.983 61.5967 356.021C61.6115 356.058 61.6171 356.098 61.613 356.138L60.5927 367.263C60.1413 369.379 62.0163 370.656 62.0804 372.648Z" fill="#F99370"/>
<path d="M100.614 373.618H85.0952C83.741 373.569 83.7597 372.375 84.0001 371.449C84.8548 368.109 83.3457 360.439 83.0653 357.004C83.0473 356.856 83.0656 356.706 83.1191 356.564C83.1725 356.422 83.2599 356.291 83.3755 356.18C83.4911 356.069 83.6324 355.981 83.7901 355.92C83.9479 355.86 84.1186 355.828 84.2913 355.829C95.7418 355.729 92.0078 354.935 91.1183 365.618C90.4426 369.349 95.5895 370.061 98.5223 370.469C100.453 370.594 103.685 372.874 100.614 373.618Z" fill="#F99370"/>
<path d="M83.4124 372.223C83.4551 372.881 83.8317 373.632 84.7132 373.609H100.809C104.607 372.389 98.9175 368.035 91.4841 368.065C86.1956 369.321 83.2281 365.759 83.4124 372.223Z" fill="#103663"/>
<path d="M53.8832 373.616H60.7637C64.1158 373.219 61.7012 367.656 57.3234 368.058C52.935 367.578 50.5338 373.226 53.8832 373.616Z" fill="#103663"/>
<path d="M96.9696 371.731C97.0375 371.731 97.1038 371.713 97.16 371.68C97.2162 371.647 97.2597 371.601 97.2848 371.546C97.9045 370.227 99.0183 369.823 99.0663 369.807C99.9371 368.619 97.4077 369.465 96.6625 371.324C96.6424 371.369 96.6349 371.416 96.6405 371.464C96.6461 371.511 96.6647 371.556 96.6948 371.596C96.7249 371.636 96.7655 371.669 96.8133 371.692C96.8611 371.716 96.9147 371.729 96.9696 371.731Z" fill="#E8C0A6"/>
<path d="M94.3093 371.454C94.3826 371.454 94.4541 371.434 94.5133 371.397C94.5724 371.359 94.6161 371.306 94.6378 371.246C95.0005 370.302 95.7476 369.505 96.7399 369.003C97.5412 367.617 94.5898 369.1 93.9834 371.082C93.9706 371.125 93.9692 371.171 93.9794 371.215C93.9897 371.259 94.0113 371.3 94.0426 371.336C94.0739 371.372 94.1142 371.401 94.1604 371.421C94.2065 371.442 94.2575 371.453 94.3093 371.454Z" fill="#E8C0A6"/>
<path d="M91.2872 371.134C91.3582 371.134 91.4276 371.115 91.4855 371.08C91.5434 371.044 91.5871 370.994 91.6104 370.936C92.0265 369.951 92.7699 369.095 93.7472 368.475C94.6126 366.436 89.7941 370.589 91.2872 371.134Z" fill="#E8C0A6"/>
<path d="M54.8598 369.828C56.7695 368.825 59.7023 369.729 59.7129 369.8C61.7082 369.428 56.9885 367.973 54.6861 369.276C54.6226 369.309 54.5733 369.36 54.5458 369.42C54.5183 369.48 54.514 369.546 54.5336 369.608C54.5531 369.67 54.5955 369.725 54.6543 369.765C54.7131 369.805 54.7852 369.827 54.8598 369.828Z" fill="#E8C0A6"/>
<path d="M101.93 372.225H83.4121C83.4722 372.711 83.6448 373.183 83.9196 373.611H100.808C101 373.61 101.189 373.57 101.359 373.493C101.529 373.416 101.675 373.305 101.785 373.169C101.895 373.033 101.965 372.877 101.991 372.712C102.016 372.548 101.995 372.381 101.93 372.225Z" fill="#0F2E54"/>
<path d="M53.8824 373.616H60.7629C60.9699 373.617 61.1747 373.58 61.365 373.51C61.5553 373.44 61.727 373.336 61.8697 373.207C62.0123 373.077 62.123 372.924 62.1949 372.756C62.2669 372.588 62.2985 372.409 62.288 372.23H52.3573C52.3472 372.409 52.3791 372.588 52.4512 372.755C52.5232 372.923 52.6339 373.076 52.7765 373.206C52.9191 373.336 53.0907 373.439 53.2808 373.509C53.4709 373.58 53.6756 373.616 53.8824 373.616Z" fill="#0F2E54"/>
<path d="M92.3277 237.472C92.3277 237.472 94.0131 233.383 90.0012 231.395L86.959 232.757L92.3277 237.472Z" fill="#C92828"/>
<path d="M89.5353 270.467C104.685 280.467 123.649 278.234 134.408 271.276L134.969 266.522C110.179 268.185 104.159 257.903 88.2052 251.664C88.1918 251.664 89.3671 270.146 89.5353 270.467Z" fill="#3A72AA"/>
<path d="M51.4612 360.458C51.4879 361.391 51.5182 362.334 51.552 363.287C51.552 363.287 57.3881 366.618 63.1414 364.292C65.3931 353.689 70.1955 330.98 75.0407 303.595C75.1048 302.788 83.8255 340.312 80.8153 365.161C80.8153 365.161 87.2871 366.604 93.1259 364.699C97.2285 352.021 97.3701 329.016 94.44 280.885C94.44 280.885 76.9103 280.03 64.1591 274.562C53.1706 285.597 50.1337 342.058 51.4612 360.458Z" fill="#9358E0"/>
<path d="M86.6778 251.174C87.4043 247.85 89.1698 241.871 86.2798 240.397C84.2445 239.434 81.3732 240.654 81.6296 242.858C81.846 242.779 81.3011 248.877 80.5452 250.481C74.5515 251.12 90.7591 258.499 86.6778 251.174Z" fill="#F99370"/>
<path d="M81.6266 242.573C81.6266 242.665 81.6266 242.76 81.6266 242.855C81.7815 242.792 81.5331 246.165 81.0684 248.572C83.4722 249.981 86.4824 249.958 87.0353 249.937C87.4734 246.396 89.0413 242.018 86.2741 240.394C84.3884 239.339 81.6426 240.598 81.6266 242.573Z" fill="#E57D61"/>
<path d="M77.9498 239.759C77.9311 242.18 78.3318 244.968 80.1801 246.839C80.2549 246.915 80.3297 246.987 80.4125 247.056C83.2063 249.348 87.6375 249.754 91.1766 247.994C94.0265 246.363 95.3273 243.799 94.4325 241.549C93.8208 240.21 92.4693 238.911 92.3197 237.463C91.4276 228.685 78.0113 230.399 77.9498 239.759Z" fill="#F99370"/>
<path d="M88.6249 239.822C88.6817 239.745 88.7024 239.652 88.6829 239.562C88.6634 239.471 88.6051 239.391 88.5198 239.337C88.4344 239.282 88.3284 239.258 88.223 239.268C88.1176 239.278 88.0207 239.323 87.9519 239.393C87.8951 239.47 87.8744 239.563 87.8939 239.654C87.9134 239.744 87.9717 239.824 88.057 239.879C88.1424 239.933 88.2484 239.958 88.3538 239.947C88.4592 239.937 88.5561 239.892 88.6249 239.822Z" fill="#C16256"/>
<path d="M92.1874 239.824C92.2442 239.747 92.2649 239.654 92.2454 239.564C92.2259 239.473 92.1676 239.393 92.0823 239.338C91.9969 239.284 91.8909 239.259 91.7855 239.27C91.6801 239.28 91.5832 239.325 91.5144 239.395C91.4576 239.472 91.4369 239.565 91.4564 239.656C91.4759 239.746 91.5342 239.826 91.6195 239.881C91.7049 239.935 91.8109 239.96 91.9163 239.949C92.0217 239.939 92.1186 239.894 92.1874 239.824Z" fill="#C16256"/>
<path d="M77.9498 239.759C77.9311 242.18 78.3318 244.968 80.1801 246.84C80.2549 246.916 80.3297 246.987 80.4125 247.057C78.2196 243.261 78.8099 242.481 79.7982 239.838C83.0274 237.851 82.9125 235.139 85.9414 235.151C87.7794 235.154 89.615 235.038 91.433 234.804C88.0408 228.561 77.9044 232.178 77.9498 239.759Z" fill="#E57D61"/>
<path d="M90.6272 242.758C91.3163 242.742 92.2004 242.469 91.4552 241.848C90.7474 241.369 90.4456 239.889 90.4429 239.875C89.7378 239.309 90.4429 241.529 91.2602 242.062C91.7944 242.476 90.4589 242.603 89.9781 242.367C89.2597 242.464 90.3147 242.836 90.6272 242.758Z" fill="#C16256"/>
<path d="M57.8652 290.96C66.3509 296.504 86.4848 297.957 94.9572 295.305C97.8151 294.259 98.2131 285.938 97.8819 277.765C97.3744 266.871 94.3055 258.996 88.4934 251.718C87.91 251.49 87.3039 251.308 86.6825 251.175C86.7118 252.17 86.4474 255.046 80.5392 250.482C80.5125 250.5 78.779 250.299 78.2368 250.5C77.6705 250.872 71.2922 254.466 71.1186 255.051C70.6378 256.8 68.4824 261.124 66.1212 266.164C63.3968 272.059 60.6003 278.1 59.3983 283.621C58.9389 285.917 56.1718 288.795 57.8652 290.96Z" fill="#23659B"/>
<path d="M77.4667 236.495C78.4176 229.565 83.3669 229.782 83.3669 229.782C87.6271 224.876 97.1251 227.336 93.1694 232.85C90.9258 236.248 85.1885 232.459 81.8017 236.811C80.4395 238.562 79.5981 239.641 77.237 240.537C77.237 240.537 76.9271 238.368 77.4667 236.495Z" fill="#C92828"/>
<path d="M75.9855 240.698C76.0816 243.452 80.0988 243.308 79.9305 240.557C79.8343 237.804 75.8199 237.954 75.9855 240.698Z" fill="#F99370"/>
<path d="M90.5196 244.724C91.0886 244.77 91.588 244.521 91.0832 244.398C91.0164 244.414 89.4806 244.756 87.8513 243.456C87.8214 243.43 87.7811 243.416 87.7391 243.416C87.6972 243.416 87.6569 243.43 87.627 243.456C88.1051 244.507 90.0549 244.717 90.5196 244.724Z" fill="#C16256"/>
<path d="M78.3398 250.536C80.2817 253.403 88.8582 257.866 88.5029 251.721C87.9201 251.492 87.3139 251.309 86.692 251.176C86.692 251.338 87.0446 255.565 80.5487 250.483C80.5541 250.525 78.8153 250.254 78.3398 250.536Z" fill="#3A72AA"/>
<path d="M89.4704 362.755C96.2707 333.808 89.0938 296.501 88.004 296.227C87.4458 296.458 93.6986 333.949 89.3823 362.755C86.8689 363.023 83.7732 362.986 81.1556 361.814C81.0506 362.932 80.9375 364.044 80.8164 365.15C80.8164 365.15 87.2882 366.594 93.127 364.688C93.127 364.688 93.5116 363.72 94.1153 361.803C92.6086 362.257 91.0522 362.575 89.4704 362.755Z" fill="#7640CC"/>
<path d="M57.9221 362.19C63.654 330.728 69.8827 295.117 69.0841 294.576C68.2561 294.678 61.8938 330.931 57.8206 362.181C55.5839 362.001 53.4166 361.413 51.4609 360.457C51.4876 361.391 51.5179 362.334 51.5518 363.287C51.5518 363.287 57.3879 366.618 63.1412 364.292C63.1412 364.292 63.3308 363.421 63.6754 361.825C61.7964 362.233 59.8498 362.357 57.9221 362.19Z" fill="#7640CC"/>
<path d="M67.202 253.363C67.202 253.363 58.5907 259.251 56.6356 268.923C53.5933 283.975 61.868 292.194 79.5847 296.359C79.7983 295.766 80.1783 295.227 80.6909 294.791C81.2035 294.354 81.8328 294.035 82.5228 293.86C82.5228 293.86 74.0397 288.198 71.9056 281.423C69.7715 274.648 70.8025 264.876 74.8784 261.035C74.8677 261.035 71.6812 254.701 67.202 253.363Z" fill="#3A72AA"/>
<path d="M73.1401 251.265C75.0525 249.479 78.482 249.352 79.083 251.034C80.562 255.074 82.4229 259.002 84.6467 262.778C84.9458 262.629 85.2844 262.549 85.6296 262.547C90.0394 257.098 89.0485 252.03 89.0485 252.03C91.7889 251.868 93.5891 252.783 94.5587 254.224C99.3184 255.737 98.7442 258.985 94.3904 261.427C93.3755 263.365 91.6554 265.095 89.361 266.026C91.025 269.324 93.0389 274.536 90.7499 275.536C89.7189 276.379 87.1708 276.76 87.1067 274.3C87.0532 272.265 86.925 269.167 86.6392 267.248C86.3708 267.278 86.0979 267.26 85.8379 267.195C85.8379 267.195 85.4987 274 86.7995 278.257C88.1003 282.515 82.0051 281.701 80.0045 280.309C78.4366 279.214 79.8095 270.563 82.0932 265.885C80.5872 265.135 79.2084 264.208 77.9959 263.131C75.5146 260.958 58.3615 252.6 73.1401 251.265Z" fill="#1D3F70"/>
<path d="M144.783 259.057L61.834 311.484L65.536 315.865L148.485 263.438L144.783 259.057Z" fill="#EB5648"/>
<path d="M105.25 284.039L61.834 311.48L65.536 315.861L108.952 288.42L105.25 284.039Z" fill="#CE3932"/>
<path opacity="0.4" d="M203.922 265.31C218.65 252.573 218.65 231.923 203.922 219.186C189.195 206.449 165.317 206.449 150.59 219.186C135.863 231.923 135.863 252.573 150.59 265.31C165.317 278.047 189.195 278.047 203.922 265.31Z" fill="white"/>
<path opacity="0.4" d="M215.722 254.106C214.381 257.369 212.491 260.442 210.113 263.228L207.883 261.285L205.628 259.336L157.497 217.712L153.002 213.824L153.435 213.551C156.539 211.622 159.943 210.08 163.544 208.971L166.018 211.11L168.56 213.309L210.717 249.768L213.267 251.974L215.722 254.106Z" fill="white"/>
<path opacity="0.4" d="M206.364 267.038C201.958 270.902 196.585 273.839 190.659 275.624L188.175 273.474L185.616 271.261L143.706 235.014L141.158 232.811L138.66 230.651C140.705 225.519 144.103 220.869 148.586 217.07L153.025 220.91L201.925 263.201L204.147 265.123L206.364 267.038Z" fill="white"/>
<path d="M210.438 221.645C189.604 196.08 142.213 206.064 136.948 236.526C131.072 262.107 163.006 284.893 190.662 275.623C215.764 268.536 226.579 240.411 210.438 221.645ZM210.705 249.767C207.796 260.116 197.558 268.85 185.616 271.25C151.994 278.598 127.984 242.109 153.03 220.892C177.758 199.822 219.567 220.769 210.705 249.767Z" fill="#CE3932"/>
<path d="M137.955 270.932C139.557 272.045 140.96 270.124 138.732 269.909L138.759 269.927C137.885 269.338 137.121 270.396 137.955 270.932Z" fill="#F99370"/>
<path d="M139.076 270.234C141.143 271.197 141.747 268.778 139.733 269.102C139.778 269.102 139.543 269.06 139.583 269.065C138.582 268.633 138.184 269.875 139.076 270.234Z" fill="#F99370"/>
<path d="M140.275 269.532L141.045 269.659C142.113 269.805 141.98 268.442 141.077 268.345L140.307 268.213C139.239 268.072 139.37 269.435 140.275 269.532Z" fill="#F99370"/>
<path d="M141.205 268.784L141.975 268.911C143.043 269.057 142.909 267.694 142.007 267.597L141.237 267.47C140.158 267.324 140.305 268.676 141.205 268.784Z" fill="#F99370"/>
<path d="M88.7688 294.76L87.2597 295.702L87.2811 295.73C87.9337 296.586 88.8091 297.298 89.8372 297.809C90.8202 298.33 91.8449 298.789 92.9035 299.184C94.3378 301.045 88.459 298.795 87.7271 298.664V298.685C89.0679 299.714 90.4964 300.655 92.0007 301.498C92.9676 303.723 87.2917 299.981 86.616 299.65C87.6875 300.811 88.92 301.853 90.2859 302.753C91.0338 305.081 85.6304 300.874 85.1042 300.359H85.0855C85.7802 301.381 86.5851 302.344 87.4894 303.235C87.8446 305.527 83.7821 301.246 83.3787 300.731C82.9487 300.526 80.8493 298.812 79.594 296.342C79.1826 295.534 81.696 293.392 82.5321 293.843C83.1597 294.182 85.187 294.182 85.6304 294.305C86.6454 294.437 87.7057 294.411 88.7688 294.76Z" fill="#F99370"/>
<path d="M86.7754 238.876C86.7435 238.878 86.7117 238.871 86.6843 238.857C86.657 238.842 86.6354 238.821 86.6225 238.796C86.6096 238.771 86.6061 238.742 86.6124 238.715C86.6188 238.688 86.6347 238.664 86.6579 238.645C86.9609 238.374 87.3254 238.16 87.7286 238.018C88.1318 237.875 88.5648 237.806 89.0003 237.815C89.0417 237.818 89.0803 237.834 89.1078 237.861C89.1352 237.888 89.1494 237.923 89.1472 237.959C89.1438 237.994 89.1247 238.027 89.0939 238.051C89.063 238.074 89.0228 238.087 88.9816 238.086C88.5933 238.081 88.208 238.145 87.8486 238.272C87.4893 238.4 87.1634 238.588 86.8903 238.827C86.8761 238.842 86.8585 238.853 86.8388 238.862C86.819 238.87 86.7974 238.875 86.7754 238.876Z" fill="#C16256"/>
<path d="M92.2753 238.495C92.2393 238.495 92.2043 238.484 92.1764 238.465C91.714 238.174 91.142 238.043 90.5738 238.1C90.5341 238.103 90.4944 238.094 90.4627 238.073C90.4309 238.052 90.4095 238.021 90.4027 237.987C90.3959 237.953 90.4043 237.918 90.4261 237.89C90.448 237.861 90.4817 237.84 90.5204 237.832C91.1832 237.756 91.8542 237.906 92.3901 238.252C92.4064 238.263 92.4201 238.277 92.4303 238.293C92.4405 238.308 92.447 238.326 92.4495 238.343C92.452 238.361 92.4504 238.379 92.4448 238.397C92.4392 238.414 92.4297 238.43 92.4168 238.444C92.3998 238.462 92.3781 238.476 92.3534 238.485C92.3287 238.494 92.3019 238.497 92.2753 238.495Z" fill="#C16256"/>
<path d="M78.8277 239.749C78.9399 239.469 77.9329 239.116 77.2091 239.435C76.8378 239.578 76.341 240.742 76.8859 241.396C76.9085 241.396 76.9309 241.392 76.9515 241.384C76.9722 241.376 76.9906 241.364 77.0056 241.35C77.0205 241.335 77.0317 241.318 77.0382 241.299C77.0447 241.28 77.0465 241.26 77.0435 241.241C76.9461 240.813 76.9745 240.371 77.1263 239.954C77.1389 239.96 77.1524 239.965 77.1663 239.968C77.2091 239.968 78.2133 240.183 78.4698 241.421C78.4767 241.456 78.4976 241.488 78.5289 241.511C78.5602 241.533 78.5998 241.546 78.6407 241.546H78.6728C78.7183 241.539 78.7587 241.516 78.7851 241.483C78.8116 241.45 78.8221 241.41 78.8143 241.37C78.5606 240.142 77.6391 239.786 77.3373 239.7C77.3502 239.688 77.3645 239.676 77.38 239.666C78.0718 239.338 78.5793 239.989 78.8277 239.749Z" fill="#C16256"/>
<path d="M310.714 24.2804C310.714 24.2804 313.035 20.4019 320.114 21.5476C327.192 22.6934 328.861 30.4596 331.262 33.9939C336.337 41.4829 337.876 49.4409 335.231 53.2639C332.293 57.5097 325.813 55.8488 316.345 55.0865C306.243 54.2757 302.01 46.692 308.294 36.2646L310.714 24.2804Z" fill="#C92828"/>
<path d="M313.651 42.2988C310.884 45.8077 309.111 62.9202 309.06 64.2438L294.637 63.3198C293.694 57.0551 303.299 44.2092 312.057 42.6869C312.579 42.5318 313.112 42.4023 313.651 42.2988Z" fill="#3A72AA"/>
<path d="M272.599 136.643L286.67 136.509C286.635 134.564 286.034 130.634 286.483 128.424L280.406 129.103C280.574 130.168 280.94 132.482 278.902 133.03C276.253 133.748 273.365 133.527 271.712 135.291C271.617 135.427 271.565 135.582 271.563 135.74C271.56 135.899 271.606 136.055 271.696 136.192C271.787 136.33 271.918 136.445 272.077 136.524C272.236 136.603 272.416 136.644 272.599 136.643Z" fill="#F99370"/>
<path d="M287.084 135.334C287.038 135.746 286.897 136.145 286.67 136.509L272.46 136.643C272.299 136.645 272.141 136.614 271.997 136.553C271.853 136.491 271.728 136.4 271.633 136.289C271.537 136.177 271.474 136.047 271.448 135.91C271.423 135.773 271.435 135.632 271.485 135.5C272.019 134.179 273.857 132.25 280.404 131.889C280.404 131.889 282.639 132.444 286.28 131.834C286.293 131.834 287.297 133.661 287.084 135.334Z" fill="#1D3F70"/>
<path d="M275.661 135.027C275.604 135.027 275.549 135.012 275.501 134.985C275.454 134.958 275.417 134.92 275.394 134.875C275.122 134.241 274.579 133.721 273.877 133.424C273.123 132.433 275.274 133.124 275.925 134.683C275.943 134.721 275.95 134.762 275.946 134.802C275.941 134.843 275.925 134.882 275.899 134.916C275.873 134.95 275.837 134.978 275.796 134.997C275.754 135.017 275.708 135.027 275.661 135.027Z" fill="#E8C0A6"/>
<path d="M277.895 134.772C277.835 134.771 277.777 134.754 277.729 134.723C277.681 134.691 277.646 134.648 277.628 134.599C277.312 133.808 276.674 133.143 275.833 132.73C275.147 131.575 277.649 132.795 278.176 134.446C278.189 134.484 278.192 134.524 278.184 134.563C278.176 134.602 278.158 134.639 278.131 134.671C278.103 134.702 278.068 134.728 278.027 134.746C277.986 134.763 277.941 134.772 277.895 134.772Z" fill="#E8C0A6"/>
<path d="M280.436 134.479C280.377 134.478 280.32 134.461 280.272 134.432C280.225 134.402 280.189 134.36 280.169 134.312C279.809 133.488 279.176 132.774 278.35 132.259C277.816 131.046 280.094 132.49 280.708 134.144C280.724 134.182 280.73 134.222 280.723 134.262C280.717 134.302 280.7 134.34 280.673 134.373C280.647 134.406 280.611 134.432 280.57 134.451C280.528 134.469 280.483 134.479 280.436 134.479Z" fill="#E8C0A6"/>
<path d="M271.492 135.482L287.082 135.334C287.036 135.746 286.896 136.146 286.668 136.51L272.458 136.644C272.296 136.646 272.135 136.615 271.989 136.552C271.844 136.489 271.718 136.396 271.623 136.282C271.528 136.168 271.467 136.035 271.444 135.896C271.421 135.756 271.437 135.614 271.492 135.482Z" fill="#395B96"/>
<path d="M317.178 90.1777C310.252 89.9259 298.184 86.6272 292.981 94.2479C287.281 102.564 288.678 120.228 289.242 128.759C281.64 130.878 277.551 128.759 277.551 128.759C274.311 111.293 263.643 71.506 299.317 77.0269H323.265C327.253 84.0793 323.676 90.0599 317.178 90.1777Z" fill="#3A72AA"/>
<path d="M289.472 136.641L303.543 136.507C303.508 134.562 302.907 130.635 303.356 128.422L297.28 129.101C297.448 130.166 297.87 132.481 295.776 133.028C293.118 133.721 290.239 133.525 288.583 135.287C288.487 135.423 288.435 135.578 288.432 135.737C288.429 135.896 288.475 136.053 288.566 136.191C288.657 136.329 288.789 136.444 288.948 136.523C289.108 136.602 289.289 136.643 289.472 136.641Z" fill="#F99370"/>
<path d="M303.957 135.331C303.911 135.743 303.771 136.143 303.543 136.507L289.333 136.643C289.172 136.645 289.014 136.614 288.87 136.553C288.726 136.491 288.601 136.4 288.506 136.289C288.41 136.177 288.347 136.047 288.322 135.91C288.296 135.773 288.308 135.632 288.358 135.5C288.892 134.179 290.73 132.247 297.274 131.889C297.274 131.889 299.51 132.442 303.166 131.834C303.166 131.834 304.17 133.661 303.957 135.331Z" fill="#1D3F70"/>
<path d="M292.55 135.027C292.493 135.027 292.437 135.012 292.39 134.985C292.343 134.958 292.305 134.92 292.283 134.875C292.011 134.241 291.468 133.721 290.765 133.424C290.012 132.433 292.162 133.124 292.814 134.683C292.832 134.721 292.839 134.762 292.834 134.802C292.83 134.843 292.814 134.882 292.787 134.916C292.761 134.95 292.726 134.978 292.685 134.997C292.643 135.017 292.597 135.027 292.55 135.027Z" fill="#E8C0A6"/>
<path d="M294.768 134.772C294.708 134.771 294.65 134.754 294.602 134.723C294.554 134.692 294.519 134.648 294.501 134.599C294.184 133.808 293.546 133.144 292.706 132.728C292.02 131.573 294.522 132.793 295.049 134.447C295.062 134.484 295.065 134.524 295.057 134.563C295.049 134.602 295.031 134.639 295.004 134.671C294.977 134.703 294.941 134.728 294.9 134.746C294.859 134.764 294.814 134.773 294.768 134.772Z" fill="#E8C0A6"/>
<path d="M297.313 134.467C297.254 134.467 297.197 134.451 297.149 134.421C297.101 134.392 297.065 134.351 297.046 134.303C296.686 133.479 296.053 132.764 295.227 132.249C294.693 131.036 296.971 132.48 297.585 134.134C297.601 134.172 297.606 134.212 297.599 134.252C297.593 134.291 297.576 134.329 297.549 134.361C297.522 134.394 297.487 134.421 297.446 134.439C297.405 134.457 297.359 134.467 297.313 134.467Z" fill="#E8C0A6"/>
<path d="M288.366 135.478L303.957 135.33C303.912 135.742 303.771 136.142 303.543 136.506L289.333 136.642C289.17 136.644 289.01 136.612 288.864 136.549C288.719 136.486 288.593 136.393 288.498 136.278C288.403 136.164 288.342 136.032 288.319 135.892C288.296 135.753 288.312 135.611 288.366 135.478Z" fill="#395B96"/>
<path d="M301.276 77.0234L299.227 89.9248C290.282 92.9717 289.681 101.327 288.863 110.484C284.723 96.3327 285.041 81.7982 301.276 77.0234Z" fill="#23659B"/>
<path d="M326.204 90.7762C318.955 94.6339 311.714 90.425 306.618 99.3232C302.504 107.115 304.809 122.007 305.939 128.757C298.335 130.875 294.248 128.757 294.248 128.757C289.74 113.691 279.43 78.6741 308.565 77.0247C316.546 76.8053 327.029 76.8653 334.081 76.498C334.07 76.5004 336.028 85.5394 326.204 90.7762Z" fill="#3A72AA"/>
<path d="M334.217 72.9364C334.834 76.7525 333.95 81.19 333.95 81.19C324.532 78.6005 315.969 78.3602 301.66 76.6324C310.677 53.2228 289.75 69.603 313.65 42.2988L319.566 42.7608C326.268 47.1337 330.595 52.9248 334.217 72.9364Z" fill="#3A72AA"/>
<path d="M301.434 58.9994C301.4 58.9999 301.366 58.9942 301.334 58.9824C301.303 58.9707 301.275 58.9533 301.252 58.9314C301.23 58.9095 301.213 58.8836 301.202 58.8554C301.192 58.8273 301.189 58.7976 301.193 58.7684C301.671 55.3496 305.859 50.9144 306.41 51.1454C306.784 51.5635 301.954 55.2341 301.671 58.7961C301.671 58.8502 301.645 58.9019 301.601 58.94C301.556 58.978 301.496 58.9994 301.434 58.9994Z" fill="#23659B"/>
<path d="M276.393 78.3646H308.055L301.752 58.293H270.279L276.393 78.3646Z" fill="#163260"/>
<path d="M308.059 78.2656H276.395V79.6285H308.059V78.2656Z" fill="#234270"/>
<path d="M301.275 58.293H302.408L308.583 78.2652H323.61V79.6281H307.528V78.4085L301.275 58.293Z" fill="#0B274F"/>
<path d="M329.965 46.6522C337.262 51.3831 341.162 59.8978 339.233 67.6409C338.496 71.9906 335.323 76.1255 330.357 77.3567C327.908 78.2045 316.468 79.5674 317.002 76.0585C317.184 75.2177 318.047 74.9035 318.872 74.6725C320.25 74.2521 321.671 73.7878 322.985 73.2704C325.339 72.2147 328.365 71.226 328.878 68.9391C329.967 63.603 327.441 58.387 322.831 54.9035L322.876 54.9313C316.645 50.9142 323.677 42.6767 329.965 46.6522Z" fill="#F99370"/>
<path d="M334.338 76.4059C331.201 77.6049 327.825 78.2699 324.397 78.3647C324.397 78.3647 325.022 74.872 322.105 73.4352C338.54 62.6313 315.064 58.0853 319.576 42.2109C337.199 42.4835 355.394 65.5858 334.338 76.4059Z" fill="#3A72AA"/>
<path d="M310.035 78.2649C310.035 78.2649 311.445 74.0006 319.864 74.4927L321.627 78.2649H310.035Z" fill="#F99370"/>
<path d="M326.35 78.2465C325.148 78.362 324.397 78.3643 324.397 78.3643C324.397 78.3643 325.022 74.8716 322.105 73.4348C322.686 73.0934 323.239 72.7192 323.761 72.3145C324.747 73.0265 325.504 73.9468 325.957 74.9862C326.411 76.0256 326.546 77.1487 326.35 78.2465Z" fill="#23659B"/>
<path d="M323.61 72.9101C323.562 72.9096 323.515 72.8965 323.475 72.8725C323.435 72.8484 323.405 72.8146 323.388 72.7754C323.371 72.7362 323.368 72.6935 323.38 72.6528C323.391 72.6121 323.417 72.5754 323.453 72.5475C330.752 66.9226 327.176 60.9674 322.836 57.1121C322.622 56.9226 322.977 56.627 323.185 56.8302C327.806 60.8219 331.305 67.417 323.61 72.9101Z" fill="#23659B"/>
<path d="M326.205 78.2678C324.84 77.5748 330.038 77.9236 333.991 76.3089C334.02 76.2984 334.051 76.293 334.083 76.293C334.114 76.293 334.146 76.2984 334.175 76.3089C334.204 76.3195 334.23 76.3349 334.252 76.3543C334.274 76.3738 334.292 76.3968 334.303 76.4221C334.316 76.4471 334.322 76.4739 334.322 76.501C334.322 76.5281 334.315 76.555 334.303 76.5799C334.291 76.6049 334.273 76.6275 334.251 76.6464C334.228 76.6653 334.202 76.6802 334.173 76.6901C331.631 77.5793 328.941 78.112 326.205 78.2678Z" fill="#23659B"/>
<path d="M321.202 48.597C321.034 49.6896 319.829 50.0292 319.528 49.983C315.286 48.4168 318.302 53.3648 316.56 53.8684C315.091 54.2911 314.918 52.6371 313.638 52.5471C311.768 52.4154 311.405 53.2886 310.753 52.7573C309.845 52.0181 312.044 50.7268 311.763 49.4031C311.565 48.4791 309.426 49.4031 309.455 47.4928C309.487 45.6147 311.977 42.7989 312.054 42.7111C313.619 41.9557 317.028 42.2999 318.577 42.3161C318.598 42.1821 319.576 42.2237 319.576 42.2237C320.022 42.1522 320.482 42.1816 320.911 42.3091C321.237 43.8222 321.539 46.9592 321.202 48.597Z" fill="#F4D4BE"/>
<path d="M313.783 40.4846L313.652 42.298C313.652 42.298 313.457 44.0466 313.457 47.2991C313.457 51.8706 314.763 51.337 316.574 48.1446C317.568 46.389 319.59 42.3488 319.59 42.3488C319.583 41.7048 319.616 41.0609 319.688 40.4199L313.783 40.4846Z" fill="#F99370"/>
<path d="M320.825 35.2784C320.802 35.366 320.773 35.4523 320.739 35.5371C320.614 35.447 319.893 38.4731 319.628 40.7808C317.101 42.0629 314.174 41.8919 313.672 41.758C313.808 38.3438 314.139 33.2364 317.179 32.287C319.217 31.7256 321.375 33.4627 320.825 35.2784Z" fill="#E57D61"/>
<path d="M313.163 24.035C305.526 23.2427 304.316 33.6677 309.506 37.5023L313.163 24.035Z" fill="#C92828"/>
<path d="M322.165 31.3825C322.534 33.6578 322.558 36.3282 321.097 38.2917C317.09 43.9743 303.786 40.3106 307.427 33.5723C307.952 32.7082 308.251 31.7548 308.303 30.7795C308.41 21.4726 321.102 23.4268 322.165 31.3825Z" fill="#F99370"/>
<path d="M312.117 32.5953C311.754 32.2811 312.336 31.7937 312.689 32.1194C313.041 32.4451 312.47 32.9164 312.117 32.5953Z" fill="#C16256"/>
<path d="M308.761 32.9784C308.398 32.662 308.98 32.1746 309.333 32.5003C309.401 32.5666 309.437 32.6532 309.433 32.7419C309.429 32.8306 309.386 32.9146 309.312 32.9763C309.238 33.038 309.14 33.0727 309.037 33.0731C308.935 33.0735 308.836 33.0396 308.761 32.9784Z" fill="#C16256"/>
<path d="M310.761 35.5595C310.09 35.6519 309.116 35.5018 309.751 34.8042C310.35 34.2775 310.419 32.8522 310.419 32.8383C310.419 32.804 310.435 32.7711 310.463 32.7469C310.491 32.7226 310.529 32.709 310.569 32.709C310.608 32.709 310.646 32.7226 310.674 32.7469C310.702 32.7711 310.718 32.804 310.718 32.8383C310.718 32.9007 310.646 34.3791 309.965 34.9774C309.89 35.0444 309.81 35.1391 309.866 35.2084C310.026 35.3724 310.782 35.3978 311.218 35.1368C311.234 35.1271 311.252 35.1202 311.271 35.1166C311.29 35.1129 311.31 35.1126 311.33 35.1156C311.349 35.1186 311.367 35.1249 311.384 35.1341C311.4 35.1433 311.415 35.1552 311.426 35.1691C311.538 35.4394 310.996 35.4971 310.761 35.5595Z" fill="#C16256"/>
<path d="M322.165 31.3806C322.534 33.656 322.558 36.3264 321.097 38.2899C321.775 36.8184 321.521 34.0002 321.521 34.0002L320.584 32.9653C311.011 32.8544 309.604 26.6059 309.604 26.6059C313.797 21.7179 321.663 26.1277 322.165 31.3806Z" fill="#E57D61"/>
<path d="M310.326 25.8229C310.326 25.8229 311.75 31.9721 320.414 32.344L322.736 30.265C323.815 24.9105 316.456 19.4288 310.326 25.8229Z" fill="#C92828"/>
<path d="M324.147 32.0521C324.454 34.6578 320.651 34.9558 320.408 32.3455C320.103 29.7421 323.91 29.4441 324.147 32.0521Z" fill="#F99370"/>
<path d="M323.266 31.3779C322.879 30.3453 320.595 31.4472 321.56 31.4864C321.56 31.4402 322.58 30.9135 322.895 31.3709C321.891 31.7798 321.56 33.3968 322.139 32.8747C322.139 32.8747 322.259 31.9507 323.05 31.595C323.429 33.9489 323.801 32.3157 323.266 31.3779Z" fill="#C16256"/>
<path d="M322.982 33.6096C323 33.6814 322.986 33.7564 322.943 33.8197C322.9 33.883 322.831 33.93 322.749 33.9515C322.668 33.973 322.581 33.9673 322.504 33.9357C322.427 33.904 322.367 33.8487 322.336 33.7805C322.318 33.7087 322.332 33.6337 322.375 33.5704C322.418 33.5071 322.487 33.4601 322.568 33.4386C322.649 33.4171 322.737 33.4228 322.814 33.4544C322.89 33.4861 322.95 33.5415 322.982 33.6096Z" fill="#F4D4BE"/>
<path d="M313.443 55.0555C313.443 55.8085 312.086 55.8085 312.108 55.0555C312.129 54.3024 313.457 54.3117 313.443 55.0555Z" fill="#23659B"/>
<path d="M312.123 59.1477C312.123 59.9008 310.763 59.9008 310.787 59.1477C310.811 58.3946 312.134 58.3923 312.123 59.1477Z" fill="#23659B"/>
<path d="M312.123 62.8332C312.123 63.5863 310.763 63.5863 310.787 62.8332C310.811 62.0802 312.134 62.0779 312.123 62.8332Z" fill="#23659B"/>
<path d="M289.017 125.83C289.14 127.657 289.252 128.759 289.252 128.759C281.651 130.877 277.562 128.759 277.562 128.759C277.562 128.759 277.348 127.835 277.027 126.262C277.113 126.301 281.894 128.334 289.017 125.83Z" fill="#23659B"/>
<path d="M305.928 128.759C298.324 130.877 294.237 128.759 294.237 128.759C294.237 128.759 293.97 127.914 293.529 126.449C293.529 126.449 297.744 128.336 305.533 126.449C305.762 127.898 305.928 128.759 305.928 128.759Z" fill="#23659B"/>
<path d="M310.494 78.2218C308.998 78.2634 314.444 75.0317 316.068 75.8217C316.072 75.849 316.069 75.8767 316.06 75.9032C316.051 75.9296 316.037 75.9543 316.017 75.9758C315.997 75.9973 315.972 76.0152 315.944 76.0284C315.917 76.0416 315.886 76.0498 315.854 76.0527C312.788 76.3253 310.753 78.2149 310.494 78.2218Z" fill="#E57D61"/>
<path d="M312.802 78.2938C311.667 77.8756 315.206 77.1572 316.94 76.7484C317.002 76.7373 317.066 76.7481 317.119 76.7782C317.172 76.8083 317.209 76.8553 317.221 76.9089C317.234 76.9625 317.222 77.0183 317.187 77.064C317.152 77.1097 317.098 77.1416 317.036 77.1526C315.174 77.4853 312.989 78.2753 312.802 78.2938Z" fill="#E57D61"/>
<path d="M313.364 31.5389C313.326 31.5384 313.289 31.527 313.259 31.5066C313.007 31.3156 312.707 31.1776 312.383 31.1035C312.058 31.0293 311.718 31.021 311.39 31.0792C311.368 31.0849 311.346 31.0868 311.324 31.0848C311.301 31.0829 311.28 31.0771 311.26 31.0679C311.241 31.0586 311.223 31.0461 311.209 31.031C311.195 31.0159 311.185 30.9985 311.179 30.9799C311.166 30.9428 311.171 30.903 311.192 30.8689C311.213 30.8348 311.248 30.8091 311.291 30.7974C311.671 30.7261 312.064 30.7321 312.441 30.8151C312.817 30.8981 313.166 31.0558 313.46 31.2756C313.487 31.2946 313.507 31.3205 313.517 31.3497C313.527 31.379 313.526 31.4101 313.515 31.4389C313.503 31.4678 313.482 31.4928 313.454 31.5107C313.425 31.5286 313.391 31.5385 313.356 31.5389H313.364Z" fill="#C16256"/>
<path d="M308.365 31.9017C308.33 31.9011 308.297 31.8923 308.268 31.8763C308.25 31.8654 308.234 31.8514 308.222 31.8352C308.209 31.8189 308.201 31.8007 308.196 31.7816C308.192 31.7625 308.192 31.7429 308.197 31.7239C308.201 31.7048 308.21 31.6868 308.223 31.6707C308.244 31.643 308.776 30.9777 309.66 31.0031C309.684 31.0005 309.708 31.0023 309.732 31.0085C309.755 31.0147 309.776 31.025 309.794 31.0389C309.813 31.0528 309.827 31.0699 309.837 31.089C309.847 31.1081 309.852 31.1288 309.852 31.1498C309.852 31.1708 309.847 31.1915 309.837 31.2106C309.827 31.2297 309.813 31.2468 309.794 31.2607C309.776 31.2745 309.755 31.2849 309.732 31.2911C309.708 31.2973 309.684 31.2991 309.66 31.2965C309.435 31.3052 309.215 31.3584 309.017 31.4521C308.819 31.5458 308.649 31.6775 308.519 31.837C308.502 31.8583 308.479 31.8755 308.452 31.8868C308.425 31.8981 308.395 31.9033 308.365 31.9017Z" fill="#C16256"/>
<path d="M312.049 36.9499C311.947 36.9531 311.846 36.9361 311.754 36.9C311.661 36.8639 311.579 36.8098 311.515 36.742C311.247 36.4486 311.426 35.9612 311.913 35.6355C312.399 35.3098 312.981 35.2867 313.248 35.5823C313.515 35.878 313.336 36.3631 312.85 36.6888C312.623 36.8495 312.342 36.9413 312.049 36.9499ZM312.7 35.6701C312.485 35.6803 312.279 35.75 312.113 35.8688C311.76 36.0998 311.653 36.4232 311.776 36.5618C311.899 36.7004 312.287 36.6911 312.639 36.4532C312.992 36.2153 313.098 35.8988 312.976 35.7602C312.94 35.7275 312.896 35.7023 312.848 35.6867C312.799 35.6711 312.747 35.6654 312.695 35.6701H312.7Z" fill="#C16256"/>
<path d="M589.649 268.111C589.382 268.238 593.14 268.212 592.897 268.455C584.954 274.396 573.105 276.276 564.318 270.49C561.7 268.834 559.058 266.17 557.221 263.384L559.379 260.356C576.521 269.501 583.308 253.888 597.248 252.68L594.452 256.202L589.649 268.111Z" fill="#1D3F70"/>
<path d="M608.682 372.654L608.949 372.537C608.949 372.694 609.176 373.243 609.357 373.243L617.103 373.382C617.288 373.382 617.4 373.084 617.4 372.92L618.059 372.758C618.059 371.756 617.963 371.393 617.453 370.617C615.583 368.455 617.816 358.787 617.752 356.263C618.217 355.57 609.606 356.115 609.472 355.951C609.427 355.951 609.382 355.959 609.34 355.975C609.298 355.991 609.261 356.014 609.23 356.044C609.199 356.073 609.175 356.107 609.161 356.144C609.146 356.181 609.14 356.221 609.144 356.26L610.156 367.307C610.607 369.409 608.746 370.677 608.682 372.654Z" fill="#F99370"/>
<path d="M575.154 373.617H590.558C591.893 373.569 591.893 372.384 591.645 371.464C590.796 368.147 592.297 360.534 592.575 357.122C592.592 356.974 592.573 356.826 592.52 356.685C592.466 356.544 592.379 356.415 592.265 356.305C592.15 356.195 592.01 356.107 591.853 356.047C591.697 355.987 591.528 355.955 591.357 355.955H584.556C584.383 355.955 584.211 355.988 584.053 356.05C583.895 356.112 583.754 356.203 583.639 356.316C583.525 356.429 583.44 356.562 583.389 356.705C583.339 356.849 583.324 357 583.346 357.149L584.583 365.676C585.253 369.372 580.144 370.088 577.232 370.497C575.309 370.614 572.104 372.878 575.154 373.617Z" fill="#F99370"/>
<path d="M592.237 372.235C592.194 372.889 591.82 373.635 590.944 373.621H574.964C571.192 372.41 576.834 368.077 584.221 368.112C589.467 369.354 592.413 365.818 592.237 372.235Z" fill="#3A72AA"/>
<path d="M616.818 373.618H609.988C606.66 373.223 609.058 367.699 613.401 368.099C617.76 367.623 620.146 373.229 616.818 373.618Z" fill="#3A72AA"/>
<path d="M573.844 372.234H592.236C592.176 372.721 592.004 373.192 591.732 373.62H574.963C574.771 373.621 574.581 373.581 574.411 373.505C574.24 373.428 574.094 373.317 573.984 373.181C573.874 373.045 573.803 372.887 573.779 372.723C573.755 372.558 573.777 372.39 573.844 372.234Z" fill="#23659B"/>
<path d="M616.819 373.616H609.99C609.783 373.617 609.579 373.581 609.389 373.51C609.199 373.439 609.028 373.336 608.886 373.206C608.745 373.076 608.635 372.923 608.564 372.755C608.493 372.587 608.463 372.409 608.475 372.23H618.336C618.349 372.409 618.318 372.588 618.247 372.756C618.176 372.924 618.067 373.077 617.924 373.207C617.782 373.337 617.611 373.44 617.421 373.511C617.231 373.581 617.026 373.617 616.819 373.616Z" fill="#23659B"/>
<path d="M595.098 237.467C595.098 237.467 595.018 233.147 599.532 232.385L601.898 234.508L595.098 237.467Z" fill="#1D3F70"/>
<path d="M618.817 366.078C618.817 366.078 611.53 367.609 607.777 365.965C605.822 355.369 600.4 325.87 598.512 305.653C598.44 306.833 594.471 354.371 593.704 365.965C591.11 366.713 585.902 367.619 582.985 365.803C581.676 353.599 577.47 313.421 583.805 280.608C583.805 280.608 601.167 282.278 614.725 278.734C618.469 289.143 619.458 353.588 618.817 366.078Z" fill="#CE4ABF"/>
<path d="M618.736 363.676C616.875 364.034 614.976 364.219 613.071 364.226C612.309 328.396 606.177 294.612 605.247 294.482C604.55 294.944 610.57 328.331 613.044 364.228C611.126 364.258 609.212 364.072 607.349 363.676C607.616 365.143 607.777 365.963 607.777 365.963C611.529 367.608 618.816 366.076 618.816 366.076C618.792 365.958 618.765 365.106 618.736 363.676Z" fill="#A523A2"/>
<path d="M593.716 365.964C593.655 364.945 598.524 305.652 598.524 305.652C598.524 305.652 596.229 306.712 595.684 313.007C595.212 318.482 592.383 354.857 591.651 364.264C589.727 364.631 587.739 364.677 585.794 364.4C584.063 329.494 588.115 299.551 587.506 299.193C586.438 299.267 582.359 329.475 585.775 364.398C584.743 364.263 583.733 364.021 582.768 363.677C582.917 365.063 583.011 365.802 583.011 365.802C585.398 367.29 589.327 366.957 592.092 366.368C592.792 366.227 593.326 366.077 593.574 366.005L593.716 365.964Z" fill="#A523A2"/>
<path d="M597.119 252.553C596.74 249.696 597.255 245.575 597.717 243.879C598.548 240.534 604.681 241.828 603.66 245.115C603.463 245.009 602.83 251.07 603.268 252.752C609.024 254.247 591.713 259.158 597.119 252.553Z" fill="#F99370"/>
<path d="M603.72 244.839C603.705 244.931 603.685 245.023 603.659 245.114C603.517 245.033 603.125 248.378 603.125 250.806C600.489 251.843 597.548 251.386 597.008 251.291C596.952 248.216 597.275 245.414 597.81 243.668C598.859 240.679 604.265 241.764 603.72 244.839Z" fill="#E57D61"/>
<path d="M607.809 243.592C606.935 245.876 605.528 248.394 603.097 249.648C602.102 250.142 600.98 250.412 599.833 250.434C593.34 251.192 586.943 243.545 592.787 239.739C593.741 239.136 594.532 238.361 595.105 237.468C600.309 228.785 610.987 235.599 607.809 243.592Z" fill="#F99370"/>
<path d="M594.252 244.497L598.103 243.418C598.122 245.303 595.553 246.211 594.252 244.497Z" fill="#F9F8F3"/>
<path d="M585.85 264.639L583.179 273.123C577.452 274.646 571.346 274.299 565.959 271.442C571.881 274.334 580.019 272.703 581.301 271.003C582.65 269.203 585.666 264.9 585.85 264.639Z" fill="#103663"/>
<path d="M617.266 292.902C616.647 293.553 615.986 294.207 615.285 294.863C615.285 294.863 611.874 295.42 609.203 292.345C620.095 272.373 599.053 270.509 603.268 252.752C617.317 254.186 636.863 272.325 617.266 292.902Z" fill="#1D3F70"/>
<path d="M597.725 240.705C597.689 240.613 597.698 240.513 597.748 240.427C597.798 240.34 597.886 240.274 597.992 240.243C598.098 240.213 598.214 240.22 598.314 240.263C598.414 240.306 598.491 240.382 598.526 240.474C598.562 240.566 598.553 240.667 598.503 240.753C598.453 240.84 598.365 240.906 598.259 240.936C598.153 240.967 598.037 240.96 597.937 240.917C597.836 240.873 597.76 240.797 597.725 240.705Z" fill="#C16256"/>
<path d="M594.363 239.723C594.328 239.631 594.336 239.531 594.386 239.444C594.436 239.357 594.524 239.292 594.631 239.261C594.737 239.23 594.853 239.237 594.953 239.281C595.053 239.324 595.129 239.4 595.165 239.492C595.2 239.584 595.192 239.684 595.142 239.771C595.092 239.857 595.004 239.923 594.898 239.954C594.791 239.985 594.675 239.977 594.575 239.934C594.475 239.891 594.399 239.815 594.363 239.723Z" fill="#C16256"/>
<path d="M607.811 243.592C606.937 245.876 605.53 248.394 603.099 249.649C602.898 249.752 602.69 249.844 602.477 249.926C604.368 248.752 605.869 245.881 605.869 245.881L605.96 243.285C603.756 240.612 605.372 238.175 605.372 238.175C600.77 238.637 599.723 236.075 599.723 236.075C598.302 236.038 596.953 235.227 596.953 235.227C603.275 229.739 610.554 237.579 607.811 243.592Z" fill="#E57D61"/>
<path d="M594.25 244.631C594.339 244.546 598.449 243.638 598.257 243.374C598.334 243.042 594.285 244.412 594.208 244.363C594.174 244.374 594.145 244.395 594.126 244.422C594.107 244.449 594.1 244.481 594.105 244.512C594.11 244.543 594.127 244.572 594.154 244.594C594.18 244.615 594.214 244.628 594.25 244.631Z" fill="#C16256"/>
<path d="M595.368 243.011C595.635 243.085 595.87 242.757 595.518 242.729C594.965 242.819 593.755 242.327 594.423 242.089C595.379 241.807 596.872 239.913 595.999 240.241C595.999 240.255 595.163 241.567 594.319 241.821C593.165 242.341 594.567 243.013 595.368 243.011Z" fill="#C16256"/>
<path d="M617.268 292.9C616.648 293.552 615.987 294.205 615.286 294.861C615.286 294.861 611.814 295.282 609.143 292.21C609.535 291.385 609.971 290.849 610.304 290.031C610.299 290.031 612.361 292.027 617.268 292.9Z" fill="#103663"/>
<path d="M615.53 295.258C616.264 295.45 617.039 294.697 616.04 294.478C610.634 294.683 609.194 291.597 609.135 291.475C606.79 290.324 609.669 295.54 615.53 295.258Z" fill="#A523A2"/>
<path d="M581.297 294.713C581.297 294.713 582.365 298.64 590.843 300.587C593.274 301.144 594.679 300.869 595.034 299.411C595.213 298.679 595.675 297.406 596.524 296.935C596.524 296.935 598.423 297.644 599.139 298.649C600.712 300.855 603.079 298.85 604.23 296.542C605.654 293.687 609.265 291.266 610.055 288.873L581.297 294.713Z" fill="#F4D4BE"/>
<path d="M615.878 289.849C615.611 290.272 615.434 290.205 615.154 289.96C607.531 285.035 604.801 295.795 596.585 295.987C588.225 296.703 583.572 297.112 581.297 294.712C577.319 289.383 583.644 265.555 588.759 259.785C591 256.782 594.975 254.111 597.114 252.557C597.071 252.711 595.931 256.809 603.257 252.751C603.626 252.887 605.952 254.848 605.806 255.899C606.19 260.722 619.422 284.43 615.878 289.849Z" fill="#1D3F70"/>
<path d="M594.703 231.312C596.15 231.019 597.665 231.1 599.06 231.543C599.334 230.768 599.898 230.093 600.662 229.623C601.034 230.505 601.521 231.347 602.115 232.132C602.286 231.053 602.758 230.026 603.491 229.141C603.806 230.723 606.335 231.862 607.529 233.576L607.593 233.495C607.593 233.495 614.271 235.574 609.463 240.7C609.265 242.596 608.194 244.514 608.194 244.514C604.653 241.716 605.416 238.353 607.024 237.48C604.14 238.364 601.568 237.316 600.117 235.659C597.97 235.357 595.344 234.347 594.703 231.312Z" fill="#1D3F70"/>
<path d="M611.463 291.365L609.791 291.065C616.469 278.055 608.613 272.552 604.449 265.223C614.097 274.872 615.555 280.159 611.463 291.365Z" fill="#103663"/>
<path d="M609.314 245.018C608.209 247.587 604.475 246.342 605.647 243.796C606.753 241.227 610.487 242.47 609.314 245.018Z" fill="#F99370"/>
<path d="M608.256 245.433C608.94 244.816 608.937 243.779 608.627 243.49C608.061 242.987 606.984 243.047 606.984 243.338C607.129 243.634 607.858 243.151 608.379 243.659C608.942 244.04 607.818 245.276 608.256 245.433Z" fill="#C16256"/>
<path d="M606.849 245.043C607.09 245.029 607.48 244.087 608.671 244.147C608.691 244.149 608.712 244.147 608.732 244.142C608.752 244.137 608.77 244.128 608.786 244.117C608.802 244.106 608.815 244.092 608.825 244.076C608.834 244.06 608.84 244.042 608.842 244.025C608.057 243.345 606.136 245.057 606.849 245.043Z" fill="#C16256"/>
<path d="M605.516 253.1C605.556 255.521 598.377 257.658 597.968 257.66L597.108 255.459C596.002 255.69 595.03 257.032 595.03 257.032C591.846 254.408 594.84 252.121 597.108 252.553C597.065 252.708 596.574 256.3 603.235 252.622C604.098 252.276 605.516 253.1 605.516 253.1Z" fill="#F4D4BE"/>
<path d="M561.269 261.208C561.269 263.141 558.216 264.772 558.216 264.772C557.875 264.326 557.535 263.848 557.215 263.386L559.373 260.357C560.025 260.66 560.655 260.946 561.269 261.208Z" fill="#103663"/>
<path d="M556.203 254.906C555.367 255.368 556.738 256.803 556.634 257.581C555.704 257.189 554.829 256.705 554.027 256.14C552.838 254.872 551.732 253.553 550.693 252.19C548.134 251.176 552.194 256.186 552.499 256.81L552.48 256.828C550.936 255.762 549.479 254.604 548.121 253.363C545.242 252.843 551.059 257.424 551.575 257.969V257.981C549.931 257.178 548.398 256.216 547.007 255.112C544.069 254.812 550.362 259.071 551.064 259.452V259.473C549.814 259.33 547.242 257.329 546.417 257.815C545.634 258.909 554.08 262.843 557.04 263.338C558.108 263.59 559.641 261.275 559.379 260.365C559.136 259.51 558.455 258.466 558.22 258.083C557.841 257.179 557.437 254.978 556.203 254.906Z" fill="#F99370"/>
<path d="M564.302 270.467C564.39 270.525 564.478 270.582 564.569 270.652C564.481 270.592 564.403 270.541 564.302 270.49C564.3 270.486 564.299 270.482 564.299 270.478C564.299 270.474 564.3 270.47 564.302 270.467Z" fill="#395B96"/>
<path d="M599.976 240.612C599.936 240.612 599.896 240.601 599.864 240.579C599.832 240.558 599.81 240.528 599.8 240.494C599.8 240.455 599.485 239.505 597.807 239.011C597.766 238.995 597.734 238.966 597.716 238.93C597.698 238.894 597.696 238.854 597.711 238.817C597.726 238.78 597.756 238.749 597.795 238.73C597.835 238.712 597.881 238.706 597.925 238.715C599.795 239.267 600.136 240.371 600.15 240.418C600.156 240.438 600.157 240.458 600.154 240.479C600.15 240.499 600.142 240.518 600.13 240.536C600.118 240.554 600.102 240.569 600.083 240.581C600.064 240.593 600.042 240.602 600.019 240.607C600.005 240.611 599.991 240.612 599.976 240.612Z" fill="#C16256"/>
<path d="M594.548 238.592C594.522 238.592 594.497 238.587 594.473 238.578C594.45 238.568 594.429 238.555 594.412 238.538C594.395 238.522 594.382 238.504 594.374 238.483C594.365 238.463 594.362 238.441 594.364 238.419C594.365 238.398 594.372 238.377 594.384 238.357C594.395 238.338 594.411 238.321 594.431 238.307C595.333 237.647 596.567 238.176 596.615 238.199C596.654 238.219 596.683 238.252 596.695 238.29C596.707 238.328 596.703 238.368 596.682 238.403C596.662 238.438 596.627 238.466 596.584 238.48C596.542 238.493 596.495 238.493 596.453 238.478C596.453 238.478 595.384 238.016 594.666 238.545C594.635 238.573 594.593 238.59 594.548 238.592Z" fill="#C16256"/>
<path d="M306.086 262.045L293.896 293.057H517.789L490.297 252.769C481.283 239.557 466.064 231.615 449.766 231.615H306.4C305.739 231.615 305.092 231.78 304.536 232.091C303.981 232.402 303.542 232.845 303.27 233.366C302.999 233.888 302.908 234.466 303.008 235.031C303.108 235.597 303.395 236.125 303.834 236.553C306.306 238.94 311.814 242.437 319.085 243.679C313.193 248.866 308.748 255.147 306.086 262.045Z" fill="#EB5648"/>
<path d="M284.903 333.355H268.439V339.136H284.903V333.355Z" fill="#CE3932"/>
<path d="M583.136 318.637C582.912 320.17 582.226 321.625 581.145 322.855C580.064 324.085 578.627 325.046 576.98 325.643L576.491 325.817L568.455 309.645L569.139 309.418C570.784 308.824 572.581 308.614 574.35 308.81C576.119 309.005 577.797 309.6 579.217 310.534C580.636 311.468 581.746 312.709 582.435 314.131C583.125 315.553 583.37 317.107 583.146 318.637H583.136Z" fill="#F9B233"/>
<path d="M583.135 318.639C582.912 320.171 582.225 321.626 581.144 322.856C580.063 324.086 578.627 325.047 576.979 325.644L576.49 325.818C576.587 325.72 580.965 321.289 578.894 315.971C576.798 310.591 568.451 309.649 568.451 309.649L569.135 309.422C570.78 308.827 572.578 308.618 574.346 308.813C576.115 309.009 577.794 309.604 579.213 310.538C580.632 311.472 581.742 312.713 582.431 314.135C583.121 315.557 583.366 317.111 583.142 318.641L583.135 318.639Z" fill="#FFC261"/>
<path d="M269.565 320.324C270.237 321.756 271.333 323.009 272.743 323.957C274.153 324.906 275.828 325.516 277.597 325.727L278.122 325.788L281.1 308.375L280.371 308.308C278.604 308.099 276.805 308.294 275.154 308.876C273.502 309.458 272.057 310.404 270.962 311.622C269.867 312.839 269.161 314.283 268.915 315.811C268.67 317.338 268.893 318.895 269.562 320.324H269.565Z" fill="#F9B233"/>
<path d="M269.566 320.324C270.238 321.756 271.334 323.009 272.744 323.957C274.154 324.906 275.828 325.516 277.598 325.727L278.123 325.788C278 325.713 272.456 322.4 272.88 316.802C273.315 311.138 281.104 308.375 281.104 308.375L280.375 308.308C278.608 308.099 276.809 308.294 275.158 308.876C273.506 309.458 272.06 310.404 270.966 311.622C269.871 312.839 269.165 314.283 268.919 315.811C268.674 317.338 268.897 318.895 269.566 320.324Z" fill="#FFC261"/>
<path d="M318.932 370.78C333.092 370.78 344.571 360.852 344.571 348.606C344.571 336.359 333.092 326.432 318.932 326.432C304.772 326.432 293.293 336.359 293.293 348.606C293.293 360.852 304.772 370.78 318.932 370.78Z" fill="#245084"/>
<path d="M318.935 359.53C325.91 359.53 331.565 354.639 331.565 348.607C331.565 342.574 325.91 337.684 318.935 337.684C311.959 337.684 306.305 342.574 306.305 348.607C306.305 354.639 311.959 359.53 318.935 359.53Z" fill="#2C6399"/>
<path d="M525.506 370.78C539.666 370.78 551.145 360.852 551.145 348.606C551.145 336.359 539.666 326.432 525.506 326.432C511.346 326.432 499.867 336.359 499.867 348.606C499.867 360.852 511.346 370.78 525.506 370.78Z" fill="#245084"/>
<path d="M525.509 359.53C532.484 359.53 538.139 354.639 538.139 348.607C538.139 342.574 532.484 337.684 525.509 337.684C518.534 337.684 512.879 342.574 512.879 348.607C512.879 354.639 518.534 359.53 525.509 359.53Z" fill="#2C6399"/>
<path d="M581.945 344.376C581.452 345.611 580.525 346.682 579.295 347.44C578.064 348.198 576.59 348.605 575.079 348.604H554.213C554.229 342.375 551.538 336.368 546.673 331.774C541.808 327.18 535.125 324.335 527.949 323.803C520.772 323.271 513.627 325.091 507.929 328.901C502.231 332.712 498.397 338.235 497.187 344.376C496.91 345.773 496.772 347.187 496.772 348.604H347.629C347.629 347.187 347.491 345.773 347.214 344.376C346.004 338.235 342.17 332.712 336.472 328.901C330.774 325.091 323.628 323.271 316.452 323.803C309.276 324.335 302.592 327.18 297.728 331.774C292.863 336.368 290.172 342.375 290.188 348.604C288.349 348.605 286.528 348.292 284.829 347.684C283.13 347.076 281.587 346.184 280.286 345.059C278.986 343.935 277.955 342.6 277.251 341.131C276.548 339.661 276.187 338.086 276.188 336.496V322.39C276.187 317.583 277.283 312.823 279.411 308.383C281.539 303.942 284.658 299.908 288.589 296.511C292.521 293.113 297.188 290.419 302.325 288.582C307.461 286.746 312.965 285.803 318.523 285.807H519.411C569.804 285.807 580.169 325.273 582.301 341.632C582.423 342.558 582.301 343.496 581.945 344.376Z" fill="#EB5648"/>
<path d="M316.926 290.111L327.696 262.055L327.722 261.999C330.099 256.44 333.892 251.415 338.819 247.296C343.45 243.45 348.999 240.528 355.075 238.735C359.474 237.452 364.086 236.796 368.729 236.793H449.34C449.492 236.793 449.645 236.793 449.794 236.793C464.374 236.925 477.872 243.473 485.927 254.318L485.976 254.385L509.898 290.105L316.926 290.111Z" fill="#CE3932"/>
<path d="M501.612 285.807H323.807L332.649 263.201C334.785 258.286 338.191 253.858 342.606 250.255C346.773 246.856 351.749 244.287 357.186 242.728C358.612 242.316 360.065 241.98 361.538 241.719C364.126 241.254 366.762 241.021 369.405 241.021H449.19C455.64 241.087 461.971 242.528 467.623 245.216C473.275 247.905 478.073 251.758 481.591 256.434L501.612 285.807Z" fill="#C3DCFC"/>
<path d="M377.309 285.807H359.229L342.607 250.255C346.774 246.856 351.751 244.287 357.188 242.729L377.309 285.807Z" fill="#DCEDFF"/>
<path d="M391.099 285.807H382.147L361.533 241.719C364.121 241.254 366.757 241.021 369.4 241.021H370.158L391.099 285.807Z" fill="#DCEDFF"/>
<path d="M456.339 285.807H438.256L417.318 241.021H435.401L456.339 285.807Z" fill="#DCEDFF"/>
<path d="M470.113 285.807H461.16L440.223 241.021H449.175L470.113 285.807Z" fill="#DCEDFF"/>
<path d="M420.894 298.076H408.922V303.221H420.894V298.076Z" fill="#CE3932"/>
<path d="M379.586 298.076H367.613V303.221H379.586V298.076Z" fill="#CE3932"/>
<path d="M559.763 344.377C554.744 310.722 496.256 310.75 491.25 344.377H391.292V323.08C391.303 310.405 396.517 298.146 406.006 288.487L406.712 287.766V237.268H400.767V285.889C390.804 296.373 385.356 309.521 385.35 323.091V344.388H353.192C349.803 322.553 324.854 315.194 305.954 321.197C306.213 310.932 309.061 302.397 314.233 296.445C318.276 291.788 322.382 290.28 322.42 290.28H322.401L320.233 285.491C320.013 285.564 314.819 287.368 309.784 293.001C305.313 298.003 299.986 308.04 299.986 323.567L300.209 323.537C291.299 328.068 284.757 336.107 284.355 347.501C286.192 348.239 288.192 348.621 290.217 348.622C291.237 315.744 346.776 316.013 347.648 348.622H496.791C497.377 315.999 553.645 316.01 554.225 348.622H575.092C576.603 348.623 578.076 348.216 579.307 347.458C580.538 346.7 581.464 345.629 581.958 344.394L559.763 344.377Z" fill="#CE3932"/>
<path d="M547.814 302.115H515.685C515.255 302.115 514.843 301.967 514.539 301.704C514.235 301.442 514.064 301.085 514.064 300.714C514.064 300.342 514.235 299.986 514.539 299.723C514.843 299.46 515.255 299.312 515.685 299.312H547.814C548.243 299.312 548.655 299.46 548.959 299.723C549.263 299.986 549.434 300.342 549.434 300.714C549.434 301.085 549.263 301.442 548.959 301.704C548.655 301.967 548.243 302.115 547.814 302.115Z" fill="#CE3932"/>
<path d="M547.814 307.189H515.685C515.255 307.189 514.843 307.041 514.539 306.779C514.235 306.516 514.064 306.159 514.064 305.788C514.064 305.416 514.235 305.06 514.539 304.797C514.843 304.534 515.255 304.387 515.685 304.387H547.814C548.243 304.387 548.655 304.534 548.959 304.797C549.263 305.06 549.434 305.416 549.434 305.788C549.434 306.159 549.263 306.516 548.959 306.779C548.655 307.041 548.243 307.189 547.814 307.189Z" fill="#CE3932"/>
<path d="M547.814 312.257H515.685C515.255 312.257 514.843 312.11 514.539 311.847C514.235 311.584 514.064 311.228 514.064 310.856C514.064 310.485 514.235 310.128 514.539 309.865C514.843 309.603 515.255 309.455 515.685 309.455H547.814C548.243 309.455 548.655 309.603 548.959 309.865C549.263 310.128 549.434 310.485 549.434 310.856C549.434 311.228 549.263 311.584 548.959 311.847C548.655 312.11 548.243 312.257 547.814 312.257Z" fill="#CE3932"/>
</svg>
