<svg xmlns="http://www.w3.org/2000/svg" version="1.1" xmlns:xlink="http://www.w3.org/1999/xlink" width="512" height="512" x="0" y="0" viewBox="0 0 512 512" style="enable-background:new 0 0 512 512" xml:space="preserve" class=""><g transform="matrix(-1,-1.2246467991473532e-16,1.2246467991473532e-16,-1,511.99999999999994,511.99484062194836)"><path fill="#474747" d="M512 256c0-49.3-2.5-93.9-9.9-119.7-8.7-30.2-18.2-57.8-44.7-82.2-31.6-29.1-60.3-38.9-101.9-47-30.9-6-66.9-7.3-89.4-7.2H246c-22.5-.1-58.5 1.2-89.4 7.2C115 15.2 86.3 25 54.7 54.1c-26.5 24.4-36 52-44.7 82.2-7.5 25.8-10 70.4-10 119.6v.2c0 49.2 2.5 93.8 9.9 119.6 8.7 30.2 18.2 57.8 44.7 82.2 31.6 29.1 60.3 38.9 101.9 47 36 7 78.8 7.6 99.2 7l.2.2.2-.2c20.5.6 63.3-.1 99.2-7 41.6-8.1 70.3-17.9 101.9-47 26.5-24.4 36-52 44.7-82.2 7.6-25.8 10.1-70.4 10.1-119.7z" opacity="1" data-original="#379df1" class=""></path><path fill="#ffffff" d="M398.2 234.2H166.6l93.8-93.8c8.6-8.6 8.6-22.4 0-30.9-8.6-8.6-22.4-8.6-30.9 0l-131.1 131c-8.6 8.6-8.6 22.4 0 30.9l131.2 131.2c4.3 4.3 9.8 6.4 15.5 6.4 5.6 0 11.2-2.1 15.5-6.4 8.6-8.6 8.6-22.4 0-30.9l-93.8-93.8h231.4c12.1 0 21.9-9.7 21.9-21.9-.1-12.1-9.8-21.8-21.9-21.8z" opacity="1" data-original="#ffffff" class=""></path></g></svg>