<svg width="27" height="28" viewBox="0 0 27 28" fill="none" xmlns="http://www.w3.org/2000/svg">
<path fill-rule="evenodd" clip-rule="evenodd" d="M19.0466 8.16666C19.0824 8.08398 19.0991 7.99387 19.0956 7.90337H19.125C18.9992 4.79022 16.5205 2.33333 13.5055 2.33333C10.4906 2.33333 8.01194 4.79022 7.88613 7.90337C7.87129 7.99047 7.87129 8.07957 7.88613 8.16666H7.79818C6.3565 8.16666 4.81538 9.15363 4.36797 11.8068L3.49301 19.0338C2.77715 24.34 5.41195 25.6667 8.8521 25.6667H18.1783C21.6084 25.6667 24.1638 23.7457 23.5275 19.0338L22.6625 11.8068C22.1355 9.22791 20.6441 8.16666 19.2223 8.16666H19.0466ZM17.4299 8.16666C17.3986 8.08259 17.3819 7.99345 17.3809 7.90337C17.3809 5.66629 15.6261 3.85277 13.4614 3.85277C11.2968 3.85277 9.54207 5.66629 9.54207 7.90337C9.5569 7.99047 9.5569 8.07957 9.54207 8.16666H17.4299ZM10.2341 14.1734C9.685 14.1734 9.23986 13.6982 9.23986 13.112C9.23986 12.526 9.685 12.0508 10.2341 12.0508C10.7832 12.0508 11.2284 12.526 11.2284 13.112C11.2284 13.6982 10.7832 14.1734 10.2341 14.1734ZM15.7523 13.112C15.7523 13.6982 16.1974 14.1734 16.7465 14.1734C17.2956 14.1734 17.7408 13.6982 17.7408 13.112C17.7408 12.526 17.2956 12.0508 16.7465 12.0508C16.1974 12.0508 15.7523 12.526 15.7523 13.112Z" fill="#E73C33"/>
</svg>
