<svg width="16" height="21" viewBox="0 0 16 21" fill="none" xmlns="http://www.w3.org/2000/svg">
<path d="M1 8.5C1 6.63872 1 5.70808 1.24472 4.95492C1.73931 3.43273 2.93273 2.23931 4.45492 1.74472C5.20808 1.5 6.13872 1.5 8 1.5C9.86128 1.5 10.7919 1.5 11.5451 1.74472C13.0673 2.23931 14.2607 3.43273 14.7553 4.95492C15 5.70808 15 6.63872 15 8.5V15.8874C15 17.8045 15 18.7631 14.658 19.27C14.2403 19.8893 13.5122 20.2242 12.7701 20.1383C12.1627 20.068 11.4349 19.4442 9.97931 18.1965C9.33858 17.6474 9.01821 17.3728 8.66631 17.2484C8.23517 17.0961 7.76483 17.0961 7.33369 17.2484C6.98179 17.3728 6.66142 17.6474 6.02069 18.1965C4.5651 19.4442 3.8373 20.068 3.22986 20.1383C2.48778 20.2242 1.75971 19.8893 1.34196 19.27C1 18.7631 1 17.8045 1 15.8874V8.5Z" stroke="#212B5E" stroke-width="1.5"/>
</svg>
