<svg width="24" height="24" viewBox="0 0 24 24" fill="none" xmlns="http://www.w3.org/2000/svg">
<path d="M14.3797 5.8334C14.2352 6.5051 14.5471 7.0365 14.8195 7.507C15.1001 7.9889 15.8434 8.9051 15.6532 9.4303C14.5461 12.1192 12.1926 14.6481 9.49287 15.7429C8.95647 15.9358 8.03441 15.196 7.54687 14.9174C7.07492 14.6471 6.53852 14.3417 5.86179 14.481C5.25366 14.6068 3.18188 16.235 2.61534 16.8108C2.24111 17.1905 2.03528 17.5795 2.00201 17.9788C1.93756 19.4801 3.94074 21.1567 4.41996 21.4508C5.44182 22.1875 6.80153 22.1834 8.45022 21.4384C12.8787 19.6431 19.5618 12.8528 21.4246 8.4078C21.8082 7.5875 22.0005 6.8374 22.0005 6.1636C22.0005 5.5043 21.8165 4.9172 21.4517 4.4126C21.2323 4.0319 19.4724 1.9466 17.9308 2.0013C17.5378 2.0343 17.1449 2.2396 16.7644 2.609C16.1833 3.1714 14.5066 5.2298 14.3797 5.8334Z" fill="#F6F6F6"/>
</svg>
