<?xml version="1.0" encoding="UTF-8"?>
<svg xmlns="http://www.w3.org/2000/svg" viewBox="0 0 64 64" width="512" height="512"><g id="Layer_50" data-name="Layer 50"><path d="M44.9,35.553a1,1,0,0,0-1.342-.448L39.764,37H24.236l-3.789-1.9a1,1,0,0,0-.894,1.79l4,2A1,1,0,0,0,24,39H40a1,1,0,0,0,.447-.1l4-2A1,1,0,0,0,44.9,35.553Z"/><path d="M57,14H35V11.87c4.81-.39,10-1.86,10-4.87,0-3.28-6.54-5-13-5S19,3.72,19,7c0,3.01,5.19,4.48,10,4.87V14H7a5,5,0,0,0-5,5V57a5,5,0,0,0,5,5H57a5,5,0,0,0,5-5V19A5,5,0,0,0,57,14ZM21,7c0-1.02,3.88-3,11-3S43,5.98,43,7c0,.83-2.67,2.41-8,2.87V7a1,1,0,0,0-1-1H30a1,1,0,0,0-1,1V9.87C23.67,9.41,21,7.83,21,7ZM33,8v6H31V8ZM60,57a3.009,3.009,0,0,1-3,3H7a3.009,3.009,0,0,1-3-3V19a3.009,3.009,0,0,1,3-3H57a3.009,3.009,0,0,1,3,3Z"/><path d="M57,18H7a1,1,0,0,0-1,1V51a1,1,0,0,0,1,1H57a1,1,0,0,0,1-1V19A1,1,0,0,0,57,18ZM8.87,50l3.16-4.74A2.992,2.992,0,0,0,15,48v1a3,3,0,0,0,.18,1ZM12,30a1,1,0,0,1,1-1h1.46l.67,1Zm2,7.72,4.37,2.5-.78.78H14ZM14,43h4a1.033,1.033,0,0,0,.71-.29l2-2a1.012,1.012,0,0,0-.21-1.58L14,35.42V35a2.985,2.985,0,0,1,2.63-2.96A6.971,6.971,0,0,0,21.49,34H42.51a6.971,6.971,0,0,0,4.86-1.96A2.985,2.985,0,0,1,50,35v.42l-6.5,3.71a1.012,1.012,0,0,0-.21,1.58l2,2A1.033,1.033,0,0,0,46,43h4v2a1,1,0,0,1-1,1H43.72l-.86-2.58A4.987,4.987,0,0,0,38.12,40H25.88a4.987,4.987,0,0,0-4.74,3.42L20.28,46H15a1,1,0,0,1-1-1ZM40,28H38a3.009,3.009,0,0,0-3,3v1H29V31a3.009,3.009,0,0,0-3-3H24a3.009,3.009,0,0,0-3,3v.95a4.932,4.932,0,0,1-2.77-1.18l1.45-2.9A6.972,6.972,0,0,1,25.94,24H38.06a6.972,6.972,0,0,1,6.26,3.87l1.45,2.9A4.932,4.932,0,0,1,43,31.95V31A3.009,3.009,0,0,0,40,28Zm1,3v1H37V31a1,1,0,0,1,1-1h2A1,1,0,0,1,41,31ZM27,31v1H23V31a1,1,0,0,1,1-1h2A1,1,0,0,1,27,31Zm21.87-1,.67-1H51a1,1,0,0,1,1,1ZM50,37.72V41H46.41l-.78-.78ZM41.61,46H39V42.14a2.968,2.968,0,0,1,1.96,1.91ZM37,42v4H35V42Zm-4,0v4H31V42Zm-4,0v4H27V42Zm-4,.14V46H22.39l.65-1.95A2.968,2.968,0,0,1,25,42.14ZM23,49a1,1,0,0,1-1,1H18a1,1,0,0,1-1-1V48h6Zm1.82,1A3,3,0,0,0,25,49V48H39v1a3,3,0,0,0,.18,1ZM47,49a1,1,0,0,1-1,1H42a1,1,0,0,1-1-1V48h6Zm1.82,1A3,3,0,0,0,49,49V48a2.992,2.992,0,0,0,2.97-2.74L55.13,50ZM56,47.7l-4-6V35a4.924,4.924,0,0,0-1.03-3H53a1,1,0,0,0,1-1V30a3.009,3.009,0,0,0-3-3H49a1,1,0,0,0-.83.45l-1.05,1.56-1.01-2.03A8.961,8.961,0,0,0,38.06,22H25.94a8.961,8.961,0,0,0-8.05,4.98l-1.01,2.03-1.05-1.56A1,1,0,0,0,15,27H13a3.009,3.009,0,0,0-3,3v1a1,1,0,0,0,1,1h2.03A4.924,4.924,0,0,0,12,35v6.7l-4,6V20H56Z"/><path d="M55,53a3,3,0,1,0,3,3A3,3,0,0,0,55,53Zm0,4a1,1,0,1,1,1-1A1,1,0,0,1,55,57Z"/><path d="M48,53a3,3,0,1,0,3,3A3,3,0,0,0,48,53Zm0,4a1,1,0,1,1,1-1A1,1,0,0,1,48,57Z"/><path d="M41,53a3,3,0,1,0,3,3A3,3,0,0,0,41,53Zm0,4a1,1,0,1,1,1-1A1,1,0,0,1,41,57Z"/><path d="M9,53a3,3,0,1,0,3,3A3,3,0,0,0,9,53Zm0,4a1,1,0,1,1,1-1A1,1,0,0,1,9,57Z"/><path d="M36,55H14a1,1,0,0,0,0,2H36a1,1,0,0,0,0-2Z"/></g></svg>
