<svg xmlns="http://www.w3.org/2000/svg" xmlns:xlink="http://www.w3.org/1999/xlink" xml:space="preserve" version="1.0" style="shape-rendering:geometricPrecision;text-rendering:geometricPrecision;image-rendering:optimizeQuality;" viewBox="0 0 10000 12500" x="0px" y="0px" fill-rule="evenodd" clip-rule="evenodd"><defs><style type="text/css">
   
    .fil0 {fill:black;fill-rule:nonzero}
   
  </style></defs><g><path class="fil0" d="M3664 7239l0 615c0,231 -190,421 -421,421l-252 0c-231,0 -421,-190 -421,-421l0 -618c-1079,-101 -1027,-1914 79,-1914l99 0 425 -1332c66,-206 189,-405 431,-405l3142 0c242,0 364,199 431,404l436 1333 88 0c1107,0 1159,1813 79,1914l0 624c0,228 -187,415 -415,415l-263 0c-229,0 -415,-187 -415,-415l0 -621 -3023 0zm-698 -1917l2271 0c21,-446 392,-799 839,-799 448,0 817,353 839,799l479 0 -414 -1268c-36,-110 -98,-261 -234,-261l-3142 0c-136,0 -198,150 -233,260l-405 1269zm2480 0l1261 0c-22,-332 -298,-590 -631,-590 -333,0 -609,258 -630,590zm-2774 1709c1668,0 3336,0 5004,0 920,0 882,-1500 25,-1500 -1684,0 -3368,0 -5052,0 -858,0 -892,1500 23,1500zm4900 829l0 -621 -677 0 0 621c0,113 93,207 207,207l263 0c114,0 207,-93 207,-207zm-4117 -6l0 -615 -676 0 0 615c0,117 95,213 212,213l252 0c117,0 212,-96 212,-213z"/><path class="fil0" d="M4069 5851l2213 0c57,0 104,47 104,104l0 731c0,57 -47,104 -104,104l-2213 0c-58,0 -104,-47 -104,-104l0 -731c0,-57 46,-104 104,-104zm2109 208l-2005 0 0 522 2005 0 0 -522z"/><path class="fil0" d="M2852 5973l442 0c434,0 422,651 0,651l-442 0c-420,0 -435,-651 0,-651zm442 209l-442 0c-155,0 -154,234 0,234l442 0c154,0 154,-234 0,-234z"/><path class="fil0" d="M7056 5973l443 0c427,0 425,651 0,651l-443 0c-419,0 -434,-651 0,-651zm443 209l-443 0c-155,0 -153,234 0,234l443 0c153,0 154,-234 0,-234z"/><path class="fil0" d="M2355 3774c137,0 137,208 0,208 -218,0 -397,175 -401,394 0,154 -209,141 -209,8 0,-219 -175,-398 -394,-402 -152,0 -141,-208 -8,-208 220,0 398,-175 402,-394 0,-153 209,-142 209,-8 0,222 180,402 401,402zm-505 269c43,-64 100,-122 164,-165 -65,-44 -121,-100 -164,-165 -44,65 -101,121 -166,165 65,44 121,100 166,165z"/><path class="fil0" d="M6704 2230c137,0 137,209 0,209 -219,0 -397,175 -402,394 0,153 -208,141 -208,8 0,-219 -175,-398 -394,-402 -153,0 -141,-209 -8,-209 219,0 398,-175 402,-394 0,-152 208,-141 208,-8 0,222 180,402 402,402zm-506 270c44,-65 100,-122 165,-166 -65,-43 -121,-100 -165,-165 -44,65 -100,121 -165,165 65,45 121,100 165,166z"/><path class="fil0" d="M8657 3845c137,0 137,208 0,208 -219,0 -397,175 -402,394 0,154 -208,141 -208,8 0,-219 -175,-398 -394,-402 -152,0 -141,-208 -8,-208 220,0 398,-175 402,-394 0,-153 208,-141 208,-8 0,222 180,402 402,402zm-506 269c44,-64 101,-122 165,-165 -65,-44 -121,-100 -165,-165 -44,65 -100,121 -165,165 65,44 121,100 165,165z"/></g><text x="0" y="10015" fill="#000000" font-size="5px" font-weight="bold" font-family="'Helvetica Neue', Helvetica, Arial-Unicode, Arial, Sans-serif">Created by Ragal Kartidev</text><text x="0" y="10020" fill="#000000" font-size="5px" font-weight="bold" font-family="'Helvetica Neue', Helvetica, Arial-Unicode, Arial, Sans-serif">from the Noun Project</text></svg>