<!-- Generated by IcoMoon.io -->
<svg version="1.1" xmlns="http://www.w3.org/2000/svg" width="1024" height="1024" viewBox="0 0 1024 1024">
<title></title>
<g id="icomoon-ignore">
</g>
<path fill="#000" d="M625.143 454.468c12.497-12.493 12.497-32.756 0-45.253-12.493-12.497-32.755-12.497-45.252 0l-67.883 67.883-67.883-67.883c-12.497-12.497-32.757-12.497-45.254 0s-12.497 32.76 0 45.257l67.88 67.878-67.88 67.883c-12.497 12.497-12.497 32.759 0 45.257s32.756 12.497 45.254 0l67.883-67.883 67.883 67.883c12.497 12.497 32.759 12.497 45.257 0 12.493-12.497 12.493-32.759 0-45.257l-67.883-67.883 67.878-67.883z"></path>
<path fill="#000" d="M512 53.333c-253.315 0-458.667 205.352-458.667 458.667s205.352 458.667 458.667 458.667c253.316 0 458.667-205.35 458.667-458.667 0-253.315-205.35-458.667-458.667-458.667zM117.333 512c0-217.968 176.698-394.667 394.667-394.667 217.967 0 394.667 176.698 394.667 394.667 0 217.967-176.7 394.667-394.667 394.667-217.968 0-394.667-176.7-394.667-394.667z"></path>
</svg>
