<svg width="15" height="14" viewBox="0 0 15 14" fill="none" xmlns="http://www.w3.org/2000/svg">
<g clip-path="url(#clip0_351_9171)">
<path d="M0 2.9153H2.21233L9.56453 9.85929H12.4634L10.8042 8.25205L11.672 7.43511L15 10.4454L11.672 13.5L10.8042 12.6387L12.3967 11.0847H9.11634L5.61666 7.8347L2.21233 10.9781H0V9.85929H1.64971L4.71074 7.00888L1.63064 4.14071H0V2.9153Z" fill="#303030"/>
<path d="M6.45605 5.3306L9.05936 2.90642H12.5018L10.7758 1.30806L11.6436 0.5L14.943 3.56352L11.7103 6.58265L10.7377 5.67691L12.3588 4.17623H9.55523L7.39057 6.19194L6.45605 5.3306Z" fill="#303030"/>
</g>
<defs>
<clipPath id="clip0_351_9171">
<rect width="15" height="13" fill="white" transform="translate(0 0.5)"/>
</clipPath>
</defs>
</svg>
