<svg height="496pt" viewBox="0 0 496 496" width="496pt" xmlns="http://www.w3.org/2000/svg"><path d="m488 248c0 132.546875-107.453125 240-240 240s-240-107.453125-240-240 107.453125-240 240-240 240 107.453125 240 240zm0 0" fill="#85d3c1"/><path d="m360 408v48h-144v-48h-96c-17.679688 0-32-14.320312-32-32v-32h104l24 16h244.238281c-9.117187 17.359375-20.398437 33.519531-33.4375 48zm0 0" fill="#f9d48a"/><path d="m424 84.800781c39.761719 42.878907 64 100.160157 64 163.199219 0 40.480469-10 78.558594-27.761719 112h-244.238281l-24-16h-104v-176c0-17.679688 14.320312-32 32-32l48 48v128h256zm0 0" fill="#f5f7fa"/><path d="m304 224 8 56-56-8zm0 0" fill="#f5f7fa"/><path d="m144 64-48 48-30.078125-30.078125c-6.320313-6.320313-9.921875-14.960937-9.921875-24 0-9.363281 3.839844-17.84375 9.921875-24 6.15625-6.082031 14.636719-9.921875 24-9.921875 9.039063 0 17.679687 3.601562 24 9.921875zm0 0" fill="#f9d48a"/><path d="m304 224-24 24-160-160 24-24zm0 0" fill="#ff958a"/><path d="m280 248-24 24-160-160 24-24zm0 0" fill="#ff958a"/><path d="m424 72h-64v-64zm0 0" fill="#ff958a"/><path d="m424 84.800781v227.199219h-256v-128l88 88 56 8-8-56-136-136v-66.320312c25.039062-8.878907 52-13.679688 80-13.679688h112v64h64zm0 0" fill="#f9d48a"/><g fill="#232323"><path d="m176 368h16v16h-16zm0 0"/><path d="m144 368h16v16h-16zm0 0"/><path d="m112 368h16v16h-16zm0 0"/><path d="m432 81.800781v-13.113281l-68.6875-68.6875h-115.3125c-43.550781 0-86.105469 11.503906-123.585938 33.105469l-4.8125-4.816407c-7.921874-7.929687-18.449218-12.289062-29.664062-12.289062-23.121094 0-41.9375 18.816406-41.9375 41.945312 0 10.839844 4.167969 21.015626 11.617188 28.847657-38.464844 44.910156-59.617188 101.839843-59.617188 161.207031 0 136.742188 111.246094 248 248 248s248-111.257812 248-248c0-61.671875-22.734375-120.542969-64-166.199219zm48 166.199219c0 37.382812-8.945312 72.695312-24.710938 104h-236.863281l-24-16h-98.425781v-168c0-12.199219 9.183594-22.191406 20.984375-23.695312l43.015625 43.015624v132.679688h272v-213.320312c31.078125 40.398437 48 89.824218 48 141.320312zm-72.257812 168c-12.101563 11.511719-25.390626 21.777344-39.742188 30.488281v-30.488281zm-167.207032-16v16h111.464844v32h-128v-48h-104c-13.230469 0-24-10.769531-24-24v-24h93.574219l24 16h232.90625c-6.886719 11.351562-14.769531 22.023438-23.441407 32zm52.152344-176-12.6875 12.6875-148.6875-148.6875 12.6875-12.6875zm9.878906 46.566406-29.597656-4.230468 25.375-25.375zm-182.566406-171.253906 148.6875 148.6875-12.6875 12.6875-148.6875-148.6875zm248-72 36.6875 36.6875h-36.6875zm-16-11.3125v64h64v224h-240v-100.679688l76.222656 76.222657 69.203125 9.890625-9.890625-69.203125-135.535156-135.542969v-57.144531c23.113281-7.535157 47.375-11.542969 72-11.542969zm-192 17.414062v35.28125l-23.847656-23.847656c7.742187-4.28125 15.695312-8.09375 23.847656-11.433594zm-70.0625-1.414062c6.933594 0 13.445312 2.695312 18.34375 7.601562l24.40625 24.398438-36.6875 36.6875-24.398438-24.398438c-4.90625-4.90625-7.601562-11.425781-7.601562-18.34375 0-14.304687 11.632812-25.945312 25.9375-25.945312zm-73.9375 216c0-55.089844 19.457031-107.9375 54.894531-149.792969l33.152344 33.152344c-14.125 6.183594-24.046875 20.265625-24.046875 36.640625v208c0 22.054688 17.945312 40 40 40h88v32h-32v16h156.496094c-26.207032 10.289062-54.6875 16-84.496094 16-127.921875 0-232-104.070312-232-232zm0 0"/><path d="m192 32h16v16h-16zm0 0"/><path d="m224 32h112v16h-112zm0 0"/><path d="m192 64h144v16h-144zm0 0"/><path d="m288 96h112v16h-112zm0 0"/><path d="m288 128h112v16h-112zm0 0"/><path d="m288 160h112v16h-112zm0 0"/><path d="m336 192h64v16h-64zm0 0"/><path d="m336 224h64v16h-64zm0 0"/><path d="m336 256h64v16h-64zm0 0"/></g></svg>