<svg xmlns="http://www.w3.org/2000/svg" version="1.1" xmlns:xlink="http://www.w3.org/1999/xlink" width="512" height="512" x="0" y="0" viewBox="0 0 24 24" style="enable-background:new 0 0 512 512" xml:space="preserve" class=""><g><path d="M7 5a1 1 0 0 0 1-1 2.002 2.002 0 0 1 2-2h4a2.002 2.002 0 0 1 2 2 1 1 0 0 0 2 0 4.004 4.004 0 0 0-4-4h-4a4.004 4.004 0 0 0-4 4 1 1 0 0 0 1 1zM22 6H2a1 1 0 0 0 0 2h.34a3.076 3.076 0 0 0-.16 1.28c.19 1.97.47 3.96.84 5.9.31 1.71.7 3.43 1.15 5.1A5.006 5.006 0 0 0 9 24h6a5.008 5.008 0 0 0 4.83-3.71c.45-1.68.84-3.4 1.15-5.11.37-1.94.65-3.93.84-5.9A3.076 3.076 0 0 0 21.66 8H22a1 1 0 0 0 0-2zm-5 13a1 1 0 0 1-2 0v-9a1 1 0 0 1 2 0zm-9 1a1 1 0 0 1-1-1v-9a1 1 0 0 1 2 0v9a1 1 0 0 1-1 1zm5-1a1 1 0 0 1-2 0v-9a1 1 0 0 1 2 0z" fill="#ff4949" opacity="1" data-original="#000000" class=""></path></g></svg>