<svg id="Layer_5" enable-background="new 0 0 64 64" height="512" viewBox="0 0 64 64" width="512" xmlns="http://www.w3.org/2000/svg"><g><path d="m58 15h-5v-6h-12.106c-2.832-4.947-8.054-8-13.785-8h-.219c-8.12 0-14.828 6.127-15.767 14h-5.123c-2.757 0-5 2.243-5 5v32c0 2.757 2.243 5 5 5h17v4h-4v2h26v-2h-4v-4h17c2.757 0 5-2.243 5-5v-32c0-2.757-2.243-5-5-5zm-43.652 11.646 6.931 8.912c-3.964.826-6.279 2.437-6.279 4.442 0 3.283 6.037 5 12 5s12-1.717 12-5c0-2.005-2.316-3.616-6.279-4.442l6.931-8.912c.405-.521.769-1.077 1.107-1.646h12.241v-4h4v26h-50v-26h4.552c.548 2.039 1.491 3.97 2.796 5.646zm16.982 10.7c3.847.63 5.67 1.928 5.67 2.654 0 1.194-3.988 3-10 3s-10-1.806-10-3c0-.726 1.823-2.024 5.669-2.653l1.927 2.478c.582.747 1.458 1.175 2.404 1.175s1.822-.428 2.403-1.176zm16.726-17.179c-1.596-1.064-2.679-1.786-3.436-2.27l6.38-5.67v9.904zm-5.436-3.167h-4.683c-.196 0-.381 0-.553.005-1.002-.891-4.505-4.005-6.754-6.005h18.74zm-13.62-4.773 2.835 2.521c1.681 1.494 2.79 2.48 3.551 3.126l-6.386 4.257zm-2-3.227v16h5.99c-1.712 1.285-3.8 2-5.99 2-5.514 0-10-4.486-10-10s4.486-10 10-10c2.189 0 4.277.715 5.99 2zm4.302 14 6-4.001c1.009 0 4.378.001 5.396.001.833.554 3.752 2.501 6 4zm-4.411-20h.219c4.614 0 8.853 2.264 11.429 6h-2.616c-2.279-2.54-5.495-4-8.923-4-6.617 0-12 5.383-12 12s5.383 12 12 12c3.427 0 6.644-1.46 8.922-4h2.451c-.1.139-.194.284-.299.419l-10.249 13.177c-.4.514-1.25.513-1.65 0l-10.249-13.177c-1.887-2.426-2.926-5.455-2.926-8.528 0-7.66 6.231-13.891 13.891-13.891zm12.109 58h-14v-4h14zm22-9c0 1.654-1.346 3-3 3h-26-26c-1.654 0-3-1.346-3-3v-32c0-1.654 1.346-3 3-3h5.005c.005.671.061 1.338.151 2h-4.156c-1.103 0-2 .897-2 2v26c0 1.103.897 2 2 2h25 25c1.103 0 2-.897 2-2v-26c0-1.103-.897-2-2-2h-4v-2h5c1.654 0 3 1.346 3 3z"/><path d="m35 52c0-1.654-1.346-3-3-3s-3 1.346-3 3 1.346 3 3 3 3-1.346 3-3zm-3 1c-.552 0-1-.449-1-1s.448-1 1-1 1 .449 1 1-.448 1-1 1z"/><path d="m49 39h2v2h-2z"/><path d="m53 39h2v2h-2z"/><path d="m41 39h2v2h-2z"/><path d="m45 39h2v2h-2z"/><path d="m41 35h14v2h-14z"/><path d="m41 43h14v2h-14z"/><path d="m47 31h8v2h-8z"/><path d="m41 31h4v2h-4z"/><path d="m41 27h14v2h-14z"/></g></svg>