<svg id="Layer_1" enable-background="new 0 0 512 512" height="512" viewBox="0 0 512 512" width="512" xmlns="http://www.w3.org/2000/svg"><path d="m409.81 330.44h-214.02c-.02 0-.04 0-.06 0h-93.53c-4.42 0-7.99 3.58-7.99 7.99l.03 30.71c.01 3.46 2.23 6.52 5.52 7.59l25.03 8.15c3.1 11.79 7.77 23.04 13.91 33.57l-11.95 23.48c-1.57 3.08-.97 6.83 1.47 9.28l26.79 26.79c2.45 2.45 6.19 3.04 9.28 1.47l23.48-11.95c10.52 6.14 21.77 10.81 33.56 13.91l8.15 25.05c1.07 3.29 4.14 5.52 7.6 5.52h37.9c3.47 0 6.54-2.23 7.6-5.53l8.12-25.04c11.79-3.1 23.04-7.77 33.56-13.91l23.48 11.95c3.08 1.57 6.82.98 9.27-1.47l26.8-26.8c2.44-2.45 3.03-6.19 1.47-9.27l-11.95-23.48c6.14-10.52 10.81-21.78 13.91-33.57l25.05-8.15c3.29-1.07 5.52-4.14 5.52-7.6v-30.7c-.01-4.41-3.59-7.99-8-7.99zm-100.52 19.76c0 29.38-23.91 53.29-53.29 53.29s-53.29-23.91-53.29-53.29c0-1.25.06-2.51.15-3.77h106.28c.09 1.26.15 2.51.15 3.77zm92.52 13.13-23.76 7.73c-2.68.87-4.7 3.08-5.33 5.83-2.99 13.14-8.14 25.58-15.32 36.97-1.5 2.39-1.64 5.39-.36 7.9l11.34 22.26-18.58 18.58-22.26-11.34c-2.51-1.28-5.51-1.15-7.9.36-11.39 7.18-23.83 12.33-36.97 15.32-2.75.63-4.96 2.65-5.83 5.32l-7.71 23.76h-26.28l-7.73-23.76c-.87-2.68-3.08-4.7-5.83-5.32-13.14-2.99-25.58-8.14-36.97-15.32-2.39-1.5-5.39-1.64-7.9-.36l-22.25 11.34-18.56-18.6 11.34-22.25c1.28-2.51 1.15-5.51-.36-7.9-7.18-11.39-12.33-23.83-15.32-36.97-.63-2.75-2.65-4.96-5.33-5.83l-23.74-7.73-.02-16.9h76.65c-.07 1.26-.11 2.52-.11 3.77 0 38.2 31.08 69.28 69.28 69.28s69.28-31.08 69.28-69.28c0-1.25-.04-2.51-.11-3.77h76.65v16.91zm-210.14-145.13c2.2 2.46 4.48 5.01 6.72 7.64 7.39 8.64 10.98 18.38 10.98 29.76v15.14c0 1.63.11 3.24.29 4.82.01.07.02.15.03.22 2.49 20.11 19.67 35.73 40.44 35.73h11.73c20.77 0 37.95-15.62 40.44-35.73.01-.07.02-.15.03-.22.19-1.58.29-3.19.29-4.82v-15.14c0-2.82.22-5.55.67-8.18 0-.02 0-.03.01-.05 1.36-7.93 4.76-15.03 10.3-21.53 2.23-2.61 4.49-5.14 6.68-7.58 14.69-16.42 28.57-31.93 28.57-65.87 0-51.21-41.66-92.86-92.86-92.86s-92.86 41.66-92.86 92.86c.01 33.9 13.86 49.4 28.54 65.81zm95 35.87c-.01.51-.03 1.02-.03 1.53v11.2h-61.29v-11.2c0-.52-.02-1.02-.03-1.53zm-24.8 41.44h-11.73c-9.29 0-17.4-5.14-21.64-12.73h55.01c-4.25 7.59-12.35 12.73-21.64 12.73zm-5.87-219.99c42.39 0 76.88 34.49 76.88 76.88 0 27.82-10.81 39.91-24.5 55.21-2.25 2.52-4.58 5.12-6.93 7.87-5.94 6.97-10.05 14.46-12.41 22.62h-25.05v-58.57l8.63-8.63c3.12-3.12 3.12-8.18 0-11.3s-8.18-3.12-11.3 0l-5.32 5.3-5.32-5.32c-3.12-3.12-8.18-3.12-11.3 0s-3.12 8.18 0 11.3l8.63 8.63v58.57h-25.04c-2.36-8.17-6.47-15.66-12.42-22.62-2.36-2.77-4.7-5.38-6.96-7.92-13.67-15.29-24.46-27.36-24.46-55.16 0-42.38 34.48-76.86 76.87-76.86zm-152.39 76.87c0-4.42 3.58-7.99 7.99-7.99h24.15c4.42 0 7.99 3.58 7.99 7.99s-3.58 7.99-7.99 7.99h-24.15c-4.41.01-7.99-3.57-7.99-7.99zm264.64 0c0-4.42 3.58-7.99 7.99-7.99h24.15c4.42 0 7.99 3.58 7.99 7.99s-3.58 7.99-7.99 7.99h-24.15c-4.41.01-7.99-3.57-7.99-7.99zm-220.01 107.76c-3.12-3.12-3.12-8.18 0-11.3l17.09-17.09c3.12-3.12 8.18-3.12 11.3 0s3.12 8.18 0 11.3l-17.09 17.09c-1.56 1.56-3.61 2.34-5.65 2.34s-4.09-.78-5.65-2.34zm187.15-187.14c-3.12-3.12-3.12-8.18 0-11.3l17.06-17.07c3.12-3.12 8.18-3.12 11.3 0s3.12 8.18 0 11.3l-17.06 17.07c-1.56 1.56-3.61 2.34-5.65 2.34s-4.09-.78-5.65-2.34zm-87.38-40.86v-24.15c0-4.42 3.58-7.99 7.99-7.99s7.99 3.58 7.99 7.99v24.15c0 4.42-3.58 7.99-7.99 7.99s-7.99-3.58-7.99-7.99zm98.69 199.61 17.06 17.09c3.12 3.12 3.11 8.19-.01 11.3-1.56 1.56-3.6 2.34-5.65 2.34s-4.1-.78-5.66-2.35l-17.06-17.09c-3.12-3.12-3.11-8.19.01-11.3 3.13-3.12 8.19-3.12 11.31.01zm-198.45-175.81c-3.13-3.12-3.13-8.18-.01-11.3 3.12-3.13 8.18-3.13 11.3-.01l17.09 17.07c3.13 3.12 3.13 8.18.01 11.3-1.56 1.56-3.61 2.35-5.66 2.35-2.04 0-4.09-.78-5.65-2.34z"/></svg>