<svg xmlns="http://www.w3.org/2000/svg" version="1.1" xmlns:xlink="http://www.w3.org/1999/xlink" width="512" height="512" x="0" y="0" viewBox="0 0 28 28" style="enable-background:new 0 0 512 512" xml:space="preserve" class=""><g><switch><g><path fill="#3ecbff" d="m14.1 3.6.3-.3c1.8-1.7 4.6-1.7 6.3 0s1.7 4.6 0 6.3l-.3.3zm-9.6 9.6c-.5.5-.9 1.2-1.1 1.9L2 20.8c-.1.5.2 1.1.7 1.2h.4l5.6-1.4c.7-.2 1.4-.5 1.9-1.1zM12.6 5l-6.7 6.7 6.3 6.3 6.7-6.7zM26 25c0-.6-.4-1-1-1H3c-.6 0-1 .4-1 1s.4 1 1 1h22c.6 0 1-.4 1-1z" opacity="1" data-original="#0a0b12" class=""></path></g></switch></g></svg>