<svg width="24" height="24" viewBox="0 0 24 24" fill="none" xmlns="http://www.w3.org/2000/svg">
<path fill-rule="evenodd" clip-rule="evenodd" d="M14.0227 4.72394L14.1127 4.77594C14.8909 5.22515 15.5397 5.59974 16.0148 5.96639C16.5163 6.35338 16.9143 6.79757 17.0811 7.41976C17.2478 8.04194 17.1252 8.62564 16.8844 9.21153C16.6562 9.7666 16.2816 10.4154 15.8323 11.1935L11.9568 17.9062C11.6599 18.4215 11.4251 18.829 11.0677 19.136C10.7104 19.4431 10.2722 19.6138 9.71809 19.8298L9.56835 19.8883C8.54013 20.29 7.69257 20.6212 6.99851 20.7833C6.27263 20.9529 5.57176 20.974 4.91849 20.5969C4.26522 20.2197 3.93306 19.6022 3.71699 18.8887C3.51039 18.2066 3.37341 17.307 3.20723 16.2157L3.18297 16.0568C3.09294 15.4689 3.02175 15.004 3.10899 14.541C3.11989 14.4832 3.13311 14.4262 3.14848 14.3697C3.25606 13.9746 3.46891 13.6066 3.72947 13.1562L7.60509 6.44353C8.0543 5.66541 8.42889 5.01655 8.79553 4.54144C9.18253 4.03996 9.62672 3.64193 10.2489 3.47521C10.8711 3.3085 11.4548 3.43111 12.0407 3.67191C12.5958 3.90004 13.2446 4.27467 14.0227 4.72394ZM8.50313 7.88808L14.1323 11.1381L10.7089 17.0676C10.3359 17.7136 10.2293 17.8788 10.0902 17.9983C9.95108 18.1178 9.77174 18.1984 9.07696 18.4698C7.98049 18.8982 7.23373 19.188 6.65725 19.3227C6.10038 19.4528 5.84769 19.4013 5.66849 19.2978C5.48929 19.1944 5.31836 19.0013 5.1526 18.4539C4.981 17.8874 4.85857 17.0958 4.68132 15.932C4.56901 15.1946 4.5491 14.999 4.58305 14.8188C4.61701 14.6386 4.70673 14.4636 5.07969 13.8176L8.50313 7.88808ZM15.497 8.64131C15.3645 8.96375 15.1618 9.34287 14.8807 9.83814L9.2547 6.58995C9.54308 6.09892 9.77007 5.73383 9.98305 5.45784C10.2675 5.08923 10.4591 4.9718 10.6371 4.9241C10.8152 4.8764 11.0398 4.88229 11.4705 5.0593C11.9213 5.24457 12.4829 5.56697 13.3177 6.04898C14.1526 6.53098 14.7126 6.85614 15.0984 7.1539C15.467 7.43836 15.5845 7.62997 15.6322 7.80799C15.6799 7.986 15.674 8.21065 15.497 8.64131Z" fill="#354597"/>
<path d="M12.6597 20.2522C12.6597 19.838 12.9955 19.5022 13.4097 19.5022H19.4097C19.8239 19.5022 20.1597 19.838 20.1597 20.2522C20.1597 20.6664 19.8239 21.0022 19.4097 21.0022H13.4097C12.9955 21.0022 12.6597 20.6664 12.6597 20.2522Z" fill="#354597"/>
</svg>
