<svg width="227" height="190" viewBox="0 0 227 190" fill="none" xmlns="http://www.w3.org/2000/svg">
<path d="M152.753 67.9805C136.714 67.9805 120.387 67.3751 105.114 63.4224C90.1281 59.5586 76.369 52.0626 64.1046 43.3914C56.0753 37.7471 48.7742 33.2424 38.3494 33.919C28.1509 34.4318 18.3983 37.9703 10.5246 44.0146C-2.73625 54.8046 -0.743288 74.7999 4.56489 88.7949C12.5367 109.93 36.7972 124.655 57.4167 134.181C81.2365 145.238 107.413 151.665 133.648 155.351C156.643 158.609 186.193 160.96 206.122 147.018C224.423 134.181 229.444 104.909 224.96 85.1448C223.872 79.3062 220.526 74.038 215.551 70.3308C202.692 61.5884 183.51 67.4286 169.061 67.7134C163.695 67.8203 158.234 67.9449 152.753 67.9805Z" fill="#F2F2F2"/>
<path d="M114.274 190.001C153.126 190.001 184.621 188.175 184.621 185.923C184.621 183.671 153.126 181.846 114.274 181.846C75.4215 181.846 43.9258 183.671 43.9258 185.923C43.9258 188.175 75.4215 190.001 114.274 190.001Z" fill="#F2F2F2"/>
<path d="M15.0098 28.7197L39.9218 26.7611C43.0283 26.5083 46.134 27.2548 48.7189 28.8754C51.3039 30.4961 53.2112 32.8926 54.1217 35.6637L77.9989 109.912L73.3231 117.693C72.1221 119.698 71.5292 121.968 71.6077 124.261C71.6861 126.554 72.4329 128.785 73.7685 130.715C75.104 132.645 76.9783 134.202 79.1913 135.22C81.4044 136.238 83.8733 136.678 86.3348 136.495L181.959 128.946" stroke="#BABABA" stroke-linecap="round" stroke-linejoin="round"/>
<path d="M57.6836 46.9335L168.83 38.1733C169.924 38.0861 171.026 38.2291 172.054 38.5916C173.081 38.9542 174.007 39.527 174.764 40.2675C175.52 41.0081 176.088 41.8974 176.424 42.8695C176.76 43.8416 176.856 44.8716 176.706 45.883L169.175 96.3966C168.946 97.9121 168.175 99.3121 166.986 100.371C165.798 101.431 164.26 102.088 162.621 102.237L77.9965 109.911L57.6836 46.9335Z" fill="white" stroke="#BABABA" stroke-linecap="round" stroke-linejoin="round"/>
<path d="M96.9692 153.517C101.954 153.517 105.995 149.762 105.995 145.13C105.995 140.499 101.954 136.744 96.9692 136.744C91.9844 136.744 87.9434 140.499 87.9434 145.13C87.9434 149.762 91.9844 153.517 96.9692 153.517Z" fill="white" stroke="#BABABA" stroke-linecap="round" stroke-linejoin="round"/>
<path d="M159.823 148.566C164.808 148.566 168.849 144.811 168.849 140.179C168.849 135.548 164.808 131.793 159.823 131.793C154.838 131.793 150.797 135.548 150.797 140.179C150.797 144.811 154.838 148.566 159.823 148.566Z" fill="white" stroke="#BABABA" stroke-linecap="round" stroke-linejoin="round"/>
<path d="M34.7359 24.7543L11.2497 26.6059C9.21439 26.7664 7.70445 28.4295 7.87715 30.3206C8.04985 32.2117 9.83978 33.6146 11.8751 33.4542L35.3613 31.6025C37.3966 31.4421 38.9065 29.779 38.7338 27.8879C38.5611 25.9968 36.7712 24.5939 34.7359 24.7543Z" fill="#D2D2D2"/>
<path d="M40.3613 142.656V150.33" stroke="#BABABA" stroke-linecap="round" stroke-linejoin="round"/>
<path d="M36.2422 146.482H44.4823" stroke="#BABABA" stroke-linecap="round" stroke-linejoin="round"/>
<path d="M172.031 18V25.6563" stroke="#BABABA" stroke-linecap="round" stroke-linejoin="round"/>
<path d="M167.912 21.8262H176.152" stroke="#BABABA" stroke-linecap="round" stroke-linejoin="round"/>
<path d="M74.4707 34.8789V42.5352" stroke="#BABABA" stroke-linecap="round" stroke-linejoin="round"/>
<path d="M70.332 38.707H78.5913" stroke="#BABABA" stroke-linecap="round" stroke-linejoin="round"/>
<path d="M192.591 51.0307C193.671 51.0307 194.546 50.2176 194.546 49.2146C194.546 48.2116 193.671 47.3984 192.591 47.3984C191.512 47.3984 190.637 48.2116 190.637 49.2146C190.637 50.2176 191.512 51.0307 192.591 51.0307Z" fill="white" stroke="#BABABA" stroke-linecap="round" stroke-linejoin="round"/>
<path d="M119.542 34.7008C120.579 34.7008 121.42 33.9195 121.42 32.9559C121.42 31.9922 120.579 31.2109 119.542 31.2109C118.505 31.2109 117.664 31.9922 117.664 32.9559C117.664 33.9195 118.505 34.7008 119.542 34.7008Z" fill="#CFCFCF"/>
<path d="M132.151 161.334C133.189 161.334 134.029 160.552 134.029 159.589C134.029 158.625 133.189 157.844 132.151 157.844C131.114 157.844 130.273 158.625 130.273 159.589C130.273 160.552 131.114 161.334 132.151 161.334Z" fill="#CFCFCF"/>
</svg>
