<svg width="24" height="24" viewBox="0 0 24 24" fill="none" xmlns="http://www.w3.org/2000/svg">
<path d="M21.1533 4.38456C20.6447 3.83921 20.0293 3.40435 19.3454 3.10702C18.6616 2.80969 17.9238 2.65625 17.1781 2.65625C16.4324 2.65625 15.6947 2.80969 15.0108 3.10702C14.3269 3.40435 13.7116 3.83921 13.2029 4.38456C12.825 4.79487 12.5075 5.25697 12.2599 5.75689C12.0123 5.25657 11.6941 4.7944 11.315 4.38456C10.8061 3.83972 10.1906 3.40531 9.50682 3.1083C8.82299 2.8113 8.0854 2.65803 7.33986 2.65803C6.59432 2.65803 5.85673 2.8113 5.1729 3.1083C4.48907 3.40531 3.8736 3.83972 3.36469 4.38456C2.3071 5.51543 1.71875 7.00592 1.71875 8.55426C1.71875 10.1026 2.3071 11.5931 3.36469 12.724L12.2599 21.8262L21.1533 12.7259C22.2135 11.596 22.8037 10.1047 22.8037 8.55522C22.8037 7.00576 22.2135 5.51446 21.1533 4.38456Z" stroke="#5D5D5D" stroke-width="2" stroke-linecap="round" stroke-linejoin="round"/>
</svg>
