<svg xmlns="http://www.w3.org/2000/svg" version="1.1" xmlns:xlink="http://www.w3.org/1999/xlink" width="512" height="512" x="0" y="0" viewBox="0 0 512.54 512.54" style="enable-background:new 0 0 512 512" xml:space="preserve"><g><path d="M450.71 380h-30v-39.542c0-5.523-4.478-10-10-10s-10 4.477-10 10V390c0 5.523 4.478 10 10 10h40c5.522 0 10-4.477 10-10s-4.478-10-10-10zM71.297 159.38H210.71c5.522 0 10-4.477 10-10s-4.478-10-10-10H71.297c-5.522 0-10 4.477-10 10s4.477 10 10 10zM245.481 319.298H71.297c-5.522 0-10 4.477-10 10s4.478 10 10 10h174.185c5.522 0 10-4.477 10-10s-4.478-10-10.001-10zM245.481 379.271H71.297c-5.522 0-10 4.477-10 10s4.478 10 10 10h174.185c5.522 0 10-4.477 10-10s-4.478-10-10.001-10zM301.71 259.326H71.297c-5.522 0-10 4.477-10 10s4.478 10 10 10H301.71c5.522 0 10-4.477 10-10s-4.478-10-10-10z" fill="#000000" opacity="1" data-original="#000000"></path><path d="M482.128 318.124c-29.812-29.811-73.777-37.048-110.468-21.721V119.64c0-7.314-2.848-14.19-8.019-19.361l-92.25-92.261a27.327 27.327 0 0 0-7.36-5.224c-.092-.05-.188-.093-.281-.141l-.036-.017a9.718 9.718 0 0 0-.909-.402A27.447 27.447 0 0 0 252.02 0H29.77C13.813 0 .83 12.982.83 28.94V483.6c0 15.958 12.982 28.94 28.939 28.94h312.95c15.28 0 27.971-11.946 28.892-27.197a9.34 9.34 0 0 0 .019-.603v-2.073a101.335 101.335 0 0 0 39.08 7.826c25.864 0 51.728-9.845 71.418-29.534 19.076-19.077 29.582-44.44 29.582-71.418s-10.506-52.341-29.582-71.417zM337.519 102.44H271.44a2.218 2.218 0 0 1-2.221-2.21V34.133zm14.111 381.943c-.403 4.594-4.271 8.157-8.91 8.157H29.77c-4.93 0-8.939-4.01-8.939-8.94V28.94c0-4.93 4.01-8.94 8.939-8.94h219.45v80.23c0 12.247 9.968 22.21 22.221 22.21h80.22v185.159a101.239 101.239 0 0 0-12.368 10.525c-19.076 19.077-29.582 44.44-29.582 71.418s10.506 52.341 29.582 71.418a101.285 101.285 0 0 0 12.338 10.503v12.92zm116.355-37.566c-31.582 31.582-82.969 31.582-114.551 0-15.299-15.299-23.725-35.64-23.725-57.275s8.426-41.977 23.725-57.275c15.791-15.791 36.533-23.687 57.275-23.687s41.484 7.896 57.275 23.687c15.299 15.299 23.725 35.64 23.725 57.275s-8.425 41.976-23.724 57.275z" fill="#000000" opacity="1" data-original="#000000"></path><path d="M70.297 220H250.71c5.522 0 10-4.477 10-10s-4.478-10-10-10H70.297c-5.522 0-10 4.477-10 10s4.477 10 10 10z" fill="#000000" opacity="1" data-original="#000000"></path><circle cx="300.477" cy="210" r="10.005" fill="#000000" opacity="1" data-original="#000000"></circle></g></svg>