<!-- Generated by IcoMoon.io -->
<svg version="1.1" xmlns="http://www.w3.org/2000/svg" width="1024" height="1024" viewBox="0 0 1024 1024">
<title></title>
<g id="icomoon-ignore">
</g>
<path fill="#000" d="M805.022 0h-583.418c-122.355 0-221.604 96.623-221.604 215.741 0 60.325 26.256 118.095 71.942 158.993l170.667 152.349c46.211 40.896 72.468 99.179 72.468 160.013v219.831c0 43.968 25.206 83.844 65.116 103.782 17.329 8.691 35.709 12.779 54.615 12.779 24.678 0 49.361-7.667 70.366-22.494l101.875-72.085c47.262-33.741 75.618-87.42 75.618-144.678v-90.999c0-63.902 28.881-124.228 78.771-165.636l184.845-152.349c49.361-40.387 77.193-99.691 77.193-162.572 0-117.583-98.197-213.184-218.978-213.184l0.525 0.511zM895.343 316.965l-184.845 152.347c-67.742 56.235-107.127 137.523-107.127 224.431v90.999c0 32.721-16.277 63.394-43.059 82.82l-101.875 72.085c-12.604 8.691-28.356 10.223-42.535 3.068-14.178-6.647-22.055-19.938-22.055-35.277v-219.831c0-82.308-35.709-161.037-97.674-216.764l-170.667-152.346c-29.407-26.073-46.211-63.904-46.211-102.758 0-76.685 64.066-139.056 142.835-139.056h582.893c77.193 0 140.207 61.348 140.207 136.5 0 40.387-17.852 78.218-49.361 103.78h-0.525z"></path>
</svg>
