<svg width="24" height="25" viewBox="0 0 24 25" fill="none" xmlns="http://www.w3.org/2000/svg">
<path d="M21.4651 18.4848C21.4266 18.6223 21.3978 18.765 21.34 18.8975C21.0563 19.575 20.5611 19.9419 19.8638 20.0081C19.8157 20.0132 19.7677 20.0132 19.7196 20.0132C16.0074 20.0132 12.2904 20.0132 8.57818 20.0132C7.72707 20.0132 7.05868 19.4681 6.87595 18.6325C6.83749 18.4593 6.82787 18.281 6.82787 18.1027C6.82306 16.1209 6.82787 14.1391 6.82787 12.1623C6.82787 12.0859 6.82787 12.0146 6.82787 11.9178C6.50089 11.9178 6.18833 11.9178 5.88059 11.9178C5.50071 11.9178 5.23624 11.6631 5.23624 11.3013C5.23624 10.9396 5.50071 10.6951 5.88539 10.6951C6.36625 10.6951 6.8471 10.6951 7.32796 10.6951C7.76073 10.6951 7.98192 10.9294 7.98192 11.388C7.98192 13.6347 7.98192 15.8865 7.98192 18.1333C7.98192 18.495 8.12137 18.714 8.40026 18.7803C8.46277 18.7956 8.53009 18.7956 8.59741 18.7956C12.2952 18.7956 15.9881 18.7956 19.6859 18.7956C20.1091 18.7956 20.3062 18.5867 20.3062 18.1434C20.3062 14.2206 20.3062 10.2977 20.3062 6.37483C20.3062 5.94688 20.1043 5.7329 19.6955 5.7329C18.7002 5.7329 17.7 5.7329 16.7046 5.7329C16.6517 5.7329 16.5988 5.7329 16.5219 5.7329C16.5219 5.81442 16.5219 5.88574 16.5219 5.95197C16.5219 7.09827 16.5219 8.24456 16.5219 9.39086C16.5219 9.84937 16.2959 10.0837 15.8679 10.0837C14.7187 10.0837 13.5743 10.0837 12.425 10.0837C11.9971 10.0837 11.7662 9.83918 11.7662 9.38576C11.7662 8.24966 11.7662 7.11865 11.7662 5.98254C11.7662 5.90612 11.7662 5.8297 11.7662 5.72781C11.6845 5.72781 11.6172 5.72781 11.545 5.72781C9.40044 5.72781 7.25583 5.72781 5.10641 5.72781C4.73615 5.72781 4.4813 5.49855 4.46687 5.15211C4.46207 4.80568 4.68326 4.53566 5.01024 4.50509C5.07275 4.5 5.14007 4.5 5.20739 4.5C10.0159 4.5 14.8245 4.5 19.633 4.5C20.6188 4.5 21.2006 4.98399 21.4458 5.99782C21.4506 6.00801 21.4603 6.0182 21.4651 6.02839C21.4651 10.1805 21.4651 14.3327 21.4651 18.4848ZM15.3582 8.84573C15.3582 7.80133 15.3582 6.76712 15.3582 5.738C14.5408 5.738 13.7426 5.738 12.9347 5.738C12.9347 6.7773 12.9347 7.80642 12.9347 8.84573C13.7426 8.84573 14.5456 8.84573 15.3582 8.84573Z" fill="#6D6D6D"/>
<path d="M3 8.0915C3.14426 7.73488 3.40873 7.62789 3.76456 7.63298C4.96669 7.64827 6.16883 7.63808 7.37097 7.63808C7.66429 7.63808 7.88548 7.8062 7.96242 8.07622C8.03454 8.32586 7.94799 8.60606 7.73641 8.74871C7.64505 8.80985 7.52484 8.8557 7.41905 8.8557C6.13998 8.86079 4.86091 8.86079 3.57703 8.86079C3.2789 8.86079 3.11541 8.6621 3 8.39718C3 8.29529 3 8.1934 3 8.0915Z" fill="#6D6D6D"/>
<path d="M17.4076 17.2618C16.9701 17.2618 16.5325 17.2618 16.0949 17.2618C15.7247 17.2618 15.4746 17.007 15.4746 16.6504C15.4746 16.2887 15.7295 16.0391 16.0949 16.0391C16.9845 16.0391 17.8693 16.0391 18.7588 16.0391C19.1147 16.0391 19.3695 16.2938 19.3743 16.6402C19.3791 16.9969 19.1195 17.2567 18.7588 17.2618C18.3068 17.2669 17.8596 17.2618 17.4076 17.2618Z" fill="#6D6D6D"/>
</svg>
