<svg width="24" height="25" viewBox="0 0 24 25" fill="none" xmlns="http://www.w3.org/2000/svg">
<path d="M12.4873 3.5C12.8577 3.55624 13.2326 3.58904 13.5936 3.67339C16.2513 4.30135 18.0841 5.89 19.1013 8.42058C19.2607 8.81423 19.0826 9.22193 18.7076 9.36252C18.3373 9.50311 17.9482 9.32503 17.7982 8.93138C17.3295 7.71764 16.5654 6.73352 15.492 5.99309C11.9436 3.54218 6.989 5.44011 5.98589 9.62964C5.91089 9.95299 5.8687 10.281 5.80308 10.6372C5.89683 10.6372 5.95308 10.6372 6.01401 10.6372C6.37026 10.6372 6.7265 10.6372 7.08743 10.6372C7.64992 10.6372 7.91711 10.8996 7.91711 11.462C7.91711 12.7038 7.91711 13.9457 7.91711 15.1876C7.91711 16.0779 7.91711 16.9683 7.91711 17.8587C7.91711 18.3742 7.63586 18.6554 7.12962 18.6507C6.56244 18.646 5.99058 18.6741 5.42809 18.6132C4.20467 18.482 3.21093 17.4838 3.03281 16.2701C3.02812 16.2326 3.00937 16.1951 3 16.1576C3 15.1501 3 14.1425 3 13.135C3.00937 13.1162 3.02344 13.0928 3.02812 13.074C3.15468 12.2118 3.5953 11.551 4.31248 11.0683C4.36404 11.0308 4.40154 10.9371 4.40623 10.8715C4.43904 10.117 4.54685 9.37658 4.80466 8.66895C5.81245 5.92749 7.74367 4.24043 10.603 3.63122C10.8983 3.57029 11.203 3.54218 11.503 3.5C11.8311 3.5 12.1592 3.5 12.4873 3.5ZM6.50619 12.0431C6.25307 12.0431 6.0187 12.0384 5.78902 12.0431C5.02965 12.0571 4.4156 12.6617 4.40623 13.4208C4.39685 14.2362 4.39685 15.047 4.40623 15.8624C4.41091 16.495 4.84685 17.0621 5.4609 17.1886C5.79839 17.2589 6.15464 17.2401 6.50619 17.2589C6.50619 15.5015 6.50619 13.7817 6.50619 12.0431Z" fill="#6D6D6D"/>
<path d="M11.7832 21.4965C11.7082 21.4731 11.6285 21.4497 11.5535 21.4262C10.9816 21.2388 10.5926 20.6999 10.5879 20.0953C10.5879 19.4908 10.9769 18.9519 11.5488 18.7597C12.1254 18.5676 12.7582 18.7597 13.1144 19.2518C13.1941 19.3643 13.2738 19.3924 13.4003 19.3924C14.0378 19.3877 14.6753 19.3924 15.3175 19.3877C15.7816 19.3877 16.0769 19.0972 16.0769 18.6332C16.0769 16.2432 16.0769 13.8532 16.0769 11.4679C16.0769 10.9056 16.344 10.6384 16.9019 10.6431C17.4597 10.6478 18.0175 10.6197 18.5706 10.6806C19.794 10.8118 20.7877 11.81 20.9658 13.0237C20.9705 13.0612 20.9893 13.0987 20.9987 13.1362C20.9987 14.1438 20.9987 15.1513 20.9987 16.1589C20.9893 16.1917 20.9705 16.2245 20.9658 16.2573C20.9002 16.6978 20.7408 17.1055 20.4784 17.4663C19.9112 18.2396 19.1471 18.6379 18.1862 18.6566C17.9565 18.6613 17.7221 18.6566 17.4925 18.6566C17.4597 19.9547 16.4378 20.8732 15.1722 20.8076C14.5722 20.7748 13.9675 20.803 13.3628 20.803C13.3066 20.803 13.2175 20.8123 13.1941 20.8498C12.9597 21.2107 12.6129 21.3981 12.2097 21.5012C12.0644 21.4965 11.9238 21.4965 11.7832 21.4965ZM17.4925 12.0724C17.4925 13.7923 17.4925 15.5122 17.4925 17.2461C17.7456 17.2461 17.9846 17.2508 18.2237 17.2461C18.9643 17.2273 19.5737 16.6228 19.5831 15.8824C19.5924 15.0576 19.5924 14.2328 19.5831 13.408C19.5737 12.7519 19.0956 12.1802 18.444 12.0818C18.1393 12.0303 17.8159 12.0724 17.4925 12.0724Z" fill="#6D6D6D"/>
</svg>
