<svg width="24" height="25" viewBox="0 0 24 25" fill="none" xmlns="http://www.w3.org/2000/svg">
<path d="M18.5522 9.13195C18.5522 9.23309 18.5724 9.33422 18.5522 9.43536C18.4915 9.75899 18.2892 9.96126 17.9555 9.96126C17.6218 9.96126 17.379 9.7691 17.3588 9.43536C17.3285 8.77798 17.3285 8.12061 17.3588 7.46324C17.379 7.11938 17.6319 6.92722 17.9858 6.92722C18.5522 6.92722 19.1287 6.91711 19.695 6.92722C20.1097 6.92722 20.3827 7.16995 20.3827 7.52392C20.3928 7.87789 20.1299 8.1105 19.7152 8.14084C19.6546 8.14084 19.604 8.15095 19.5433 8.16106C19.8265 8.7173 20.1299 9.2432 20.3625 9.79944C22.4459 14.8865 19.159 20.6309 13.7483 21.4097C8.42865 22.1783 3.76635 17.9408 4.00907 12.5503C4.19112 8.16106 7.95331 4.52023 12.3122 4.5C12.7875 4.5 13.0707 4.71238 13.0909 5.08658C13.1112 5.47089 12.8179 5.7035 12.3223 5.72373C8.55001 5.82486 5.50586 8.72742 5.22269 12.4896C4.93951 16.181 7.54878 19.5589 11.2705 20.1657C14.2641 20.6512 16.7318 19.6095 18.4612 17.1216C20.1703 14.664 20.2108 12.0345 18.805 9.38479C18.7545 9.28366 18.6837 9.20275 18.623 9.11173C18.6028 9.11173 18.5724 9.12184 18.5522 9.13195Z" fill="#6D6D6D"/>
<path d="M17.3484 13.0139C17.3484 13.7724 17.3383 14.5309 17.3484 15.2894C17.3585 15.6535 17.2068 15.8861 16.873 16.0277C15.5178 16.6042 14.1626 17.2009 12.7973 17.7571C12.6153 17.838 12.3422 17.8279 12.1501 17.747C10.805 17.1908 9.48011 16.6042 8.14514 16.0479C7.78105 15.8962 7.61924 15.6636 7.62935 15.2692C7.63947 13.7522 7.63947 12.2352 7.62935 10.7182C7.62935 10.344 7.77094 10.1012 8.12491 9.95965C9.47 9.3933 10.8151 8.79661 12.1703 8.24037C12.3523 8.15946 12.6254 8.15946 12.8175 8.24037C14.1829 8.80672 15.5381 9.3933 16.8933 9.96977C17.227 10.1114 17.3686 10.3541 17.3585 10.708C17.3383 11.4767 17.3484 12.2453 17.3484 13.0139ZM16.1246 11.4868C15.1133 11.9217 14.1626 12.3262 13.2221 12.7408C13.1614 12.7712 13.1007 12.8723 13.1007 12.933C13.0906 14.0354 13.0906 15.1478 13.0906 16.3109C14.0918 15.876 15.0526 15.4715 16.0033 15.0467C16.064 15.0164 16.1145 14.8849 16.1145 14.804C16.1348 13.732 16.1246 12.6498 16.1246 11.4868ZM11.877 16.3109C11.877 15.1681 11.8871 14.0657 11.8669 12.9735C11.8669 12.8723 11.7152 12.7307 11.6039 12.6802C10.8151 12.3262 10.006 11.9925 9.20705 11.6486C9.0958 11.598 8.98455 11.5677 8.84296 11.507C8.84296 12.6498 8.83285 13.7421 8.85308 14.8242C8.85308 14.9254 8.99467 15.0771 9.0958 15.1276C9.71272 15.4108 10.3398 15.6737 10.9668 15.9468C11.2601 16.0581 11.5534 16.1693 11.877 16.3109ZM9.78351 10.5665C10.7038 10.9609 11.5129 11.3149 12.3321 11.6486C12.4433 11.6891 12.6052 11.6688 12.7164 11.6183C13.4547 11.3149 14.1727 11.0013 14.9009 10.6878C14.9717 10.6575 15.0324 10.6069 15.1335 10.5361C14.2739 10.172 13.4648 9.81806 12.6557 9.48432C12.5849 9.45398 12.4737 9.42364 12.4029 9.45398C11.5635 9.79784 10.7241 10.1619 9.78351 10.5665Z" fill="#6D6D6D"/>
</svg>
