<svg width="17" height="15" viewBox="0 0 17 15" fill="none" xmlns="http://www.w3.org/2000/svg">
<path d="M10.6342 0.984375H5.58377C3.80127 0.984375 3.39878 1.83689 3.17836 2.89106L2.36377 6.60355H13.8638L13.0492 2.89106C12.8096 1.83689 12.4167 0.984375 10.6342 0.984375Z" stroke="#292D32" stroke-width="1.5" stroke-linecap="round" stroke-linejoin="round"/>
<path d="M15.2821 12.6621C15.3588 13.4687 14.6879 14.1654 13.8254 14.1654H12.4742C11.6979 14.1654 11.5925 13.8446 11.4488 13.4596L11.305 13.0471C11.1038 12.488 10.9696 12.1029 9.9346 12.1029H6.25461C5.21961 12.1029 5.06627 12.5338 4.88418 13.0471L4.74044 13.4596C4.60627 13.8537 4.50085 14.1654 3.71501 14.1654H2.36376C1.50126 14.1654 0.820854 13.4687 0.907104 12.6621L1.3096 8.47291C1.41502 7.43707 1.61626 6.59375 3.50418 6.59375H12.6754C14.5634 6.59375 14.7646 7.43707 14.87 8.47291L15.2821 12.6621Z" stroke="#292D32" stroke-width="1.5" stroke-linecap="round" stroke-linejoin="round"/>
<path d="M2.35419 4.54102H1.63544" stroke="#292D32" stroke-width="1.5" stroke-linecap="round" stroke-linejoin="round"/>
<path d="M14.5729 4.54102H13.8542" stroke="#292D32" stroke-width="1.5" stroke-linecap="round" stroke-linejoin="round"/>
<path d="M3.79169 9.35352H5.94794" stroke="#292D32" stroke-width="1.5" stroke-linecap="round" stroke-linejoin="round"/>
<path d="M10.2604 9.35352H12.4167" stroke="#292D32" stroke-width="1.5" stroke-linecap="round" stroke-linejoin="round"/>
</svg>
