<svg width="49" height="48" viewBox="0 0 49 48" fill="none" xmlns="http://www.w3.org/2000/svg">
<path d="M5.29999 24.4001H5.30008L5.29991 24.3909C5.20235 19.1035 7.17189 14.1135 10.8368 10.3704C14.5017 6.64724 19.4127 4.6001 24.7 4.6001C35.5038 4.6001 44.3 13.3962 44.3 24.2001V35.6001C44.3 36.144 43.8438 36.6001 43.3 36.6001C42.7561 36.6001 42.3 36.144 42.3 35.6001V24.2001C42.3 14.5043 34.4165 6.6001 24.7 6.6001C19.9483 6.6001 15.5389 8.43228 12.2632 11.7698C8.96791 15.1269 7.21888 19.5955 7.29999 24.3644V35.7801C7.29999 36.3526 6.85524 36.8001 6.29999 36.8001C5.75613 36.8001 5.29999 36.344 5.29999 35.8001V24.4001Z" fill="#F66B34" stroke="#F66B34"/>
<path d="M12.68 24.8999H12.42C8.21999 24.8999 4.79999 28.3199 4.79999 32.5199V36.2799C4.79999 40.4799 8.21999 43.8999 12.42 43.8999H12.68C16.88 43.8999 20.3 40.4799 20.3 36.2799V32.5199C20.3 28.3199 16.88 24.8999 12.68 24.8999Z" fill="#F66B34"/>
<path d="M37.18 24.8999H36.92C32.72 24.8999 29.3 28.3199 29.3 32.5199V36.2799C29.3 40.4799 32.72 43.8999 36.92 43.8999H37.18C41.38 43.8999 44.8 40.4799 44.8 36.2799V32.5199C44.8 28.3199 41.38 24.8999 37.18 24.8999Z" fill="#F66B34"/>
</svg>
