<svg xmlns="http://www.w3.org/2000/svg" version="1.1" xmlns:xlink="http://www.w3.org/1999/xlink" width="512" height="512" x="0" y="0" viewBox="0 0 512 512" style="enable-background:new 0 0 512 512" xml:space="preserve" class=""><g><path fill-rule="evenodd" d="M256 200.017c34.62 0 62.684 27.63 62.684 61.714 0 34.077-28.064 61.708-62.684 61.708s-62.685-27.63-62.685-61.708c0-34.084 28.065-61.714 62.685-61.714zm0-24.678c-48.468 0-87.758 38.678-87.758 86.392 0 47.708 39.29 86.393 87.758 86.393s87.758-38.685 87.758-86.393c0-47.714-39.29-86.392-87.758-86.392zm90.468-20.768a24.688 24.688 0 1 0 25.074 24.685 24.883 24.883 0 0 0-25.074-24.685zm-151.726-26.865h122.516c39.856 0 72.167 31.807 72.167 71.039v125.966c0 39.238-32.311 71.039-72.168 71.039H194.742c-39.856 0-72.167-31.8-72.167-71.04V198.746c0-39.231 32.31-71.04 72.167-71.04zm-11.554-24.569c-47.375 0-85.78 37.81-85.78 84.445v148.292c0 46.642 38.404 84.444 85.78 84.444h145.625c47.374 0 85.779-37.802 85.779-84.444V187.582c0-46.635-38.405-84.444-85.78-84.444zM256 13.93c136.856 0 247.8 110.94 247.8 247.802 0 136.856-110.944 247.796-247.8 247.796S8.2 398.587 8.2 261.731C8.2 124.87 119.143 13.93 256 13.93z" fill="#ff4444" opacity="1" data-original="#000000" class=""></path></g></svg>