<svg width="40" height="16" viewBox="0 0 40 16" fill="none" xmlns="http://www.w3.org/2000/svg">
<path d="M5.28273 15.0218C4.90455 15.0218 4.53848 14.9782 4.18455 14.8909C3.83545 14.8036 3.50576 14.6752 3.19545 14.5055C2.89 14.3406 2.60636 14.137 2.34455 13.8945C2.08273 13.657 1.85485 13.3855 1.66091 13.08C1.43303 12.7067 1.25606 12.2945 1.13 11.8436C1.00879 11.3927 0.948182 10.92 0.948182 10.4255C0.948182 10.1103 0.97 9.79758 1.01364 9.48727C1.05727 9.17697 1.12273 8.85939 1.21 8.53455C1.29727 8.20485 1.40879 7.86545 1.54455 7.51636C1.68515 7.16727 1.85 6.79636 2.03909 6.40364L3.47182 7.08727C3.30697 7.42667 3.16394 7.74424 3.04273 8.04C2.92636 8.33091 2.82939 8.61212 2.75182 8.88364C2.67424 9.1503 2.61606 9.4097 2.57727 9.66182C2.54333 9.91394 2.52636 10.1661 2.52636 10.4182C2.52636 11.1358 2.68636 11.7442 3.00636 12.2436C3.24879 12.6218 3.56394 12.9127 3.95182 13.1164C4.34455 13.3248 4.78818 13.4291 5.28273 13.4291H6.75909C7.29727 13.4291 7.73364 13.3733 8.06818 13.2618C8.40758 13.1503 8.66939 12.9903 8.85364 12.7818C9.04273 12.5782 9.17121 12.3309 9.23909 12.04C9.30697 11.7539 9.34091 11.4339 9.34091 11.08V6.06182H10.9336V11.08C10.9336 12.3891 10.5821 13.3733 9.87909 14.0327C9.18091 14.6921 8.14091 15.0218 6.75909 15.0218H5.28273ZM5.22455 5.50909L6.43182 4.28727L7.66818 5.52364L6.44636 6.74545L5.22455 5.50909ZM14.5839 11.1091H12.9912V0.621819H14.5839V11.1091ZM20.8835 11.1091H20.7308C20.5175 11.1091 20.3163 11.0921 20.1272 11.0582C19.9381 11.0242 19.7466 10.9273 19.5526 10.7673C19.5235 11.417 19.4023 12.0036 19.189 12.5273C18.9805 13.0509 18.6872 13.497 18.309 13.8655C17.9356 14.2339 17.4847 14.5176 16.9562 14.7164C16.4278 14.9152 15.829 15.0145 15.1599 15.0145H14.1562V13.4218H15.1599C15.6447 13.4218 16.0617 13.3709 16.4108 13.2691C16.7647 13.1673 17.0556 13.0048 17.2835 12.7818C17.5114 12.5636 17.6811 12.2752 17.7926 11.9164C17.9041 11.5624 17.9599 11.1309 17.9599 10.6218V6.08364H19.5526V8.36727C19.5526 8.61455 19.6035 8.81333 19.7053 8.96364C19.812 9.11394 19.9332 9.2303 20.069 9.31273C20.2047 9.39515 20.3356 9.45091 20.4617 9.48C20.5926 9.50424 20.6823 9.51636 20.7308 9.51636H20.8835V11.1091ZM23.894 9.51636C24.02 9.51636 24.0831 9.57212 24.0831 9.68364V10.9273C24.0831 11.0485 24.02 11.1091 23.894 11.1091H20.7812C20.66 11.1091 20.5994 11.0485 20.5994 10.9273V9.68364C20.5994 9.57212 20.66 9.51636 20.7812 9.51636H23.894ZM27.019 9.51636C27.145 9.51636 27.2081 9.57212 27.2081 9.68364V10.9273C27.2081 11.0485 27.145 11.1091 27.019 11.1091H23.9062C23.785 11.1091 23.7244 11.0485 23.7244 10.9273V9.68364C23.7244 9.57212 23.785 9.51636 23.9062 9.51636H27.019ZM30.144 9.51636C30.27 9.51636 30.3331 9.57212 30.3331 9.68364V10.9273C30.3331 11.0485 30.27 11.1091 30.144 11.1091H27.0312C26.91 11.1091 26.8494 11.0485 26.8494 10.9273V9.68364C26.8494 9.57212 26.91 9.51636 27.0312 9.51636H30.144ZM35.3999 5.05091C35.4096 5.08 35.429 5.16 35.4581 5.29091C35.4872 5.41697 35.5211 5.57455 35.5599 5.76364C35.6035 5.95273 35.6447 6.16121 35.6835 6.38909C35.7272 6.61697 35.7659 6.84727 35.7999 7.08C35.8387 7.30788 35.8702 7.53091 35.8944 7.74909C35.9187 7.96242 35.9308 8.14909 35.9308 8.30909C35.9308 8.78909 35.8508 9.20606 35.6908 9.56C35.5308 9.91394 35.3223 10.2048 35.0653 10.4327C34.8132 10.6606 34.5272 10.8303 34.2072 10.9418C33.8872 11.0533 33.5672 11.1091 33.2472 11.1091H30.0108V9.51636H33.2981C33.3611 9.51636 33.4532 9.50667 33.5744 9.48727C33.7005 9.46788 33.8241 9.41939 33.9453 9.34182C34.0666 9.25939 34.1708 9.13818 34.2581 8.97818C34.3502 8.81818 34.3963 8.59515 34.3963 8.30909C34.3963 8.20242 34.3866 8.06909 34.3672 7.90909C34.3478 7.74909 34.3235 7.57697 34.2944 7.39273C34.2653 7.20848 34.2314 7.01939 34.1926 6.82545C34.1538 6.63152 34.115 6.4497 34.0763 6.28C34.0423 6.1103 34.0084 5.95758 33.9744 5.82182C33.9405 5.68606 33.9138 5.58182 33.8944 5.50909L35.3999 5.05091ZM34.5126 14.9564L33.3635 13.7927L34.4981 12.6145L35.6762 13.7927L34.5126 14.9564ZM31.7417 14.9418L30.5926 13.7782L31.7272 12.6L32.9053 13.7782L31.7417 14.9418ZM39.6152 11.1091H38.0224V0.621819H39.6152V11.1091Z" fill="#D1D1D1"/>
</svg>
