<svg width="18" height="23" viewBox="0 0 18 23" fill="none" xmlns="http://www.w3.org/2000/svg">
<path d="M12.584 8.47057C12.8439 8.14804 12.7931 7.67589 12.4706 7.416C12.148 7.15611 11.6759 7.20689 11.416 7.52943L9.39449 10.0382C8.97942 10.5533 8.71751 10.8755 8.49955 11.0791C8.39712 11.1747 8.33169 11.2173 8.29409 11.2361C8.2661 11.2501 8.25609 11.25 8.25072 11.25H8.24927C8.24391 11.25 8.2339 11.2501 8.20591 11.2361C8.16831 11.2173 8.10288 11.1747 8.00045 11.0791C7.78249 10.8755 7.52058 10.5533 7.10551 10.0382L6.584 9.391C6.32411 9.06846 5.85196 9.01768 5.52943 9.27757C5.20689 9.53746 5.15611 10.0096 5.416 10.3321L5.97007 11.0198C6.34258 11.4822 6.67123 11.8901 6.97665 12.1753C7.30456 12.4816 7.71226 12.75 8.25 12.75C8.78774 12.75 9.19544 12.4816 9.52335 12.1753C9.82878 11.8901 10.1574 11.4822 10.5299 11.0198L12.584 8.47057Z" fill="#2D264B"/>
<path fill-rule="evenodd" clip-rule="evenodd" d="M9 0.25C4.11666 0.25 0.25 4.49277 0.25 9.6087C0.25 11.2494 1.06511 13.1814 2.09064 14.9945C3.13277 16.837 4.46288 18.6762 5.62903 20.1633L5.66793 20.2129C6.23714 20.9388 6.72203 21.5573 7.19224 21.9844C7.70524 22.4504 8.27094 22.7555 9 22.7555C9.72906 22.7555 10.2948 22.4504 10.8078 21.9844C11.278 21.5572 11.7629 20.9388 12.3321 20.2129L12.371 20.1633C13.5371 18.6762 14.8672 16.837 15.9094 14.9945C16.9349 13.1814 17.75 11.2494 17.75 9.6087C17.75 4.49277 13.8833 0.25 9 0.25ZM1.75 9.6087C1.75 5.21571 5.04678 1.75 9 1.75C12.9532 1.75 16.25 5.21571 16.25 9.6087C16.25 10.8352 15.6104 12.4764 14.6037 14.256C13.6137 16.0063 12.3342 17.7794 11.1906 19.2377C10.5717 20.027 10.1641 20.5426 9.79918 20.8741C9.46635 21.1764 9.24418 21.2555 9 21.2555C8.75582 21.2555 8.53365 21.1764 8.20082 20.8741C7.83587 20.5426 7.42834 20.027 6.80938 19.2377C5.66578 17.7794 4.38628 16.0063 3.39625 14.256C2.38962 12.4764 1.75 10.8352 1.75 9.6087Z" fill="#2D264B"/>
</svg>
