<svg width="159" height="159" viewBox="0 0 159 159" fill="none" xmlns="http://www.w3.org/2000/svg">
<path d="M69.0325 91.093C68.1712 91.093 67.31 90.8942 66.515 90.4305C58.6975 85.8592 53.8612 77.3792 53.8612 68.3692C53.8612 54.258 65.3225 42.7305 79.5 42.7305C88.5762 42.7305 97.0562 47.5667 101.627 55.4505C103.019 57.8355 102.224 60.883 99.8387 62.2742C97.4537 63.6655 94.4062 62.8705 93.015 60.4855C90.2325 55.583 85.065 52.6017 79.5 52.6017C70.8875 52.6017 63.7987 59.6242 63.7987 68.303C63.7987 73.868 66.78 79.0355 71.55 81.818C73.935 83.2092 74.73 86.2567 73.3387 88.6417C72.4112 90.1655 70.755 91.093 69.0325 91.093Z" fill="#EAEAEA"/>
<path d="M39.6838 122.957C38.16 122.957 36.6363 122.229 35.6425 120.904C19.7425 99.1073 14.1775 76.9798 19.1463 55.1173C24.3138 32.3935 41.0088 15.566 63.7988 10.0673C87.6488 4.30355 112.691 12.0548 127.465 29.7435C129.254 31.8635 128.923 34.9773 126.869 36.7661C124.749 38.5548 121.635 38.2235 119.846 36.1035C107.458 21.2635 86.39 14.8373 66.1175 19.6735C46.7725 24.311 33.1913 38.0248 28.8188 57.2373C24.5125 76.1848 29.4813 95.5961 43.6588 114.941C45.2488 117.127 44.785 120.241 42.5988 121.897C41.7375 122.626 40.6775 122.957 39.6838 122.957Z" fill="#EAEAEA"/>
<path d="M79.4999 150.786C69.6949 150.786 59.8237 147.076 52.1387 139.722C50.1512 137.801 50.0849 134.687 52.0062 132.699C53.9274 130.712 57.0412 130.646 59.0287 132.567C70.4899 143.631 88.4437 143.631 99.9049 132.567C117.594 115.541 137.204 88.643 130.181 57.4393C129.585 54.7893 131.241 52.073 133.957 51.4768C136.607 50.8805 139.324 52.5368 139.92 55.253C148.002 90.9618 126.405 120.907 106.861 139.722C99.1762 147.076 89.3049 150.786 79.4999 150.786Z" fill="#EAEAEA"/>
<path d="M13.25 150.718C11.9913 150.718 10.7325 150.254 9.73879 149.26C7.81754 147.339 7.81754 144.159 9.73879 142.238L142.239 9.73781C144.16 7.81656 147.34 7.81656 149.261 9.73781C151.183 11.6591 151.183 14.8391 149.261 16.7603L16.7613 149.26C15.7675 150.254 14.5088 150.718 13.25 150.718Z" fill="#EAEAEA"/>
</svg>
