<svg id="Layer_1" height="512" viewBox="0 0 24 24" width="512" xmlns="http://www.w3.org/2000/svg" data-name="Layer 1"><path d="m3.5 6a2.50263 2.50263 0 0 1 2.5-2.5h2a.5.5 0 0 1 0 1h-2a1.50164 1.50164 0 0 0 -1.5 1.5v12a1.50164 1.50164 0 0 0 1.5 1.5h2a.5.5 0 0 1 0 1h-2a2.50263 2.50263 0 0 1 -2.5-2.5zm11.14648 11.35352a.49984.49984 0 0 0 .707 0l5-5a.49983.49983 0 0 0 0-.707l-5-5a.5.5 0 0 0 -.707.707l4.14652 4.14648h-8.793a.5.5 0 0 0 0 1h8.793l-4.14649 4.14648a.49983.49983 0 0 0 -.00003.70704z"/></svg>