<svg xmlns="http://www.w3.org/2000/svg" version="1.1" xmlns:xlink="http://www.w3.org/1999/xlink" width="512" height="512" x="0" y="0" viewBox="0 0 682.667 682.667" style="enable-background:new 0 0 512 512" xml:space="preserve"><g><defs><clipPath id="a" clipPathUnits="userSpaceOnUse"><path d="M0 512h512V0H0Z" fill="#000000" opacity="1" data-original="#000000"></path></clipPath></defs><g clip-path="url(#a)" transform="matrix(1.33333 0 0 -1.33333 0 682.667)"><path d="M0 0v-150.55M24.038-23.613S10.771-11.395-9.667-17.547c-18.765-5.64-23.414-31.322-10.658-41.328 7.313-5.756 18.34-10.461 33.166-15.706C46.091-86.345 33.789-133.2 0-133.429c-13.21-.084-19.361.739-30.955 8.334" style="stroke-width:15.024;stroke-linecap:round;stroke-linejoin:round;stroke-miterlimit:10;stroke-dasharray:none;stroke-opacity:1" transform="translate(70.515 199.889)" fill="none" stroke="#000000" stroke-width="15.024" stroke-linecap="round" stroke-linejoin="round" stroke-miterlimit="10" stroke-dasharray="none" stroke-opacity="" data-original="#000000"></path><path d="M0 0v265.21h164.665M497 202.11V-63.1H0v29.112M332.307 265.21H497v-29.111" style="stroke-width:15.024;stroke-linecap:round;stroke-linejoin:round;stroke-miterlimit:10;stroke-dasharray:none;stroke-opacity:1" transform="translate(7.5 80.776)" fill="none" stroke="#000000" stroke-width="15.024" stroke-linecap="round" stroke-linejoin="round" stroke-miterlimit="10" stroke-dasharray="none" stroke-opacity="" data-original="#000000"></path><path d="m0 0 10.261-16.695 19.049-4.594-12.699-14.938 1.502-19.531L0-48.273l-18.086-7.485 1.503 19.531-12.7 14.938 19.049 4.594z" style="stroke-width:15.024;stroke-linecap:round;stroke-linejoin:round;stroke-miterlimit:10;stroke-dasharray:none;stroke-opacity:1" transform="translate(80.521 284.475)" fill="none" stroke="#000000" stroke-width="15.024" stroke-linecap="round" stroke-linejoin="round" stroke-miterlimit="10" stroke-dasharray="none" stroke-opacity="" data-original="#000000"></path><path d="m0 0 10.262-16.695 19.049-4.594-12.7-14.938 1.503-19.531L0-48.273l-18.113-7.485 1.53 19.531-12.699 14.938 19.049 4.594z" style="stroke-width:15.024;stroke-linecap:round;stroke-linejoin:round;stroke-miterlimit:10;stroke-dasharray:none;stroke-opacity:1" transform="translate(168.253 284.475)" fill="none" stroke="#000000" stroke-width="15.024" stroke-linecap="round" stroke-linejoin="round" stroke-miterlimit="10" stroke-dasharray="none" stroke-opacity="" data-original="#000000"></path><path d="m0 0 10.262-16.695 19.049-4.594-12.728-14.938 1.531-19.531L0-48.273l-18.113-7.485 1.502 19.531-12.699 14.938 19.049 4.594z" style="stroke-width:15.024;stroke-linecap:round;stroke-linejoin:round;stroke-miterlimit:10;stroke-dasharray:none;stroke-opacity:1" transform="translate(431.45 284.475)" fill="none" stroke="#000000" stroke-width="15.024" stroke-linecap="round" stroke-linejoin="round" stroke-miterlimit="10" stroke-dasharray="none" stroke-opacity="" data-original="#000000"></path><path d="m0 0 10.261-16.695 19.049-4.594-12.699-14.938 1.502-19.531L0-48.273l-18.113-7.485 1.53 19.531-12.727 14.938 19.049 4.594z" style="stroke-width:15.024;stroke-linecap:round;stroke-linejoin:round;stroke-miterlimit:10;stroke-dasharray:none;stroke-opacity:1" transform="translate(255.986 284.475)" fill="none" stroke="#000000" stroke-width="15.024" stroke-linecap="round" stroke-linejoin="round" stroke-miterlimit="10" stroke-dasharray="none" stroke-opacity="" data-original="#000000"></path><path d="m0 0 10.261-16.695 19.049-4.594-12.727-14.938 1.53-19.531L0-48.273l-18.114-7.485 1.531 19.531-12.728 14.938 19.049 4.594z" style="stroke-width:15.024;stroke-linecap:round;stroke-linejoin:round;stroke-miterlimit:10;stroke-dasharray:none;stroke-opacity:1" transform="translate(343.719 284.475)" fill="none" stroke="#000000" stroke-width="15.024" stroke-linecap="round" stroke-linejoin="round" stroke-miterlimit="10" stroke-dasharray="none" stroke-opacity="" data-original="#000000"></path><path d="M0 0h313.343M0-38.834h313.343M0 38.808h313.343" style="stroke-width:15.024;stroke-linecap:round;stroke-linejoin:round;stroke-miterlimit:10;stroke-dasharray:none;stroke-opacity:1" transform="translate(147.418 124.628)" fill="none" stroke="#000000" stroke-width="15.024" stroke-linecap="round" stroke-linejoin="round" stroke-miterlimit="10" stroke-dasharray="none" stroke-opacity="" data-original="#000000"></path><path d="M172.165 317.412h167.642v90.144H172.165ZM172.165 407.556h167.642v36.793H172.165Z" style="stroke-width:15.024;stroke-linecap:round;stroke-linejoin:round;stroke-miterlimit:10;stroke-dasharray:none;stroke-opacity:1" fill="none" stroke="#000000" stroke-width="15.024" stroke-linecap="round" stroke-linejoin="round" stroke-miterlimit="10" stroke-dasharray="none" stroke-opacity="" data-original="#000000"></path><path d="M0 0v-28.092m0 176.911V33.959" style="stroke-width:15.024;stroke-linecap:round;stroke-linejoin:round;stroke-miterlimit:10;stroke-dasharray:none;stroke-opacity:1" transform="translate(255.986 345.504)" fill="none" stroke="#000000" stroke-width="15.024" stroke-linecap="round" stroke-linejoin="round" stroke-miterlimit="10" stroke-dasharray="none" stroke-opacity="" data-original="#000000"></path><path d="m0 0 31.521-34.838h-50.343C-46.829-34.838-21.799 24.066 0 0Z" style="stroke-width:15.024;stroke-linecap:round;stroke-linejoin:round;stroke-miterlimit:10;stroke-dasharray:none;stroke-opacity:1" transform="translate(224.465 479.187)" fill="none" stroke="#000000" stroke-width="15.024" stroke-linecap="round" stroke-linejoin="round" stroke-miterlimit="10" stroke-dasharray="none" stroke-opacity="" data-original="#000000"></path><path d="m0 0-31.549-34.838h50.343C46.829-34.838 21.771 24.066 0 0Z" style="stroke-width:15.024;stroke-linecap:round;stroke-linejoin:round;stroke-miterlimit:10;stroke-dasharray:none;stroke-opacity:1" transform="translate(287.535 479.187)" fill="none" stroke="#000000" stroke-width="15.024" stroke-linecap="round" stroke-linejoin="round" stroke-miterlimit="10" stroke-dasharray="none" stroke-opacity="" data-original="#000000"></path></g></g></svg>