<svg xmlns="http://www.w3.org/2000/svg" version="1.1" xmlns:xlink="http://www.w3.org/1999/xlink" width="512" height="512" x="0" y="0" viewBox="0 0 512 512" style="enable-background:new 0 0 512 512" xml:space="preserve"><g><path d="M40.421 296.421C18.132 296.421 0 278.289 0 256s18.132-40.421 40.421-40.421h431.158C493.868 215.579 512 233.711 512 256s-18.132 40.421-40.421 40.421zM40.421 107.789C18.132 107.789 0 89.658 0 67.368s18.132-40.421 40.421-40.421h431.158c22.289 0 40.421 18.132 40.421 40.421s-18.132 40.421-40.421 40.421zM40.421 485.053C18.132 485.053 0 466.921 0 444.632s18.132-40.421 40.421-40.421h431.158c22.289 0 40.421 18.132 40.421 40.421s-18.132 40.421-40.421 40.421z" fill="#ff0000" opacity="1" data-original="#000000"></path></g></svg>