<svg width="40" height="33" viewBox="0 0 40 33" fill="none" xmlns="http://www.w3.org/2000/svg">
<path opacity="0.5" d="M33.185 3.80784C31.6851 2.02232 29.4965 0.456547 27.0037 0.500921C24.4638 0.547408 22.3389 2.23573 20.7848 4.03605C19.2306 5.83637 17.9382 7.88814 15.8865 9.22992C13.7781 10.6097 11.0943 11.0831 8.84443 12.2685C5.48614 14.0371 3.2575 17.718 4.21263 21.1031C4.74326 22.9859 6.1394 24.5664 7.54262 26.0456C10.1061 28.7503 13.0612 31.4676 16.9171 32.2664C20.6433 33.0397 24.6383 31.8184 27.6169 29.6673C35.5858 23.9177 39.7435 11.6071 33.1873 3.80573L33.185 3.80784Z" fill="#ED2929" fill-opacity="0.5"/>
<path d="M0.916706 15.3163C-0.0973848 17.554 -0.503021 20.246 0.930857 22.2914C2.39068 24.377 5.31975 25.2032 8.046 25.4969C10.7746 25.7885 13.6164 25.723 16.1469 26.6824C18.7482 27.6691 20.7269 29.6343 23.2055 30.8472C26.9034 32.6559 31.9526 32.4615 34.9265 29.7885C36.5797 28.3009 37.4405 26.264 38.1952 24.2735C39.5701 20.6411 40.7422 16.675 39.4262 13.0236C38.1551 9.49693 34.6694 6.85562 30.7876 5.573C20.4038 2.14564 5.34805 5.53286 0.916706 15.3163Z" fill="#ED2929"/>
</svg>
