<svg width="22" height="20" viewBox="0 0 22 20" fill="none" xmlns="http://www.w3.org/2000/svg">
<path fill-rule="evenodd" clip-rule="evenodd" d="M16.7135 0.373728C15.5714 0.249985 14.1318 0.249992 12.2952 0.25H10.2048C8.36821 0.249992 6.92861 0.249985 5.78648 0.373728C4.62094 0.500006 3.67656 0.762324 2.87024 1.34815C2.38209 1.70281 1.95281 2.13209 1.59815 2.62024C1.43647 2.84277 1.29801 3.07781 1.17987 3.32797C0.818084 4.09404 0.656711 4.98237 0.578065 6.04168C0.499995 7.09323 0.499998 8.38224 0.5 9.97156V10.0452C0.499992 11.8818 0.499985 13.3214 0.623728 14.4635C0.750006 15.6291 1.01232 16.5734 1.59815 17.3798C1.95281 17.8679 2.38209 18.2972 2.87024 18.6518C3.67656 19.2377 4.62094 19.5 5.78648 19.6263C6.92859 19.75 8.36817 19.75 10.2047 19.75H12.2953C14.1318 19.75 15.5714 19.75 16.7135 19.6263C17.8791 19.5 18.8234 19.2377 19.6298 18.6518C20.1179 18.2972 20.5472 17.8679 20.9018 17.3798C21.4877 16.5734 21.75 15.6291 21.8763 14.4635C22 13.3214 22 11.8818 22 10.0453V9.9709C22 8.37073 22 7.07486 21.9202 6.01904C21.8399 4.95506 21.6748 4.06379 21.3046 3.29546C21.1899 3.05734 21.0565 2.83304 20.9018 2.62024C20.5472 2.13209 20.1179 1.70281 19.6298 1.34815C18.8234 0.762324 17.8791 0.500006 16.7135 0.373728ZM3.75191 2.56168C4.25992 2.19259 4.91013 1.97745 5.94804 1.865C6.99999 1.75103 8.35843 1.75 10.25 1.75H12.25C14.1416 1.75 15.5 1.75103 16.552 1.865C17.5899 1.97745 18.2401 2.19259 18.7481 2.56168C19.1087 2.82369 19.4259 3.14081 19.6879 3.50139L17.7907 5.39861C16.1091 7.08026 14.9001 8.28703 13.8572 9.08267C12.8317 9.8651 12.0556 10.1789 11.25 10.1789C10.4444 10.1789 9.66825 9.8651 8.64275 9.08267C7.59994 8.28703 6.39092 7.08026 4.70926 5.3986L2.81205 3.50139C3.07412 3.14081 3.39128 2.82369 3.75191 2.56168ZM20.2873 5.02337C20.3477 5.34361 20.3925 5.70891 20.4245 6.13204C20.4995 7.12493 20.5 8.36482 20.5 10C20.5 11.8916 20.499 13.25 20.385 14.302C20.2725 15.3399 20.0574 15.9901 19.6883 16.4981C19.4262 16.8589 19.1089 17.1762 18.7481 17.4383C18.2401 17.8074 17.5899 18.0225 16.552 18.135C15.5 18.249 14.1416 18.25 12.25 18.25H10.25C8.35843 18.25 6.99999 18.249 5.94804 18.135C4.91013 18.0225 4.25992 17.8074 3.75191 17.4383C3.39111 17.1762 3.07382 16.8589 2.81168 16.4981C2.44259 15.9901 2.22745 15.3399 2.115 14.302C2.00103 13.25 2 11.8916 2 10C2 8.37645 2.00047 7.14244 2.07395 6.15274C2.10601 5.72084 2.15131 5.34885 2.21271 5.02337L3.68917 6.49983C5.32144 8.13212 6.60062 9.41131 7.73288 10.2752C8.89181 11.1594 9.98455 11.6789 11.25 11.6789C12.5155 11.6789 13.6082 11.1594 14.7671 10.2752C15.8994 9.41132 17.1785 8.13213 18.8108 6.49986L20.2873 5.02337Z" fill="#2D264B"/>
</svg>
