<svg width="22" height="22" viewBox="0 0 22 22" fill="none" xmlns="http://www.w3.org/2000/svg">
<path d="M2.02486 6.10448L2.69218 6.44681L2.02486 6.10448ZM2.2728 5.67504L2.90293 6.08179L2.2728 5.67504ZM6.23677 19.2499L5.86177 19.8995L6.23677 19.2499ZM2.2728 16.3248L2.90293 15.9181L2.2728 16.3248ZM2.02486 15.8954L2.69218 15.5531L2.02486 15.8954ZM15.7631 19.2499L16.1381 19.8995L15.7631 19.2499ZM11.2478 21.2203L11.285 21.9694L11.2478 21.2203ZM10.752 21.2203L10.7148 21.9694L10.752 21.2203ZM19.975 15.8954L19.3076 15.5531L19.975 15.8954ZM19.727 16.3248L19.0969 15.9181L19.727 16.3248ZM19.727 5.67504L19.0969 6.08179L19.727 5.67504ZM19.975 6.10448L19.3076 6.44681L19.975 6.10448ZM11.2478 0.779589L11.285 0.0305113L11.2478 0.779589ZM10.752 0.779589L10.7148 0.0305113L10.752 0.779589ZM17.8359 17.8627L17.1168 18.0756L17.1226 18.0951L17.1294 18.1144L17.8359 17.8627ZM4.15685 17.8868L3.43636 17.6784L3.42666 17.712L3.42012 17.7463L4.15685 17.8868ZM4.13528 17.9999L3.7297 18.6308L4.13528 17.9999ZM14.2499 7.99993C14.2499 9.79486 12.7948 11.2499 10.9999 11.2499V12.7499C13.6233 12.7499 15.7499 10.6233 15.7499 7.99993H14.2499ZM10.9999 11.2499C9.20499 11.2499 7.74991 9.79486 7.74991 7.99993H6.24991C6.24991 10.6233 8.37656 12.7499 10.9999 12.7499V11.2499ZM7.74991 7.99993C7.74991 6.20501 9.20499 4.74993 10.9999 4.74993V3.24993C8.37656 3.24993 6.24991 5.37658 6.24991 7.99993H7.74991ZM10.9999 4.74993C12.7948 4.74993 14.2499 6.20501 14.2499 7.99993H15.7499C15.7499 5.37658 13.6233 3.24993 10.9999 3.24993V4.74993ZM2.22363 10.9999C2.22363 9.71315 2.22432 8.7968 2.28956 8.06668C2.35352 7.35086 2.4761 6.86803 2.69218 6.44681L1.35755 5.76215C1.0224 6.41546 0.86936 7.10672 0.795513 7.93318C0.722944 8.74533 0.723633 9.73944 0.723633 10.9999H2.22363ZM5.86177 2.10042C4.77015 2.73066 3.90888 3.22712 3.24182 3.69604C2.56301 4.17323 2.04089 4.65139 1.64268 5.26829L2.90293 6.08179C3.15967 5.68405 3.51653 5.33648 4.10446 4.92318C4.70414 4.50162 5.49738 4.04285 6.61177 3.39945L5.86177 2.10042ZM2.69218 6.44681C2.75635 6.32173 2.82668 6.1999 2.90293 6.08179L1.64268 5.26829C1.53952 5.4281 1.44436 5.59292 1.35755 5.76215L2.69218 6.44681ZM0.723633 10.9999C0.723633 12.2604 0.722944 13.2545 0.795513 14.0667C0.86936 14.8931 1.0224 15.5844 1.35755 16.2377L2.69218 15.5531C2.4761 15.1318 2.35352 14.649 2.28956 13.9332C2.22432 13.2031 2.22363 12.2867 2.22363 10.9999H0.723633ZM2.90293 15.9181C2.82668 15.8 2.75635 15.6781 2.69218 15.5531L1.35755 16.2377C1.44436 16.407 1.53952 16.5718 1.64268 16.7316L2.90293 15.9181ZM15.3881 18.6004C14.2737 19.2438 13.4797 19.7014 12.8148 20.01C12.1629 20.3125 11.6835 20.4477 11.2107 20.4712L11.285 21.9694C12.0184 21.9329 12.6936 21.7199 13.4462 21.3706C14.1859 21.0274 15.0464 20.5297 16.1381 19.8995L15.3881 18.6004ZM5.86177 19.8995C6.95339 20.5297 7.81397 21.0274 8.5536 21.3706C9.30626 21.7199 9.98142 21.9329 10.7148 21.9694L10.7892 20.4712C10.3163 20.4477 9.83691 20.3125 9.18501 20.01C8.52009 19.7014 7.72616 19.2438 6.61177 18.6004L5.86177 19.8995ZM11.2107 20.4712C11.0702 20.4782 10.9296 20.4782 10.7892 20.4712L10.7148 21.9694C10.9048 21.9788 11.0951 21.9788 11.285 21.9694L11.2107 20.4712ZM19.7762 10.9999C19.7762 12.2867 19.7755 13.2031 19.7103 13.9332C19.6463 14.649 19.5237 15.1318 19.3076 15.5531L20.6423 16.2377C20.9774 15.5844 21.1305 14.8931 21.2043 14.0667C21.2769 13.2545 21.2762 12.2604 21.2762 10.9999H19.7762ZM19.3076 15.5531C19.2435 15.6781 19.1731 15.8 19.0969 15.9181L20.3571 16.7316C20.4603 16.5718 20.5555 16.407 20.6423 16.2377L19.3076 15.5531ZM15.3881 3.39945C16.5024 4.04285 17.2957 4.50162 17.8954 4.92318C18.4833 5.33648 18.8402 5.68405 19.0969 6.08179L20.3571 5.26829C19.9589 4.65139 19.4368 4.17323 18.758 3.69604C18.0909 3.22712 17.2297 2.73066 16.1381 2.10042L15.3881 3.39945ZM21.2762 10.9999C21.2762 9.73944 21.2769 8.74533 21.2043 7.93318C21.1305 7.10672 20.9774 6.41546 20.6423 5.76215L19.3076 6.44681C19.5237 6.86803 19.6463 7.35086 19.7103 8.06668C19.7755 8.7968 19.7762 9.71315 19.7762 10.9999H21.2762ZM19.0969 6.08179C19.1731 6.1999 19.2435 6.32173 19.3076 6.44681L20.6423 5.76215C20.5555 5.59292 20.4603 5.42809 20.3571 5.26829L19.0969 6.08179ZM16.1381 2.10042C15.0464 1.47017 14.1859 0.972517 13.4462 0.629287C12.6936 0.280012 12.0184 0.0669215 11.285 0.0305113L11.2107 1.52867C11.6835 1.55214 12.1629 1.6874 12.8148 1.98992C13.4797 2.29848 14.2737 2.75606 15.3881 3.39945L16.1381 2.10042ZM6.61177 3.39945C7.72616 2.75606 8.52009 2.29848 9.18501 1.98992C9.83691 1.6874 10.3163 1.55214 10.7892 1.52867L10.7148 0.0305113C9.98142 0.0669215 9.30626 0.280012 8.5536 0.629287C7.81397 0.972517 6.95339 1.47017 5.86177 2.10042L6.61177 3.39945ZM11.285 0.0305113C11.0951 0.0210796 10.9048 0.0210796 10.7148 0.0305113L10.7892 1.52867C10.9296 1.52169 11.0702 1.52169 11.2107 1.52867L11.285 0.0305113ZM7.99991 15.7499H13.9999V14.2499H7.99991V15.7499ZM13.9999 15.7499C15.4727 15.7499 16.7186 16.7302 17.1168 18.0756L18.5551 17.6498C17.9735 15.6848 16.1552 14.2499 13.9999 14.2499V15.7499ZM16.1381 19.8995C16.9935 19.4055 17.7046 18.9952 18.2873 18.6197L17.4747 17.3589C16.9296 17.7102 16.2547 18.1001 15.3881 18.6004L16.1381 19.8995ZM18.2873 18.6197C19.2005 18.0312 19.8719 17.4834 20.3571 16.7316L19.0969 15.9181C18.7836 16.4035 18.3232 16.8121 17.4747 17.3589L18.2873 18.6197ZM17.1294 18.1144L17.1745 18.2409L18.5875 17.7376L18.5425 17.6111L17.1294 18.1144ZM7.99991 14.2499C5.83419 14.2499 4.00879 15.6987 3.43636 17.6784L4.87733 18.0951C5.26922 16.7398 6.51994 15.7499 7.99991 15.7499V14.2499ZM6.61177 18.6004C5.75368 18.105 5.08339 17.7178 4.54085 17.369L3.7297 18.6308C4.30901 19.0032 5.0145 19.4103 5.86177 19.8995L6.61177 18.6004ZM4.54085 17.369C3.68236 16.8171 3.21826 16.4066 2.90293 15.9181L1.64268 16.7316C2.13094 17.488 2.80768 18.038 3.7297 18.6308L4.54085 17.369ZM3.42012 17.7463L3.39855 17.8594L4.872 18.1404L4.89357 18.0273L3.42012 17.7463Z" fill="#2D264B"/>
</svg>
