<svg width="25" height="24" viewBox="0 0 25 24" fill="none" xmlns="http://www.w3.org/2000/svg">
<path d="M15.2763 4.8047C15.1078 5.58835 15.4717 6.20831 15.7894 6.75723C16.1168 7.31945 16.984 8.38835 16.7621 9.00108C15.4705 12.1381 12.7247 15.0885 9.5751 16.3657C8.9493 16.5908 7.87356 15.7277 7.30476 15.4027C6.75415 15.0873 6.12835 14.731 5.33884 14.8935C4.62935 15.0404 2.21227 16.9399 1.55131 17.6116C1.11471 18.0546 0.874573 18.5084 0.835758 18.9743C0.760567 20.7258 3.09761 22.6819 3.6567 23.025C4.84887 23.8845 6.4352 23.8797 8.35867 23.0105C13.5252 20.916 21.3221 12.994 23.4954 7.80817C23.9429 6.85115 24.1673 5.97603 24.1673 5.18993C24.1673 4.42075 23.9526 3.7358 23.527 3.1471C23.271 2.70295 21.2178 0.2701 19.4193 0.333916C18.9608 0.372416 18.5024 0.611931 18.0585 1.0429C17.3806 1.69903 15.4244 4.1005 15.2763 4.8047Z" fill="#303030"/>
</svg>
