<svg xmlns="http://www.w3.org/2000/svg" version="1.1" xmlns:xlink="http://www.w3.org/1999/xlink" width="512" height="512" x="0" y="0" viewBox="0 0 24 24" style="enable-background:new 0 0 512 512" xml:space="preserve" class=""><g><path d="M20 14.092V8.5A2.5 2.5 0 0 0 17.5 6h-11A2.5 2.5 0 0 0 4 8.5v9A2.5 2.5 0 0 0 6.5 20h7.066l.221.332a1.5 1.5 0 0 0 1.248.668H19.5a1.5 1.5 0 0 0 1.5-1.5v-4a1.5 1.5 0 0 0-1-1.408zM5 8.5A1.5 1.5 0 0 1 6.5 7h11A1.5 1.5 0 0 1 19 8.5V14h-3.965a1.471 1.471 0 0 0-.311.039l-3.662-2.93a2.486 2.486 0 0 0-3.124 0L5 13.459zM6.5 19A1.5 1.5 0 0 1 5 17.5v-2.759l3.563-2.85a1.487 1.487 0 0 1 1.874 0l3.4 2.719c-.188.254-.971 1.444-1.383 2.058a1.5 1.5 0 0 0 0 1.664L12.9 19zm13.5.5a.5.5 0 0 1-.5.5h-4.465a.5.5 0 0 1-.416-.223l-1.333-2a.5.5 0 0 1 0-.554l1.333-2a.5.5 0 0 1 .416-.223H19.5a.5.5 0 0 1 .5.5zM16 12a2 2 0 1 0-2-2 2 2 0 0 0 2 2zm0-3a1 1 0 1 1-1 1 1 1 0 0 1 1-1zm3 7.5a.5.5 0 0 1-.5.5H16a.5.5 0 0 1 0-1h2.5a.5.5 0 0 1 .5.5zm0 2a.5.5 0 0 1-.5.5H16a.5.5 0 0 1 0-1h2.5a.5.5 0 0 1 .5.5z" fill="#8e8e8e" opacity="1" data-original="#000000" class=""></path></g></svg>