<svg xmlns="http://www.w3.org/2000/svg" version="1.1" xmlns:xlink="http://www.w3.org/1999/xlink" width="512" height="512" x="0" y="0" viewBox="0 0 455.431 455.431" style="enable-background:new 0 0 512 512" xml:space="preserve" class=""><g><path d="M405.493 412.764c-69.689 56.889-287.289 56.889-355.556 0-69.689-56.889-62.578-300.089 0-364.089s292.978-64 355.556 0 69.689 307.201 0 364.089z" style="" fill="#d52726" data-original="#8dc640" opacity="1"></path><g style="opacity:0.2;"><path d="M229.138 313.209c-62.578 49.778-132.267 75.378-197.689 76.8-48.356-82.489-38.4-283.022 18.489-341.333 51.2-52.622 211.911-62.578 304.356-29.867 22.755 93.867-24.178 213.333-125.156 294.4z" style="" fill="#ffffff" data-original="#ffffff"></path></g><path d="M362.827 227.876a25.494 25.494 0 0 1-25.6 25.6h-85.333v85.333a25.494 25.494 0 0 1-25.6 25.6 25.494 25.494 0 0 1-25.6-25.6v-85.333H115.36a25.494 25.494 0 0 1-25.6-25.6 25.494 25.494 0 0 1 25.6-25.6h85.333v-85.333a25.494 25.494 0 0 1 25.6-25.6 25.494 25.494 0 0 1 25.6 25.6v85.333h85.333a25.493 25.493 0 0 1 25.601 25.6z" style="" fill="#ffffff" data-original="#ffffff"></path></g></svg>