<svg width="13" height="14" viewBox="0 0 13 14" fill="none" xmlns="http://www.w3.org/2000/svg">
<path d="M12.3169 7.47662C12.2194 7.46135 12.1198 7.46568 12.024 7.48936C11.9281 7.51305 11.838 7.5556 11.7588 7.61455C11.6796 7.67349 11.6129 7.74763 11.5628 7.83264C11.5126 7.91764 11.4798 8.0118 11.4664 8.10962C11.315 9.13893 10.8333 10.0912 10.0939 10.8231C9.17913 11.7362 7.93944 12.249 6.64694 12.249C5.35445 12.249 4.11475 11.7362 3.19994 10.8231C2.28707 9.90821 1.7744 8.66855 1.7744 7.37612C1.7744 6.08368 2.28707 4.84402 3.19994 3.92912C3.91244 3.21473 4.83154 2.74246 5.82719 2.57912C6.28452 2.49603 6.75173 2.48212 7.21319 2.53787C7.86564 2.61636 8.49508 2.82771 9.06269 3.15886L8.08619 3.32612C7.98793 3.34144 7.8937 3.37615 7.80899 3.42823C7.72427 3.48031 7.65075 3.54872 7.59272 3.62948C7.53468 3.71023 7.49329 3.80172 7.47094 3.89862C7.4486 3.99553 7.44574 4.09591 7.46255 4.19392C7.47936 4.29194 7.51549 4.38563 7.56885 4.46955C7.6222 4.55347 7.69172 4.62595 7.77334 4.68275C7.85496 4.73956 7.94707 4.77956 8.0443 4.80044C8.14153 4.82132 8.24194 4.82265 8.33969 4.80437L10.9572 4.35737C11.153 4.32327 11.3274 4.21298 11.4421 4.05063C11.5568 3.88827 11.6025 3.68709 11.5692 3.49112L11.1214 0.873615C11.1079 0.773841 11.0744 0.677819 11.0229 0.591274C10.9714 0.504728 10.9031 0.429432 10.8219 0.369874C10.7407 0.310317 10.6484 0.267717 10.5503 0.244616C10.4523 0.221514 10.3507 0.218383 10.2514 0.235411C10.1522 0.252438 10.0574 0.289274 9.97271 0.343723C9.88801 0.398172 9.81514 0.469118 9.75845 0.552333C9.70176 0.635547 9.6624 0.729325 9.64273 0.828076C9.62305 0.926827 9.62347 1.02853 9.64394 1.12712L9.76094 1.81637C9.02753 1.40438 8.21922 1.14302 7.38344 1.04762C6.7771 0.974498 6.1632 0.993208 5.56244 1.10312C4.26478 1.31884 3.06753 1.93636 2.13944 2.86862C-0.345309 5.35412 -0.345309 9.39737 2.13944 11.8836C2.73095 12.4759 3.43366 12.9454 4.20721 13.2653C4.98075 13.5851 5.80988 13.749 6.64694 13.7474C7.484 13.749 8.31313 13.5851 9.08667 13.2653C9.86022 12.9454 10.5629 12.4759 11.1544 11.8836C12.1222 10.9241 12.7523 9.67628 12.9499 8.32787C12.9789 8.13115 12.9286 7.93098 12.81 7.77135C12.6915 7.61172 12.5144 7.50571 12.3177 7.47662H12.3169Z" fill="white"/>
</svg>
