<svg xmlns="http://www.w3.org/2000/svg" version="1.1" xmlns:xlink="http://www.w3.org/1999/xlink" width="512" height="512" x="0" y="0" viewBox="0 0 32 32" style="enable-background:new 0 0 512 512" xml:space="preserve" class=""><g><path d="M23.477 18.714h1.247a2.49 2.49 0 0 0 2.486-2.487v-3.013c0-.242-.046-.471-.11-.693V12.1c0-2.975-1.157-5.762-3.251-7.845A10.987 10.987 0 0 0 16 1C9.88 1 4.9 5.98 4.9 12.1v.421c-.064.222-.11.451-.11.693v3.013a2.49 2.49 0 0 0 2.486 2.487h1.247c.728 2.747 2.7 5.423 5.222 6.471l-.964.778-7.18 3.12a.999.999 0 1 0 .797 1.834l6.624-2.879 2.216 2.61a.998.998 0 0 0 1.524 0l2.216-2.61 6.624 2.879a1 1 0 0 0 .797-1.834l-7.18-3.12-.964-.778c2.523-1.048 4.494-3.724 5.222-6.47zm1.733-5.5v3.013a.487.487 0 0 1-.486.487h-.938v-3.987h.938c.268 0 .486.219.486.487zm-16.996 3.5h-.938a.487.487 0 0 1-.486-.487v-3.013c0-.268.218-.487.486-.487h.938zm.217-5.987H7.276c-.09 0-.176.018-.265.027C7.665 6.374 11.441 3 16 3c2.438 0 4.722.946 6.435 2.669a8.97 8.97 0 0 1 2.556 5.085c-.09-.01-.176-.027-.267-.027h-1.155C22.756 7.45 19.675 5 16 5s-6.756 2.449-7.57 5.727zm12.81-.577h-1.555L18.51 8.965a1.002 1.002 0 0 0-.708-.295H17.8a1 1 0 0 0-.707.293l-1.257 1.257h-5.112C11.629 8.325 13.652 7 16 7c2.319 0 4.318 1.293 5.24 3.15zM16 28.455l-1.27-1.495L16 25.936l1.27 1.024zm.001-4.803h-.002c-3.061-.001-5.785-4.002-5.785-7.155 0 0 .009-4.203.012-4.277h6.024a1 1 0 0 0 .707-.293l.84-.84.763.767c.188.19.443.296.71.296h2.5c.006.097.016 4.347.016 4.347 0 3.153-2.724 7.154-5.785 7.155z" fill="#000000" opacity="1" data-original="#000000"></path></g></svg>