<svg width="20" height="21" viewBox="0 0 20 21" fill="none" xmlns="http://www.w3.org/2000/svg">
<path fill-rule="evenodd" clip-rule="evenodd" d="M3.42747 1.73676L4.7009 0.5L6.001 1.7501L4.70757 2.98519L3.42747 1.73676ZM8.81121 5.87041C8.81121 6.90716 8.54453 7.72222 8.01449 8.3156C7.67946 8.68396 7.24443 8.96565 6.70939 9.15733C6.12737 9.34932 5.517 9.44119 4.90425 9.42902H3.97918C3.27746 9.42902 2.64408 9.30567 2.0807 9.05732C1.47207 8.80124 0.950921 8.3739 0.580584 7.82723C0.185783 7.20638 -0.0166067 6.48265 -0.00112712 5.74707C-0.00112712 5.64873 0.000539592 5.55205 0.00553997 5.45371C0.0555438 4.53698 0.345566 3.52356 0.880607 2.40848L2.70575 3.21521C2.27738 4.10194 2.04403 4.882 2.00736 5.55372C2.00403 5.62039 2.00069 5.68706 2.00069 5.75374C2.00069 6.17377 2.09237 6.51713 2.27738 6.78381C2.47629 7.07323 2.77172 7.2824 3.11078 7.37386C3.25246 7.42053 3.40747 7.45387 3.57415 7.47387C3.70582 7.49053 3.84083 7.4972 3.97918 7.4972H4.90425C5.66764 7.4972 6.18601 7.36219 6.45937 7.0905C6.69272 6.85882 6.80939 6.45212 6.80939 5.87208V2.20013H8.80955V5.87041H8.81121ZM17.8669 11.1775L16.6668 10.0107L17.8486 8.83397L19.0737 10.0124L17.8669 11.1775ZM13.1065 11.6909C14.0099 11.6909 14.7283 12.0075 15.2617 12.6393C15.7567 13.216 16.0034 13.9344 16.0034 14.7944V15.4011H16.3035V15.3945H16.9868C17.3552 15.3945 17.6152 15.3478 17.7652 15.2545C17.9202 15.1628 17.9986 15.0211 17.9986 14.8244V14.7094C18.0053 14.3044 18.0269 12.9693 17.9986 12.8509L20.0004 12.2509V14.8744C20.0055 15.3938 19.8371 15.9 19.522 16.3129C19.012 16.9879 18.1819 17.3246 17.0302 17.3246H15.9851C15.8834 18.5464 15.2617 19.4198 14.1233 19.9465C13.6783 20.1498 13.1565 20.2965 12.5615 20.3882C12.0574 20.4652 11.548 20.5026 11.0381 20.4999V18.568C12.0581 18.568 12.8249 18.4314 13.3382 18.1564C13.7549 17.9363 13.9649 17.6596 13.9649 17.3246H13.1065C12.3798 17.3246 11.7614 17.1363 11.2514 16.7596C10.6397 16.3045 10.3347 15.6478 10.3347 14.7928C10.3347 13.9794 10.538 13.291 10.9464 12.7259C11.4397 12.0342 12.1598 11.6892 13.1065 11.6892V11.6909ZM13.9949 15.4011V14.7944C13.9949 14.4327 13.9149 14.146 13.7566 13.9344C13.6817 13.8335 13.5834 13.7524 13.4701 13.6981C13.3568 13.6438 13.2321 13.6179 13.1065 13.6227C12.9796 13.6183 12.8535 13.6443 12.7387 13.6985C12.6239 13.7527 12.5237 13.8336 12.4465 13.9344C12.2877 14.1506 12.2077 14.4147 12.2198 14.6828C12.2196 14.72 12.2212 14.7573 12.2248 14.7944C12.2381 15.0028 12.3348 15.1611 12.5198 15.2661C12.6748 15.3561 12.8699 15.3995 13.1065 15.3995L13.9949 15.4011ZM14.1666 10.0124L15.3667 11.1792L16.5735 10.0124L15.3484 8.83397L14.1666 10.0124ZM3.0091 18.1597H3.05911C3.78083 18.143 4.30087 17.983 4.62089 17.6763C4.6609 17.6963 4.72923 17.7347 4.82091 17.7897L4.94425 17.8547L5.07926 17.9247C5.30428 18.0463 5.5143 18.1463 5.71098 18.2247C6.28602 18.468 6.82773 18.5914 7.33943 18.5914C7.60657 18.5972 7.87221 18.5501 8.12107 18.4528C8.36994 18.3556 8.59712 18.2101 8.78955 18.0247C9.28958 17.5496 9.53794 16.8346 9.53794 15.8812C9.53201 15.2056 9.33871 14.5449 8.97956 13.9727C8.48119 13.211 7.75947 12.8309 6.81273 12.8309C5.976 12.8309 5.28594 13.151 4.74257 13.7893C4.55422 14.0094 4.39254 14.2627 4.25253 14.5494C4.19919 14.6527 4.15252 14.7578 4.11252 14.8678C4.09228 14.9096 4.07556 14.9531 4.06252 14.9978C4.04966 15.0309 4.03743 15.0642 4.02585 15.0978C3.85417 15.6128 3.74083 15.9062 3.68415 15.9812C3.56415 16.1312 3.32746 16.2145 2.97243 16.2262C2.76742 16.2179 2.62407 16.1762 2.54573 16.0995C2.45073 16.0095 2.40406 15.8445 2.40406 15.6045V10.5008L0.402237 9.66737V15.6045C0.402237 16.0395 0.482243 16.4312 0.640589 16.7762C0.758931 17.0396 0.92061 17.2696 1.12396 17.4646C1.32897 17.6613 1.56733 17.8163 1.84068 17.9313C2.17071 18.0713 2.54073 18.148 2.9491 18.158V18.1597H3.0091ZM7.59612 16.4696C7.66568 16.2817 7.69078 16.0803 7.66946 15.8812C7.65629 15.5988 7.56068 15.3264 7.39444 15.0978C7.22776 14.8744 7.03274 14.7628 6.81106 14.7628C6.51104 14.7628 6.26102 14.9344 6.066 15.2795C5.996 15.3978 5.93266 15.5428 5.87599 15.7162C5.85204 15.7822 5.82981 15.8489 5.80932 15.9162L5.78432 16.0045L5.75931 16.0812C5.996 16.2779 6.29769 16.4412 6.66605 16.5696C6.96607 16.6729 7.20776 16.7229 7.38777 16.7229C7.46111 16.7229 7.53112 16.6396 7.59612 16.4696Z" fill="#303030"/>
</svg>
