<svg id="Layer_1" enable-background="new 0 0 55 55" height="512" viewBox="0 0 55 55" width="512" xmlns="http://www.w3.org/2000/svg"><g fill="rgb(0,0,0)"><path d="m43.365 2.75h-31.73c-1.74 0-3.155 1.416-3.155 3.155v43.189c0 1.74 1.416 3.155 3.155 3.155h31.729c1.74 0 3.155-1.416 3.155-3.155v-43.189c.001-1.739-1.415-3.155-3.154-3.155zm1.655 46.345c0 .913-.743 1.655-1.655 1.655h-31.73c-.913 0-1.655-.743-1.655-1.655v-43.19c0-.913.743-1.655 1.655-1.655h31.729c.913 0 1.655.743 1.655 1.655v43.19z"/><path d="m27.505 27.406c5.429 0 9.935-4.39 9.935-9.935 0-5.483-4.457-9.945-9.935-9.945-5.483 0-9.945 4.461-9.945 9.945.001 5.544 4.51 9.935 9.945 9.935zm-5.851-3.86c1.559-1.511 3.655-2.365 5.851-2.365 2.2 0 4.293.854 5.843 2.365-1.563 1.507-3.677 2.36-5.843 2.36-2.059 0-4.224-.796-5.851-2.36zm5.848-3.91c-1.641 0-2.995-1.321-2.995-2.99 0-1.651 1.343-2.995 2.995-2.995 1.649 0 2.99 1.343 2.99 2.995.001 1.653-1.336 2.99-2.99 2.99zm.003-10.61c4.651 0 8.435 3.789 8.435 8.445 0 1.795-.556 3.509-1.604 4.953-1.129-1.083-2.494-1.869-3.98-2.315 1.071-.88 1.637-2.148 1.637-3.463 0-2.479-2.014-4.495-4.49-4.495-2.479 0-4.495 2.016-4.495 4.495 0 1.296.549 2.571 1.643 3.465-1.485.446-2.852 1.233-3.984 2.315-1.05-1.448-1.605-3.161-1.605-4.954-.001-4.657 3.787-8.446 8.443-8.446z"/><path d="m39.714 31.566h-24.427c-.944 0-1.711.768-1.711 1.711v2.965c0 .944.768 1.711 1.711 1.711h24.427c.944 0 1.711-.768 1.711-1.711v-2.965c0-.944-.767-1.711-1.711-1.711zm.211 4.676c0 .117-.095.211-.211.211h-24.427c-.117 0-.211-.095-.211-.211v-2.965c0-.117.095-.211.211-.211h24.427c.117 0 .211.095.211.211z"/><path d="m35.925 41.086h-16.85c-.944 0-1.711.768-1.711 1.711v2.965c0 .944.768 1.711 1.711 1.711h16.851c.944 0 1.711-.768 1.711-1.711v-2.965c0-.943-.768-1.711-1.712-1.711zm.212 4.676c0 .117-.095.211-.211.211h-16.851c-.117 0-.211-.095-.211-.211v-2.965c0-.117.095-.211.211-.211h16.851c.117 0 .211.095.211.211z"/></g></svg>