<svg width="27" height="28" viewBox="0 0 27 28" fill="none" xmlns="http://www.w3.org/2000/svg">
<path fill-rule="evenodd" clip-rule="evenodd" d="M19.99 9.77877H24.75C24.75 5.81535 22.4599 3.5 18.58 3.5H8.41999C4.54 3.5 2.25 5.81536 2.25 9.72822V18.2717C2.25 22.1846 4.54 24.5 8.41999 24.5H18.58C22.4599 24.5 24.75 22.1846 24.75 18.2717V17.9077H19.99C17.7808 17.9077 15.99 16.0971 15.99 13.8635C15.99 11.6299 17.7808 9.81921 19.99 9.81921V9.77877ZM19.99 11.5178H23.91C24.3739 11.5178 24.75 11.898 24.75 12.3671V15.3195C24.7446 15.7863 24.3717 16.1634 23.91 16.1687H20.08C18.9616 16.184 17.9837 15.4098 17.73 14.3083C17.603 13.6247 17.7813 12.9192 18.2172 12.3809C18.6531 11.8427 19.302 11.5267 19.99 11.5178ZM20.16 14.6218H20.53C21.005 14.6218 21.39 14.2325 21.39 13.7523C21.39 13.2721 21.005 12.8828 20.53 12.8828H20.16C19.9329 12.8801 19.714 12.9694 19.5525 13.1308C19.3909 13.2923 19.2999 13.5125 19.3 13.7422C19.2999 14.2241 19.6835 14.6162 20.16 14.6218ZM7.58 9.77877H13.93C14.405 9.77877 14.79 9.38947 14.79 8.90924C14.79 8.42901 14.405 8.03972 13.93 8.03972H7.58C7.10891 8.03969 6.72547 8.42287 6.72 8.89913C6.71997 9.38101 7.10342 9.77322 7.58 9.77877Z" fill="#E73C33"/>
</svg>
