<svg width="23" height="23" viewBox="0 0 23 23" fill="none" xmlns="http://www.w3.org/2000/svg">
<path d="M11.4999 22.6986C5.32284 22.6986 0.302002 17.6777 0.302002 11.5007C0.302002 5.32357 5.32284 0.302734 11.4999 0.302734C17.677 0.302734 22.6978 5.32357 22.6978 11.5007C22.6978 17.6777 17.677 22.6986 11.4999 22.6986ZM11.4999 1.86523C6.18742 1.86523 1.8645 6.18815 1.8645 11.5007C1.8645 16.8132 6.18742 21.1361 11.4999 21.1361C16.8124 21.1361 21.1353 16.8132 21.1353 11.5007C21.1353 6.18815 16.8124 1.86523 11.4999 1.86523Z" fill="#E73C33"/>
<path d="M11.4999 13.3236C11.0728 13.3236 10.7187 12.9694 10.7187 12.5423V7.33398C10.7187 6.9069 11.0728 6.55273 11.4999 6.55273C11.927 6.55273 12.2812 6.9069 12.2812 7.33398V12.5423C12.2812 12.9694 11.927 13.3236 11.4999 13.3236ZM11.4999 16.709C11.3645 16.709 11.2291 16.6777 11.1041 16.6257C10.9791 16.5736 10.8645 16.5006 10.7603 16.4069C10.6666 16.3027 10.5937 16.1986 10.5416 16.0631C10.4895 15.9381 10.4583 15.8027 10.4583 15.6673C10.4583 15.5319 10.4895 15.3965 10.5416 15.2715C10.5937 15.1465 10.6666 15.0319 10.7603 14.9277C10.8645 14.834 10.9791 14.7611 11.1041 14.709C11.3577 14.6048 11.6421 14.6048 11.8958 14.709C12.0208 14.7611 12.1353 14.834 12.2395 14.9277C12.3333 15.0319 12.4062 15.1465 12.4583 15.2715C12.5103 15.3965 12.5416 15.5319 12.5416 15.6673C12.5416 15.8027 12.5103 15.9381 12.4583 16.0631C12.4062 16.1986 12.3333 16.3027 12.2395 16.4069C12.1353 16.5006 12.0208 16.5736 11.8958 16.6257C11.7708 16.6777 11.6353 16.709 11.4999 16.709Z" fill="#E73C33"/>
</svg>
