<?xml version="1.0" standalone="no"?>
<!DOCTYPE svg PUBLIC "-//W3C//DTD SVG 1.1//EN" "http://www.w3.org/Graphics/SVG/1.1/DTD/svg11.dtd" >
<svg xmlns="http://www.w3.org/2000/svg">
<metadata>Generated by IcoMoon</metadata>
<defs>
<font id="carcheck" horiz-adv-x="1024">
<font-face units-per-em="1024" ascent="960" descent="-64" />
<missing-glyph horiz-adv-x="1024" />
<glyph unicode="&#x20;" horiz-adv-x="512" d="" />
<glyph unicode="&#xe900;" glyph-name="calling" d="M620.634 841.434c-13.406 1.201-29.662 1.233-66.389 1.233h-42.24c-17.673 0-32 14.327-32 32s14.327 32 32 32h44.386c34.005 0.001 53.325 0.001 69.952-1.487 179.887-16.106 322.449-158.668 338.551-338.554 1.489-16.625 1.489-35.946 1.489-69.947v-44.39c0-17.673-14.327-32-32-32s-32 14.327-32 32v42.24c0 36.727-0.030 52.984-1.233 66.39-13.342 149.048-131.469 267.171-280.516 280.516zM260.135 741.128c-20.404 18.749-51.767 18.749-72.171 0-0.704-0.647-1.628-1.56-4.873-4.806l-37.818-37.817c-23.060-23.060-32.74-56.304-25.666-88.139 61.68-277.562 278.449-494.33 556.011-556.009 31.834-7.074 65.079 2.603 88.137 25.664l37.82 37.82c3.243 3.243 4.156 4.169 4.804 4.873 18.748 20.403 18.748 51.767 0 72.171-0.649 0.704-1.562 1.626-4.804 4.873l-62.217 62.217c-24.917 24.917-62.549 32.043-94.852 17.963-56.422-24.597-122.155-12.147-165.679 31.377l-102.262 102.263c-43.524 43.524-55.972 109.252-31.377 165.679 14.081 32.303 6.954 69.933-17.963 94.85l-62.216 62.217c-3.246 3.246-4.169 4.158-4.873 4.806zM144.661 788.254c44.889 41.247 113.888 41.247 158.777 0 1.839-1.689 3.801-3.652 6.35-6.202l62.691-62.692c43.524-43.524 55.971-109.254 31.377-165.679-14.081-32.304-6.954-69.932 17.963-94.849l102.264-102.263c24.917-24.917 62.549-32.047 94.852-17.967 56.422 24.597 122.155 12.151 165.679-31.373l62.686-62.69c2.551-2.551 4.514-4.514 6.204-6.353 41.25-44.89 41.25-113.886 0-158.775-1.69-1.839-3.652-3.806-6.204-6.353l-38.289-38.289c-38.532-38.537-94.080-54.711-147.277-42.889-301.818 67.072-537.532 302.784-604.603 604.602-11.821 53.196 4.355 108.745 42.887 147.278l37.818 37.817c0.161 0.161 0.319 0.32 0.476 0.476 2.548 2.549 4.511 4.512 6.349 6.201zM510.17 723.817c0 17.673 14.327 32 32 32h24.444c3.315 0 5.333 0 7.095-0.025 132.745-1.901 239.893-109.051 241.796-241.795 0.026-1.758 0.026-3.776 0.026-7.091v-24.448c0-17.673-14.327-32-32-32-17.677 0-32 14.327-32 32v24.137c0 3.721-0.004 5.248-0.021 6.485-1.404 98.117-80.602 177.314-178.718 178.719-1.242 0.018-2.765 0.019-6.485 0.019h-24.137c-17.673 0-32 14.327-32 32z" />
<glyph unicode="&#xe901;" glyph-name="car" d="M993.924 504.61c-6.404 13.773-17.084 22.037-27.763 24.789-59.793 11.020-138.807 74.374-175.113 85.392-79.014 24.791-277.619 68.864-352.363 33.055-121.724-63.354-151.622-107.427-172.977-118.447-76.879-11.017-145.216-30.298-207.146-55.087-8.542-5.513-14.949-11.021-21.355-19.285-29.897-41.314-40.575-90.897-36.304-148.745 4.271-41.314 32.033-71.616 64.066-71.616-4.271 16.529-6.406 33.054-6.406 49.583 0 93.653 59.795 170.778 132.403 170.778s132.403-77.124 132.403-170.778c0-16.529-2.135-35.81-6.406-49.583h377.989c-4.271 16.529-6.409 33.054-6.409 49.583 0 93.653 59.797 170.778 132.403 170.778 72.61 0 132.403-77.124 132.403-170.778 0-16.529-2.133-30.302-4.271-44.075 14.95 5.508 32.034 11.021 51.255 24.794 10.675 8.26 17.084 22.033 19.217 38.562 10.679 68.864 2.138 137.724-25.626 201.079zM534.784 518.383l-190.060-8.265-14.949 5.508c36.304 30.302 76.879 55.093 123.861 79.884 2.133 0 4.271 2.755 6.404 2.755 23.492 5.509 49.118 5.509 74.743 5.509v-85.391zM761.152 529.399l-183.654-8.26v79.88c59.793-2.755 123.861-16.527 196.467-38.563l-12.813-33.056zM298.667 298.667c0-58.91-47.756-106.667-106.667-106.667s-106.667 47.757-106.667 106.667c0 58.91 47.756 106.667 106.667 106.667s106.667-47.757 106.667-106.667zM938.667 298.667c0-58.91-47.757-106.667-106.667-106.667s-106.667 47.757-106.667 106.667c0 58.91 47.757 106.667 106.667 106.667s106.667-47.757 106.667-106.667z" />
<glyph unicode="&#xe902;" glyph-name="vector-stroke" horiz-adv-x="1186" d="M0 272.842c0-196.716 113.179-309.895 309.895-309.895h538.947c196.716 0 309.895 113.179 309.895 309.895v377.263c0 196.716-113.179 309.895-309.895 309.895h-538.947c-196.716 0-309.895-113.179-309.895-309.895v-377.263zM80.842 650.105c0 154.139 74.914 229.053 229.053 229.053h538.947c154.139 0 229.053-74.914 229.053-229.053v-377.263c0-154.139-74.914-229.053-229.053-229.053h-538.947c-154.139 0-229.053 74.914-229.053 229.053v377.263zM215.579 245.895c0-22.097 18.324-40.421 40.421-40.421s40.421 18.324 40.421 40.421v431.158c0 22.097-18.324 40.421-40.421 40.421s-40.421-18.324-40.421-40.421v-431.158zM417.684 421.053c-22.097 0-40.421 18.324-40.421 40.421v215.579c0 22.097 18.324 40.421 40.421 40.421s40.421-18.324 40.421-40.421v-215.579c0-22.097-18.324-40.421-40.421-40.421zM377.263 245.895c0-22.097 18.324-40.421 40.421-40.421s40.421 18.324 40.421 40.421v53.895c0 22.097-18.324 40.421-40.421 40.421s-40.421-18.324-40.421-40.421v-53.895zM741.053 582.737c-22.097 0-40.421 18.324-40.421 40.421v53.895c0 22.097 18.324 40.421 40.421 40.421s40.421-18.324 40.421-40.421v-53.895c0-22.097-18.324-40.421-40.421-40.421zM538.947 245.895c0-22.097 18.324-40.421 40.421-40.421s40.421 18.324 40.421 40.421v431.158c0 22.097-18.324 40.421-40.421 40.421s-40.421-18.324-40.421-40.421v-431.158zM741.053 205.474c-22.097 0-40.421 18.324-40.421 40.421v215.579c0 22.097 18.324 40.421 40.421 40.421s40.421-18.324 40.421-40.421v-215.579c0-22.097-18.324-40.421-40.421-40.421zM862.316 245.895c0-22.097 18.324-40.421 40.421-40.421s40.421 18.324 40.421 40.421v431.158c0 22.097-18.324 40.421-40.421 40.421s-40.421-18.324-40.421-40.421v-431.158z" />
<glyph unicode="&#xe903;" glyph-name="menu-kebab" d="M597.333 448c0-47.13-38.204-85.333-85.333-85.333s-85.333 38.204-85.333 85.333c0 47.13 38.204 85.333 85.333 85.333s85.333-38.204 85.333-85.333zM597.333 789.333c0-47.128-38.204-85.333-85.333-85.333s-85.333 38.205-85.333 85.333c0 47.128 38.204 85.333 85.333 85.333s85.333-38.205 85.333-85.333zM597.333 106.667c0-47.13-38.204-85.333-85.333-85.333s-85.333 38.204-85.333 85.333c0 47.13 38.204 85.333 85.333 85.333s85.333-38.204 85.333-85.333z" />
<glyph unicode="&#xe904;" glyph-name="search" d="M53.333 533.333c0 229.751 186.249 416 416 416s416-186.249 416-416c0-229.751-186.249-416-416-416s-416 186.249-416 416zM469.333 885.333c-194.404 0-352-157.596-352-352 0-194.402 157.596-352 352-352 194.402 0 352 157.598 352 352 0 194.404-157.598 352-352 352zM788.041 214.622c12.497 12.497 32.759 12.497 45.257 0l170.662-170.662c12.497-12.497 12.497-32.759 0-45.257s-32.759-12.497-45.257 0l-170.662 170.667c-12.497 12.497-12.497 32.759 0 45.252z" />
<glyph unicode="&#xe905;" glyph-name="car-o" d="M232.957 827.142c28.864 29.529 70.889 44.192 129.283 44.192h299.52c58.394 0 100.42-14.663 129.284-44.192 27.699-28.336 38.396-65.755 45.389-98.976l0.013-0.049 48.213-230.828c1.967-9.429-0.418-19.247-6.494-26.722-6.076-7.479-15.198-11.819-24.832-11.819h-682.666c-9.635 0-18.757 4.339-24.833 11.819-6.077 7.475-8.461 17.293-6.491 26.722l48.224 230.877c6.994 33.221 17.692 70.64 45.391 98.976zM250.194 714.981c-0.002-0.008 0.002 0.008 0 0l-40.152-192.233h603.919l-40.154 192.233c-0.004 0.010 0-0.010 0 0-6.66 31.615-14.528 53.098-28.531 67.424-12.843 13.138-35.669 24.929-83.516 24.929h-299.52c-47.846 0-70.675-11.791-83.517-24.929-14.005-14.327-21.871-35.804-28.53-67.424zM141.51 371.213c0-0.009 0.001 0.009 0 0l-23.895-259.861c-2.862-30.447 21.699-58.018 54.754-58.018h80.213c18.769 0 22.434 3.989 22.504 4.062 1.519 1.442 3.077 4.058 7.725 18.005l8.533 25.6c0.224 0.67 0.454 1.361 0.688 2.069 4.793 14.468 11.933 36.023 29.207 52.318 19.551 18.436 46.6 25.946 81.529 25.946h218.454c34.027 0 61.052-6.366 80.798-24.593 17.118-15.804 24.418-37.389 29.585-52.668 0.329-0.977 0.653-1.929 0.964-2.85l0.077-0.222 8.533-25.6c4.646-13.948 6.204-16.563 7.723-18.001 0.013-0.013 3.58-4.066 22.507-4.066h80.213c33.054 0 57.617 27.571 54.754 58.018l-23.898 259.861c0 0.013 0 0.030-0.004 0.043-3.051 32.687-7.411 52.006-17.98 64.542-9.045 10.722-28.651 22.869-80.286 22.869h-544.427c-51.636 0-71.242-12.151-80.286-22.869-10.574-12.54-14.933-31.885-17.986-64.585zM110.574 477.056c26.583 31.522 69.057 45.611 129.208 45.611h544.427c60.151 0 102.622-14.089 129.207-45.611 25.050-29.7 29.867-68.608 32.785-99.895l0.004-0.043 23.889-259.776c0-0.004 0 0.004 0 0 6.515-69.389-49.135-128.009-118.473-128.009h-80.213c-27.153 0-49.826 5.76-66.564 21.641-14.302 13.577-20.198 31.484-23.727 42.206-0.226 0.691-0.444 1.353-0.653 1.98l-8.495 25.485c-6.682 19.558-9.395 25.408-13.359 29.069-2.441 2.253-9.975 7.62-37.389 7.62h-218.454c-26.511 0-34.662-5.717-37.617-8.508-4.387-4.134-7.231-10.483-13.091-28.066l-8.533-25.6c-0.209-0.627-0.427-1.289-0.655-1.98-3.529-10.722-9.423-28.629-23.728-42.206-16.736-15.881-39.408-21.641-66.562-21.641h-80.213c-69.332 0-124.977 58.594-118.476 127.97 0.001 0.013-0.001-0.009 0 0l23.895 259.857c2.92 31.287 7.737 70.195 32.787 99.895zM96 618.667c0 17.673 14.327 32 32 32h42.667c17.673 0 32-14.327 32-32s-14.327-32-32-32h-42.667c-17.673 0-32 14.327-32 32zM821.333 618.667c0 17.673 14.327 32 32 32h42.667c17.673 0 32-14.327 32-32s-14.327-32-32-32h-42.667c-17.673 0-32 14.327-32 32zM512 864c17.673 0 32-14.327 32-32v-85.333c0-17.673-14.327-32-32-32s-32 14.327-32 32v85.333c0 17.673 14.327 32 32 32zM416 746.667c0 17.673 14.327 32 32 32h128c17.673 0 32-14.327 32-32s-14.327-32-32-32h-128c-17.673 0-32 14.327-32 32zM224 320c0 17.673 14.327 32 32 32h128c17.673 0 32-14.327 32-32s-14.327-32-32-32h-128c-17.673 0-32 14.327-32 32zM608 320c0 17.673 14.327 32 32 32h128c17.673 0 32-14.327 32-32s-14.327-32-32-32h-128c-17.673 0-32 14.327-32 32z" />
<glyph unicode="&#xe906;" glyph-name="copy" d="M156.494 547.506c-24.663-24.664-39.161-66.397-39.161-137.906v-179.2c0-71.509 14.498-113.242 39.161-137.907 24.663-24.661 66.395-39.159 137.906-39.159h179.2c71.509 0 113.242 14.498 137.907 39.159 24.661 24.666 39.159 66.398 39.159 137.907v179.2c0 71.509-14.498 113.242-39.159 137.906-24.666 24.663-66.398 39.161-137.907 39.161h-179.2c-71.511 0-113.243-14.498-137.906-39.161zM111.239 592.761c42.537 42.537 105.338 57.906 183.161 57.906h179.2c77.824 0 140.625-15.369 183.159-57.906 42.539-42.537 57.907-105.337 57.907-183.161v-179.2c0-77.824-15.369-140.625-57.907-183.159-42.534-42.539-105.335-57.907-183.159-57.907h-179.2c-77.823 0-140.623 15.369-183.161 57.907-42.537 42.534-57.906 105.335-57.906 183.159v179.2c0 77.824 15.369 140.623 57.906 183.161zM412.494 803.506c-24.663-24.663-39.161-66.395-39.161-137.906v-14.933h100.267c77.824 0 140.625-15.369 183.159-57.906 42.539-42.537 57.907-105.337 57.907-183.161v-100.267h14.933c71.509 0 113.242 14.498 137.907 39.159 24.661 24.666 39.159 66.398 39.159 137.907v179.2c0 71.511-14.498 113.243-39.159 137.906-24.666 24.663-66.398 39.161-137.907 39.161h-179.2c-71.509 0-113.242-14.498-137.906-39.161zM367.239 848.761c42.537 42.537 105.337 57.906 183.161 57.906h179.2c77.824 0 140.625-15.369 183.159-57.906 42.539-42.537 57.907-105.338 57.907-183.161v-179.2c0-77.824-15.369-140.625-57.907-183.159-42.534-42.539-105.335-57.907-183.159-57.907h-46.933c-17.673 0-32 14.327-32 32v132.267c0 71.509-14.498 113.242-39.159 137.906-24.666 24.663-66.398 39.161-137.907 39.161h-132.267c-17.673 0-32 14.327-32 32v46.933c0 77.823 15.369 140.623 57.906 183.161z" />
<glyph unicode="&#xe907;" glyph-name="document-cloud" d="M132.039 827.961c56.937 56.937 142.138 78.706 251.961 78.706h213.333c17.673 0 32-14.327 32-32s-14.327-32-32-32h-213.333c-103.511 0-167.643-20.898-206.706-59.961s-59.961-103.195-59.961-206.706v-256c0-103.509 20.898-167.642 59.961-206.707 39.063-39.061 103.195-59.959 206.706-59.959 17.673 0 32-14.327 32-32s-14.327-32-32-32c-109.823 0-195.023 21.769-251.961 78.707-56.937 56.934-78.706 142.135-78.706 251.959v256c0 109.823 21.769 195.023 78.706 251.961zM938.667 565.333c17.673 0 32-14.327 32-32v-128c0-17.673-14.327-32-32-32s-32 14.327-32 32v128c0 17.673 14.327 32 32 32zM585.088 904.23c11.955 4.953 25.719 2.215 34.871-6.937l341.333-341.333c9.152-9.152 11.891-22.917 6.938-34.872-4.954-11.959-16.623-19.755-29.564-19.755h-170.667c-65.771 0-119.804 10.547-155.959 46.705-36.16 36.157-46.707 90.188-46.707 155.961v170.667c0 12.943 7.795 24.611 19.755 29.564zM629.333 797.411v-93.412c0-62.227 10.786-93.529 27.959-110.706 17.178-17.177 48.478-27.961 110.707-27.961h93.41l-232.077 232.079zM869.099 273.941c-12.715 47.027-39.386 81.126-74.031 101.466-39.014 22.899-85.086 26.564-126.165 15.795-41.084-10.769-79.45-36.574-102.315-75.627-18.283-31.223-25.532-69.022-18.197-110.729-102.17-39.428-90.039-206.357 36.395-215.501 0.772-0.055 1.54-0.085 2.313-0.085h237.227c36.207 0 72.034 13.406 98.995 38.025 84.753 74.377 48.585 216.038-54.221 246.656zM585.421 148.501c4.382-0.35 8.905 0.201 13.312 1.779 16.64 5.956 25.301 24.273 19.345 40.913-14.212 39.706-9.033 70.229 3.742 92.049 13.214 22.571 36.446 39.010 63.313 46.050 26.863 7.044 55.083 4.1 77.538-9.079 21.692-12.736 41.071-36.8 48.004-78.494 2.325-13.973 13.559-24.755 27.618-26.505 65.075-8.098 92.258-96.674 42.641-139.977l-0.602-0.542c-14.818-13.602-35.183-21.436-56.009-21.436h-235.955c-58.3 5.18-59.281 87.462-2.948 95.241z" />
<glyph unicode="&#xe908;" glyph-name="calender" d="M215.939 748.59c27.034 19.642 59.627 29.815 104.061 35.083v-37.007c0-35.346 28.654-64 64-64s64 28.654 64 64v42.547c19.802 0.12 41.079 0.12 64 0.12s44.198 0 64-0.12v-42.547c0-35.346 28.655-64 64-64s64 28.654 64 64v37.007c44.433-5.268 77.026-15.441 104.060-35.083 18.112-13.158 34.039-29.085 47.198-47.196 24.077-33.142 33.929-74.637 37.956-136.061h-762.426c4.028 61.424 13.876 102.919 37.955 136.061 13.158 18.111 29.085 34.038 47.196 47.196zM128.457 501.342h767.087c0.457-28.416 0.457-60.211 0.457-96.009 0-35.793 0-67.584-0.457-96h-2.991c-36.352 0.004-58.496 0.004-77.598-3.021-104.977-16.627-187.307-98.957-203.934-203.934-3.025-19.102-3.025-41.246-3.021-77.598v-2.991c-28.416-0.457-60.207-0.457-96-0.457-159.988 0-239.983 0-296.061 40.742-18.111 13.158-34.038 29.086-47.196 47.198-40.743 56.077-40.743 136.073-40.743 296.060 0 35.797 0 67.593 0.457 96.009zM384 394.667c-17.673 0-32-14.327-32-32s14.327-32 32-32h256c17.673 0 32 14.327 32 32s-14.327 32-32 32h-256zM808.060 62.076c-33.139-24.077-74.637-33.929-136.060-37.956 0.004 38.844 0.149 55.091 2.231 68.245 12.292 77.594 73.143 138.445 150.737 150.737 13.154 2.082 29.402 2.227 68.245 2.231-4.028-61.423-13.879-102.921-37.956-136.060-13.158-18.112-29.086-34.039-47.198-47.198zM416 874.667c0 17.673-14.327 32-32 32s-32-14.327-32-32v-128c0-17.673 14.327-32 32-32s32 14.327 32 32v128zM672 874.667c0 17.673-14.327 32-32 32s-32-14.327-32-32v-128c0-17.673 14.327-32 32-32s32 14.327 32 32v128z" />
<glyph unicode="&#xe909;" glyph-name="calendar" d="M341.333 714.667c-17.493 0-32 14.507-32 32v128c0 17.493 14.507 32 32 32s32-14.507 32-32v-128c0-17.493-14.507-32-32-32zM682.667 714.667c-17.493 0-32 14.507-32 32v128c0 17.493 14.507 32 32 32s32-14.507 32-32v-128c0-17.493-14.507-32-32-32zM362.667 341.402c-5.547 0-11.093 1.28-16.213 3.413-5.547 2.133-9.813 5.124-14.080 8.964-7.68 8.107-12.373 18.769-12.373 30.289 0 5.547 1.28 11.093 3.413 16.213s5.12 9.813 8.96 14.080c4.267 3.84 8.533 6.831 14.080 8.964 15.36 6.4 34.56 2.982 46.507-8.964 7.68-8.107 12.373-19.2 12.373-30.293 0-2.56-0.427-5.547-0.853-8.533-0.427-2.56-1.28-5.12-2.56-7.68-0.853-2.56-2.133-5.12-3.84-7.68-1.28-2.133-3.413-4.262-5.12-6.396-8.107-7.68-19.2-12.378-30.293-12.378zM512 341.38c-5.547 0-11.093 1.28-16.213 3.413-5.547 2.133-9.813 5.12-14.080 8.96-7.68 8.107-12.373 18.773-12.373 30.293 0 5.547 1.28 11.093 3.413 16.213s5.12 9.813 8.96 14.080c4.267 3.84 8.533 6.827 14.080 8.96 15.36 6.827 34.56 2.987 46.507-8.96 7.68-8.107 12.373-19.2 12.373-30.293 0-2.56-0.427-5.547-0.853-8.533-0.427-2.56-1.28-5.12-2.56-7.68-0.853-2.56-2.133-5.12-3.84-7.68-1.28-2.133-3.413-4.267-5.12-6.4-8.107-7.68-19.2-12.373-30.293-12.373zM661.333 341.38c-5.547 0-11.093 1.28-16.213 3.413-5.547 2.133-9.813 5.12-14.080 8.96-1.707 2.133-3.413 4.267-5.12 6.4-1.707 2.56-2.987 5.12-3.84 7.68-1.28 2.56-2.133 5.12-2.56 7.68-0.427 2.987-0.853 5.973-0.853 8.533 0 11.093 4.693 22.187 12.373 30.293 4.267 3.84 8.533 6.827 14.080 8.96 15.787 6.827 34.56 2.987 46.507-8.96 7.68-8.107 12.373-19.2 12.373-30.293 0-2.56-0.427-5.547-0.853-8.533-0.427-2.56-1.28-5.12-2.56-7.68-0.853-2.56-2.133-5.12-3.84-7.68-1.28-2.133-3.413-4.267-5.12-6.4-8.107-7.68-19.2-12.373-30.293-12.373zM362.667 192.034c-5.547 0-11.093 1.28-16.213 3.413s-9.813 5.12-14.080 8.96c-7.68 8.107-12.373 19.2-12.373 30.293 0 5.547 1.28 11.093 3.413 16.213 2.133 5.547 5.12 10.24 8.96 14.080 15.787 15.787 44.8 15.787 60.587 0 7.68-8.107 12.373-19.2 12.373-30.293s-4.693-22.187-12.373-30.293c-8.107-7.68-19.2-12.373-30.293-12.373zM512 192.034c-11.093 0-22.187 4.693-30.293 12.373-7.68 8.107-12.373 19.2-12.373 30.293 0 5.547 1.28 11.093 3.413 16.213 2.133 5.547 5.12 10.24 8.96 14.080 15.787 15.787 44.8 15.787 60.587 0 3.84-3.84 6.827-8.533 8.96-14.080 2.133-5.12 3.413-10.667 3.413-16.213 0-11.093-4.693-22.187-12.373-30.293-8.107-7.68-19.2-12.373-30.293-12.373zM661.333 191.962c-11.093 0-22.187 4.693-30.293 12.373-3.84 3.84-6.827 8.533-8.96 14.080-2.133 5.12-3.413 10.667-3.413 16.213s1.28 11.093 3.413 16.213c2.133 5.547 5.12 10.24 8.96 14.080 9.813 9.813 24.747 14.507 38.4 11.52 2.987-0.427 5.547-1.28 8.107-2.56 2.56-0.853 5.12-2.133 7.68-3.84 2.133-1.28 4.267-3.413 6.4-5.12 7.68-8.107 12.373-19.2 12.373-30.293s-4.693-22.187-12.373-30.293c-8.107-7.68-19.2-12.373-30.293-12.373zM874.667 540.167h-725.333c-17.493 0-32 14.507-32 32s14.507 32 32 32h725.333c17.493 0 32-14.507 32-32s-14.507-32-32-32zM682.667-10.667h-341.333c-155.733 0-245.333 89.6-245.333 245.333v362.667c0 155.733 89.6 245.333 245.333 245.333h341.333c155.733 0 245.333-89.6 245.333-245.333v-362.667c0-155.733-89.6-245.333-245.333-245.333zM341.333 778.667c-122.027 0-181.333-59.307-181.333-181.333v-362.667c0-122.027 59.307-181.333 181.333-181.333h341.333c122.027 0 181.333 59.307 181.333 181.333v362.667c0 122.027-59.307 181.333-181.333 181.333h-341.333z" />
<glyph unicode="&#xe90a;" glyph-name="dislike" d="M460.8 17.135c-12.373 0-24.747 2.133-36.265 6.4-53.333 17.493-87.467 76.373-75.52 130.987l20.907 134.4c0.427 2.987 0.427 7.253-2.56 10.667-2.133 2.133-5.12 3.413-8.533 3.413h-170.667c-41.813 0-78.080 17.493-99.413 47.787-20.907 29.44-25.173 68.267-11.52 105.813l101.973 310.612c15.787 61.867 81.92 111.787 150.187 111.787h162.132c23.893 0 75.947-7.253 103.68-34.987l129.28-99.84-39.253-50.773-132.267 102.4c-10.667 10.667-37.547 19.2-61.44 19.2h-162.132c-38.4 0-79.787-30.72-88.32-65.28l-103.253-313.598c-6.827-18.773-5.547-35.84 3.413-48.213 9.387-13.227 26.453-20.907 47.36-20.907h170.667c22.187 0 42.667-9.387 56.747-25.6 14.505-16.64 20.905-38.827 17.492-61.867l-21.332-136.96c-5.12-23.893 11.093-50.773 34.132-58.453 20.48-7.68 47.787 3.413 57.173 17.067l174.933 260.267 52.907-35.84-174.933-260.267c-20.053-29.867-58.027-48.213-95.573-48.213zM731.307 325.611l-174.929-260.262c-20.053-29.867-58.027-48.213-95.573-48.213-12.373 0-24.747 2.133-36.268 6.4-53.333 17.493-87.467 76.373-75.52 130.987l20.907 134.4c0.427 2.987 0.427 7.253-2.56 10.667-2.133 2.133-5.12 3.413-8.533 3.413h-170.668c-41.813 0-78.080 17.493-99.414 47.787-20.907 29.44-25.173 68.267-11.52 105.813l101.974 310.612c15.787 61.867 81.92 111.787 150.187 111.787h162.135c23.893 0 75.947-7.253 103.68-34.987l129.28-99.84-39.253-50.773-132.267 102.4c-10.667 10.667-37.547 19.2-61.44 19.2h-162.135c-38.4 0-79.787-30.72-88.32-65.28l-103.253-313.598c-6.827-18.773-5.547-35.84 3.413-48.213 9.387-13.227 26.453-20.907 47.36-20.907h170.668c22.187 0 42.667-9.387 56.747-25.6 14.508-16.64 20.908-38.827 17.495-61.867l-21.335-136.96c-5.12-23.893 11.093-50.773 34.135-58.453 20.48-7.68 47.787 3.413 57.173 17.067l174.933 260.267 52.902-35.844zM837.124 187.733h-42.667c-78.933 0-117.333 37.12-117.333 113.067v418.133c0 75.947 38.4 113.067 117.333 113.067h42.667c78.933 0 117.333-37.12 117.333-113.067v-418.133c0-75.947-38.4-113.067-117.333-113.067zM794.458 768c-46.507 0-53.333-11.093-53.333-49.067v-418.133c0-37.973 6.827-49.067 53.333-49.067h42.667c46.507 0 53.333 11.093 53.333 49.067v418.133c0 37.973-6.827 49.067-53.333 49.067h-42.667zM794.458 187.733h42.667c78.933 0 117.333 37.12 117.333 113.067v418.133c0 75.947-38.4 113.067-117.333 113.067h-42.667c-78.933 0-117.333-37.12-117.333-113.067v-418.133c0-75.947 38.4-113.067 117.333-113.067zM741.124 718.933c0 37.973 6.827 49.067 53.333 49.067h42.667c46.507 0 53.333-11.093 53.333-49.067v-418.133c0-37.973-6.827-49.067-53.333-49.067h-42.667c-46.507 0-53.333 11.093-53.333 49.067v418.133z" />
<glyph unicode="&#xe90b;" glyph-name="location-slash" d="M444.582 373.367c-5.547 0-11.093 1.28-16.213 4.267-50.348 29.44-81.494 84.053-81.494 142.080 0 90.879 73.813 165.119 165.121 165.119 58.453 0 113.067-31.147 142.507-81.92 8.96-15.36 3.84-34.987-11.52-43.947s-34.987-3.84-43.947 11.52c-17.92 31.573-51.2 50.773-87.040 50.773-55.467 0-101.121-45.227-101.121-101.119 0-35.84 19.201-69.12 49.921-87.040 15.36-8.96 20.48-28.587 11.52-43.947-5.973-9.813-16.64-15.787-27.733-15.787zM255.563 168.188c-9.813 0-19.627 4.693-26.027 13.227-102.4 140.373-138.24 282.88-106.24 423.679 33.28 146.347 140.8 254.72 287.573 290.133 153.598 37.12 314.878-12.8 410.025-126.72 11.52-13.653 9.387-33.707-3.84-45.227-13.653-11.52-33.707-9.387-45.227 4.267-79.787 95.573-215.467 136.96-346.025 105.813-124.587-29.867-212.053-118.187-240.213-241.92-27.733-122.026 4.267-247.039 95.573-371.626 10.24-14.080 7.253-34.133-6.827-44.8-5.547-4.693-12.373-6.827-18.773-6.827zM512.004-11.021c-63.147 0-126.722 23.893-176.215 71.253-12.8 12.373-13.227 32.427-0.853 45.227s32.427 13.227 45.227 0.853c73.815-71.253 189.442-71.253 263.255 0 113.92 109.653 240.213 282.88 194.987 483.84-3.84 17.067 6.827 34.56 24.32 38.4 17.067 3.84 34.56-6.827 38.4-24.32 52.053-229.973-87.040-422.826-212.907-544-49.493-47.36-113.067-71.253-176.213-71.253zM85.331-10.726c-8.107 0-16.213 2.987-22.613 9.387-12.373 12.373-12.373 32.853 0 45.227l853.332 853.333c12.373 12.373 32.853 12.373 45.227 0s12.373-32.853 0-45.227l-853.332-853.333c-6.4-6.4-14.507-9.387-22.613-9.387z" />
<glyph unicode="&#xe90c;" glyph-name="sms" d="M725.333 53.333h-426.667c-155.733 0-245.333 89.6-245.333 245.333v298.667c0 155.733 89.6 245.333 245.333 245.333h426.667c155.733 0 245.333-89.6 245.333-245.333v-298.667c0-155.733-89.6-245.333-245.333-245.333zM298.667 778.667c-122.027 0-181.333-59.307-181.333-181.333v-298.667c0-122.027 59.307-181.333 181.333-181.333h426.667c122.027 0 181.333 59.307 181.333 181.333v298.667c0 122.027-59.307 181.333-181.333 181.333h-426.667zM511.991 410.965c-35.84 0-72.107 11.093-99.841 33.707l-133.547 106.666c-13.653 11.093-16.213 31.147-5.12 44.8s31.147 16.213 44.8 5.12l133.548-106.666c32.427-26.027 87.467-26.027 119.893 0l133.547 106.666c13.653 11.093 34.133 8.96 44.8-5.12 11.093-13.653 8.96-34.133-5.12-44.8l-133.547-106.666c-27.307-22.613-63.573-33.707-99.413-33.707z" />
<glyph unicode="&#xe90d;" glyph-name="user" d="M512 416c-135.253 0-245.333 110.080-245.333 245.333s110.080 245.333 245.333 245.333c135.253 0 245.333-110.080 245.333-245.333s-110.080-245.333-245.333-245.333zM512 842.667c-99.84 0-181.333-81.493-181.333-181.333s81.493-181.333 181.333-181.333c99.84 0 181.333 81.493 181.333 181.333s-81.493 181.333-181.333 181.333zM878.511-10.667c-17.493 0-32 14.507-32 32 0 147.2-150.182 266.667-334.502 266.667-184.322 0-334.508-119.467-334.508-266.667 0-17.493-14.507-32-32-32s-32 14.507-32 32c0 182.187 178.773 330.667 398.508 330.667 219.733 0 398.502-148.48 398.502-330.667 0-17.493-14.507-32-32-32z" />
<glyph unicode="&#xe90e;" glyph-name="telegram" d="M865.946 825.28c0 0 78.933 32.944 72.329-47.057-2.174-32.944-21.903-148.26-37.26-272.971l-52.623-369.452c0 0-4.39-54.125-43.865-63.543-39.455-9.393-98.659 32.945-109.629 42.363-8.779 7.066-164.448 112.968-219.266 164.721-15.36 14.135-32.911 42.359 2.195 75.305l230.216 235.329c26.31 28.225 52.62 94.113-57.009 14.111l-306.995-223.543c0 0-35.087-23.549-100.853-2.369l-142.545 47.077c0 0-52.621 35.294 37.282 70.588 219.282 110.595 488.993 223.542 727.984 329.442h0.041z" />
<glyph unicode="&#xe90f;" glyph-name="facebook" d="M554.667 576v76.8c0 33.28 7.68 51.2 61.44 51.2h66.56v128h-102.4c-128 0-179.2-84.48-179.2-179.2v-76.8h-102.4v-128h102.4v-384h153.6v384h112.64l15.36 128h-128z" />
<glyph unicode="&#xe910;" glyph-name="whatsapp" d="M812.834 750.504c-39.117 39.512-85.709 70.841-137.062 92.158-51.35 21.317-106.431 32.196-162.031 32.002-232.961 0-422.827-189.867-422.827-422.828 0-74.667 19.627-147.2 56.32-211.2l-59.733-219.307 224 58.88c61.867-33.707 131.414-51.627 202.241-51.627 232.96 0 422.827 189.867 422.827 422.827 0 113.067-43.947 219.308-123.733 299.094zM513.741 100.263c-63.147 0-125.013 17.067-179.201 49.067l-12.8 7.68-133.12-34.987 35.413 129.707-8.533 13.227c-35.083 56.023-53.712 120.781-53.76 186.88 0 193.708 157.867 351.574 351.574 351.574 93.867 0 182.187-36.693 248.32-103.253 32.744-32.596 58.696-71.367 76.346-114.068 17.65-42.697 26.651-88.477 26.481-134.68 0.853-193.707-157.013-351.147-350.72-351.147zM706.594 363.090c-10.667 5.12-62.72 30.72-72.107 34.56-9.813 3.413-16.64 5.12-23.893-5.12-7.253-10.667-27.307-34.56-33.28-41.387-5.973-7.253-12.373-8.107-23.040-2.56-10.667 5.12-44.8 16.64-84.907 52.48-31.573 28.16-52.48 62.72-58.88 73.387-5.973 10.667-0.853 16.213 4.693 21.76 4.693 4.693 10.667 12.373 15.787 18.347s7.253 10.667 10.667 17.493c3.413 7.253 1.707 13.227-0.853 18.347s-23.893 57.173-32.427 78.508c-8.533 20.48-17.493 17.92-23.893 18.347h-20.48c-7.253 0-18.347-2.56-28.161-13.227-9.387-10.667-36.693-36.268-36.693-88.321s37.973-102.4 43.094-109.227c5.12-7.253 74.667-113.92 180.48-159.573 25.173-11.093 44.8-17.493 60.16-22.187 25.173-8.107 48.213-6.827 66.56-4.267 20.48 2.987 62.72 25.6 71.253 50.347 8.96 24.747 8.96 45.653 5.973 50.347s-9.387 6.827-20.053 11.947z" />
<glyph unicode="&#xe911;" glyph-name="twitter" d="M757.367 832h130.847l-285.867-325.356 336.319-442.644h-263.325l-206.223 268.496-236.016-268.496h-130.916l305.778 348.013-322.632 419.951h270.008l186.419-245.414 215.607 245.449zM711.468 141.957h72.496l-468.017 616.157h-77.796l473.317-616.157z" />
<glyph unicode="&#xe912;" glyph-name="share" d="M768 273.92c-32.427 0-61.44-12.8-83.627-32.853l-304.213 177.067c2.133 9.813 3.84 19.627 3.84 29.867s-1.707 20.053-3.84 29.867l300.8 175.36c23.040-21.333 53.333-34.56 87.040-34.56 70.827 0 128 57.173 128 128s-57.173 128-128 128c-70.827 0-128-57.173-128-128 0-10.24 1.707-20.053 3.84-29.867l-300.8-175.36c-23.040 21.333-53.333 34.56-87.040 34.56-70.827 0-128-57.173-128-128s57.173-128 128-128c33.707 0 64 13.227 87.040 34.56l303.787-177.493c-2.133-8.96-3.413-18.347-3.413-27.733 0-68.693 55.893-124.587 124.587-124.587s124.587 55.893 124.587 124.587c0 68.693-55.893 124.587-124.587 124.587zM768 789.333c23.467 0 42.667-19.2 42.667-42.667s-19.2-42.667-42.667-42.667c-23.467 0-42.667 19.2-42.667 42.667s19.2 42.667 42.667 42.667zM256 405.333c-23.467 0-42.667 19.2-42.667 42.667s19.2 42.667 42.667 42.667c23.467 0 42.667-19.2 42.667-42.667s-19.2-42.667-42.667-42.667zM768 105.813c-23.467 0-42.667 19.2-42.667 42.667s19.2 42.667 42.667 42.667c23.467 0 42.667-19.2 42.667-42.667s-19.2-42.667-42.667-42.667z" />
<glyph unicode="&#xe913;" glyph-name="discount-shape" d="M359.92 842.417c-13.944-48.86-64.142-77.842-113.428-65.488-154.333 38.685-262.748-149.095-152.079-263.41 35.342-36.506 35.342-94.468 0-130.974-110.669-114.313-2.255-302.093 152.079-263.407 49.286 12.352 99.484-16.631 113.428-65.489 43.664-152.998 260.492-152.998 304.157 0 13.943 48.858 64.141 77.841 113.429 65.489 154.334-38.686 262.75 149.094 152.081 263.407-35.345 36.506-35.345 94.468 0 130.974 110.669 114.316 2.253 302.096-152.081 263.41-49.289-12.354-99.486 16.628-113.429 65.488-43.665 152.999-260.493 152.999-304.157 0zM647.987 584.019c12.497-12.497 12.497-32.758 0-45.255l-241.36-241.361c-12.497-12.497-32.758-12.497-45.255 0s-12.497 32.759 0 45.257l241.358 241.359c12.497 12.497 32.759 12.497 45.257 0zM384 533.364c-23.564 0-42.667 19.103-42.667 42.667s19.103 42.667 42.667 42.667c23.564 0 42.667-19.102 42.667-42.667s-19.103-42.667-42.667-42.667zM640 277.363c-23.565 0-42.667 19.102-42.667 42.667s19.102 42.667 42.667 42.667c23.565 0 42.667-19.102 42.667-42.667s-19.102-42.667-42.667-42.667z" />
<glyph unicode="&#xe914;" glyph-name="sort_down" d="M170.667 661.333c0 23.564 19.103 42.667 42.667 42.667h341.333c23.565 0 42.667-19.103 42.667-42.667s-19.102-42.667-42.667-42.667h-341.333c-23.564 0-42.667 19.103-42.667 42.667zM170.667 448c0 23.565 19.103 42.667 42.667 42.667h256c23.565 0 42.667-19.102 42.667-42.667s-19.102-42.667-42.667-42.667h-256c-23.564 0-42.667 19.102-42.667 42.667zM170.667 234.667c0 23.565 19.103 42.667 42.667 42.667h170.667c23.564 0 42.667-19.102 42.667-42.667s-19.103-42.667-42.667-42.667h-170.667c-23.564 0-42.667 19.102-42.667 42.667zM853.338 704v-408.994l55.164 55.164 60.339-60.339-158.17-158.17-158.17 158.17 60.339 60.339 55.164-55.164v408.994h85.333z" />
<glyph unicode="&#xe915;" glyph-name="logout" d="M298.667 480c-17.673 0-32-14.327-32-32s14.327-32 32-32h341.333v-96c0-39.637 0-59.456-2.628-76.041-14.455-91.281-86.050-162.876-177.331-177.331-16.585-2.628-36.403-2.628-76.041-2.628s-59.456 0-76.039 2.628c-91.284 14.455-162.877 86.050-177.334 177.331-2.627 16.585-2.627 36.403-2.627 76.041v256c0 39.638 0 59.456 2.627 76.039 14.458 91.284 86.051 162.876 177.334 177.334 16.583 2.627 36.401 2.627 76.039 2.627s59.456 0 76.041-2.627c91.281-14.458 162.876-86.050 177.331-177.334 2.628-16.583 2.628-36.401 2.628-76.039v-96h-341.333zM640 480h205.248c-13.973 13.769-34.539 30.135-64.576 53.951l-75.221 59.642c-13.845 10.98-16.171 31.107-5.193 44.956 10.982 13.848 31.108 16.173 44.958 5.193l76.749-60.853c28.689-22.749 52.369-41.521 69.235-58.322 17.31-17.242 31.654-36.382 35.554-60.834 0.828-5.21 1.246-10.466 1.246-15.731s-0.418-10.522-1.246-15.731c-3.9-24.452-18.244-43.593-35.554-60.834-16.866-16.802-40.542-35.571-69.235-58.321l-76.749-60.855c-13.85-10.978-33.975-8.653-44.958 5.193-10.978 13.85-8.653 33.975 5.193 44.958l75.221 59.639c30.037 23.817 50.603 40.183 64.576 53.952h-205.248v64zM906.667 448c0 4.134-0.329 8.269-0.981 12.373-2.837 17.813-13.389 32.99-29.542 49.075-15.812 15.757-38.374 33.682-67.435 56.722l-76.749 60.854c-4.617 3.66-11.324 2.885-14.985-1.731s-2.884-11.325 1.732-14.985l75.217-59.641c29.645-23.503 51.307-40.702 66.295-55.473l37.073-36.527h-235.959v-21.333h235.959l-37.073-36.531c-14.989-14.767-36.651-31.966-66.295-55.471l-75.217-59.639c-4.617-3.661-5.393-10.368-1.732-14.985s10.368-5.393 14.985-1.732l76.749 60.855c29.060 23.040 51.622 40.964 67.435 56.717 16.154 16.090 26.705 31.266 29.542 49.079 0.653 4.105 0.981 8.239 0.981 12.373zM618.667 437.333v21.333h-320c-5.891 0-10.667-4.774-10.667-10.667s4.776-10.667 10.667-10.667h320zM618.667 501.333h-320c-29.455 0-53.333-23.876-53.333-53.333s23.878-53.333 53.333-53.333h320v-74.667c0-40.452-0.068-58.197-2.364-72.704-13.013-82.155-77.444-146.586-159.599-159.599-14.507-2.295-32.251-2.364-72.704-2.364s-58.196 0.068-72.702 2.364c-82.155 13.013-146.589 77.444-159.601 159.599-2.298 14.507-2.364 32.252-2.364 72.704v256c0 40.453 0.066 58.195 2.364 72.702 13.012 82.156 77.446 146.589 159.601 159.601 14.506 2.298 32.249 2.364 72.702 2.364s58.197-0.066 72.704-2.364c82.155-13.012 146.586-77.446 159.599-159.601 2.295-14.507 2.364-32.249 2.364-72.702v-74.667zM661.333 501.333v77.164c0 37.271 0.004 58.624-2.889 76.88-15.906 100.412-94.656 179.164-195.068 195.067-18.257 2.892-39.608 2.891-76.88 2.889h-4.994c-37.272 0.001-58.624 0.002-76.88-2.889-100.412-15.904-179.164-94.655-195.068-195.067-2.891-18.255-2.89-39.607-2.889-76.879v-260.998c-0.001-37.269-0.002-58.62 2.889-76.877 15.904-100.412 94.656-179.162 195.068-195.068 18.255-2.893 39.607-2.889 76.879-2.889h4.996c37.271 0 58.622-0.004 76.879 2.889 100.412 15.906 179.162 94.656 195.068 195.068 2.893 18.257 2.889 39.607 2.889 76.881v77.163h126.080c-6.080-4.864-12.727-10.138-19.994-15.902l-75.221-59.639c-23.083-18.3-26.957-51.849-8.657-74.927 18.3-23.083 51.849-26.957 74.927-8.657l77.658 61.577c27.947 22.157 52.403 41.545 70.131 59.204 18.462 18.394 36.608 41.493 41.562 72.593 1.007 6.315 1.515 12.693 1.515 19.085s-0.508 12.77-1.515 19.085c-4.954 31.1-23.1 54.199-41.562 72.594-17.728 17.658-42.18 37.045-70.127 59.202l-77.662 61.577c-23.078 18.3-56.627 14.425-74.927-8.655s-14.426-56.626 8.657-74.927l75.221-59.64c7.266-5.764 13.914-11.038 19.994-15.902h-126.080z" />
<glyph unicode="&#xe916;" glyph-name="bookmark" d="M505.097 863.999c2.274 0 4.574 0 6.903 0s4.634 0 6.908 0c72.802 0.012 117.227 0.019 154.24-12.008 74.688-24.268 133.244-82.825 157.513-157.514 12.028-37.014 12.019-81.439 12.011-154.24-0.004-2.274-0.004-4.575-0.004-6.903v-316.646c0-39.667 0-71.373-1.92-95.787-1.894-24.060-5.926-46.878-18.142-64.981-24.508-36.335-67.221-55.979-110.754-50.944-21.696 2.513-41.647 14.302-61.146 28.518-19.785 14.43-43.857 35.063-73.98 60.881l-1.101 0.943c-29.47 25.263-37.862 31.753-45.854 34.577-11.499 4.062-24.038 4.062-35.537 0-7.996-2.825-16.384-9.314-45.858-34.577l-1.101-0.943c-30.118-25.818-54.191-46.451-73.979-60.881-19.499-14.217-39.447-26.005-61.142-28.518-43.536-5.035-86.249 14.609-110.758 50.944-12.213 18.103-16.244 40.922-18.139 64.981-1.923 24.414-1.923 56.119-1.923 95.787v316.646c0 2.328 0 4.63 0 6.904-0.012 72.801-0.019 117.226 12.008 154.24 24.268 74.689 82.825 133.246 157.514 157.514 37.014 12.027 81.438 12.020 154.24 12.008zM512 799.999c-81.903 0-115.267-0.395-141.367-8.875-55.205-17.937-98.486-61.219-116.423-116.423-8.48-26.1-8.875-59.463-8.875-141.367v-315.196c0-41.451 0.024-70.618 1.725-92.211 1.753-22.251 5.017-30.694 7.394-34.219 11.14-16.516 30.555-25.446 50.344-23.155 4.221 0.486 12.759 3.507 30.792 16.653 17.503 12.766 39.665 31.727 71.136 58.705 1.431 1.225 2.841 2.436 4.233 3.631 23.132 19.861 41.167 35.354 61.954 42.697 25.293 8.939 52.885 8.939 78.178 0 20.787-7.343 38.822-22.835 61.952-42.697 1.391-1.195 2.803-2.406 4.233-3.631 31.471-26.978 53.636-45.939 71.138-58.705 18.031-13.146 26.569-16.166 30.793-16.653 19.789-2.291 39.202 6.639 50.342 23.155 2.377 3.524 5.641 11.968 7.394 34.219 1.702 21.594 1.724 50.761 1.724 92.211v315.196c0 81.904-0.393 115.267-8.875 141.367-17.937 55.205-61.218 98.486-116.42 116.423-26.103 8.48-59.465 8.875-141.372 8.875z" />
<glyph unicode="&#xe917;" glyph-name="buy" horiz-adv-x="1271" d="M47.084 926.538c14.051 4.062 28.734-4.036 32.795-18.087l51.772-179.105h874.022c51.62 0 92.492 0.001 124.299-3.356 32.274-3.406 59.551-10.601 81.224-28.29 9.717-7.932 18.171-17.165 25.010-27.463 15.826-23.842 17.652-50.627 13.778-79.921-3.722-28.167-13.39-63.050-25.275-105.935l-0.975-3.528c-19.678-71.002-35.042-126.453-52.602-169.938-17.973-44.502-39.029-78.594-71.267-105.963-15.487-13.15-32.514-24.756-50.766-34.636-37.598-20.363-79.699-29.848-132.781-34.491-52.436-4.587-117.891-4.587-202.794-4.587h-30.275c-98.135 0-173.783 0-233.896 6.042-60.875 6.119-108.623 18.64-149.938 45.515-3.646 2.373-7.231 4.816-10.753 7.334-40.267 28.785-66.148 66.864-87.695 117.771-21.021 49.657-38.78 113.745-61.522 195.814l-53.189 191.937-57.261 198.093c-4.062 14.051 4.036 28.733 18.087 32.795zM146.559 676.38l43.426-156.707c23.354-84.275 40.242-145.020 59.759-191.128 19.145-45.229 39.895-74.007 69.721-95.327 2.888-2.062 5.833-4.071 8.834-6.024 31.358-20.399 69.649-31.514 126.353-37.214 57.157-5.745 130.154-5.777 230.107-5.777h27.475c86.464 0 149.61 0.025 199.472 4.386 49.484 4.326 83.512 12.779 112.177 28.301 15.12 8.188 29.096 17.733 41.705 28.435 23.552 19.996 40.413 45.755 56.433 85.423 16.299 40.367 30.904 92.912 51.108 165.817 12.556 45.317 21.169 76.623 24.35 100.691 3.086 23.365 0.314 35.079-5.399 43.684-3.778 5.688-8.591 11.007-14.375 15.726-9.792 7.991-24.728 13.636-53.29 16.65-28.7 3.029-66.768 3.064-120.334 3.064h-857.522zM517.886 336.13c0 14.626 11.857 26.483 26.483 26.483h326.621c14.626 0 26.483-11.857 26.483-26.483s-11.857-26.483-26.483-26.483h-326.621c-14.626 0-26.483 11.857-26.483 26.483zM570.156 9.061c0-27.369-25.656-49.558-57.302-49.558-31.649 0-57.302 22.189-57.302 49.558 0 27.373 25.653 49.562 57.302 49.562 31.645 0 57.302-22.189 57.302-49.562zM913.966 9.061c0-27.369-25.653-49.558-57.302-49.558-31.645 0-57.302 22.189-57.302 49.558 0 27.373 25.656 49.562 57.302 49.562 31.649 0 57.302-22.189 57.302-49.562z" />
<glyph unicode="&#xe918;" glyph-name="left" d="M620.062 683.86c12.442-12.553 12.352-32.814-0.201-45.254l-75.221-74.552c-30.528-30.257-51.469-51.081-65.638-68.723-13.764-17.139-18.487-28.147-19.742-38.007-0.789-6.191-0.789-12.454 0-18.645 1.254-9.86 5.978-20.868 19.742-38.007 14.17-17.643 35.11-38.468 65.638-68.723l75.221-74.551c12.553-12.442 12.642-32.704 0.201-45.257s-32.704-12.642-45.257-0.201l-76.574 75.895c-28.843 28.582-52.412 51.947-69.129 72.764-17.385 21.645-29.969 43.614-33.331 69.986-1.474 11.567-1.474 23.266 0 34.833 3.361 26.372 15.945 48.341 33.331 69.988 16.717 20.816 40.286 44.178 69.129 72.762l76.574 75.895c12.553 12.441 32.815 12.351 45.257-0.202z" />
<glyph unicode="&#xe919;" glyph-name="message" d="M681.92 745.821c34.253-34.297 59.396-74.217 75.452-116.793-117.901 44.94-256.32 19.877-351.311-75.233-91.657-91.774-118.161-224.007-79.58-339.203-1.171 0.695-2.34 1.404-3.506 2.125-0.593 0.367-1.191 0.738-1.795 1.114-5.926 3.682-12.297 7.637-18.051 9.92v0c-10.224 4.053-19.423 5.444-30.391 4.595-6.152-0.474-12.506-2.133-18.079-3.593-0.523-0.137-1.039-0.269-1.548-0.401-23.222-6.029-39.078-10.125-51.209-12.416-12.28-2.317-17.121-2.001-19.121-1.596-15.885 3.238-28.332 15.676-31.576 31.633-0.412 2.027-0.722 6.891 1.594 19.191 2.289 12.151 6.382 28.032 12.4 51.281 0.131 0.508 0.266 1.024 0.402 1.545 1.456 5.589 3.114 11.947 3.587 18.116 0.841 10.978-0.568 20.237-4.637 30.468v0c-2.294 5.764-6.25 12.117-9.924 18.014-0.372 0.597-0.742 1.19-1.107 1.779-38.532 62.080-43.4 131.264-28.174 196.132 15.337 65.337 50.738 124.447 89.564 163.321 128.965 129.128 338.043 129.128 467.007 0zM835.661 586.198c-14.289 75.049-50.462 146.781-108.459 204.85-153.963 154.159-403.607 154.159-557.573 0-46.967-47.027-88.447-116.639-106.587-193.923-18.25-77.752-13.19-165.091 36.103-244.51v0c2.524-4.066 4.085-6.583 5.187-8.469 0.509-0.87 0.776-1.365 0.889-1.579 0.102-0.273 0.166-0.461 0.203-0.58 0-0.141-0.006-0.38-0.030-0.742-0.030-0.166-0.101-0.538-0.244-1.169-0.365-1.617-0.919-3.776-1.908-7.59l-0.287-1.109c-5.661-21.867-10.314-39.842-13.050-54.366-2.753-14.618-4.346-29.372-1.417-43.78 8.351-41.088 40.428-73.229 81.515-81.6 14.413-2.935 29.169-1.34 43.773 1.421 14.509 2.739 32.464 7.398 54.304 13.065l1.107 0.29c3.811 0.986 5.967 1.545 7.579 1.907 0.627 0.145 0.993 0.213 1.163 0.243 0.335 0.026 0.563 0.030 0.706 0.034 0.118-0.038 0.296-0.102 0.544-0.192 0.216-0.115 0.716-0.384 1.592-0.896 1.899-1.109 4.439-2.675 8.527-5.205v0c26.45-16.367 53.979-27.806 81.866-35.051 10.346-14.409 21.98-28.164 34.895-41.092 38.053-38.106 96.177-72.683 160.92-88.192 65.19-15.612 139.465-12.343 206.673 29.244 3.26 2.018 5.252 3.247 6.72 4.109 1.173-0.282 2.782-0.695 5.453-1.387l1.075-0.282c17.847-4.629 32.789-8.508 44.928-10.803 12.233-2.308 25.259-3.793 38.225-1.152 36.058 7.347 64.209 35.558 71.535 71.607 2.633 12.958 1.156 25.984-1.152 38.225-2.287 12.151-6.161 27.11-10.786 44.979l-0.277 1.075c-0.7 2.705-1.118 4.322-1.395 5.5 0.858 1.459 2.082 3.435 4.1 6.69 41.545 66.931 45.726 140.459 30.43 205.628-15.185 64.7-49.882 122.953-89.28 162.4-11.87 11.886-24.435 22.689-37.568 32.403zM788.454 541.218c13.905-9.408 27.14-20.283 39.492-32.648 31.258-31.296 59.874-79.049 72.256-131.802 12.271-52.284 8.282-107.657-22.502-157.252-0.303-0.486-0.614-0.986-0.93-1.498-2.957-4.736-6.511-10.436-8.602-15.693-3.669-9.225-4.962-17.711-4.203-27.61 0.431-5.619 1.933-11.371 3.11-15.872 0.115-0.448 0.23-0.883 0.337-1.306 4.979-19.221 8.29-32.081 10.129-41.86 1.869-9.924 1.446-13.056 1.331-13.632-2.223-10.927-10.739-19.43-21.598-21.645-0.55-0.111-3.665-0.538-13.572 1.331-9.758 1.843-22.601 5.158-41.801 10.142-0.422 0.107-0.858 0.222-1.306 0.337-4.489 1.178-10.236 2.684-15.842 3.119-9.886 0.764-18.325-0.512-27.541-4.169-5.248-2.082-10.965-5.636-15.727-8.597-0.516-0.32-1.020-0.631-1.506-0.934-49.429-30.583-105.327-34.065-158.093-21.427-53.214 12.745-100.83 41.425-130.543 71.177-13.12 13.133-24.563 27.268-34.349 42.15-68.048 103.492-56.556 244.019 34.349 335.040 91.657 91.772 233.553 102.681 337.109 32.648zM554.667 320c0-23.565-19.102-42.667-42.667-42.667s-42.667 19.102-42.667 42.667c0 23.565 19.102 42.667 42.667 42.667s42.667-19.102 42.667-42.667zM682.667 320c0-23.565-19.102-42.667-42.667-42.667s-42.667 19.102-42.667 42.667c0 23.565 19.102 42.667 42.667 42.667s42.667-19.102 42.667-42.667zM810.667 320c0-23.565-19.102-42.667-42.667-42.667s-42.667 19.102-42.667 42.667c0 23.565 19.102 42.667 42.667 42.667s42.667-19.102 42.667-42.667z" />
<glyph unicode="&#xe91a;" glyph-name="profile-circle" d="M512 842.667c-217.968 0-394.667-176.698-394.667-394.667 0-93.645 32.585-179.639 87.087-247.322 33.879 64.589 101.561 108.655 179.58 108.655h256c78.020 0 145.702-44.066 179.58-108.655 54.502 67.682 87.087 153.677 87.087 247.322 0 217.968-176.7 394.667-394.667 394.667zM771.546 150.677c-18.389 55.010-70.366 94.656-131.546 94.656h-256c-61.178 0-113.156-39.646-131.547-94.656 69.404-60.642 160.16-97.344 259.547-97.344s190.144 36.702 259.546 97.344zM53.333 448c0 253.315 205.352 458.667 458.667 458.667s458.667-205.352 458.667-458.667c0-130.069-54.182-247.535-141.12-330.97-82.381-79.057-194.317-127.697-317.547-127.697s-235.165 48.64-317.546 127.697c-86.938 83.435-141.12 200.9-141.12 330.97zM512 714.667c-76.582 0-138.667-62.083-138.667-138.667 0-76.582 62.084-138.667 138.667-138.667s138.667 62.084 138.667 138.667c0 76.584-62.084 138.667-138.667 138.667zM309.333 576c0 111.93 90.737 202.667 202.667 202.667 111.932 0 202.667-90.737 202.667-202.667 0-111.932-90.735-202.667-202.667-202.667-111.93 0-202.667 90.735-202.667 202.667z" />
<glyph unicode="&#xe91b;" glyph-name="profile-octagon" d="M499.831 916.032c8.107 0.402 16.226 0.402 24.329 0 31.292-1.553 60.1-10.645 92.211-25.548 31.262-14.508 67.593-35.482 113.549-62.016l2.603-1.502c45.961-26.535 82.291-47.508 110.485-67.329 28.962-20.36 51.238-40.762 68.228-67.083 4.403-6.818 8.465-13.851 12.169-21.071 14.298-27.875 20.83-57.368 23.979-92.631 3.068-34.328 3.068-76.276 3.068-129.345v-3.004c0-53.073 0-95.019-3.068-129.348-3.149-35.26-9.681-64.755-23.979-92.629-3.703-7.223-7.765-14.255-12.169-21.073-20.702-32.077-49.348-55.45-88.311-80.559-24.717-15.932-54.848-33.327-91.063-54.234l-1.937-1.122c-45.961-26.534-82.287-47.509-113.553-62.016-32.111-14.903-60.919-23.991-92.211-25.549-8.102-0.401-16.222-0.401-24.329 0-31.292 1.557-60.096 10.645-92.211 25.549-31.263 14.507-67.591 35.482-113.551 62.016l-1.912 1.105c-35.878 20.715-65.78 37.978-90.357 53.777-39.34 25.293-68.214 48.759-89.046 81.033-4.401 6.818-8.462 13.85-12.166 21.073-14.3 27.874-20.829 57.37-23.98 92.629-3.067 34.33-3.067 76.275-3.067 129.344v3.008c0 53.069 0 95.017 3.067 129.345 3.151 35.262 9.681 64.756 23.98 92.631 3.704 7.22 7.764 14.253 12.166 21.071 16.99 26.321 39.267 46.723 68.23 67.083 28.196 19.82 64.524 40.794 110.483 67.328l2.603 1.503c45.959 26.535 82.287 47.509 113.55 62.016 32.115 14.903 60.919 23.994 92.211 25.548zM520.99 852.11c-5.995 0.298-11.994 0.298-17.984 0-20.177-1.001-40.631-6.772-68.446-19.68-28.369-13.165-62.244-32.689-109.791-60.14s-81.392-47.026-106.979-65.012c-25.085-17.634-40.311-32.464-51.265-49.434-3.253-5.039-6.254-10.237-8.992-15.574-9.219-17.972-14.449-38.573-17.178-69.114-2.784-31.152-2.813-70.247-2.813-125.151s0.029-94.003 2.813-125.154c2.729-30.541 7.959-51.14 17.178-69.116 2.738-5.333 5.739-10.534 8.992-15.573 8.739-13.538 20.155-25.673 37.121-38.967 33.611 65.387 101.724 110.144 180.35 110.144h256c78.626 0 146.739-44.757 180.352-110.144 16.964 13.299 28.382 25.434 37.12 38.967 3.251 5.039 6.255 10.24 8.99 15.573 9.22 17.975 14.451 38.575 17.182 69.116 2.782 31.151 2.812 70.251 2.812 125.154s-0.030 93.999-2.812 125.151c-2.731 30.542-7.962 51.142-17.182 69.114-2.735 5.337-5.739 10.535-8.99 15.574-10.953 16.97-26.18 31.8-51.264 49.434-25.587 17.987-59.435 37.561-106.978 65.012-47.548 27.451-81.425 46.975-109.794 60.14-27.814 12.908-48.269 18.679-68.442 19.68zM766.656 163.217c-21.649 48.418-70.251 82.121-126.66 82.121h-256c-56.409 0-105.013-33.707-126.66-82.121 18.977-11.52 41.138-24.32 67.433-39.501 47.547-27.452 81.422-46.976 109.791-60.143 27.814-12.907 48.269-18.675 68.446-19.678 5.99-0.299 11.989-0.299 17.984 0 20.173 1.003 40.627 6.771 68.442 19.678 28.369 13.167 62.246 32.691 109.794 60.143 26.295 15.181 48.457 27.981 67.43 39.501zM511.996 714.67c-76.582 0-138.666-62.083-138.666-138.667s62.084-138.665 138.666-138.665 138.667 62.080 138.667 138.665c0 76.583-62.084 138.667-138.667 138.667zM309.329 576.003c0 111.93 90.737 202.667 202.666 202.667 111.932 0 202.667-90.737 202.667-202.667s-90.735-202.665-202.667-202.665c-111.929 0-202.666 90.735-202.666 202.665z" />
<glyph unicode="&#xe91c;" glyph-name="rght" d="M403.939 683.86c12.441 12.553 32.704 12.643 45.256 0.202l76.574-75.895c28.843-28.585 52.412-51.947 69.129-72.762 17.387-21.647 29.969-43.616 33.331-69.988 1.472-11.567 1.472-23.266 0-34.833-3.362-26.372-15.945-48.341-33.331-69.986-16.717-20.817-40.286-44.181-69.129-72.764l-76.574-75.895c-12.553-12.442-32.815-12.352-45.256 0.201s-12.351 32.815 0.202 45.257l75.22 74.551c30.528 30.255 51.469 51.081 65.638 68.723 13.764 17.139 18.487 28.147 19.742 38.007 0.789 6.191 0.789 12.454 0 18.645-1.254 9.86-5.978 20.868-19.742 38.007-14.17 17.643-35.11 38.467-65.638 68.723l-75.22 74.552c-12.553 12.441-12.643 32.702-0.202 45.254z" />
<glyph unicode="&#xe91d;" glyph-name="show" d="M271.007 721.249c67.052 54.9 149.646 100.084 240.993 100.084 91.349 0 173.943-45.184 240.994-100.084 67.418-55.2 122.543-123.005 159.586-174.604 1.024-1.429 2.044-2.845 3.055-4.249 22.302-30.985 40.657-56.495 40.657-94.396s-18.355-63.411-40.657-94.396c-1.011-1.404-2.031-2.82-3.055-4.25-37.043-51.601-92.169-119.403-159.586-174.605-67.051-54.899-149.645-100.083-240.994-100.083-91.347 0-173.941 45.184-240.993 100.083-67.417 55.202-122.543 123.004-159.587 174.605-1.026 1.429-2.045 2.846-3.055 4.25-22.3 30.985-40.657 56.495-40.657 94.396s18.357 63.411 40.657 94.396c1.011 1.405 2.030 2.82 3.055 4.249 37.043 51.599 92.169 119.405 159.587 174.604zM311.552 671.731c-61.377-50.254-112.759-113.124-148.142-162.41-26.622-37.082-31.702-46.025-31.702-61.321s5.080-24.239 31.702-61.321c35.382-49.284 86.765-112.158 148.142-162.411 61.743-50.551 130.227-85.602 200.448-85.602s138.705 35.051 200.448 85.602c61.376 50.253 112.759 113.126 148.143 162.411 26.62 37.082 31.701 46.025 31.701 61.321s-5.082 24.239-31.701 61.321c-35.383 49.286-86.767 112.156-148.143 162.41-61.743 50.554-130.227 85.603-200.448 85.603s-138.705-35.049-200.448-85.603zM352 448c0 88.366 71.634 160 160 160s160-71.634 160-160c0-88.367-71.633-160-160-160-88.365 0-160 71.633-160 160zM512 544c-53.018 0-96-42.982-96-96s42.982-96 96-96c53.018 0 96 42.982 96 96s-42.982 96-96 96z" />
<glyph unicode="&#xe91e;" glyph-name="tick" d="M891.14 706.614c25.064-20.887 28.451-58.14 7.57-83.205l-232.803-279.36c-43.18-51.819-79.604-95.533-113.022-125.709-35.351-31.922-75.355-56.248-126.229-56.248s-90.878 24.326-126.229 56.248c-33.418 30.176-69.842 73.889-113.021 125.709-0.929 1.115-1.862 2.235-2.798 3.358l-59.335 71.202c-20.888 25.065-17.501 62.317 7.563 83.205s62.317 17.501 83.205-7.564l59.335-71.203c46.735-56.081 77.815-93.156 104.238-117.016 25.208-22.763 37.964-25.783 47.043-25.783s21.835 3.020 47.043 25.783c26.422 23.859 57.503 60.934 104.237 117.016l230.001 276.003c20.89 25.065 58.14 28.451 83.204 7.564z" />
<glyph unicode="&#xe91f;" glyph-name="wallet" d="M737.34 840.062c16.994-2.382 23.607-6.372 27.913-10.862 3.985-4.152 7.578-10.421 9.997-24.296 1.617-9.277 2.496-20.615 2.965-35.12-17.613 3.223-36.617 5.21-57.318 6.487-38.827 2.396-86.012 2.396-143.902 2.396h-130.671c-68.41 0-122.040 0-164.885-4.073-43.671-4.152-79.43-12.762-110.953-32.079-16.993-10.414-32.594-22.822-46.492-36.914 4.683 31.033 12.352 51.944 24.055 68.736 9.881 14.179 21.802 26.592 35.298 36.815 18.676 14.147 42.691 22.543 81.859 26.967 39.849 4.501 91.41 4.549 163.732 4.549h229.065c36.937 0 61.282-0.074 79.339-2.605zM842.62 748.687c3.703-1.931 7.334-3.986 10.906-6.173 33.011-20.229 60.766-47.984 80.994-80.995 22.272-36.346 30.37-78.469 33.715-132.009 2.436-38.95 2.436-86.323 2.436-144.512v-1.203c0-33.365 0-63.087-0.439-89.54-1.365-82.257-6.69-140.416-35.712-187.776-20.228-33.011-47.983-60.766-80.994-80.994-31.526-19.315-67.285-27.925-110.955-32.077-42.846-4.075-96.478-4.075-164.885-4.075h-131.362c-68.41 0-122.040 0-164.885 4.075-43.671 4.151-79.43 12.762-110.953 32.077-33.011 20.228-60.766 47.983-80.995 80.994-19.317 31.522-27.927 67.285-32.079 110.955-4.074 42.846-4.073 96.478-4.073 164.885v3.362c0 6.485 0 12.843 0.003 19.072-0.562 21.082-0.39 44.655-0.204 70.071 0.098 13.393 0.2 27.302 0.2 41.63v1.847c0 73.056-0.001 130.393 4.728 175.898 4.823 46.413 14.853 84.269 37.474 116.728 13.667 19.611 30.248 36.912 49.163 51.239 31.501 23.861 68.364 34.468 113.319 39.546 43.858 4.954 99.033 4.954 168.927 4.953h233.301c34.074 0.001 62.95 0.003 85.973-3.224 24.593-3.447 47.159-11.115 65.216-29.94 15.676-16.34 23.1-36.053 26.859-57.608 3.302-18.942 4.1-41.453 4.322-67.207zM287.496 710.88c-38.987-3.707-63.794-10.816-83.571-22.935-24.399-14.952-44.914-35.466-59.866-59.866-12.119-19.777-19.228-44.585-22.935-83.572-3.752-39.463-3.786-90.057-3.786-160.508s0.034-121.045 3.786-160.508c3.707-38.989 10.816-63.795 22.935-83.571 14.952-24.401 35.467-44.915 59.866-59.866 19.777-12.122 44.585-19.23 83.571-22.938 39.463-3.75 90.056-3.785 160.509-3.785h128c70.451 0 121.045 0.034 160.508 3.785 38.989 3.708 63.795 10.816 83.571 22.938 24.401 14.95 44.915 35.465 59.866 59.866 16.149 26.351 22.95 60.561 25.412 122.867h-238.204c-81.941 0-148.365 66.423-148.365 148.361 0 81.941 66.423 148.366 148.365 148.366h234.035c-4.015 30.523-10.722 51.394-21.244 68.565-14.95 24.399-35.465 44.913-59.866 59.866-6.383 3.912-13.218 7.257-20.774 10.126-20.169 7.66-45.756 12.062-82.355 14.321-36.634 2.26-81.873 2.275-140.949 2.275h-128c-70.453 0-121.045-0.034-160.509-3.786zM905.715 495.514h-238.558c-46.596 0-84.365-37.769-84.365-84.365 0-46.592 37.769-84.361 84.365-84.361h239.411c0.102 17.574 0.102 36.565 0.102 57.212 0 44.186-0.009 80.627-0.956 111.514zM635.157 411.149c0-17.673 14.323-32 32-32h116.361c17.673 0 32 14.327 32 32 0 17.677-14.327 32-32 32h-116.361c-17.677 0-32-14.323-32-32z" />
<glyph unicode="&#xe920;" glyph-name="calender-o" d="M352 362.667c0 17.673 14.327 32 32 32h256c17.673 0 32-14.327 32-32s-14.327-32-32-32h-256c-17.673 0-32 14.327-32 32zM384 906.667c17.673 0 32-14.327 32-32v-53.786c28.553 0.453 60.279 0.453 95.526 0.453h0.947c35.247 0 66.974 0 95.526-0.453v53.786c0 17.673 14.327 32 32 32s32-14.327 32-32v-56.046c64.508-4.044 114.065-14.497 154.871-44.142 20.826-15.132 39.142-33.448 54.272-54.275 34.214-47.090 42.863-105.841 45.602-185.775 1.254-36.573 1.254-79.129 1.254-128.626v-0.939c0-49.498 0-92.053-1.254-128.627-2.739-79.932-11.388-138.684-45.602-185.775-15.13-20.826-33.446-39.142-54.272-54.272-47.091-34.214-105.843-42.863-185.775-45.602-36.578-1.254-79.134-1.254-128.636-1.254h-2.394c-78.357 0-139.78 0-188.511 5.278-49.73 5.389-90.023 16.58-124.426 41.579-20.828 15.13-39.144 33.446-54.276 54.272-24.995 34.406-36.187 74.697-41.575 124.429-5.28 48.73-5.28 110.153-5.279 188.514v2.402c0 49.493 0 92.049 1.253 128.622 2.739 79.934 11.389 138.685 45.601 185.775 15.132 20.827 33.448 39.143 54.276 54.275 40.803 29.645 90.361 40.097 154.87 44.142v56.046c0 17.673 14.327 32 32 32zM352 754.464c-58.114-3.997-91.658-13.167-117.252-31.762-15.394-11.185-28.932-24.722-40.116-40.116-18.595-25.594-27.766-59.138-31.762-117.252h698.259c-3.994 58.114-13.167 91.658-31.761 117.252-11.183 15.394-24.721 28.932-40.115 40.116-25.596 18.595-59.136 27.766-117.252 31.762v-7.797c0-17.673-14.327-32-32-32s-32 14.327-32 32v10.206c-28.143 0.458-59.836 0.46-96 0.46s-67.857-0.002-96-0.46v-10.206c0-17.673-14.327-32-32-32s-32 14.327-32 32v7.797zM863.539 501.333h-703.079c-0.458-28.143-0.46-59.836-0.46-96 0-80.708 0.044-138.667 4.907-183.552 4.798-44.284 13.977-72.026 29.725-93.7 11.185-15.394 24.722-28.932 40.116-40.115 21.675-15.748 49.417-24.926 93.702-29.726 44.883-4.864 102.842-4.907 183.55-4.907 36.194 0 67.917 0.004 96.077 0.461 0.188 20.254 0.819 35.162 2.944 48.585 16.627 104.977 98.957 187.307 203.934 203.934 13.423 2.125 28.331 2.756 48.585 2.944 0.461 28.16 0.461 59.883 0.461 96.077 0 36.164 0 67.857-0.461 96zM861.124 245.214c-17.28-0.201-27.409-0.73-36.156-2.112-77.594-12.292-138.445-73.143-150.737-150.737-1.382-8.747-1.911-18.876-2.112-36.156 58.039 4.002 91.554 13.175 117.133 31.757 15.394 11.183 28.932 24.721 40.115 40.115 18.581 25.579 27.755 59.093 31.757 117.133z" />
<glyph unicode="&#xe922;" glyph-name="close-circle" d="M625.135 505.532c12.497 12.493 12.497 32.756 0 45.253-12.493 12.497-32.755 12.497-45.252 0l-67.883-67.883-67.883 67.883c-12.497 12.497-32.758 12.497-45.254 0s-12.497-32.76 0-45.257l67.881-67.878-67.881-67.883c-12.497-12.497-12.497-32.759 0-45.257s32.757-12.497 45.254 0l67.883 67.883 67.883-67.883c12.497-12.497 32.759-12.497 45.257 0 12.493 12.497 12.493 32.759 0 45.257l-67.883 67.883 67.878 67.883zM512 906.667c-253.315 0-458.667-205.352-458.667-458.667s205.352-458.667 458.667-458.667c253.316 0 458.667 205.35 458.667 458.667 0 253.315-205.35 458.667-458.667 458.667zM117.333 448c0 217.968 176.698 394.667 394.667 394.667 217.967 0 394.667-176.698 394.667-394.667 0-217.967-176.7-394.667-394.667-394.667-217.968 0-394.667 176.7-394.667 394.667z" />
<glyph unicode="&#xe923;" glyph-name="document-align-right" d="M554.667 650.667c-17.673 0-32-14.327-32-32s14.327-32 32-32h128c17.673 0 32 14.327 32 32s-14.327 32-32 32h-128zM341.333 480c-17.673 0-32-14.327-32-32s14.327-32 32-32h341.333c17.673 0 32 14.327 32 32s-14.327 32-32 32h-341.333zM341.333 309.333c-17.673 0-32-14.327-32-32s14.327-32 32-32h341.333c17.673 0 32 14.327 32 32s-14.327 32-32 32h-341.333zM702.443 901.388c-48.73 5.28-110.153 5.28-188.514 5.279h-3.857c-78.362 0-139.784 0-188.515-5.279-49.73-5.388-90.023-16.58-124.426-41.575-20.828-15.132-39.144-33.448-54.276-54.276-24.995-34.403-36.187-74.697-41.575-124.426-5.28-48.731-5.28-110.154-5.279-188.515v-89.19c0-78.362 0-139.785 5.279-188.514 5.388-49.732 16.58-90.022 41.575-124.429 15.132-20.826 33.448-39.142 54.276-54.272 34.403-24.998 74.697-36.19 124.426-41.579 48.73-5.278 110.153-5.278 188.511-5.278h3.866c78.357 0 139.78 0 188.51 5.278 49.732 5.389 90.022 16.58 124.429 41.579 20.826 15.13 39.142 33.446 54.272 54.272 24.998 34.406 36.19 74.697 41.579 124.429 5.278 48.73 5.278 110.153 5.278 188.51v89.199c0 78.356 0 139.781-5.278 188.511-5.389 49.73-16.58 90.023-41.579 124.426-15.13 20.828-33.446 39.144-54.272 54.276-34.406 24.995-74.697 36.187-124.429 41.575zM234.748 808.035c21.675 15.748 49.417 24.927 93.702 29.725 44.883 4.863 102.842 4.907 183.55 4.907s138.667-0.044 183.552-4.907c44.284-4.798 72.026-13.977 93.7-29.725 15.394-11.185 28.932-24.722 40.115-40.116 15.748-21.675 24.926-49.417 29.726-93.702 4.864-44.883 4.907-102.843 4.907-183.55v-85.333c0-80.708-0.043-138.667-4.907-183.552-4.8-44.284-13.978-72.026-29.726-93.7-11.183-15.394-24.721-28.932-40.115-40.115-21.675-15.748-49.417-24.926-93.7-29.726-44.885-4.864-102.844-4.907-183.552-4.907s-138.667 0.043-183.55 4.907c-44.284 4.8-72.026 13.978-93.702 29.726-15.394 11.183-28.932 24.721-40.116 40.115-15.748 21.675-24.927 49.417-29.725 93.7-4.863 44.885-4.907 102.844-4.907 183.552v85.333c0 80.707 0.044 138.667 4.907 183.55 4.798 44.284 13.977 72.026 29.725 93.702 11.185 15.394 24.722 28.932 40.116 40.116z" />
<glyph unicode="&#xe924;" glyph-name="edit" d="M595.341 775.445c-33.195 19.168-60.881 35.153-84.565 44.887-24.994 10.274-49.899 15.505-76.446 8.392s-45.5-24.096-62.012-45.492c-15.644-20.271-31.626-47.956-50.793-81.156l-165.36-286.405c-11.117-19.221-20.198-34.923-24.788-51.78-0.656-2.406-1.22-4.838-1.685-7.309-3.722-19.755-0.685-39.586 3.156-64.67l1.035-6.78c7.091-46.566 12.935-84.945 21.75-114.052 9.219-30.438 23.391-56.785 51.264-72.879s57.776-15.194 88.748-7.957c29.613 6.921 65.775 21.047 109.646 38.191l6.389 2.492c23.644 9.216 42.336 16.503 57.585 29.602 15.245 13.103 25.263 30.485 37.935 52.471l165.355 286.409c19.17 33.199 35.153 60.882 44.885 84.566 10.274 24.998 15.505 49.903 8.393 76.449s-24.094 45.499-45.491 62.010c-20.271 15.644-47.957 31.626-81.156 50.793l-3.844 2.219zM359.842 640.442l240.18-138.665-146.069-252.996c-15.91-27.563-20.463-34.611-26.398-39.71-5.933-5.099-13.585-8.533-43.229-20.117-46.783-18.278-78.645-30.639-103.241-36.386-23.76-5.551-34.541-3.354-42.187 1.058-7.645 4.416-14.939 12.655-22.011 36.006-7.322 24.175-12.545 57.95-20.108 107.601-4.792 31.467-5.642 39.812-4.193 47.501s5.277 15.151 21.19 42.714l146.067 252.995zM658.244 608.304c-5.653-13.757-14.302-29.934-26.291-51.065l-240.044 138.589c12.304 20.951 21.99 36.528 31.077 48.303 12.138 15.728 20.313 20.738 27.907 22.773s17.182 1.784 35.554-5.768c19.234-7.905 43.196-21.661 78.818-42.226 35.618-20.566 59.511-34.439 75.977-47.144 15.727-12.137 20.736-20.312 22.771-27.907s1.783-17.18-5.769-35.555zM537.186 112.905c0 17.673 14.327 32 32 32h256c17.673 0 32-14.327 32-32s-14.327-32-32-32h-256c-17.673 0-32 14.327-32 32z" />
<glyph unicode="&#xe925;" glyph-name="filter" d="M276.158 864c-99.499 0-180.158-80.66-180.158-180.158 0-50.499 21.195-98.681 58.421-132.804l138.777-127.212c37.469-34.347 58.802-82.842 58.802-133.67v-183.488c0-79.424 90.108-125.308 154.338-78.592l82.829 60.237c38.639 28.1 61.5 72.994 61.5 120.772v75.972c0 53.338 23.484 103.974 64.201 138.428l150.204 127.093c39.91 33.771 62.929 83.402 62.929 135.684 0 98.163-79.578 177.74-177.741 177.74h-474.101zM160 683.842c0 64.152 52.006 116.158 116.158 116.158h474.101c62.818 0 113.741-50.923 113.741-113.74 0-33.457-14.729-65.216-40.269-86.827l-150.204-127.092c-55.087-46.613-86.861-115.119-86.861-187.285v-75.972c0-27.302-13.065-52.954-35.145-69.013l-82.825-60.237c-21.931-15.953-52.698-0.286-52.698 26.833v183.488c0 68.77-28.863 134.379-79.555 180.847l-138.777 127.214c-24.002 22.001-37.667 53.067-37.667 85.626z" />
<glyph unicode="&#xe926;" glyph-name="call" d="M755.437-40.727c-56.86 0.489-113.040 12.358-165.236 34.909-59.169 25.498-115.228 57.67-167.1 95.884-55.674 41.579-108.111 87.324-156.858 136.844-48.441 48.659-93.099 100.938-133.585 156.393-38.168 51.153-70.486 106.422-96.349 164.771-23.103 52.237-35.45 108.591-36.305 165.702-0.175 35.185 6.299 70.085 19.084 102.865 14.264 34.474 36.050 65.325 63.767 90.298 15.535 16.445 34.204 29.612 54.909 38.725s43.025 13.988 65.644 14.337c18.172 0.013 36.126-3.959 52.596-11.636 18.586-8.215 34.651-21.227 46.545-37.702l106.124-152.204c9.088-12.192 16.594-25.485 22.342-39.564 5.899-13.028 9.068-27.126 9.309-41.425-0.172-18.11-5.325-35.824-14.895-51.2-8.555-14.54-19.046-27.85-31.185-39.564l-32.116-33.978v-3.258c11.268-18.25 24.035-35.532 38.167-51.665 20.48-23.273 42.356-46.545 66.096-71.68 23.738-25.135 50.269-46.545 71.68-66.095 17.487-15.276 36.52-28.691 56.785-40.029l33.978 33.513c12.335 12.805 26.442 23.775 41.891 32.582 13.987 8.234 29.761 12.958 45.973 13.768s32.377-2.318 47.118-9.114c13.61-5.725 26.563-12.902 38.633-21.411l154.531-109.847c16.5-10.868 29.58-26.205 37.702-44.218 6.637-15.933 10.119-33.005 10.24-50.269-0.116-22.7-5.199-45.103-14.895-65.629-9.607-20.345-22.156-39.163-37.236-55.855-24.469-27.871-55.054-49.697-89.367-63.767-34.178-14.262-70.959-21.239-107.985-20.48zM203.407 890.182c-13.974-0.214-27.755-3.3-40.486-9.065s-24.141-14.087-33.521-24.448c-20.113-18.223-35.999-40.622-46.545-65.629-9.776-24.576-14.677-50.818-14.429-77.265 0.771-48.135 11.218-95.623 30.72-139.636 23.355-53.717 52.71-104.62 87.505-151.738 39.112-52.866 82.215-102.661 128.931-148.945 46.279-45.833 95.91-88.152 148.48-126.604 47.599-35.077 98.962-64.74 153.136-88.436 33.038-16.896 69.111-27.038 106.11-29.836 37.004-2.797 74.193 1.806 109.396 13.545 24.483 10.529 46.275 26.438 63.767 46.545 9.923 12.297 18.074 25.926 24.204 40.495 5.46 11.162 8.322 23.412 8.378 35.84 0 8.038-1.745 15.979-5.12 23.273-2.802 5.883-7.354 10.761-13.033 13.964l-154.065 109.847c-8.145 5.469-16.705 10.291-25.6 14.429-4.361 3.286-9.672 5.064-15.127 5.064-5.46 0-10.771-1.778-15.127-5.064-10.026-5.548-19.13-12.614-26.996-20.945l-35.375-34.909c-8.862-8.49-19.945-14.308-31.967-16.775-12.023-2.472-24.497-1.499-35.989 2.811l-12.102 5.585c-23.85 12.991-46.178 28.602-66.56 46.545-22.342 19.084-46.547 41.425-75.87 69.818s-46.545 46.545-69.353 75.869c-17.485 20.41-33.065 42.378-46.545 65.629l-5.585 13.964c-2.318 7.387-3.572 15.066-3.724 22.807 0.122 7.945 1.832 15.785 5.030 23.059s7.818 13.836 13.588 19.297l34.909 36.305c8.036 7.787 15.071 16.542 20.945 26.065 3.175 4.682 4.951 10.171 5.12 15.825-0.313 5.152-1.575 10.201-3.724 14.895-3.927 9.096-8.927 17.691-14.895 25.6l-107.985 152.669c-4.354 6.257-10.299 11.238-17.222 14.429-7.321 3.294-15.245 5.037-23.273 5.12zM594.856 320l-7.447-31.651 12.567 32.582c-0.866 0.27-1.783 0.33-2.676 0.168s-1.731-0.54-2.444-1.098z" />
<glyph unicode="&#xe927;" glyph-name="location-tik" d="M664.917 598.589c11.089 13.761 8.922 33.906-4.838 44.995-13.764 11.089-33.907 8.922-44.996-4.84l-86.251-107.041c-17.711-21.978-28.885-35.725-38.187-44.412-4.369-4.079-7.159-5.897-8.764-6.699-1.195-0.597-1.621-0.593-1.852-0.593h-0.060c-0.23 0-0.657-0.004-1.852 0.593-1.604 0.802-4.395 2.62-8.764 6.699-9.301 8.687-20.476 22.434-38.187 44.412l-22.251 27.614c-11.089 13.762-31.234 15.928-44.995 4.84s-15.928-31.233-4.84-44.993l23.64-29.342c15.894-19.729 29.916-37.133 42.947-49.301 13.993-13.069 31.388-24.521 54.33-24.521s40.337 11.452 54.332 24.521c13.030 12.169 27.051 29.572 42.944 49.301l87.642 108.767zM512 949.333c-208.356 0-373.333-181.025-373.333-399.305 0-70.003 34.778-152.435 78.534-229.794 44.464-78.613 101.216-157.086 150.971-220.535l1.66-2.116c24.286-30.972 44.975-57.361 65.036-75.584 21.888-19.883 46.025-32.9 77.133-32.9s55.245 13.018 77.133 32.9c20.062 18.227 40.751 44.612 65.037 75.584l1.66 2.116c49.754 63.45 106.505 141.922 150.972 220.535 43.755 77.359 78.532 159.791 78.532 229.794 0 218.28-164.979 399.305-373.333 399.305zM202.667 550.029c0 187.434 140.663 335.305 309.333 335.305s309.333-147.87 309.333-335.305c0-52.331-27.29-122.355-70.242-198.285-42.24-74.679-96.832-150.332-145.626-212.553-26.406-33.677-43.797-55.676-59.366-69.82-14.199-12.898-23.68-16.273-34.099-16.273s-19.9 3.375-34.099 16.273c-15.569 14.144-32.96 36.143-59.367 69.82-48.794 62.221-103.386 137.873-145.627 212.553-42.95 75.93-70.24 145.954-70.24 198.285z" />
<glyph unicode="&#xe928;" glyph-name="add" d="M0 466.286c0 30.297 24.56 54.857 54.857 54.857h877.714c30.296 0 54.857-24.561 54.857-54.857s-24.561-54.857-54.857-54.857h-877.714c-30.297 0-54.857 24.561-54.857 54.857zM493.714 960c30.297 0 54.857-24.56 54.857-54.857v-877.714c0-30.296-24.561-54.857-54.857-54.857s-54.857 24.561-54.857 54.857v877.714c0 30.297 24.561 54.857 54.857 54.857z" />
<glyph unicode="&#xe929;" glyph-name="arrow-down" d="M151.456 600.794c12.497 12.497 32.758 12.497 45.255 0l278.186-278.187c20.356-20.356 53.854-20.356 74.21 0l278.187 278.187c12.497 12.497 32.759 12.497 45.257 0s12.497-32.758 0-45.255l-278.187-278.185c-45.35-45.35-119.373-45.35-164.723 0l-278.185 278.185c-12.497 12.497-12.497 32.758 0 45.255z" />
<glyph unicode="&#xe92a;" glyph-name="arrow-right" d="M593.041 729.627c12.497 12.497 32.755 12.497 45.252 0l258.987-258.988c6.003-5.999 9.374-14.14 9.374-22.626s-3.371-16.627-9.374-22.626l-258.987-258.987c-12.497-12.497-32.755-12.497-45.252 0s-12.497 32.759 0 45.252l236.356 236.361-236.356 236.36c-12.497 12.497-12.497 32.758 0 45.255zM117.333 448c0 17.673 14.327 32 32 32h718.080c17.673 0 32-14.327 32-32s-14.327-32-32-32h-718.080c-17.673 0-32 14.327-32 32z" />
<glyph unicode="&#xe92b;" glyph-name="arrow-up" d="M429.641 618.654c45.35 45.35 119.373 45.35 164.723 0l278.187-278.187c12.497-12.497 12.497-32.759 0-45.257-12.497-12.493-32.759-12.493-45.257 0l-278.187 278.188c-20.356 20.357-53.854 20.357-74.21 0l-278.186-278.188c-12.497-12.493-32.758-12.493-45.255 0-12.497 12.497-12.497 32.759 0 45.257l278.185 278.187z" />
<glyph unicode="&#xe92e;" glyph-name="discount-shape-o" d="M537.114 831.199c-13.956 13.957-37.218 13.957-51.174 0 0 0 0 0 0 0l-64.852-64.854c-9.385-9.385-21.58-16.434-32.879-21.119-11.282-4.678-24.828-8.306-37.963-8.306h-91.733c-19.874 0-36.267-16.393-36.267-36.265v-91.735c0-13.135-3.629-26.681-8.307-37.963-4.685-11.299-11.734-23.493-21.119-32.878 0 0 0 0 0 0l-64.853-64.855c-13.957-13.956-13.957-37.214 0-51.17l64.666-64.67c9.577-9.306 16.649-21.513 21.306-32.742 4.729-11.405 8.307-25.033 8.307-38.285v-91.729c0-19.874 16.396-36.271 36.267-36.271h91.733c13.135 0 26.68-3.627 37.963-8.307 11.299-4.685 23.493-11.733 32.879-21.116l64.852-64.858c13.956-13.956 37.218-13.956 51.174 0.004l64.853 64.853c9.382 9.382 21.577 16.431 32.879 21.116 11.281 4.681 24.823 8.307 37.961 8.307h91.733c19.87 0 36.267 16.397 36.267 36.271v91.729c0 13.137 3.627 26.684 8.307 37.965 4.685 11.298 11.733 23.492 21.12 32.875l64.853 64.858c13.956 13.956 13.956 37.214 0 51.17l-64.853 64.855c-9.387 9.385-16.435 21.578-21.12 32.878-4.681 11.282-8.307 24.828-8.307 37.963v91.735c0 19.873-16.393 36.265-36.267 36.265h-91.733c-13.137 0-26.679 3.628-37.961 8.306-11.302 4.685-23.497 11.733-32.879 21.118l-64.853 64.854zM440.687 876.454c38.95 38.95 102.729 38.95 141.679 0l64.853-64.854c1.711-1.708 5.943-4.686 12.139-7.253 6.208-2.575 11.221-3.426 13.449-3.426h91.733c55.219 0 100.267-45.046 100.267-100.265v-91.735c0-2.224 0.849-7.239 3.426-13.45 2.569-6.194 5.547-10.427 7.253-12.136l64.853-64.853c38.95-38.95 38.95-102.733 0-141.683l-64.853-64.853c-1.707-1.711-4.685-5.943-7.253-12.134-2.577-6.212-3.426-11.226-3.426-13.453v-91.729c0-55.215-45.043-100.271-100.267-100.271h-91.733c-2.227 0-7.241-0.849-13.449-3.426-6.195-2.569-10.428-5.542-12.139-7.253l-64.853-64.853c-38.95-38.95-102.729-38.95-141.679 0l-64.855 64.853c-1.708 1.707-5.941 4.685-12.135 7.253-6.211 2.577-11.226 3.426-13.452 3.426h-91.733c-55.222 0-100.267 45.056-100.267 100.271v91.729c0 2.534-0.902 7.68-3.426 13.773-2.554 6.157-5.423 10.044-6.807 11.375l-0.448 0.439-64.853 64.853c0 0 0 0 0 0-38.95 38.95-38.95 102.733 0 141.683 0 0 0 0 0 0l64.853 64.853c1.708 1.709 4.686 5.942 7.255 12.136 2.575 6.211 3.426 11.226 3.426 13.45v91.735c0 55.22 45.048 100.265 100.267 100.265h91.733c2.225 0 7.24 0.851 13.452 3.426 6.193 2.568 10.426 5.545 12.134 7.253 0 0 0 0 0 0l64.855 64.854zM662.626 598.627c12.497-12.497 12.497-32.758 0-45.255l-255.999-255.999c-12.497-12.497-32.758-12.497-45.255 0s-12.497 32.755 0 45.252l256.001 256.001c12.497 12.497 32.755 12.497 45.252 0zM575.77 341.333c0 23.565 19.102 42.667 42.667 42.667h0.384c23.565 0 42.667-19.102 42.667-42.667s-19.102-42.667-42.667-42.667h-0.384c-23.565 0-42.667 19.102-42.667 42.667zM362.438 554.667c0 23.564 19.102 42.667 42.667 42.667h0.383c23.564 0 42.666-19.103 42.666-42.667s-19.102-42.667-42.666-42.667h-0.383c-23.564 0-42.667 19.102-42.667 42.667z" />
<glyph unicode="&#xe930;" glyph-name="gallery" d="M132.039 827.961c56.937 56.937 142.138 78.706 251.961 78.706h256c109.824 0 195.025-21.769 251.959-78.706 56.939-56.937 78.707-142.138 78.707-251.961v-256c0-109.824-21.769-195.025-78.707-251.959-56.934-56.939-142.135-78.707-251.959-78.707h-256c-109.823 0-195.023 21.769-251.961 78.707-56.937 56.934-78.706 142.135-78.706 251.959v256c0 109.823 21.769 195.023 78.706 251.961zM177.294 782.706c-39.063-39.063-59.961-103.195-59.961-206.706v-256c0-103.509 20.898-167.642 59.961-206.707 39.063-39.061 103.195-59.959 206.706-59.959h256c103.509 0 167.642 20.898 206.707 59.959 39.061 39.066 59.959 103.198 59.959 206.707v256c0 103.511-20.898 167.643-59.959 206.706-39.066 39.063-103.198 59.961-206.707 59.961h-256c-103.511 0-167.643-20.898-206.706-59.961zM384 672c-29.455 0-53.333-23.878-53.333-53.333s23.878-53.333 53.333-53.333c29.455 0 53.333 23.878 53.333 53.333s-23.878 53.333-53.333 53.333zM266.667 618.667c0 64.801 52.532 117.333 117.333 117.333s117.333-52.532 117.333-117.333c0-64.801-52.531-117.333-117.333-117.333s-117.333 52.532-117.333 117.333zM848.269 402.372c-21.286 18.287-57.331 18.287-78.618 0l-177.493-152.32c-0.004 0 0.004 0.004 0 0-45.274-38.878-116.753-38.882-162.022 0l-0.273 0.239-13.929 12.241c-19.133 16.329-51.83 18.334-73.839 3.567l-210.337-141.218c-14.673-9.852-34.553-5.943-44.404 8.73s-5.943 34.551 8.73 44.403l210.347 141.227c45.358 30.43 109.86 27.362 151.333-8.269l0.269-0.23 13.926-12.241c21.303-18.185 57.25-18.15 78.498 0.102l177.493 152.32c0.004 0.004-0.004-0.004 0 0 45.274 38.878 116.753 38.882 162.022 0 0 0 0 0 0 0l69.547-59.733c13.406-11.516 14.938-31.718 3.422-45.124-11.511-13.406-31.714-14.942-45.124-3.426l-69.547 59.733z" />
<glyph unicode="&#xe932;" glyph-name="link" d="M320 800c-111.569 0-202.667-91.449-202.667-202.667 0-48.905 17.623-93.798 46.791-128.875 11.3-13.585 9.445-33.762-4.144-45.065-13.588-11.298-33.765-9.442-45.065 4.147-38.245 45.99-61.582 105.203-61.582 169.792 0 146.489 119.676 266.667 266.667 266.667h213.333c146.526 0 266.667-120.14 266.667-266.667 0-146.487-119.676-266.667-266.667-266.667h-106.667c-17.673 0-32 14.327-32 32s14.327 32 32 32h106.667c111.569 0 202.667 91.447 202.667 202.667 0 111.18-91.486 202.667-202.667 202.667h-213.333zM490.667 501.333c-111.569 0-202.667-91.447-202.667-202.667 0-111.181 91.486-202.667 202.667-202.667h213.333c111.569 0 202.667 91.447 202.667 202.667 0 48.905-17.621 93.798-46.793 128.875-11.298 13.585-9.442 33.762 4.147 45.065 13.585 11.298 33.762 9.442 45.065-4.147 38.242-45.99 61.581-105.203 61.581-169.792 0-146.487-119.676-266.667-266.667-266.667h-213.333c-146.526 0-266.667 120.141-266.667 266.667 0 146.487 119.676 266.667 266.667 266.667h106.667c17.673 0 32-14.327 32-32s-14.327-32-32-32h-106.667z" />
<glyph unicode="&#xe933;" glyph-name="location" d="M512.017 621.25c-55.846 0-101.121-45.273-101.121-101.122 0-55.846 45.275-101.12 101.121-101.12s101.12 45.274 101.12 101.12c0 55.849-45.274 101.122-101.12 101.122zM346.896 520.128c0 91.195 73.927 165.122 165.121 165.122 91.191 0 165.12-73.927 165.12-165.122 0-91.191-73.929-165.12-165.12-165.12-91.194 0-165.121 73.929-165.121 165.12zM512.145 842.667c145.792-0.099 288.29-84.894 326.199-252.397v-0.002c45.107-199.245-78.336-371.627-194.901-483.558l-0.055-0.060c-73.323-70.767-189.376-70.852-263.211 0.030-116.143 111.936-239.609 284.74-194.508 484.002 38.111 167.492 180.697 252.084 326.476 251.985zM900.766 604.399c-45.717 201.989-218.739 302.153-388.574 302.268-169.842 0.115-342.984-99.82-388.933-301.809l-0.008-0.033c-53.022-234.218 93.153-429.192 212.524-544.239l0.040-0.038c98.535-94.635 253.807-94.716 352 0.038 119.799 115.055 265.971 309.594 212.949 543.812z" />
<glyph unicode="&#xe934;" glyph-name="login" d="M472.533 778.424c-33.724-27.364-54.718-71.633-60.92-143.657-1.516-17.608-17.019-30.653-34.627-29.137s-30.653 17.020-29.137 34.627c7.025 81.577 32.111 145.468 84.36 187.863 51.366 41.679 123.153 57.711 212.48 57.711h5.547c98.526 0 175.829-19.532 227.695-71.399 51.87-51.867 71.398-129.169 71.398-227.694v-278.188c0-98.526-19.529-175.825-71.398-227.695-51.866-51.866-129.169-71.398-227.695-71.398h-5.547c-88.678 0-160.034 15.817-211.294 56.828-52.187 41.745-77.604 104.708-85.1 185.109-1.64 17.596 11.295 33.19 28.892 34.833 17.597 1.638 33.192-11.294 34.832-28.894 6.585-70.635 27.673-114.129 61.354-141.073 34.607-27.686 88.478-42.803 171.315-42.803h5.547c92.198 0 148.442 18.654 182.443 52.655 33.997 34.001 52.651 90.244 52.651 182.438v278.188c0 92.195-18.654 148.439-52.651 182.439-34.001 34-90.244 52.654-182.443 52.654h-5.547c-83.469 0-137.549-15.328-172.156-43.409zM53.333 448c0 17.673 14.327 32 32 32h549.547c17.673 0 32-14.327 32-32s-14.327-32-32-32h-549.547c-17.673 0-32 14.327-32 32zM517.103 613.627c12.497 12.497 32.755 12.497 45.252 0l142.933-142.933c12.497-12.497 12.497-32.759 0-45.257l-142.933-142.933c-12.497-12.497-32.755-12.497-45.252 0s-12.497 32.759 0 45.257l120.303 120.307-120.303 120.304c-12.497 12.497-12.497 32.758 0 45.255z" />
<glyph unicode="&#xe935;" glyph-name="menu" d="M96 661.333c0 17.673 14.327 32 32 32h768c17.673 0 32-14.327 32-32s-14.327-32-32-32h-768c-17.673 0-32 14.327-32 32zM96 448c0 17.673 14.327 32 32 32h768c17.673 0 32-14.327 32-32s-14.327-32-32-32h-768c-17.673 0-32 14.327-32 32zM96 234.667c0 17.673 14.327 32 32 32h768c17.673 0 32-14.327 32-32s-14.327-32-32-32h-768c-17.673 0-32 14.327-32 32z" />
<glyph unicode="&#xe936;" glyph-name="messages" d="M217.79 542.403c31.575 12.402 66.063 19.089 102.203 19.089 145.308 0 266.665-110.454 266.665-251.305 0-38.157-9.161-74.342-25.459-106.667 0.239 0 0.478 0 0.713 0 5.756 0 11.405-1.549 16.35-4.489l179.004-106.377c7.031-4.262 16.768 1.169 15.654 10.581 0 0.009 0-0.009 0 0l-16.631 134.763c-1.451 11.746 3.699 23.33 13.393 30.123 83.622 58.62 136.977 151.219 136.977 254.972 0 174.422-152.094 319.573-344.747 319.573-185.492 0-333.39-134.569-344.121-300.264zM153.167 523.093c0 213.846 184.971 383.573 408.745 383.573 223.778 0 408.747-169.728 408.747-383.573 0-119.829-58.423-225.967-148.561-295.817l14.362-116.356c7.39-61.346-58.692-105.365-112.213-73.092-0.047 0.026-0.090 0.055-0.137 0.081l-171.127 101.696c-17.941 0.333-35.61 1.677-52.992 4.049-11.584 1.579-21.389 9.353-25.566 20.275s-2.061 23.253 5.517 32.162c26.978 31.718 42.718 71.411 42.718 114.095 0 101.5-88.559 187.307-202.665 187.307-43.337 0-82.912-12.301-115.648-33.634-9.265-6.042-20.992-6.865-31.012-2.185-10.020 4.676-16.914 14.199-18.232 25.178-1.479 12.331-1.935 24.35-1.935 36.241zM320 497.502c-43.337 0-82.912-12.305-115.648-33.638l-0.242-0.158v0.004c-53.083-33.916-86.775-90.308-86.775-153.515 0-60.305 30.797-114.419 80.112-148.646 9.798-6.801 15.002-18.483 13.5-30.319l-9.259-72.96 101.974 60.561c4.945 2.935 10.589 4.484 16.34 4.484 65.783 0 123.627 28.77 159.637 72.418l0.307 0.371v-0.004c26.978 31.718 42.722 71.411 42.722 114.095 0 101.5-88.563 187.307-202.667 187.307zM169.53 517.564c43.186 28.109 94.872 43.936 150.47 43.936 145.31 0 266.667-110.458 266.667-251.305 0-58.778-21.743-112.883-57.813-155.379-46.746-56.542-119.127-92.834-199.83-95.36l-103.877-61.687c-42.335-25.737-93.952 9.929-88.394 57.178l0.034 0.29h0.001l8.33 65.638c-56.022 45.521-91.784 113.212-91.784 189.321 0 86.929 46.467 162.765 116.196 207.369z" />
<glyph unicode="&#xe937;" glyph-name="smart-car" d="M190.091 625.755c24.046 23.629 58.209 34.418 103.030 34.418h224.853c44.856 0 78.897-10.807 102.925-34.418 22.964-22.567 31.628-52.15 37.158-76.461l0.053-0.244 36.263-165.286c2.168-9.879-0.258-20.204-6.594-28.084-6.34-7.88-15.908-12.462-26.019-12.462h-512.001c-10.113 0-19.68 4.581-26.019 12.462s-8.764 18.205-6.597 28.084l36.233 165.128c5.155 24.608 13.677 54.226 36.713 76.863zM236.898 578.121c-8.166-8.024-13.524-20.769-18.186-43.062l-0.068-0.323h-0.001l-27.37-124.737h428.977l-27.345 124.612c-5.133 22.548-10.543 35.379-18.815 43.508-7.226 7.1-21.611 15.27-56.115 15.27h-224.853c-34.539 0-49.016-8.188-56.223-15.27zM136.063 290.090l-17.945-186.769c-1.46-13.659 10.471-29.99 31.649-29.99h60.16c6.063 0 9.48 0.548 11.19 0.971 0.672 1.518 1.438 3.664 2.853 7.822l0.078 0.232 6.461 18.534c0.196 0.552 0.401 1.135 0.614 1.745 3.592 10.236 9.824 28 24.753 41.472 17.094 15.427 39.905 21.050 67.117 21.050h163.838c26.361 0 49.219-4.75 66.538-20.053 14.941-13.201 21.308-31.147 25.128-41.917 0.267-0.752 0.521-1.474 0.766-2.15l0.116-0.321 6.278-18.018c1.701-4.546 2.498-6.656 3.344-8.366 1.576-0.423 4.871-1.002 10.899-1.002h60.162c20.743 0 32.951 16.028 31.615 30.342 0 0.013 0-0.013 0 0l-18.33 186.328c0 0.018-0.004 0.040-0.004 0.058-2.431 23.832-5.53 34.242-10.935 40.386-4.051 4.604-15.516 13.205-53.546 13.205h-408.321c-38.033 0-49.495-8.602-53.546-13.205-5.406-6.14-8.503-16.544-10.931-40.355zM96.86 374.566c22.615 25.698 57.66 35.867 103.68 35.867h408.321c46.018 0 81.065-10.169 103.678-35.867 21.255-24.153 24.986-55.563 27.247-77.806l0.013-0.111 18.356-186.617c5.463-57.504-42.060-103.482-98.095-103.482h-60.162c-21.406 0-40.88 4.381-55.83 17.951-12.413 11.268-17.822 26.165-20.484 33.489-0.223 0.623-0.432 1.189-0.619 1.696l-0.249 0.69-6.344 18.205c-2.382 6.616-3.762 10.347-5.258 13.352-1.287 2.591-1.959 3.125-1.963 3.125-0.036 0.031-0.187 0.165-0.597 0.383-0.45 0.232-1.358 0.641-2.952 1.086-3.344 0.931-9.131 1.848-18.77 1.848h-163.838c-9.35 0-15.025-0.993-18.314-1.968-2.959-0.882-3.874-1.71-4.055-1.874-1.142-1.028-2.557-2.961-7.143-15.881l-6.327-18.152c-0.145-0.427-0.299-0.89-0.464-1.385-2.567-7.693-7.734-23.178-20.722-34.865-15.105-13.592-34.808-17.702-56.042-17.702h-60.16c-55.559 0-104.164 45.599-98.076 103.673l17.923 186.537c2.263 22.243 5.993 53.653 27.246 77.806zM83.935 468.346c0 18.441 14.95 33.393 33.391 33.393h32c18.442 0 33.391-14.952 33.391-33.393s-14.95-33.391-33.391-33.391h-32c-18.441 0-33.391 14.95-33.391 33.391zM627.935 468.346c0 18.441 14.95 33.393 33.391 33.393h32.002c18.441 0 33.391-14.952 33.391-33.393s-14.95-33.391-33.391-33.391h-32.002c-18.441 0-33.391 14.95-33.391 33.391zM179.935 254.086c0 18.441 14.95 33.391 33.391 33.391h96c18.442 0 33.391-14.95 33.391-33.391s-14.95-33.391-33.391-33.391h-96c-18.441 0-33.391 14.95-33.391 33.391zM467.937 254.086c0 18.441 14.946 33.391 33.391 33.391h95.998c18.441 0 33.391-14.95 33.391-33.391s-14.95-33.391-33.391-33.391h-95.998c-18.445 0-33.391 14.95-33.391 33.391zM811.155 694.039c-27.127 39.095-70.189 63.399-113.148 62.82-18.441-0.248-33.187-15.398-32.937-33.838 0.245-18.44 15.396-33.187 33.837-32.939 17.582 0.237 41.031-10.504 57.433-34.187l-0.004-0.001 0.178-0.248c16.843-23.858 17.466-47.288 11.335-60.896-7.569-16.815-0.080-36.585 16.736-44.158s36.588-0.080 44.161 16.735c17.742 39.405 9.87 87.741-17.591 126.712zM676.815 859.861c2.133 18.318 18.712 31.437 37.029 29.303 76.675-8.932 153.239-54.501 203.985-127.083 50.688-72.503 66.32-158.348 45.23-230.88-5.151-17.708-23.681-27.889-41.387-22.739s-27.888 23.678-22.737 41.387c14.746 50.719 4.777 115.874-35.84 173.967-40.559 58.015-100.53 92.439-156.975 99.015-18.321 2.134-31.437 18.713-29.304 37.031z" />
<glyph unicode="&#xe938;" glyph-name="star" d="M585.809 810.13l75.093-150.187c10.24-20.906 37.549-40.96 60.589-44.8l136.102-22.613c87.040-14.507 107.52-77.653 44.8-139.947l-105.811-105.813c-17.92-17.92-27.731-52.479-22.189-77.228l30.298-130.989c23.891-103.68-31.149-143.782-122.88-89.6l-127.575 75.52c-23.040 13.658-61.013 13.658-84.48 0l-127.573-75.52c-91.307-54.182-146.774-13.651-122.88 89.6l30.293 130.989c5.547 24.749-4.267 59.308-22.187 77.228l-105.813 105.813c-62.293 62.294-42.24 125.44 44.8 139.947l136.107 22.613c22.613 3.84 49.92 23.894 60.16 44.8l75.093 150.187c40.96 81.493 107.52 81.493 148.053 0zM480.648 788.574c-0.008-0.015 0.008 0.015 0 0l-74.976-149.951c-9.428-19.137-24.756-34.84-39.856-46.037-15.16-11.24-34.552-21.246-55.273-24.765l-0.169-0.029-136.083-22.609c-0.008-0.001 0.008 0.001 0 0-35.172-5.868-40.334-18.582-40.566-19.308-0.246-0.771-3.379-14.156 21.816-39.351l105.813-105.813c16.154-16.153 26.488-37.185 32.099-56.785 5.617-19.619 7.932-42.806 2.985-64.88l-0.071-0.32-30.294-130.982c-5.006-21.638-4.988-36.531-3.303-45.549 1.063-5.683 2.525-7.994 3.087-8.685 0.829-0.326 3.496-1.030 9.3-0.301 9.146 1.139 23.388 5.664 42.532 17.024l127.931 75.731c20.755 12.077 44.951 16.749 66.54 16.749 21.544 0 45.818-4.659 66.55-16.941l127.517-75.488c19.309-11.405 33.658-15.981 42.88-17.146 5.632-0.717 8.307-0.090 9.203 0.237 0.576 0.749 1.952 3.072 2.963 8.544 1.67 9.062 1.67 24.032-3.347 45.824zM757.926 127.744l-30.368 131.302c-4.947 22.074-2.63 45.261 2.989 64.88 5.613 19.6 15.942 40.632 32.096 56.785l105.933 105.929c25.357 25.184 22.099 38.49 21.888 39.148-0.25 0.765-5.51 13.516-40.73 19.391-0.013 0.001 0.006-0.001 0 0l-136.109 22.614c-20.883 3.481-40.422 13.437-55.725 24.727-15.213 11.227-30.565 26.952-40 46.104l-75.065 150.13c-16.797 33.772-30.78 34.496-30.889 34.496-0.196 0-14.299-0.876-31.299-34.676zM628.756 831.575c-23.74 47.691-63.292 87.675-116.81 87.675-53.457 0-93.126-39.916-117.075-87.564l-75.313-150.629c-0.821-1.676-4.21-6.38-10.922-11.356-6.659-4.937-12.196-6.886-14.126-7.228l-135.978-22.592c-51.847-8.641-100.277-34.756-116.258-84.803-15.967-50.001 8.285-99.336 45.384-136.436l105.813-105.81c1.767-1.773 5.299-6.976 7.688-15.328 2.356-8.23 2.205-14.643 1.622-17.37l-30.24-130.758c0.001 0.006 0 0 0 0-12.941-55.93-10.327-119.11 36.712-153.434 46.988-34.285 107.956-17.613 157.384 11.712zM366.638 7.654l127.356 75.386c2.767 1.574 9.245 3.674 18.166 3.674 9.069 0 15.302-2.163 17.61-3.533l127.594-75.526c49.414-29.19 110.502-46.17 157.53-11.885 47.104 34.342 49.453 97.677 36.576 153.568l-30.253 130.797c-0.582 2.726-0.73 9.139 1.626 17.37 2.387 8.352 5.92 13.555 7.686 15.328l105.696 105.695c0.019 0.019 0.038 0.037 0.058 0.056 37.331 37.103 61.677 86.492 45.574 136.582-16.070 50.008-64.57 76.079-116.365 84.712l-136.109 22.613c0 0 0 0 0 0-2.157 0.36-7.814 2.355-14.483 7.277-6.701 4.946-10.074 9.629-10.886 11.29l-75.222 150.449c-0.011 0.023-0.022 0.046-0.034 0.069z" />
<glyph unicode="&#xe939;" glyph-name="star-o" d="M466.351 795.843c18.163 36.125 36.523 43.491 45.594 43.491 9.015 0 27.264-7.274 45.214-43.371l75.072-150.143c8-16.258 21.363-30.156 35.17-40.342 13.862-10.228 31.083-18.857 48.845-21.818l136.107-22.613c0.009-0.001-0.004 0.001 0 0 37.99-6.335 50.458-21.307 53.342-30.277 2.859-8.9 1.51-28.228-25.843-55.398l-105.894-105.89c-13.756-13.756-22.955-32.149-28.028-49.873-5.077-17.741-6.98-38.14-2.756-56.981l30.336-131.174c11.324-49.139-0.085-66.825-5.747-70.955-5.717-4.164-26.193-9.583-69.675 16.094-0.009 0.004 0.009-0.004 0 0l-127.548 75.507c-0.004 0 0.004-0.004 0 0-17.66 10.458-38.921 14.703-58.381 14.703-19.494 0-40.747-4.254-58.492-14.579l-127.812-75.665c-43.131-25.596-63.626-20.156-69.447-15.906-5.795 4.228-17.207 22.025-5.925 70.78l30.341 131.196c4.223 18.842 2.324 39.241-2.754 56.981-5.074 17.724-14.275 36.117-28.030 49.873l-105.813 105.813c-27.179 27.179-28.611 46.554-25.744 55.531 2.856 8.946 15.221 23.895 53.177 30.224 0.005 0.001-0.006-0.001 0 0l136.203 22.629c17.583 2.986 34.671 11.648 48.422 21.844 13.711 10.166 27.062 24.051 35.055 40.3l75.011 150.021c0.004 0.008-0.004-0.008 0 0zM614.451 824.492c-22.583 45.382-57.877 78.841-102.507 78.841-44.578 0-79.983-33.402-102.778-78.749l-75.24-150.481c-2.254-4.602-7.642-11.151-15.761-17.171-8.092-5.999-15.941-9.283-20.973-10.149-0.015-0.003-0.030-0.005-0.045-0.008l-135.994-22.595c-49.071-8.178-90.282-32.059-103.639-73.886-13.347-41.797 6.341-85.142 41.456-120.257l105.813-105.813c4.164-4.164 8.83-12.006 11.756-22.229 2.908-10.159 3.154-19.375 1.851-25.284-0.006-0.030-0.012-0.055-0.018-0.085l-30.244-130.769c0 0 0-0.004 0 0-12.61-54.498-8.236-108.604 30.554-136.905 38.767-28.288 91.657-16.021 139.833 12.57l127.333 75.379c0.030 0.017 0.055 0.030 0.081 0.047 5.726 3.307 15.159 5.854 26.227 5.854 11.149 0 20.39-2.581 25.766-5.769l127.586-75.529c48.235-28.493 101.188-40.981 139.951-12.723 38.818 28.301 42.982 82.505 30.413 137.045l-30.251 130.799c-0.004 0.030-0.013 0.055-0.017 0.085-1.306 5.909-1.058 15.125 1.852 25.284 2.923 10.223 7.59 18.065 11.755 22.229l105.737 105.737c0.013 0.017 0.030 0.030 0.043 0.047 35.337 35.11 55.087 78.49 41.63 120.345-13.436 41.801-54.724 65.652-103.761 73.826l-136.107 22.613c0.004-0.001-0.009 0.001 0 0zM614.451 824.492c0.004-0.009-0.004 0.009 0 0z" />
<glyph unicode="&#xe93a;" glyph-name="timer" d="M85.333 394.667c0 235.535 191.131 426.667 426.667 426.667s426.667-191.131 426.667-426.667c0-235.537-191.13-426.667-426.667-426.667-235.535 0-426.667 191.13-426.667 426.667zM512 778.667c-211.971 0-384-172.029-384-384s172.029-384 384-384c211.972 0 384 172.028 384 384s-172.028 384-384 384zM512 714.667c-176.625 0-320-143.375-320-320 0-176.623 143.375-320 320-320 176.623 0 320 143.377 320 320 0 176.625-143.377 320-320 320zM149.333 394.667c0 200.189 162.478 362.667 362.667 362.667s362.667-162.478 362.667-362.667c0-200.188-162.479-362.667-362.667-362.667-200.189 0-362.667 162.479-362.667 362.667zM458.667 618.667c0 29.455 23.876 53.333 53.333 53.333s53.333-23.878 53.333-53.333v-213.333c0-29.457-23.876-53.333-53.333-53.333s-53.333 23.876-53.333 53.333v213.333zM512 629.333c-5.892 0-10.667-4.776-10.667-10.667v-213.333c0-5.892 4.774-10.667 10.667-10.667s10.667 4.774 10.667 10.667v213.333c0 5.891-4.774 10.667-10.667 10.667zM330.667 874.667c0 29.455 23.878 53.333 53.333 53.333h256c29.457 0 53.333-23.878 53.333-53.333s-23.876-53.333-53.333-53.333h-256c-29.455 0-53.333 23.878-53.333 53.333zM384 885.333c-5.891 0-10.667-4.776-10.667-10.667s4.776-10.667 10.667-10.667h256c5.892 0 10.667 4.776 10.667 10.667s-4.774 10.667-10.667 10.667h-256z" />
<glyph unicode="&#xe93b;" glyph-name="undo" d="M144.208 316.834c0-17.673 14.327-32 32-32h469.334c129.724 0 245.333 88.755 245.333 209.777s-115.61 209.777-245.333 209.777h-341.334c-17.673 0-32-14.327-32-32s14.327-32 32-32h341.334c105.796 0 181.333-70.532 181.333-145.777s-75.537-145.777-181.333-145.777h-469.334c-17.673 0-32-14.327-32-32zM298.935 203.183c11.314 13.577 9.48 33.754-4.097 45.069l-79.727 66.436 79.727 66.441c13.577 11.315 15.411 31.492 4.097 45.069s-31.492 15.411-45.069 4.096l-109.227-91.021c-7.296-6.080-11.514-15.087-11.514-24.585 0-9.493 4.218-18.5 11.514-24.58l109.227-91.025c13.577-11.311 33.755-9.476 45.069 4.1z" />
<glyph unicode="&#xe93c;" glyph-name="user-edit" d="M512 842.667c-100.148 0-181.333-81.186-181.333-181.333s81.186-181.333 181.333-181.333c100.147 0 181.333 81.186 181.333 181.333s-81.186 181.333-181.333 181.333zM266.667 661.333c0 135.494 109.839 245.333 245.333 245.333 135.492 0 245.333-109.839 245.333-245.333 0-135.492-109.841-245.333-245.333-245.333-135.494 0-245.333 109.841-245.333 245.333zM859.038 344.422c28.297 2.91 54.336-9.801 77.525-32.99 23.317-23.322 36.181-49.417 33.374-77.781-2.637-26.671-18.543-47.364-33.374-62.195l-150.716-150.716c-6.255-6.554-13.952-11.319-20.271-14.477-6.652-3.328-14.733-6.345-22.865-7.629l-0.529-0.081-57.536-8.094c-0.013-0.004 0.013 0 0 0-18.837-2.684-38.293 2.27-52.326 16.303-14.033 14.037-18.991 33.455-16.307 52.292 0 0.013-0.004-0.013 0 0l8.175 58.099c1.306 8.265 4.39 16.299 7.697 22.839 3.311 6.545 8.017 13.897 14.089 19.968l151.040 151.044c14.835 14.831 35.482 30.69 62.025 33.417zM865.579 280.759c-4.604-0.474-12.117-3.814-23.309-15.010l-150.985-150.985c-0.021-0.026-0.26-0.299-0.657-0.875-0.508-0.734-1.079-1.69-1.634-2.786-0.555-1.092-0.986-2.125-1.28-2.97-0.183-0.529-0.273-0.862-0.303-0.99l-7.42-52.71 52.74 7.424c0.132 0.030 0.525 0.128 1.156 0.346 0.913 0.316 1.984 0.759 3.072 1.301 1.092 0.55 1.967 1.079 2.547 1.481 0.137 0.094 0.235 0.171 0.307 0.222 0.149 0.158 0.299 0.311 0.452 0.465l151.040 151.036c11.196 11.196 14.49 18.667 14.942 23.249 0.286 2.889 0.137 11.14-14.942 26.219-14.784 14.784-22.878 14.874-25.728 14.583zM789.321 297.489c17.028 4.732 34.667-5.239 39.394-22.268 9.796-35.264 37.184-62.652 72.452-72.448 17.028-4.732 26.999-22.37 22.268-39.398s-22.37-26.999-39.398-22.268c-56.892 15.804-101.18 60.092-116.988 116.988-4.727 17.028 5.244 34.667 22.272 39.394zM512.009 288c-191.025 0-334.508-125.052-334.508-266.667 0-17.673-14.327-32-32-32s-32 14.327-32 32c0 188.625 185.052 330.667 398.508 330.667 47.45 0 93.222-6.844 135.945-19.703 16.922-5.099 26.509-22.946 21.414-39.868s-22.942-26.513-39.868-21.414c-36.638 11.029-76.194 16.986-117.491 16.986z" />
</font>
</defs>
</svg>
